<svg width="77" height="212" viewBox="0 0 77 212" fill="none" xmlns="http://www.w3.org/2000/svg">
<path d="M26.3829 1.51402C26.3829 1.51402 32.539 -0.684552 36.4964 8.10975C40.4538 16.9041 46.6099 26.5778 46.6099 26.5778L43.0921 27.4573C43.0921 27.4573 42.2127 21.3012 40.0141 20.4218L40.8936 28.3367C40.8936 28.3367 14.5106 37.5707 2.63831 27.4573L3.07803 24.3792C3.07803 24.3792 1.31917 24.819 1.31917 27.4573L2.67029e-05 26.1381C2.67029e-05 26.1381 1.31917 23.4998 5.27663 19.9821C7.87412 17.6732 8.76675 13.2806 9.07346 10.5342C9.30326 8.24101 10.2208 6.07078 11.7057 4.30816C14.3356 1.26024 19.1276 -1.97928 26.3829 1.51402Z" fill="#2F2E41"/>
<path d="M62.5376 76.9562L56.7812 84.2826L53.1175 80.0958L56.2576 74.8625L62.5376 76.9562Z" fill="#FBBEBE"/>
<path d="M64.6309 189.471L66.7241 200.46L61.4909 203.077L57.8277 200.46V189.471H64.6309Z" fill="#FBBEBE"/>
<path d="M27.9981 189.471L25.9044 200.46L31.1376 203.077L34.8013 200.46V189.471H27.9981Z" fill="#FBBEBE"/>
<path d="M49.4543 90.5627L56.7812 142.895L67.2476 190.518L54.6875 192.088L44.7442 147.605L32.1847 109.926L33.7547 154.932L36.371 192.088H26.9514L20.1482 141.848L12.6253 104.496L12.8218 90.5627H49.4543Z" fill="#2F2E41"/>
<path d="M63.0608 199.414C63.0608 199.414 65.6775 196.274 67.2475 197.844C68.8174 199.414 72.4807 205.694 72.4807 205.694C72.4807 205.694 80.8539 210.404 74.0507 211.451C67.2475 212.497 65.1542 211.451 65.1542 210.928C65.1542 210.404 64.1075 208.834 64.1075 208.834L61.4909 209.358L57.8276 208.311C57.8276 208.311 56.2577 198.669 57.8276 199.041C59.3976 199.414 62.5375 200.984 63.0608 199.414Z" fill="#2F2E41"/>
<path d="M29.568 199.414C29.568 199.414 26.9513 196.274 25.3814 197.844C23.8114 199.414 20.1481 205.694 20.1481 205.694C20.1481 205.694 11.7749 210.404 18.5782 211.451C25.3814 212.497 27.4747 211.451 27.4747 210.928C27.4747 210.404 28.5214 208.834 28.5214 208.834L31.138 209.358L34.8013 208.311C34.8013 208.311 36.3712 198.669 34.8013 199.041C33.2313 199.414 30.0913 200.984 29.568 199.414Z" fill="#2F2E41"/>
<path d="M24.5965 28.5485C18.816 28.5485 14.13 23.8625 14.13 18.082C14.13 12.3015 18.816 7.61548 24.5965 7.61548C30.377 7.61548 35.063 12.3015 35.063 18.082C35.063 23.8625 30.377 28.5485 24.5965 28.5485Z" fill="#FBBEBE"/>
<path d="M17.5317 24.624C17.5317 24.624 18.5783 33.5205 18.055 35.6138C17.5317 37.7071 16.4851 40.8471 16.4851 40.8471L33.2314 37.7071C33.2314 37.7071 28.5215 27.764 29.5682 26.194C30.6148 24.624 17.5317 24.624 17.5317 24.624Z" fill="#FBBEBE"/>
<path d="M15.9619 37.1835L33.2316 33.5203L43.1748 94.2259C38.6928 93.0021 33.9431 93.1848 29.5684 94.7493C22.2418 97.3659 12.2987 94.7493 12.2987 94.7493L14.392 37.7069L15.9619 37.1835Z" fill="#EE5239"/>
<path d="M29.7136 28.7124L35.8477 31.9504L43.6976 33.5204L52.0708 53.4067L51.0241 67.5365C51.0241 67.5365 59.9206 83.7596 60.9673 92.6561C60.9673 92.6561 59.9206 106.262 42.6509 105.739L31.1378 73.8164C31.1378 73.8164 26.4279 49.7435 31.1378 42.9402C31.1378 42.9402 27.7662 30.1843 29.7136 28.7124Z" fill="#2F2E41"/>
<path d="M40.5577 33.5205L42.2522 33.2314L43.6976 33.5205C43.6976 33.5205 47.3609 34.0439 51.5475 37.7071C55.7341 41.3704 69.8639 52.8836 70.9105 56.0235C71.9572 59.1634 71.4339 64.3967 69.8639 67.5366C68.2939 70.6766 65.154 74.8632 65.154 74.8632L63.584 78.5265L54.6875 75.9098C54.6875 75.9098 60.4441 64.92 59.9207 60.2101L49.4542 51.8369L40.5577 33.5205Z" fill="#2F2E41"/>
<path d="M18.1112 31.0781L10.2051 40.8467L6.0185 46.0799L11.2517 63.873L13.8684 79.0494C13.8684 79.0494 7.58849 103.122 12.8217 110.449C12.8217 110.449 15.9617 114.112 17.0083 109.926C18.055 105.739 18.055 85.8527 18.055 85.8527C18.055 85.8527 22.2415 59.6864 20.1483 52.8832C18.055 46.08 20.2606 32.2994 18.1112 31.0781Z" fill="#2F2E41"/>
<path d="M10.7285 106.786V112.019C10.7285 112.019 11.7752 129.289 6.54193 127.195C1.30868 125.102 4.97197 112.019 4.97197 112.019L5.4953 106.262L10.7285 106.786Z" fill="#FBBEBE"/>
<path d="M36.2636 18.6403C32.2833 15.7597 29.0613 12.4418 26.9299 8.49503C26.9299 8.49503 19.6253 16.6112 15.1614 17.0171C10.6975 17.4229 14.7556 7.27759 14.7556 7.27759L22.8718 5.24854L30.5823 6.06016L36.6694 10.1183L36.2636 18.6403Z" fill="#2F2E41"/>
<path d="M10.2051 44.5098L6.01868 46.0798L5.49502 51.313L3.40185 83.2359L4.44869 107.309L12.2982 107.832L14.9151 81.1427L15.9614 51.8367L10.2051 44.5098Z" fill="#2F2E41"/>
</svg>
