<svg width="693" height="778" viewBox="0 0 693 778" fill="none" xmlns="http://www.w3.org/2000/svg">
<path d="M693 742.58L562.078 777.241C514.659 774.761 468.422 762.867 423.605 748.109C298.364 706.832 180.056 641.661 88.1579 548.353C47.8548 507.394 11.7282 458.784 2.64382 401.741C-6.44055 344.698 18.6469 278.426 72.1688 254.333C94.3032 244.362 118.927 242.267 142.988 240.45C178.411 237.772 214.355 235.306 248.062 223.584C282.881 211.478 330.722 183.991 309.952 122.506C280.983 36.8485 331.102 24.5833 357.356 13.2595C415.814 -10.0377 462.234 2.86397 514.294 10.8861C514.294 10.8861 688.556 41.2241 693.014 191.841" fill="white"/>
</svg>
