<svg width="266" height="178" viewBox="0 0 266 178" fill="none" xmlns="http://www.w3.org/2000/svg">
<path d="M114.966 167.263C114.71 166.334 114.454 165.394 113.941 164.585C113.466 163.9 112.902 163.281 112.263 162.745C110.406 161.055 108.126 159.34 105.663 159.766C104.902 159.935 104.166 160.205 103.475 160.567C103.117 160.734 102.756 160.901 102.387 161.042C101.348 161.477 100.2 161.578 99.1021 161.33C98.5384 161.178 98.0132 160.906 97.4572 160.737C97.1932 160.657 96.9234 160.599 96.6502 160.562C97.1873 160.321 97.7085 160.046 98.2105 159.738C100.972 158.044 103.176 154.981 102.868 151.705C102.763 150.603 102.387 149.548 102.013 148.508L101.029 145.782C100.603 144.601 100.163 143.397 99.3864 142.416C98.523 141.322 97.2933 140.58 96.0225 140.028C93.2939 138.84 90.3117 138.421 87.3679 138.015L87.1629 137.987V106.118C87.1629 105.573 86.947 105.051 86.5626 104.666C86.1782 104.281 85.6569 104.064 85.1133 104.064H81.2446C81.0737 103.017 80.9029 101.971 80.7321 100.927C80.2454 97.9461 79.7406 94.9114 78.3699 92.2285C77.4732 90.4724 76.0462 88.7959 74.122 88.4519C73.7439 88.4177 73.3723 88.3313 73.0178 88.1951C72.4542 87.9179 72.1467 87.3017 71.7137 86.8473C70.5967 85.674 68.7802 85.656 67.2839 85.0501C65.9619 84.5238 64.8807 83.5328 63.6765 82.7702C62.4724 82.0077 60.9761 81.466 59.6439 81.9615C59.6439 82.0591 59.6259 82.1566 59.6157 82.2516L58.76 81.8562C57.8376 81.4275 56.8974 80.9885 56.1569 80.285C55.2064 79.3864 54.6991 78.1951 54.3046 76.9294C54.2636 76.7985 54.2251 76.6727 54.1841 76.5315C55.8218 74.8572 56.9304 72.7363 57.3713 70.4339L57.5789 71.1091C57.6256 71.2609 57.6803 71.41 57.7428 71.5559C57.8488 71.838 58.0252 72.0882 58.2552 72.2824C58.3209 72.3341 58.3933 72.3764 58.4705 72.4082C58.5412 72.4364 58.6153 72.4553 58.6908 72.4647C58.7972 72.4779 58.9051 72.4701 59.0085 72.4416C59.1817 72.3879 59.3407 72.2958 59.4738 72.1723C59.6068 72.0488 59.7104 71.8969 59.7771 71.7279C59.818 71.6269 59.848 71.5219 59.8668 71.4147C59.8767 71.35 59.8827 71.2849 59.8847 71.2195C59.8847 71.199 59.8847 71.1785 59.8847 71.1579C59.8847 71.1374 59.8847 71.0681 59.8847 71.0244C59.8847 70.9808 59.8847 70.9782 59.8847 70.9525C59.8847 70.9268 59.8847 70.8678 59.8719 70.8242V70.7574C59.8719 70.7061 59.8565 70.6547 59.8463 70.6059C59.836 70.5571 59.8463 70.5777 59.8463 70.5648C59.8335 70.5007 59.8181 70.4339 59.8053 70.3697C59.8053 70.3543 59.8053 70.3363 59.8053 70.3209C59.8053 70.3055 59.7822 70.2157 59.7694 70.1618C59.7566 70.1079 59.7515 70.0924 59.7438 70.0565V70.0411C59.7182 69.9384 59.6951 69.8383 59.6721 69.7356C59.4858 68.8445 59.4383 67.93 59.5311 67.0244C59.6845 65.6954 59.9293 64.3786 60.2639 63.0835L60.3177 62.8498C60.3382 62.76 60.3587 62.6701 60.3766 62.5777C60.4176 62.3928 60.4586 62.208 60.497 62.0206L60.5893 61.5482L60.6585 61.1271V61.0732C60.8023 60.1191 60.8324 59.1512 60.7481 58.19C60.6303 56.8473 60.2152 55.5764 59.3057 54.5648C58.6626 53.8485 57.8146 53.3197 57.2176 52.5674C56.6591 51.864 56.344 50.9962 55.7649 50.3055C54.1662 48.3928 50.0618 46.9191 47.5433 46.6624C44.6584 46.3697 39.9981 47.1091 37.6717 48.8164C36.8109 49.4455 36.2216 50.3569 35.6221 51.2195C34.5204 52.8242 33.2701 54.4262 31.5049 55.3274C30.8387 55.6663 30.0752 55.923 29.632 56.5135C29.3683 56.9138 29.1976 57.3682 29.1324 57.8434C28.793 59.5151 28.6162 61.2158 28.6046 62.9217C28.6046 63.1348 28.6046 63.3479 28.6046 63.5636C28.6099 64.2032 28.7459 64.8349 29.0043 65.4198C29.0453 65.5071 29.0914 65.5918 29.1401 65.6765L29.1708 65.7304C29.4807 66.1743 29.7549 66.6422 29.9907 67.1297C30.0494 67.2662 30.0916 67.4093 30.1162 67.5559C30.1601 67.932 30.1358 68.3129 30.0445 68.6804C30.0445 68.7369 30.0214 68.7933 30.0112 68.8498L29.9881 68.9602C29.9881 68.9987 29.9881 69.0373 29.9676 69.0732C29.9471 69.1836 29.9292 69.294 29.9138 69.4018C29.875 69.6988 29.8941 70.0005 29.9702 70.2901C30.0053 70.4515 30.0741 70.6036 30.1721 70.7364C30.2702 70.8691 30.3952 70.9796 30.539 71.0604C30.6849 71.1305 30.8403 71.1789 31.0001 71.2041C31.1615 71.2324 31.3255 71.2503 31.4844 71.2863C31.6886 71.333 31.8859 71.4063 32.0711 71.5045C32.2485 71.5896 32.4146 71.6965 32.5655 71.8229C32.6402 71.8909 32.7112 71.9629 32.7782 72.0385C32.9135 72.1938 33.0352 72.3604 33.142 72.5366C33.1967 72.6273 33.2479 72.7197 33.2957 72.8139C33.4793 73.1854 33.6261 73.5741 33.7338 73.9743C33.8005 74.2131 33.8568 74.4545 33.9055 74.6958C33.9286 74.8036 33.9491 74.9114 33.967 75.0167C33.9849 75.122 34.0029 75.2298 34.0182 75.3351C34.0881 75.3311 34.1571 75.3173 34.2232 75.294C34.5998 75.1579 34.8099 74.7189 34.9278 74.2927C34.9483 74.2208 34.9662 74.1515 34.9816 74.0822C35.0405 73.8254 35.102 73.543 35.1609 73.2734C36.1708 75.4225 37.7992 77.2197 39.8367 78.4339C39.9084 78.647 39.9776 78.8575 40.0391 79.0732C40.3747 80.2362 40.5361 81.4532 39.9545 82.4699C39.5394 83.1913 38.8426 83.6354 38.0637 83.9435C37.9514 83.7935 37.8069 83.6707 37.641 83.5841C36.9671 83.2452 36.1575 83.656 35.5913 84.1618C34.5665 85.0912 33.7313 86.4236 32.3836 86.7292C31.8968 86.8421 31.3588 86.819 30.954 87.1168C30.6863 87.3691 30.4621 87.6641 30.2904 87.9898C29.998 88.4106 29.6048 88.751 29.1468 88.9798C28.6888 89.2086 28.1808 89.3184 27.6695 89.2991C27.2006 89.276 26.6446 89.1682 26.3244 89.5122C26.0861 89.769 26.0682 90.1746 25.812 90.4185C25.4687 90.7574 24.905 90.5931 24.4259 90.5726C23.5138 90.534 22.6658 91.1245 22.1457 91.8819C21.6256 92.6393 21.3771 93.5456 21.1209 94.4493V94.4647C21.0551 94.5127 20.9926 94.565 20.9338 94.6213C20.6854 94.8865 20.4929 95.1991 20.3676 95.5405C18.2957 100.268 17.0727 105.324 16.7551 110.478C16.7602 110.729 16.7039 110.977 16.5911 111.202C16.4765 111.348 16.3506 111.485 16.2145 111.612C16.0928 111.762 16.0022 111.934 15.9482 112.119C15.8941 112.304 15.8777 112.498 15.9 112.69C15.9222 112.881 15.9826 113.067 16.0775 113.234C16.1725 113.402 16.3001 113.549 16.4528 113.666C16.5265 113.532 16.6188 113.41 16.7269 113.302C16.6987 113.42 16.6731 113.535 16.6552 113.641C16.5523 114.39 16.5428 115.149 16.627 115.9C16.8696 119.467 17.1147 123.031 17.3623 126.593C17.4315 127.602 17.5007 128.608 17.5929 129.615C17.7722 131.563 18.0285 133.503 18.3615 135.435C18.3769 135.522 18.3948 135.612 18.4179 135.692C16.3298 136.357 14.4723 137.558 13.6909 139.564C13.4193 140.257 13.2963 141.012 12.9633 141.677C12.5969 142.406 11.9948 142.988 11.5951 143.702C10.9059 144.929 10.8752 146.434 11.1263 147.81C11.6105 150.493 13.0581 152.891 14.9694 154.842C14.8848 154.842 14.7977 154.842 14.7132 154.842C14.0887 154.911 13.4893 155.127 12.9633 155.471C8.92036 157.838 6.60939 162.917 7.4523 167.553C7.61883 168.46 7.90835 169.379 8.51299 170.069C9.01558 170.618 9.66179 171.015 10.3782 171.214C10.8262 171.35 11.2875 171.436 11.754 171.471C14.9053 171.728 17.9567 170.264 21.1157 170.141C22.1622 170.125 23.2087 170.173 24.2491 170.288C25.771 170.414 27.2954 170.495 28.8224 170.529C31.305 170.588 32.7013 169.926 34.2847 168.067C34.6739 167.604 34.9988 167.091 35.2506 166.542C36.5982 166.465 38.0868 166.347 39.1628 166.259L39.1782 166.408C39.2371 166.922 39.3268 167.512 39.7367 167.836C39.9673 167.995 40.2295 168.103 40.5053 168.151C43.093 168.788 45.7114 169.435 48.376 169.435C49.6264 169.41 50.8744 169.314 52.114 169.148L56.7949 168.606C58.1589 168.779 59.5049 169.073 60.8173 169.484C62.1701 169.944 63.4332 170.626 64.7552 171.168C67.8296 172.416 71.1347 172.863 74.409 173.299C74.9675 173.374 75.608 173.425 76.0205 173.042C76.5534 172.529 76.3766 171.671 76.2255 170.953C76.164 170.657 76.1179 170.362 76.082 170.064C78.2915 170.648 80.4533 171.4 82.5486 172.313L82.915 172.475C83.0226 173.035 83.5376 173.481 84.0321 174.085C84.1944 174.339 84.3843 174.575 84.5983 174.788C84.8428 174.947 85.1208 175.047 85.4105 175.081C88.867 175.726 92.3964 175.886 95.8969 175.556C96.6134 175.458 97.3379 175.433 98.0593 175.481C98.5893 175.554 99.1122 175.671 99.6222 175.833L102.586 176.686C104.772 177.312 107.009 177.946 109.276 177.805C109.736 177.776 110.192 177.71 110.642 177.607C112.435 177.191 114.105 176.187 114.966 174.573C116.183 172.377 115.622 169.677 114.966 167.263Z" fill="url(#paint0_linear)"/>
<path d="M32.03 166.762C31.4894 165.53 30.977 164.113 31.5176 162.881C31.8705 162.155 32.4767 161.584 33.2214 161.276C33.9583 160.975 34.7351 160.783 35.5272 160.706C38.0136 160.379 40.5295 160.345 43.0238 160.603C43.2057 162.046 42.8214 163.51 42.4909 164.904C42.1911 166.187 42.0195 166.377 40.6974 166.444C39.8417 166.49 32.2324 167.217 32.03 166.762Z" fill="#FBBEBE"/>
<path d="M54.8451 158.449C75.0794 158.449 91.4825 153.851 91.4825 148.18C91.4825 142.508 75.0794 137.91 54.8451 137.91C34.6109 137.91 18.2078 142.508 18.2078 148.18C18.2078 153.851 34.6109 158.449 54.8451 158.449Z" fill="#464353"/>
<path opacity="0.1" d="M54.8451 158.449C75.0794 158.449 91.4825 153.851 91.4825 148.18C91.4825 142.508 75.0794 137.91 54.8451 137.91C34.6109 137.91 18.2078 142.508 18.2078 148.18C18.2078 153.851 34.6109 158.449 54.8451 158.449Z" fill="#103F4A"/>
<path d="M61.4143 93.9666C60.1585 96.3983 58.0727 98.2971 55.537 99.317C54.0399 99.8637 52.4643 100.164 50.8715 100.205C49.1318 100.285 47.3563 100.172 45.7217 99.5763C43.5286 98.7805 41.707 97.1527 40.3414 95.2554C38.9759 93.3581 38.0356 91.1912 37.2183 89.0064C36.7879 87.869 36.3779 86.6572 36.5803 85.4557C37.8998 85.1553 39.3448 84.7137 40.0263 83.5404C40.6079 82.534 40.4465 81.3273 40.1108 80.1771C40.016 79.8511 39.9059 79.5276 39.7957 79.2169C39.5395 78.4724 38.6556 77.0577 39.2833 76.421C39.6753 76.0179 41.3176 75.8126 41.8838 75.5507C43.6285 74.7445 45.2375 73.5789 47.1539 73.1964C48.8116 72.8652 50.523 73.1758 52.1781 73.5199C52.3976 73.5519 52.6085 73.6278 52.7981 73.7432C53.0143 73.9258 53.1743 74.1662 53.2593 74.4364C53.7307 75.5866 54.0074 76.8575 54.3866 78.0565C54.7812 79.3119 55.2884 80.4903 56.239 81.3812C56.9794 82.077 57.9222 82.5135 58.8446 82.9371L61.1146 83.9794C61.5183 84.1309 61.8846 84.3683 62.1881 84.6752C62.4849 85.0841 62.6623 85.5677 62.7005 86.0719C63.1072 88.7735 62.6573 91.5349 61.4143 93.9666Z" fill="#FBBEBE"/>
<path opacity="0.1" d="M54.3762 78.0564C52.5686 79.9424 50.1874 81.1738 47.6062 81.5576C45.0249 81.9414 42.3895 81.4558 40.1133 80.1771C40.0185 79.8511 39.9083 79.5276 39.7982 79.2169C39.5419 78.4724 38.658 77.0577 39.2857 76.421C39.6777 76.0179 41.32 75.8125 41.8862 75.5507C43.631 74.7445 45.24 73.5789 47.1564 73.1964C48.814 72.8652 50.5255 73.1758 52.1806 73.5199C52.4001 73.5519 52.611 73.6278 52.8006 73.7432C53.0168 73.9258 53.1767 74.1662 53.2617 74.4364C53.7204 75.5866 53.9971 76.8575 54.3762 78.0564Z" fill="#103F4A"/>
<path d="M45.878 81.1707C52.3869 81.1707 57.6634 75.8832 57.6634 69.3607C57.6634 62.8382 52.3869 57.5507 45.878 57.5507C39.3691 57.5507 34.0925 62.8382 34.0925 69.3607C34.0925 75.8832 39.3691 81.1707 45.878 81.1707Z" fill="#FBBEBE"/>
<path d="M81.7852 107.689L80.8167 101.81C80.3274 98.86 79.8226 95.8536 78.4545 93.1963C77.5552 91.4557 76.1281 89.7971 74.204 89.4531C73.825 89.4192 73.4525 89.3328 73.0972 89.1963C72.5336 88.9242 72.2261 88.3132 71.7932 87.8613C70.6761 86.7008 68.857 86.6829 67.3608 86.0924C66.0388 85.5789 64.9576 84.5904 63.7534 83.8356C62.5493 83.0808 61.0505 82.5519 59.7182 83.0346C59.503 85.3324 59.275 87.6816 58.3014 89.774C57.6677 91.1362 56.7382 92.3392 55.5809 93.2951C54.4235 94.251 53.0676 94.9356 51.6123 95.2989C50.157 95.6621 48.639 95.6948 47.1695 95.3945C45.6999 95.0943 44.3159 94.4687 43.1187 93.5635C40.8359 91.8408 39.3729 89.1835 38.6914 86.403C38.5249 85.7252 38.3353 84.9473 37.7127 84.6367C37.0389 84.2978 36.2293 84.7085 35.6631 85.2066C34.6383 86.1283 33.8005 87.448 32.4528 87.7586C31.9661 87.8716 31.428 87.8485 31.0232 88.1437C30.7542 88.3925 30.529 88.685 30.3571 89.0089C30.0622 89.4265 29.6682 89.7639 29.2106 89.9907C28.753 90.2175 28.2463 90.3266 27.7361 90.308C27.2672 90.2849 26.7113 90.1771 26.391 90.5186C26.1528 90.7753 26.1348 91.1758 25.8786 91.4146C25.5327 91.7509 24.9716 91.5866 24.49 91.5686C23.5779 91.5301 22.7299 92.1155 22.2072 92.8523C21.6845 93.5892 21.4386 94.5006 21.1824 95.3838C23.9827 101.633 26.5447 107.89 29.3451 114.139C29.4763 114.374 29.5459 114.639 29.5475 114.909C29.4913 115.189 29.3721 115.452 29.199 115.679C27.8258 117.89 27.8693 120.67 28.0205 123.268C28.1716 125.866 28.3561 128.611 27.1981 130.94C26.8829 131.579 26.473 132.164 26.1733 132.804C25.4712 134.252 25.2176 138.883 25.6275 140.439H83.5504C82.4462 137.397 82.8664 131.291 83.0969 128.062C83.2583 125.802 82.8407 123.546 82.6614 121.286C82.2694 116.673 82.5461 112.295 81.7852 107.689Z" fill="#46C894"/>
<path d="M16.7449 114.416C16.6424 115.159 16.632 115.912 16.7141 116.657L17.4494 127.253C17.5186 128.252 17.5878 129.248 17.68 130.244C17.8568 132.177 18.1207 134.095 18.4486 136.01C18.456 136.282 18.5708 136.54 18.7677 136.727C18.9647 136.915 19.2277 137.016 19.4991 137.009C22.7401 137.697 26.0887 137.669 29.3963 137.481C34.4435 137.199 39.4831 136.555 44.538 136.665C45.8395 136.693 47.3563 136.665 48.1454 135.638C48.9345 134.611 48.4759 132.95 47.4459 132.121C46.416 131.291 45.0171 131.094 43.6951 131.094C41.9452 131.076 40.1953 131.325 38.4506 131.222C36.8493 131.127 35.2839 130.739 33.7313 130.352L29.3758 129.266C29.5423 127.944 30.0445 126.698 30.521 125.443C31.3768 123.217 32.1761 120.917 32.1915 118.532C32.2069 116.146 31.3101 113.638 29.3604 112.272C27.7566 111.15 25.6916 110.942 23.7367 110.988C22.3148 111.03 19.8578 110.688 18.5588 111.245C17.5314 111.697 16.937 113.407 16.7449 114.416Z" fill="#FBBEBE"/>
<path d="M84.7494 138.642C85.6025 138.316 86.5428 138.434 87.4575 138.557C90.4013 138.96 93.3886 139.373 96.1172 140.552C97.3982 141.101 98.6178 141.836 99.4837 142.916C100.252 143.889 100.701 145.081 101.126 146.254L102.11 148.955C102.484 149.982 102.863 151.029 102.968 152.121C103.276 155.353 101.07 158.4 98.2949 160.079C95.5202 161.759 92.2536 162.357 89.0716 162.983C85.8895 163.61 82.6946 164.303 79.5254 165.037C78.0472 165.422 76.5474 165.717 75.0341 165.923C71.6419 166.308 68.096 165.741 64.873 166.865C63.5919 167.314 62.334 167.982 61.0043 168.293C60.121 168.479 59.228 168.615 58.3295 168.701L52.2292 169.399C50.9888 169.565 49.7399 169.661 48.4887 169.687C45.8241 169.687 43.2031 169.055 40.6155 168.424C40.3403 168.375 40.0785 168.269 39.8469 168.113C39.4369 167.789 39.3473 167.217 39.2883 166.698C39.027 164.403 38.7981 162.105 38.6017 159.805C38.5402 159.058 38.4941 158.249 38.9015 157.62C39.4139 156.85 40.4131 156.608 41.3252 156.459C45.1927 155.825 49.1107 155.553 53.0286 155.646C54.5172 154.154 56.9716 154.146 58.9213 153.335C59.6386 153.005 60.3328 152.627 60.9992 152.203C64.4868 150.164 68.3843 148.93 72.408 148.59C73.1959 148.566 73.9788 148.454 74.742 148.257C76.251 147.787 77.6269 146.508 79.1769 146.821C79.3691 146.29 79.5023 145.579 79.9455 145.214C80.1659 145.027 80.4374 144.901 80.6398 144.701C81.0677 144.267 81.1061 143.584 81.0421 142.978C80.978 142.372 80.8346 141.751 80.9908 141.16C81.0559 140.937 81.1516 140.723 81.2752 140.526C82.0438 139.196 83.2045 138.513 84.7494 138.642Z" fill="#464353"/>
<path opacity="0.05" d="M84.7494 138.642C85.6025 138.316 86.5428 138.434 87.4575 138.557C90.4013 138.96 93.3886 139.373 96.1172 140.552C97.3982 141.101 98.6178 141.836 99.4837 142.916C100.252 143.889 100.701 145.081 101.126 146.254L102.11 148.955C102.484 149.982 102.863 151.029 102.968 152.121C103.276 155.353 101.07 158.4 98.2949 160.079C95.5202 161.759 92.2536 162.357 89.0716 162.983C85.8895 163.61 82.6946 164.303 79.5254 165.037C78.0472 165.422 76.5474 165.717 75.0341 165.923C71.6419 166.308 68.096 165.741 64.873 166.865C63.5919 167.314 62.334 167.982 61.0043 168.293C60.121 168.479 59.228 168.615 58.3295 168.701L52.2292 169.399C50.9888 169.565 49.7399 169.661 48.4887 169.687C45.8241 169.687 43.2031 169.055 40.6155 168.424C40.3403 168.375 40.0785 168.269 39.8469 168.113C39.4369 167.789 39.3473 167.217 39.2883 166.698C39.027 164.403 38.7981 162.105 38.6017 159.805C38.5402 159.058 38.4941 158.249 38.9015 157.62C39.4139 156.85 40.4131 156.608 41.3252 156.459C45.1927 155.825 49.1107 155.553 53.0286 155.646C54.5172 154.154 56.9716 154.146 58.9213 153.335C59.6386 153.005 60.3328 152.627 60.9992 152.203C64.4868 150.164 68.3843 148.93 72.408 148.59C73.1959 148.566 73.9788 148.454 74.742 148.257C76.251 147.787 77.6269 146.508 79.1769 146.821C79.3691 146.29 79.5023 145.579 79.9455 145.214C80.1659 145.027 80.4374 144.901 80.6398 144.701C81.0677 144.267 81.1061 143.584 81.0421 142.978C80.978 142.372 80.8346 141.751 80.9908 141.16C81.0559 140.937 81.1516 140.723 81.2752 140.526C82.0438 139.196 83.2045 138.513 84.7494 138.642Z" fill="#103F4A"/>
<path d="M34.3872 168.349C32.8013 170.19 31.405 170.847 28.9223 170.788C27.3954 170.752 25.8701 170.673 24.3465 170.549C23.3052 170.436 22.2579 170.388 21.2106 170.403C18.049 170.526 14.9976 171.977 11.8437 171.723C11.3774 171.686 10.9162 171.6 10.4679 171.466C9.75239 171.268 9.10576 170.875 8.60014 170.331C7.9955 169.646 7.70599 168.737 7.53945 167.838C6.69654 163.232 9.00751 158.216 13.053 155.871C13.5808 155.53 14.1808 155.316 14.8054 155.248C15.4179 155.245 16.0233 155.378 16.5784 155.638L16.6168 155.653C18.2604 156.331 19.7531 157.329 21.0082 158.59C21.1986 158.809 21.4258 158.992 21.6794 159.132C21.9326 159.228 22.2005 159.278 22.4711 159.281L25.8376 159.494C26.408 159.511 26.9749 159.589 27.5286 159.728C28.139 159.941 28.7332 160.199 29.3067 160.498C31.118 161.309 33.1267 161.525 35.0841 161.838C35.2727 161.849 35.4527 161.921 35.5965 162.043C35.6746 162.141 35.729 162.255 35.7553 162.377C36.0304 163.409 36.0496 164.492 35.8111 165.533C35.5727 166.574 35.0838 167.541 34.3872 168.349Z" fill="#103F4A"/>
<path opacity="0.1" d="M16.6168 155.656C15.3107 156.906 14.1775 158.325 13.2477 159.877C11.7556 162.437 10.818 165.284 10.4961 168.231C10.374 169.306 10.3645 170.391 10.4679 171.469C9.75239 171.271 9.10576 170.878 8.60014 170.334C7.9955 169.648 7.70599 168.739 7.53945 167.841C6.69654 163.235 9.00751 158.218 13.053 155.874C13.5808 155.533 14.1808 155.319 14.8054 155.25C15.4179 155.248 16.0233 155.381 16.5784 155.641L16.6168 155.656Z" fill="#103F4A"/>
<path d="M81.8184 162.044C83.7015 161.992 85.8152 161.897 87.1987 163.168C88.5181 164.37 88.6924 166.352 88.7795 168.136L88.8794 170.208C88.9101 170.84 88.9358 171.492 88.6821 172.077C88.2312 173.104 86.9937 173.599 85.8639 173.54C84.734 173.481 83.6964 172.986 82.6639 172.539C79.8607 171.329 76.9421 170.408 73.9529 169.789C74.0502 168.357 74.2125 166.931 74.4397 165.512C74.596 164.529 74.6216 162.883 75.2775 162.067C75.9718 161.204 76.8762 161.671 77.819 161.831C79.1419 162.033 80.4815 162.104 81.8184 162.044Z" fill="#FBBEBE"/>
<path d="M32.0531 141.225C32.0531 141.481 31.6508 141.225 31.6149 140.95C31.3331 138.873 29.6883 137.16 27.7719 136.329C25.8555 135.497 23.6726 135.453 21.5973 135.651C18.4588 135.949 14.936 137.153 13.7882 140.092C13.5166 140.78 13.3936 141.525 13.0606 142.185C12.6916 142.909 12.0895 143.486 11.6899 144.19C11.0007 145.407 10.9725 146.899 11.221 148.275C11.8897 151.946 14.3954 155.086 17.4314 157.261C20.4675 159.435 24.0159 160.734 27.5541 161.905C36.9098 164.997 46.5087 167.294 56.2491 168.773C57.8273 169.011 59.4209 169.232 60.9325 169.741C62.2853 170.195 63.5509 170.875 64.873 171.409C67.9474 172.647 71.255 173.088 74.5319 173.522C75.0904 173.594 75.7309 173.646 76.1434 173.266C76.6763 172.77 76.4995 171.907 76.3484 171.196C75.7922 168.492 76.2588 165.678 77.6576 163.299C78.2059 162.375 78.9181 161.427 78.8156 160.357C78.6927 159.109 77.4526 158.226 76.2177 158.026C74.9828 157.825 73.7274 158.121 72.4874 158.282C72.0595 158.339 71.5932 158.375 71.2192 158.157C71.0349 158.032 70.8677 157.883 70.7221 157.715C69.8679 156.889 68.7746 156.356 67.599 156.191C66.4235 156.026 65.2261 156.239 64.1786 156.798C63.72 157.055 63.0257 156.483 62.5492 156.267L57.1612 153.823C50.9713 151.017 44.7506 148.198 38.202 146.421C37.6795 146.318 37.1829 146.111 36.7416 145.812C36.4162 145.556 36.1831 145.207 35.8833 144.922C35.23 144.303 34.3205 144.056 33.5365 143.617C32.7525 143.178 31.8737 142.105 32.0531 141.225Z" fill="#464353"/>
<path d="M115.117 174.778C114.257 176.377 112.586 177.374 110.793 177.784C110.343 177.886 109.885 177.951 109.424 177.979C107.157 178.121 104.918 177.492 102.732 176.87L99.7656 176.033C99.2555 175.872 98.7326 175.756 98.2027 175.684C97.4813 175.636 96.7568 175.661 96.0403 175.759C92.5338 176.086 88.9991 175.927 85.5359 175.286C85.2462 175.255 84.9679 175.156 84.7237 174.996C84.5098 174.786 84.3199 174.553 84.1575 174.3C83.3505 173.327 82.4819 172.76 83.4376 171.476C83.9884 170.732 85.0107 170.359 85.4386 169.504C85.8664 168.65 85.5923 167.435 85.3386 166.552C84.9928 165.332 83.8552 164.806 83.4478 163.687C83.143 162.842 83.6554 161.861 84.4265 161.402C85.1977 160.942 86.1508 160.906 87.0398 161.024C87.9289 161.142 88.8 161.394 89.6941 161.463C92.3228 161.674 95.0104 160.316 97.534 161.081C98.09 161.25 98.6152 161.52 99.1788 161.669C100.278 161.915 101.426 161.816 102.466 161.384C102.835 161.245 103.196 161.078 103.555 160.914C104.247 160.553 104.983 160.286 105.745 160.121C108.208 159.697 110.49 161.404 112.348 163.071C112.985 163.601 113.55 164.214 114.026 164.893C114.538 165.694 114.81 166.626 115.051 167.546C115.73 169.92 116.291 172.596 115.117 174.778Z" fill="#103F4A"/>
<path opacity="0.1" d="M115.117 174.778C114.257 176.377 112.586 177.374 110.793 177.784C111.49 176.426 111.805 174.903 111.702 173.379C111.549 170.937 110.478 168.637 109.112 166.608C108.272 165.36 107.316 164.193 106.258 163.125C105.443 162.303 104.441 161.651 103.565 160.899C104.257 160.538 104.994 160.271 105.756 160.105C108.218 159.682 110.501 161.389 112.358 163.055C112.996 163.586 113.56 164.198 114.036 164.878C114.549 165.679 114.82 166.611 115.061 167.53C115.73 169.92 116.291 172.596 115.117 174.778Z" fill="#103F4A"/>
<path d="M21.0363 95.5737C20.7867 95.8356 20.5931 96.1457 20.4675 96.4852C18.3965 101.162 17.1732 106.172 16.855 111.279C16.8605 111.528 16.8033 111.774 16.6884 111.995C16.5752 112.142 16.4492 112.278 16.3118 112.403C16.1871 112.551 16.094 112.723 16.0384 112.909C15.9827 113.095 15.9656 113.29 15.9882 113.482C16.0108 113.675 16.0725 113.861 16.1696 114.028C16.2667 114.196 16.3971 114.342 16.5527 114.457C16.9754 113.658 17.9874 113.399 18.8867 113.33C23.1935 112.988 27.4004 114.996 31.72 114.845C31.4151 113.789 30.977 112.775 30.7285 111.707C29.6294 106.965 32.3708 101.802 30.6901 97.2349C30.3544 96.3209 29.7933 95.4223 28.9094 95.0218C28.5435 94.8736 28.1605 94.7719 27.7693 94.7188C26.6779 94.5211 24.5053 93.6765 23.4497 94.0153C23.0603 94.1411 22.9065 94.5083 22.5837 94.7291C22.0944 95.0449 21.4436 95.1604 21.0363 95.5737Z" fill="#46C894"/>
<path d="M85.2132 104.919H32.1633C31.0356 104.919 30.1213 105.835 30.1213 106.965V139.33C30.1213 140.46 31.0356 141.376 32.1633 141.376H85.2132C86.3409 141.376 87.2551 140.46 87.2551 139.33V106.965C87.2551 105.835 86.3409 104.919 85.2132 104.919Z" fill="#103F4A"/>
<path d="M58.5602 124.688C59.4092 124.688 60.0974 123.998 60.0974 123.148C60.0974 122.297 59.4092 121.607 58.5602 121.607C57.7112 121.607 57.0229 122.297 57.0229 123.148C57.0229 123.998 57.7112 124.688 58.5602 124.688Z" fill="white"/>
<path d="M37.7358 50.1926C36.8749 50.8165 36.2857 51.7125 35.6862 52.5726C34.5819 54.1618 33.3316 55.7484 31.5664 56.6342C30.8977 56.9705 30.1342 57.2247 29.691 57.81C29.4279 58.2059 29.2571 58.6561 29.1914 59.1271C28.8532 60.7834 28.6764 62.4687 28.6636 64.1592C28.6636 65.0013 28.6994 65.8691 29.0709 66.6342C29.4219 67.3531 30.0548 67.9615 30.1854 68.7446C30.2854 69.3556 30.0599 69.9641 29.9805 70.5777C29.901 71.1913 30.0394 71.9179 30.6056 72.2106C30.9107 72.3256 31.2293 72.4006 31.5536 72.4339C33.2573 72.8139 33.8287 74.8165 34.0874 76.4724C34.6665 76.4391 34.9278 75.7741 35.0482 75.2324L36.8237 67.3222C37.0159 66.4647 37.3361 65.4711 38.1893 65.1708C38.7606 64.9731 39.3858 65.1579 39.9827 65.2093C42.327 65.4018 44.31 63.5867 46.6031 63.086C47.3371 62.9376 48.0875 62.8875 48.8346 62.9371C50.6434 63.027 52.7469 63.7715 53.1312 65.4634C53.1952 65.7382 53.2337 66.0668 53.4899 66.2029C53.7461 66.3389 54.0151 66.2234 54.2841 66.2029C55.4319 66.0873 56.1083 67.3813 56.4388 68.4391L57.6429 72.2902C57.8223 72.873 58.1246 73.5584 58.7549 73.6329C59.3365 73.7048 59.8309 73.1528 59.9181 72.6059C60.0052 72.0591 59.8156 71.4917 59.69 70.9423C59.1238 68.4134 59.9898 65.8254 60.5176 63.2914C61.0454 60.7574 61.1401 57.846 59.3698 55.8948C58.7267 55.1887 57.8812 54.6624 57.2817 53.9179C56.7232 53.2195 56.408 52.362 55.829 51.6765C54.2277 49.7844 50.1208 48.3235 47.6023 48.0822C44.7251 47.769 40.0621 48.5007 37.7358 50.1926Z" fill="#103F4A"/>
<g opacity="0.1">
<path opacity="0.1" d="M58.7651 71.8357C58.1348 71.7587 57.8325 71.0655 57.6531 70.4929C57.2517 69.2075 56.8504 67.9238 56.449 66.6418C56.1185 65.5815 55.4421 64.2875 54.2943 64.4056C54.0253 64.4339 53.7358 64.5391 53.5 64.4056C53.2643 64.2721 53.2054 63.9409 53.1414 63.6662C52.757 61.9717 50.6536 61.2298 48.8448 61.1399C48.0978 61.0907 47.3475 61.1399 46.6132 61.2863C44.3202 61.7997 42.3372 63.5969 39.9929 63.4095C39.3883 63.3607 38.7631 63.1759 38.1995 63.3735C37.3361 63.6714 37.026 64.6572 36.8339 65.525L35.0584 73.4326C34.938 73.9769 34.6766 74.6419 34.0976 74.6727C33.8414 73.0193 33.2675 71.0167 31.5637 70.6367C31.2399 70.601 30.9216 70.5259 30.6158 70.4133C30.3929 70.2913 30.2184 70.0965 30.1213 69.8614C30.0752 70.1001 30.0214 70.3389 29.9906 70.5777C29.9138 71.1887 30.0496 71.9178 30.6158 72.2105C30.9209 72.3255 31.2395 72.4006 31.5637 72.4339C33.2675 72.8139 33.8389 74.8164 34.0976 76.4724C34.6766 76.439 34.938 75.7741 35.0584 75.2324L36.8339 67.3222C37.026 66.4647 37.3463 65.4711 38.1995 65.1707C38.7708 64.973 39.3959 65.1579 39.9929 65.2092C42.3372 65.4018 44.3202 63.5866 46.6132 63.086C47.3472 62.9376 48.0976 62.8875 48.8448 62.9371C50.6536 63.0269 52.757 63.7715 53.1414 65.4634C53.2054 65.7381 53.2438 66.0667 53.5 66.2028C53.7562 66.3389 54.0253 66.2234 54.2943 66.2028C55.4421 66.0873 56.1185 67.3813 56.449 68.439C56.8486 69.7244 57.25 71.0081 57.6531 72.2901C57.8325 72.8729 58.1348 73.5584 58.7651 73.6329C59.3467 73.7047 59.8411 73.1528 59.9282 72.6059C59.9676 72.1458 59.9154 71.6824 59.7745 71.2426C59.6831 71.43 59.5386 71.5862 59.359 71.6917C59.1795 71.7972 58.9729 71.8473 58.7651 71.8357Z" fill="#103F4A"/>
<path opacity="0.1" d="M30.1879 66.9473C30.0572 66.1643 29.4193 65.5558 29.0734 64.8369C28.851 64.3521 28.7223 63.8294 28.6942 63.2965C28.6942 63.5841 28.6686 63.8716 28.666 64.1617C28.666 65.0038 28.7019 65.8716 29.0734 66.6367C29.3578 67.2195 29.8266 67.733 30.0623 68.326C30.1866 67.8778 30.2291 67.4107 30.1879 66.9473Z" fill="#103F4A"/>
<path opacity="0.1" d="M60.5277 61.4839C60.0614 63.7227 59.3338 66.0025 59.5592 68.2464C59.7053 66.5905 60.187 64.9242 60.5277 63.2811C60.8119 62.0333 60.9121 60.7505 60.8249 59.4736C60.7693 60.1495 60.67 60.8209 60.5277 61.4839Z" fill="#103F4A"/>
</g>
<g opacity="0.8">
<path opacity="0.8" d="M84.5573 74.5803H244.701" stroke="#103F4A" stroke-width="3" stroke-miterlimit="10"/>
<path opacity="0.8" d="M98.7844 74.5777C98.7844 74.5777 106.442 75.6432 102.476 67.4096C98.5103 59.1759 113.237 60.7343 113.237 60.7343" stroke="#103F4A" stroke-width="3" stroke-miterlimit="10"/>
<path opacity="0.8" d="M149.787 74.5777C149.787 74.5777 157.445 73.5148 153.479 81.7485C149.513 89.9821 164.24 88.4237 164.24 88.4237" stroke="#103F4A" stroke-width="3" stroke-miterlimit="10"/>
<path opacity="0.8" d="M223.223 74.5777C223.223 74.5777 215.563 73.5148 219.531 81.7485C223.5 89.9821 208.771 88.4237 208.771 88.4237" stroke="#103F4A" stroke-width="3" stroke-miterlimit="10"/>
<path opacity="0.8" d="M208.771 88.4211H166.515" stroke="#103F4A" stroke-width="3" stroke-miterlimit="10"/>
<path opacity="0.8" d="M84.5573 79.2658C87.1397 79.2658 89.2331 77.168 89.2331 74.5803C89.2331 71.9925 87.1397 69.8948 84.5573 69.8948C81.975 69.8948 79.8816 71.9925 79.8816 74.5803C79.8816 77.168 81.975 79.2658 84.5573 79.2658Z" fill="#46C894"/>
<path opacity="0.8" d="M113.316 65.353C115.899 65.353 117.992 63.2553 117.992 60.6675C117.992 58.0798 115.899 55.9821 113.316 55.9821C110.734 55.9821 108.641 58.0798 108.641 60.6675C108.641 63.2553 110.734 65.353 113.316 65.353Z" fill="#3ACC6C"/>
<path opacity="0.8" d="M113.316 79.2658C115.899 79.2658 117.992 77.168 117.992 74.5803C117.992 71.9925 115.899 69.8948 113.316 69.8948C110.734 69.8948 108.641 71.9925 108.641 74.5803C108.641 77.168 110.734 79.2658 113.316 79.2658Z" fill="#46C894"/>
<path opacity="0.8" d="M131.876 79.2658C134.458 79.2658 136.552 77.168 136.552 74.5803C136.552 71.9925 134.458 69.8948 131.876 69.8948C129.294 69.8948 127.2 71.9925 127.2 74.5803C127.2 77.168 129.294 79.2658 131.876 79.2658Z" fill="#46C894"/>
<path opacity="0.8" d="M164.317 93.0372C166.899 93.0372 168.992 90.9395 168.992 88.3518C168.992 85.764 166.899 83.6663 164.317 83.6663C161.734 83.6663 159.641 85.764 159.641 88.3518C159.641 90.9395 161.734 93.0372 164.317 93.0372Z" fill="#FF6584"/>
<path opacity="0.8" d="M188.83 93.0372C191.413 93.0372 193.506 90.9395 193.506 88.3518C193.506 85.764 191.413 83.6663 188.83 83.6663C186.248 83.6663 184.155 85.764 184.155 88.3518C184.155 90.9395 186.248 93.0372 188.83 93.0372Z" fill="#FF6584"/>
<path opacity="0.8" d="M187.552 79.2658C190.134 79.2658 192.228 77.168 192.228 74.5803C192.228 71.9925 190.134 69.8948 187.552 69.8948C184.97 69.8948 182.876 71.9925 182.876 74.5803C182.876 77.168 184.97 79.2658 187.552 79.2658Z" fill="#46C894"/>
<path opacity="0.8" d="M248.624 79.2658C251.206 79.2658 253.3 77.168 253.3 74.5803C253.3 71.9925 251.206 69.8948 248.624 69.8948C246.042 69.8948 243.948 71.9925 243.948 74.5803C243.948 77.168 246.042 79.2658 248.624 79.2658Z" fill="#46C894"/>
<path opacity="0.8" d="M140.39 52.4917H124.702V63.3261H140.39V52.4917Z" fill="#46C894"/>
<path opacity="0.8" d="M169.218 52.4917H153.53V63.3261H169.218V52.4917Z" fill="#3ACC6C"/>
<path opacity="0.8" d="M220.095 52.4917H204.408V63.3261H220.095V52.4917Z" fill="#FF6584"/>
</g>
<g opacity="0.1">
<path opacity="0.1" d="M22.1226 76.8575C22.1226 76.8575 2.96613 68.7856 0.455317 83.3505C0.455317 83.3505 -0.853892 85.6201 0.967727 87.4943C0.967727 87.4943 1.35972 86.4878 3.20952 87.5276C3.87022 87.8938 4.57203 88.1799 5.30016 88.38C6.2835 88.6518 7.32837 88.596 8.27726 88.2208C8.27726 88.2208 14.5774 87.8794 19.8757 79.6201C19.8757 79.6201 22.1482 78.2131 22.2609 77.6842L18.464 77.941C18.464 77.941 18.7561 80.7266 17.183 82.398C17.183 82.398 18.5767 78.0745 17.908 77.9538C17.7722 77.9281 15.9019 78.1746 15.9019 78.1746C15.9019 78.1746 16.3862 83.0193 13.8523 85.5251C13.8523 85.5251 16.2043 80.5982 15.182 78.2619L12.3791 78.8036C12.3791 78.8036 13.1477 83.8999 10.3756 86.8627C10.3756 86.8627 12.6558 81.6252 11.7745 78.9654L9.092 79.8691C9.092 79.8691 9.73763 84.8524 7.41898 87.3145C7.41898 87.3145 9.443 80.9962 8.48991 80.1258C8.48991 80.1258 6.07646 81.1066 5.56149 81.6663C5.56149 81.6663 5.94323 85.2606 4.47005 86.5572C4.47005 86.5572 5.37446 82.1926 4.9261 82.0129C4.9261 82.0129 2.12321 84.1284 1.26749 85.9538C1.26749 85.9538 2.3333 83.1656 4.5751 81.5893C4.5751 81.5893 2.69199 81.2709 1.24443 82.0591C1.24443 82.0591 2.21289 80.208 5.25404 81.086C5.25404 81.086 7.50609 79.5225 7.95701 79.5456C7.95701 79.5456 5.07982 78.2619 3.002 78.4211C3.002 78.4211 5.23098 77.1374 8.65901 79.2812L11.3364 78.3133C11.3364 78.3133 7.62138 76.4057 5.76133 76.4134C5.76133 76.4134 8.23627 75.4532 12.0307 78.1233L14.7721 77.5636C14.7721 77.5636 11.6976 75.6765 9.6249 75.2375C9.6249 75.2375 12.1101 74.8421 15.5637 77.4326L17.4366 77.276C17.4366 77.276 15.1692 75.9358 14.4826 75.6098C13.7959 75.2837 13.8267 75.0732 13.8267 75.0732C15.4561 75.3529 16.9762 76.0798 18.218 77.1733C18.218 77.1733 22.1072 77.0963 22.1226 76.8575Z" fill="#46C894"/>
</g>
<g opacity="0.1">
<path opacity="0.1" d="M21.4154 62.3877C21.4154 62.3877 14.6311 46.6572 4.85686 53.8716C4.85686 53.8716 2.79184 54.4724 2.80721 56.6187C2.80721 56.6187 3.6117 56.2439 4.12155 57.9204C4.3085 58.5151 4.56658 59.0849 4.89016 59.6175C5.31783 60.3413 5.97023 60.9048 6.74765 61.2221C6.74765 61.2221 10.6855 64.6162 18.5331 62.7343C18.5331 62.7343 20.6852 63.1938 21.0516 62.9474L18.6535 60.9268C18.6535 60.9268 17.2418 62.7497 15.351 62.837C15.351 62.837 18.6381 61.0655 18.3102 60.611C18.2436 60.5186 16.9907 59.5995 16.9907 59.5995C16.9907 59.5995 14.526 62.7522 11.6104 62.801C11.6104 62.801 15.8096 61.2144 16.5296 59.2452L14.5568 57.9615C14.5568 57.9615 12.069 61.43 8.73837 61.6098C8.73837 61.6098 13.0708 59.7997 14.0598 57.715L11.9512 56.7214C11.9512 56.7214 9.50186 60.059 6.73228 60.1848C6.73228 60.1848 11.5284 57.5866 11.4541 56.5263C11.4541 56.5263 9.46343 55.7304 8.8306 55.7766C8.8306 55.7766 7.01923 58.1258 5.40258 58.059C5.40258 58.059 8.42323 55.982 8.25926 55.62C8.25926 55.62 5.38976 55.276 3.84485 55.8768C3.84485 55.8768 6.06358 54.8293 8.29001 55.1733C8.29001 55.1733 7.3523 53.9076 6.04821 53.5558C6.04821 53.5558 7.67768 53.009 8.98432 55.2632C8.98432 55.2632 11.2082 55.6226 11.4695 55.8896C11.4695 55.8896 10.4934 53.4788 9.16367 52.3928C9.16367 52.3928 11.2133 52.9063 12.0332 56.1335L14.175 57.086C14.175 57.086 13.0529 53.8306 11.9409 52.7754C11.9409 52.7754 13.9573 53.6175 14.6951 57.371L16.6423 58.6008C16.6423 58.6008 15.8891 55.7253 14.9078 54.2798C14.9078 54.2798 16.609 55.466 17.1855 58.9756L18.3896 59.9512C18.3896 59.9512 17.8029 57.8614 17.58 57.276C17.3571 56.6906 17.4955 56.5828 17.4955 56.5828C18.3048 57.6837 18.7919 58.9888 18.902 60.3517C18.902 60.3517 21.2694 62.5186 21.4154 62.3877Z" fill="#46C894"/>
</g>
<path opacity="0.1" d="M157.627 28.6008C141.045 28.0231 125.253 22.6598 110.17 16.7908C95.0873 10.9217 80.1531 4.4185 63.9686 1.30939C53.559 -0.690612 41.6557 -0.973026 33.2676 4.61876C25.1971 10.0103 22.5889 19.2914 21.1849 27.9102C20.1319 34.398 19.5093 41.2221 22.4019 47.294C24.408 51.5096 27.9718 55.0527 30.4365 59.0912C39.0091 73.1399 32.9499 90.4647 23.6573 104.182C19.3018 110.616 14.2443 116.763 10.8804 123.607C7.51638 130.452 5.96121 138.306 8.90245 145.294C11.8206 152.226 18.7715 157.422 26.2988 161.081C41.5917 168.511 59.6055 170.639 77.1863 171.843C116.083 174.511 155.191 173.356 194.19 172.2C208.625 171.772 223.121 171.338 237.32 169.101C245.206 167.859 253.348 165.887 259.071 161.143C266.337 155.101 268.139 144.87 263.271 137.297C255.103 124.591 232.526 121.433 226.81 107.797C223.666 100.293 226.895 91.9307 231.46 84.9705C241.258 70.036 257.678 56.9371 258.544 39.8665C259.138 28.1438 251.244 16.4031 239.039 10.855C226.244 5.03981 208.504 5.77152 199.071 15.3967C189.345 25.2966 172.267 29.1091 157.627 28.6008Z" fill="#46C894"/>
<defs>
<linearGradient id="paint0_linear" x1="61.5065" y1="177.833" x2="61.5065" y2="46.588" gradientUnits="userSpaceOnUse">
<stop stop-color="#808080" stop-opacity="0.25"/>
<stop offset="0.54" stop-color="#808080" stop-opacity="0.12"/>
<stop offset="1" stop-color="#808080" stop-opacity="0.1"/>
</linearGradient>
</defs>
</svg>
