<svg width="60" height="60" viewBox="0 0 60 60" fill="none" xmlns="http://www.w3.org/2000/svg">
<path d="M30 0C24.0666 0 18.2664 1.75947 13.3329 5.05591C8.39943 8.35235 4.55425 13.0377 2.28362 18.5195C0.0129912 24.0013 -0.581099 30.0333 0.576457 35.8527C1.73401 41.6721 4.59125 47.0176 8.78682 51.2132C12.9824 55.4088 18.3279 58.266 24.1473 59.4235C29.9667 60.5811 35.9987 59.987 41.4805 57.7164C46.9623 55.4457 51.6477 51.6006 54.9441 46.6671C58.2405 41.7336 60 35.9334 60 30C60 26.0603 59.224 22.1593 57.7164 18.5195C56.2088 14.8797 53.999 11.5725 51.2132 8.78679C48.4274 6.00104 45.1203 3.79125 41.4805 2.28361C37.8408 0.775973 33.9397 0 30 0ZM39.4593 18.1527H35.6191C32.9972 18.1527 32.4968 19.3929 32.4968 21.2206V25.1044H38.7414L37.9254 31.1967H32.4967V47.7329H25.5341V31.1967H20.5407V25.1044H25.5341V20.6005C25.5341 15.2045 29.2766 12.2671 34.0961 12.2671C36.4024 12.2671 38.8828 12.4412 39.4594 12.5173L39.4593 18.1527Z" fill="#46C894"/>
</svg>
