<svg width="433" height="672" viewBox="0 0 433 672" fill="none" xmlns="http://www.w3.org/2000/svg">
<path d="M375.874 179.542L244.124 308.863L125.291 425.506C56.0948 357.585 56.0948 247.463 125.291 179.542C194.488 111.621 306.677 111.621 375.874 179.542Z" fill="#103F4A"/>
<path d="M32.6684 548.258L164.418 418.937L283.251 302.294C352.447 370.215 352.447 480.337 283.251 548.258C214.054 616.178 101.865 616.178 32.6684 548.258Z" fill="#103F4A"/>
<path d="M400.332 123.139L268.582 252.46L149.749 369.102C80.5527 301.181 80.5527 191.06 149.749 123.139C218.946 55.2183 331.135 55.2183 400.332 123.139Z" fill="white"/>
<path d="M57.1263 491.854L188.876 362.533L307.709 245.891C376.905 313.812 376.905 423.933 307.709 491.854C238.512 559.775 126.323 559.775 57.1263 491.854Z" fill="white"/>
</svg>
