<svg width="249" height="183" viewBox="0 0 249 183" fill="none" xmlns="http://www.w3.org/2000/svg">
<g clip-path="url(#clip0)" filter="url(#filter0_d)">
<path d="M107.286 163.662C152.46 163.662 189.081 127.025 189.081 81.831C189.081 36.637 152.46 0 107.286 0C62.1117 0 25.4907 36.637 25.4907 81.831C25.4907 127.025 62.1117 163.662 107.286 163.662Z" fill="#F7A99C"/>
<path d="M36.455 175C54.3793 175 68.9099 172.674 68.9099 169.805C68.9099 166.936 54.3793 164.61 36.455 164.61C18.5306 164.61 4 166.936 4 169.805C4 172.674 18.5306 175 36.455 175Z" fill="#F7A99C"/>
<path d="M194.782 169.719C222.517 169.719 245 166.12 245 161.681C245 157.241 222.517 153.643 194.782 153.643C167.048 153.643 144.565 157.241 144.565 161.681C144.565 166.12 167.048 169.719 194.782 169.719Z" fill="#F7A99C"/>
<path d="M183.625 84.4164C183.625 84.4164 184.053 85.8422 181.63 87.1253C179.207 88.4085 178.495 93.256 181.345 94.6818C184.195 96.1075 185.05 97.961 183.625 99.2441C182.2 100.527 179.635 103.949 183.055 104.805C186.475 105.66 186.903 107.371 185.905 108.084C184.908 108.797 188.186 106.801 188.186 106.801C188.186 106.801 188.756 110.222 191.748 109.367C194.741 108.511 203.149 92.258 198.874 89.9768C194.599 87.6956 183.625 84.4164 183.625 84.4164Z" fill="#2F2E41"/>
<path d="M188.791 98.1834C188.791 98.1834 190.269 103.36 187.682 103.729C186.076 103.98 184.555 104.614 183.247 105.578L188.051 111.863H196.921L202.465 106.317C202.465 106.317 195.073 100.772 196.552 97.4439C198.03 94.1164 188.791 98.1834 188.791 98.1834Z" fill="#FFB9B9"/>
<path opacity="0.1" d="M188.791 98.1834C188.791 98.1834 190.269 103.36 187.682 103.729C186.076 103.98 184.555 104.614 183.247 105.578L188.051 111.863H196.921L202.465 106.317C202.465 106.317 195.073 100.772 196.552 97.4439C198.03 94.1164 188.791 98.1834 188.791 98.1834Z" fill="black"/>
<path d="M191.008 162.517L199.508 165.474L205.421 165.844L205.051 160.668L192.856 157.059L191.008 162.517Z" fill="#FFB9B9"/>
<path d="M201.91 161.407C201.91 161.407 201.91 166.584 202.649 166.584C203.388 166.584 213.367 165.474 216.323 166.584C219.28 167.693 223.715 163.626 221.497 161.407C219.28 159.189 215.663 155.861 213.406 156.601C211.149 157.34 201.91 159.189 201.91 159.189V161.407Z" fill="#575A89"/>
<path d="M174.747 156.601C174.747 156.601 170.312 165.474 173.268 166.214C176.225 166.953 179.551 165.844 179.921 165.474C180.29 165.105 185.464 163.626 186.203 164.365C186.942 165.105 186.942 161.407 186.942 161.407L174.747 156.601Z" fill="#575A89"/>
<path d="M178.442 144.4C178.442 144.4 171.42 154.013 176.594 156.601C181.768 159.189 206.529 159.189 208.377 156.601C210.225 154.013 210.964 145.879 208.377 145.139C205.79 144.4 178.442 144.4 178.442 144.4Z" fill="#2F2E41"/>
<path opacity="0.2" d="M178.442 144.4C178.442 144.4 171.42 154.013 176.594 156.601C181.768 159.189 206.529 159.189 208.377 156.601C210.225 154.013 210.964 145.879 208.377 145.139C205.79 144.4 178.442 144.4 178.442 144.4Z" fill="black"/>
<path d="M191.747 100.772C196.442 100.772 200.247 96.9642 200.247 92.2677C200.247 87.5712 196.442 83.7639 191.747 83.7639C187.053 83.7639 183.247 87.5712 183.247 92.2677C183.247 96.9642 187.053 100.772 191.747 100.772Z" fill="#FFB9B9"/>
<path d="M178.442 105.578L185.834 104.099C185.834 104.099 187.682 110.015 193.595 108.906C199.508 107.796 200.986 104.099 200.986 104.099C200.986 104.099 205.421 105.948 205.791 105.948C206.16 105.948 210.964 107.796 210.964 108.906C210.964 110.015 205.421 121.107 205.421 121.107L206.16 141.072L178.812 140.333L180.66 120.737L178.442 105.578Z" fill="#FF5200"/>
<path d="M174.377 115.191C174.377 115.191 172.16 134.787 173.638 136.266C175.116 137.745 181.029 141.812 181.029 141.812V137.375L178.073 131.829L181.029 118.888L174.377 115.191Z" fill="#FFB9B9"/>
<path d="M212.627 114.636C212.627 114.636 211.334 134.787 211.334 135.526C211.334 136.266 208.008 138.854 206.899 138.854C205.79 138.854 205.051 137.005 205.051 137.005L207.638 134.047L205.79 118.888L212.627 114.636Z" fill="#FFB9B9"/>
<path d="M209.117 142.921C209.117 142.921 225.747 133.678 226.117 142.921C226.487 152.164 217.617 155.861 217.617 155.861C217.617 155.861 194.704 162.735 193.78 160.223C192.856 157.71 191.008 153.643 192.486 153.273C193.965 152.904 195.812 152.164 196.552 152.904C197.291 153.643 206.53 147.358 206.53 147.358L209.117 142.921Z" fill="#2F2E41"/>
<path opacity="0.2" d="M216.878 141.812C216.878 141.812 213.552 143.291 212.443 144.4C211.334 145.509 206.53 147.358 206.53 147.358" stroke="black" stroke-width="2" stroke-miterlimit="10"/>
<path d="M180.66 106.317L178.442 105.578C178.442 105.578 170.312 114.082 172.899 116.3C175.486 118.519 176.964 119.258 177.703 119.998C178.442 120.737 182.138 121.107 182.138 121.107L180.66 106.317Z" fill="#FF5200"/>
<path d="M207.638 108.166L210.964 108.906C210.964 108.906 213.551 114.452 214.291 115.191C215.03 115.93 213.182 115.561 212.073 117.04C210.964 118.519 209.856 121.107 207.638 121.107C205.421 121.107 202.464 117.409 202.464 117.409L207.638 108.166Z" fill="#FF5200"/>
<path d="M179.182 146.248C179.182 146.248 165.138 136.266 160.334 143.66C155.529 151.055 181.03 161.038 184.725 162.516C188.421 163.995 191.747 165.474 191.747 165.474C191.747 165.474 195.073 157.34 195.073 155.861C195.073 154.382 192.486 154.382 191.747 154.382C191.008 154.382 187.682 153.643 186.943 152.534C186.204 151.425 179.182 146.248 179.182 146.248Z" fill="#2F2E41"/>
<path opacity="0.2" d="M171.42 143.66C171.42 143.66 175.116 146.618 178.442 147.358C181.768 148.097 182.877 149.946 182.877 149.946" stroke="black" stroke-width="2" stroke-miterlimit="10"/>
<path d="M176.632 129.759L176.927 145.413C176.937 145.93 177.151 146.422 177.522 146.783C177.893 147.143 178.391 147.342 178.908 147.336L208.027 147.008C208.524 147.003 208.999 146.809 209.358 146.466C209.717 146.123 209.933 145.657 209.961 145.162L210.845 129.834C210.86 129.568 210.821 129.301 210.73 129.051C210.638 128.8 210.497 128.57 210.314 128.376C210.131 128.182 209.91 128.028 209.665 127.922C209.42 127.816 209.156 127.762 208.889 127.762H178.591C178.33 127.762 178.073 127.814 177.833 127.915C177.592 128.015 177.375 128.163 177.193 128.349C177.01 128.535 176.867 128.755 176.771 128.997C176.674 129.239 176.627 129.498 176.632 129.759Z" fill="#575A89"/>
<path d="M192.201 81.5853C192.201 81.5853 192.675 83.1647 189.991 84.5862C187.307 86.0077 186.518 91.3778 189.675 92.9572C192.833 94.5366 193.78 96.5899 192.201 98.0114C190.622 99.4329 187.781 103.224 191.57 104.171C195.359 105.119 195.832 107.014 194.727 107.804C193.622 108.594 197.253 106.382 197.253 106.382C197.253 106.382 197.885 110.173 201.2 109.225C204.515 108.278 207.823 91.0514 204.128 86.6147C200.691 82.4893 192.201 81.5853 192.201 81.5853Z" fill="#2F2E41"/>
<path d="M191.193 79.9596C191.194 77.6456 198.113 79.3083 201.08 82.5391C203.135 84.7763 206.255 88.1423 203.64 90.5149C201.025 92.8875 208.122 95.9978 210.026 96.9408C211.929 97.8838 215.687 100.768 212.294 102.702C208.901 104.637 208.955 106.59 210.232 107.052C211.51 107.514 207.417 106.365 207.417 106.365C207.417 106.365 207.83 110.185 204.382 110.167C200.934 110.149 191.042 91.1912 193.406 85.9218C195.603 81.0223 191.193 79.9596 191.193 79.9596Z" fill="#2F2E41"/>
<path d="M192.692 79.4525C183.438 78.895 182.509 85.8636 182.509 85.8636C182.573 89.8963 188.975 87.9313 190.753 88.5325C192.897 86.9888 197.032 84.068 199.989 81.9835C197.842 80.4713 195.313 79.5941 192.692 79.4525Z" fill="#2F2E41"/>
<path d="M190.055 123.92C190.055 123.92 181.755 85.001 129.8 56.7684" stroke="#3F3D56" stroke-width="2" stroke-miterlimit="10"/>
<path d="M131.941 55.9196L132.045 56.3463L129.943 56.8561L130.605 58.9159L130.187 59.05L129.381 56.5411L131.941 55.9196Z" fill="#3F3D56"/>
<path d="M19.0152 163.687C19.0152 168.616 16.0863 170.337 12.4729 170.337C12.3892 170.337 12.3057 170.336 12.2222 170.334C12.0548 170.331 11.889 170.323 11.7252 170.311C8.46419 170.081 5.93066 168.271 5.93066 163.687C5.93066 158.942 11.9906 152.956 12.4458 152.513L12.4466 152.512C12.4642 152.495 12.4729 152.486 12.4729 152.486C12.4729 152.486 19.0152 158.757 19.0152 163.687Z" fill="#FF5200"/>
<path d="M12.2346 169.583L14.6274 166.238L12.2286 169.95L12.2222 170.334C12.0548 170.331 11.889 170.323 11.7252 170.311L11.9831 165.38L11.9811 165.341L11.9854 165.334L12.0098 164.868L9.60498 161.147L12.0173 164.519L12.0229 164.618L12.2178 160.892L10.159 157.046L12.2429 160.238L12.4458 152.513L12.4466 152.486V152.512L12.4128 158.604L14.4624 156.189L12.4044 159.128L12.3502 162.465L14.2639 159.263L12.3422 162.956L12.3119 164.81L15.0902 160.354L12.3015 165.457L12.2346 169.583Z" fill="#3F3D56"/>
<path d="M50.2204 162.409L51.6199 161.369C51.6199 161.369 52.5462 166.546 51.5125 167.322C50.4788 168.097 46.6025 169.39 46.6025 170.941C46.6025 172.492 37.816 174.561 37.5576 172.234C37.2992 169.907 38.3329 168.614 38.3329 168.614C38.3329 168.614 42.4677 164.478 42.9845 163.702C43.5014 162.927 44.7935 161.375 44.7935 161.375L50.2204 162.409Z" fill="#2F2E41"/>
<path d="M29.5464 98.0335C29.5464 98.0335 29.5852 98.261 29.6523 98.6772C29.7144 99.047 29.7996 99.5692 29.903 100.213C30.9884 106.839 34.1541 126.346 33.9396 126.99C33.6812 127.765 31.8722 130.609 33.9396 131.385C34.1386 131.46 34.3531 131.703 34.5831 132.086C35.027 132.91 35.393 133.773 35.6762 134.666C36.9089 138.244 38.2269 143.971 38.9892 147.936C39.3226 149.679 39.55 151.08 39.6172 151.815C39.6406 151.984 39.6432 152.156 39.625 152.326C39.3665 153.361 41.1755 156.98 41.9508 158.014C42.7261 159.048 44.0182 160.083 43.7598 161.117C43.5013 162.151 50.2204 164.995 50.9957 163.185C51.7709 161.375 51.7709 160.341 52.0294 159.824C52.2878 159.307 52.5462 155.687 51.2541 155.17C49.962 154.653 50.7372 145.605 49.4451 143.795C49.0136 143.192 48.3546 141.152 47.6646 138.699C47.3932 137.737 47.1193 136.713 46.8505 135.687C45.76 131.481 44.7935 127.248 44.7935 127.248L45.0519 96.9993L30.8385 95.1896L30.4742 95.9936L29.748 97.5888L29.5464 98.0335Z" fill="#2F2E41"/>
<path d="M28.7711 147.673C28.7711 147.673 26.7037 145.604 25.67 147.673C24.6363 149.741 23.6026 157.756 21.7937 159.566C19.9847 161.375 17.6589 170.424 20.2431 170.941C22.8274 171.458 25.67 170.166 25.9285 168.614C26.1869 167.063 31.6138 159.048 31.6138 158.273C31.6138 157.497 27.9958 154.653 27.9958 154.653L28.7711 147.673Z" fill="#2F2E41"/>
<path d="M60.5573 83.8139C60.5573 83.8139 57.1978 114.063 56.4225 116.907C55.6472 119.751 51.5124 130.609 50.2203 132.419C48.9282 134.229 40.6586 148.965 39.6249 149.741C38.5912 150.517 36.5238 152.585 36.5238 152.585C36.5238 152.585 32.6474 156.463 32.1305 157.239C31.6137 158.014 27.2205 155.687 26.962 154.136C26.7036 152.585 27.2205 150 27.4789 148.965C27.7373 147.931 26.962 146.38 27.7373 145.604C28.5126 144.829 32.389 140.951 32.389 139.141C32.389 137.331 39.108 126.731 41.6923 124.404C44.2765 122.077 43.7597 118.199 43.7597 118.199V102.429L29.5463 98.0335C29.5463 98.0335 30.3216 85.6236 32.1305 85.6236C33.9395 85.6236 57.7146 81.487 60.5573 83.8139Z" fill="#2F2E41"/>
<path d="M39.6252 40.638C44.3351 40.638 48.1532 36.8182 48.1532 32.1063C48.1532 27.3943 44.3351 23.5745 39.6252 23.5745C34.9153 23.5745 31.0972 27.3943 31.0972 32.1063C31.0972 36.8182 34.9153 40.638 39.6252 40.638Z" fill="#9F616A"/>
<path d="M42.4679 38.8283C42.4679 38.8283 43.5016 42.7064 44.7937 43.7405C46.0858 44.7747 41.4342 49.1698 41.4342 49.1698L32.6477 49.6869L31.0972 44.7747C31.0972 44.7747 33.9398 39.0868 33.1646 35.4673C32.3893 31.8478 42.4679 38.8283 42.4679 38.8283Z" fill="#9F616A"/>
<path d="M46.0856 43.2234C46.0856 43.2234 43.7598 43.4819 43.2429 44.2575C42.7261 45.0332 39.1081 47.36 36.2654 46.8429C33.4228 46.3258 31.6138 45.5502 31.0969 45.8088C30.5801 46.0673 29.5464 51.4966 29.5464 51.4966L32.3891 59.7698L31.8722 82.5212L31.0969 88.7261C31.0969 88.7261 29.5464 86.6578 35.7486 87.9504C41.9508 89.2431 49.962 86.9163 52.5462 86.6578C55.1305 86.3992 59.5237 85.6236 59.7821 84.0724C60.0406 82.5212 59.0069 76.8333 59.0069 76.8333L54.8721 59.5113L52.2878 50.2039L46.0856 43.2234Z" fill="#FF5200"/>
<path d="M43.6411 42.0565C43.6411 42.0565 45.8271 40.8966 46.6024 41.9307C47.3777 42.9649 57.1978 44.5161 57.1978 45.2917C57.1978 46.0673 59.2652 67.0089 58.7484 68.8187C58.2315 70.6285 59.7821 72.6968 59.7821 72.6968L61.591 80.4529C61.591 80.4529 66.5011 95.1896 64.4337 95.7066C62.3663 96.2237 60.5573 95.7066 59.7821 95.7066C59.0068 95.7066 59.2652 85.8822 57.1978 83.2968C55.1304 80.7114 52.2877 74.248 51.7709 72.9553C51.254 71.6626 44.7934 53.8235 45.0518 51.7552C45.3103 49.6869 43.6411 42.0565 43.6411 42.0565Z" fill="#D0CDE1"/>
<path d="M32.9061 43.2234C32.9061 43.2234 30.8387 43.2234 30.5803 43.7405C30.3218 44.2575 27.7376 47.6185 26.7039 48.3942C25.6702 49.1698 22.0522 52.5308 22.0522 53.3064C22.0522 54.082 29.5466 59.7698 29.5466 59.7698C29.5466 59.7698 32.6477 75.0236 31.0971 80.1943C29.5466 85.3651 27.2207 97.7749 28.2544 98.5505C29.2881 99.3261 31.614 99.5847 31.614 98.5505C31.614 97.5164 33.1645 86.3992 34.4567 84.0724C35.7488 81.7456 39.6252 67.0089 38.0746 62.8723C36.524 58.7357 32.9061 43.2234 32.9061 43.2234Z" fill="#D0CDE1"/>
<path d="M67.0181 68.8187C67.0181 68.8187 67.2765 76.8333 64.4338 80.9699C61.5912 85.1066 59.7822 89.7602 59.7822 89.7602C59.7822 89.7602 55.1306 88.4676 54.3553 86.9163C53.58 85.3651 48.6699 86.6578 48.6699 86.1407C48.6699 85.6236 54.6137 83.0383 55.1305 82.5212C55.6474 82.0041 57.4564 82.0041 58.4901 80.9699C59.5238 79.9358 59.7822 77.609 59.7822 77.609L60.8159 70.887L67.0181 68.8187Z" fill="#9F616A"/>
<path d="M45.4989 26.8458C46.155 26.7862 46.8316 26.7206 47.4114 26.4078C48.7106 25.7068 49.0551 23.7107 48.0661 22.6144C47.7934 22.3355 47.4884 22.0902 47.1576 21.8836L45.1932 20.5459C44.3244 19.9543 43.4351 19.353 42.4218 19.0741C41.5053 18.8219 40.5373 18.8478 39.5885 18.9068C37.7468 19.0213 35.8937 19.2579 34.1614 19.894C32.4291 20.5302 30.8132 21.5945 29.7641 23.1132C28.1009 25.5208 28.078 28.7678 28.9941 31.5472C29.9101 34.3267 31.6502 36.747 33.3648 39.1183L34.2544 34.7756C34.3336 34.3888 34.4361 33.9648 34.7577 33.7359C35.5569 33.1669 36.5345 34.3351 37.5154 34.3276C38.1456 34.3227 38.6748 33.8041 38.9136 33.2206C39.1525 32.6371 39.1682 31.9909 39.2235 31.3627C39.3405 30.0323 39.8053 28.1812 41.0647 27.4475C42.2382 26.7637 44.1798 26.9657 45.4989 26.8458Z" fill="#2F2E41"/>
<path opacity="0.1" d="M45.0203 98.2422C45.0203 98.2422 44.1474 123.499 43.6306 124.275C43.1137 125.051 43.6306 98.1628 43.6306 98.1628L45.0203 98.2422Z" fill="black"/>
<path d="M55.1304 45.2917H57.1978C57.1978 45.2917 65.9842 57.1845 64.9505 57.9601C63.9168 58.7357 64.9505 60.804 64.9505 60.804L67.0179 64.6821C67.0179 64.6821 69.6022 67.0089 68.8269 67.526C68.0516 68.0431 67.0179 70.1114 67.0179 70.1114C67.0179 70.1114 61.8494 69.3358 60.2989 72.4382L56.9471 68.2051L55.1304 45.2917Z" fill="#D0CDE1"/>
<path d="M55.8612 49.117L48.7671 52.0478L54.2262 65.2737L61.3204 62.3429L55.8612 49.117Z" fill="#2F2E41"/>
<path d="M55.0299 56.8741C55.8135 56.5504 56.2078 55.7041 55.9105 54.984C55.6133 54.2638 54.7371 53.9424 53.9535 54.2661C53.1699 54.5899 52.7756 55.4361 53.0729 56.1563C53.3701 56.8764 54.2463 57.1978 55.0299 56.8741Z" fill="#FF5200"/>
<path d="M49.962 65.9748C49.962 65.9748 31.3554 81.4871 28.2543 76.5749C25.1532 71.6627 31.6139 67.5261 31.6139 67.5261C31.6139 67.5261 37.2992 67.7846 43.7598 63.648L50.2205 60.8041C50.2205 60.8041 56.1185 52.3798 58.1284 55.5877C60.1383 58.7956 54.6976 64.3786 49.962 65.9748Z" fill="#9F616A"/>
<path d="M24.8949 52.2723L22.0523 53.3064V61.0626L21.0186 62.6138C21.0186 62.6138 21.277 65.7162 22.0523 66.4919C22.8275 67.2675 24.3781 67.0089 23.8612 68.8187C23.5506 69.9986 23.463 71.2261 23.6028 72.4382C23.6028 72.4382 28.2545 78.3846 28.5129 77.609C28.7713 76.8334 32.3893 67.2675 32.9061 67.2675C33.423 67.2675 27.7376 52.2723 27.7376 52.2723H24.8949Z" fill="#D0CDE1"/>
<path d="M58.8778 91.4408C58.8778 91.4408 61.5498 88.8554 60.2138 88.7261C58.8778 88.5969 54.2261 86.0115 53.4509 87.3042C52.6756 88.5969 58.8778 91.4408 58.8778 91.4408Z" fill="#2F2E41"/>
<path d="M109.698 42.1222C111.757 42.1222 113.426 41.2382 113.426 40.1477C113.426 39.0572 111.757 38.1732 109.698 38.1732C107.639 38.1732 105.97 39.0572 105.97 40.1477C105.97 41.2382 107.639 42.1222 109.698 42.1222Z" fill="#57B894"/>
<path d="M123.952 46.7293C115.546 43.5531 107.14 43.5531 98.7334 46.7293V36.4182C106.956 33.9357 115.729 33.9357 123.952 36.4182V46.7293Z" stroke="#3F3D56" stroke-width="2" stroke-miterlimit="10"/>
<path d="M120.443 44.5969C114.376 42.3045 108.309 42.3045 102.242 44.5969V37.1549C108.177 35.3632 114.508 35.3632 120.443 37.1549V44.5969Z" stroke="#3F3D56" stroke-width="2" stroke-miterlimit="10"/>
<path d="M111.014 41.2447C113.072 41.2447 114.742 40.3607 114.742 39.2702C114.742 38.1797 113.072 37.2957 111.014 37.2957C108.955 37.2957 107.286 38.1797 107.286 39.2702C107.286 40.3607 108.955 41.2447 111.014 41.2447Z" stroke="#3F3D56" stroke-width="2" stroke-miterlimit="10"/>
<path d="M112.439 54.4876C114.456 54.0757 115.915 52.8757 115.697 51.8072C115.479 50.7388 113.667 50.2065 111.65 50.6184C109.632 51.0303 108.174 52.2304 108.392 53.2988C108.61 54.3673 110.422 54.8995 112.439 54.4876Z" fill="#57B894"/>
<path d="M127.326 56.15C118.455 54.7197 110.218 56.4014 102.617 61.1952L100.556 51.0923C108.116 47.0149 116.712 45.2599 125.265 46.0471L127.326 56.15Z" stroke="#3F3D56" stroke-width="2" stroke-miterlimit="10"/>
<path d="M123.462 54.7626C117.059 53.7302 111.114 54.944 105.628 58.4039L104.141 51.1123C109.597 48.1694 115.801 46.9028 121.974 47.4709L123.462 54.7626Z" stroke="#3F3D56" stroke-width="2" stroke-miterlimit="10"/>
<path d="M113.553 53.3646C115.57 52.9527 117.029 51.7526 116.811 50.6842C116.593 49.6157 114.781 49.0835 112.763 49.4954C110.746 49.9073 109.288 51.1074 109.506 52.1758C109.723 53.2443 111.536 53.7765 113.553 53.3646Z" stroke="#3F3D56" stroke-width="2" stroke-miterlimit="10"/>
<path d="M114.99 65.0842C115.066 63.9964 113.462 62.9986 111.408 62.8556C109.355 62.7126 107.628 63.4786 107.553 64.5664C107.477 65.6543 109.081 66.652 111.134 66.795C113.188 66.938 114.915 66.1721 114.99 65.0842Z" fill="#57B894"/>
<path d="M125.034 72.3809C116.869 68.6286 108.483 68.0448 99.8765 70.6295L100.592 60.3433C108.967 58.4379 117.719 59.0471 125.749 62.0947L125.034 72.3809Z" stroke="#3F3D56" stroke-width="2" stroke-miterlimit="10"/>
<path d="M121.682 70.0101C115.789 67.3019 109.736 66.8805 103.525 68.746L104.041 61.322C110.086 59.9468 116.402 60.3865 122.198 62.586L121.682 70.0101Z" stroke="#3F3D56" stroke-width="2" stroke-miterlimit="10"/>
<path d="M116.364 64.3002C116.44 63.2123 114.836 62.2145 112.782 62.0716C110.728 61.9286 109.002 62.6945 108.926 63.7824C108.85 64.8702 110.454 65.868 112.508 66.011C114.562 66.154 116.288 65.388 116.364 64.3002Z" stroke="#3F3D56" stroke-width="2" stroke-miterlimit="10"/>
<path d="M94.9884 46.9687C94.9884 46.9687 78.8714 44.7628 67.3618 51.5108" stroke="#3F3D56" stroke-width="2" stroke-miterlimit="10"/>
<path d="M67.7494 49.2432L68.168 49.3757L67.5136 51.4377L69.6175 51.9399L69.5151 52.3671L66.9531 51.7547L67.7494 49.2432Z" fill="#3F3D56"/>
</g>
<defs>
<filter id="filter0_d" x="0" y="0" width="249" height="183" filterUnits="userSpaceOnUse" color-interpolation-filters="sRGB">
<feFlood flood-opacity="0" result="BackgroundImageFix"/>
<feColorMatrix in="SourceAlpha" type="matrix" values="0 0 0 0 0 0 0 0 0 0 0 0 0 0 0 0 0 0 127 0"/>
<feOffset dy="4"/>
<feGaussianBlur stdDeviation="2"/>
<feColorMatrix type="matrix" values="0 0 0 0 0 0 0 0 0 0 0 0 0 0 0 0 0 0 0.25 0"/>
<feBlend mode="normal" in2="BackgroundImageFix" result="effect1_dropShadow"/>
<feBlend mode="normal" in="SourceGraphic" in2="effect1_dropShadow" result="shape"/>
</filter>
<clipPath id="clip0">
<rect width="241" height="175" fill="white" transform="translate(4)"/>
</clipPath>
</defs>
</svg>
