<svg width="281" height="176" viewBox="0 0 281 176" fill="none" xmlns="http://www.w3.org/2000/svg">
<g clip-path="url(#clip0)">
<path opacity="0.1" d="M168.924 126.854C174.353 126.514 181.088 122.471 186.325 120.682C192.523 118.571 198.745 116.54 204.993 114.589C226.741 107.794 248.722 102.004 270.937 97.2192C273.01 96.7714 275.086 96.3345 277.166 95.9083C273.926 88.2217 268.907 81.6026 262.61 76.7121C262.771 75.0294 262.853 73.3387 262.856 71.6467C262.856 44.9063 243.394 23.2286 219.379 23.2286C211.986 23.22 204.716 25.3155 198.28 29.3109C181.282 17.0331 159.097 9.60217 134.824 9.60217C100.332 9.60217 70.0537 24.6069 52.8965 47.2016L133.532 62.1605L182.987 71.3311C126.607 73.1787 70.0537 75.0155 13.8365 70.6784C6.41555 78.5631 1.71861 89.0332 0.548386 100.299C-0.621837 111.565 1.8073 122.928 7.42066 132.445C7.42066 133.413 7.45751 134.374 7.52383 135.326C8.95585 135.776 10.3387 136.213 11.5792 136.499C31.4932 141.118 51.5349 144.984 71.7043 148.097C56.8413 158.16 38.7409 159.585 21.5959 163.846C29.8982 171.372 41.1726 175.984 53.5965 175.984H238.585C258.616 175.984 274.852 160.672 274.852 141.78C277.858 136.337 279.861 130.299 280.747 124.008C243.682 127.938 206.154 124.526 168.924 126.854Z" fill="#EE5239"/>
<g opacity="0.5" filter="url(#filter0_d)">
<path d="M281 115.962C281.02 108.176 279.334 100.5 276.085 93.5792C272.836 86.6588 268.119 80.698 262.332 76.1996C262.492 74.5177 262.574 72.8279 262.578 71.1369C262.578 44.3965 243.107 22.7269 219.101 22.7269C211.707 22.7182 204.437 24.8127 197.999 28.8064C181.002 16.5232 158.814 9.08966 134.541 9.08966C95.0587 9.08966 61.0734 28.766 46.0016 56.9818C45.164 56.9278 44.3215 56.8982 43.4716 56.8982C19.4638 56.8982 -0.00479792 78.5758 -0.00479792 105.316C-0.0216254 114.761 2.46354 124.008 7.14793 131.93C7.14793 155.989 27.8275 175.493 53.3262 175.493H238.32C258.348 175.493 274.584 160.178 274.584 141.287C278.797 133.651 281.016 124.89 281 115.962Z" fill="#EE5239"/>
</g>
<g opacity="0.1">
<path opacity="0.1" d="M193.898 39.938L193.591 39.9622L193.556 39.9892C193.671 39.9841 193.786 39.9669 193.898 39.938Z" fill="black"/>
</g>
<path d="M183.977 52.8801L183.81 55.3426C183.785 55.6771 183.203 63.6393 178.909 72.9448C175.225 80.9259 168.055 91.3211 154.518 97.1633C153.462 97.6218 152.366 98.0498 151.229 98.4472L149.962 94.0776C153.144 92.978 156.209 91.5059 159.104 89.6865C166.004 85.3116 171.369 79.0675 175.109 71.0325C177.094 66.7544 178.509 62.1853 179.31 57.4654H163.909V52.8801H183.977Z" fill="#EE5239"/>
<path opacity="0.1" d="M152.86 97.166C166.394 91.3237 173.567 80.9313 177.249 72.9502C181.542 63.6447 182.127 55.6879 182.149 55.348L182.316 52.8854H184.035L183.868 55.348C183.846 55.6825 183.262 63.6447 178.968 72.9502C175.284 80.9313 168.114 91.3237 154.58 97.166C153.523 97.6245 152.426 98.0533 151.288 98.4525L151.121 97.878C151.714 97.6461 152.294 97.4087 152.86 97.166Z" fill="white"/>
<path d="M125.762 94.0776L124.495 98.4472C123.357 98.048 122.26 97.6191 121.203 97.1606C107.669 91.3184 100.497 80.9259 96.8149 72.9448C92.5213 63.6393 91.9367 55.6825 91.9146 55.3426L91.7476 52.8801H111.806V57.4654H96.4022C97.2074 62.1859 98.6261 66.755 100.615 71.0325C104.356 79.0675 109.718 85.3116 116.618 89.6838C119.513 91.5051 122.579 92.9782 125.762 94.0776Z" fill="#EE5239"/>
<path opacity="0.1" d="M122.859 98.2659C109.325 92.4237 102.152 82.0313 98.4703 74.0501C94.1767 64.7447 93.5921 56.7878 93.57 56.448L93.403 53.9854H91.6836L91.8506 56.448C91.8727 56.7824 92.4573 64.7447 96.7509 74.0501C100.435 82.0313 107.605 92.4237 121.139 98.2659C122.196 98.7244 123.293 99.1533 124.431 99.5525L124.598 98.978C124.007 98.746 123.427 98.5087 122.859 98.2659Z" fill="white"/>
<path d="M161.032 136.316V161.042H114.689V136.316L116.163 134.159C131.181 128.306 134.224 113.042 134.831 107.003C134.921 106.168 134.973 105.329 134.986 104.489H140.716C140.729 105.329 140.781 106.168 140.871 107.003C141.488 113.042 144.531 128.311 159.539 134.159L161.032 136.316Z" fill="#EE5239"/>
<path opacity="0.1" d="M161.032 136.316H114.689V139.418H161.032V136.316Z" fill="black"/>
<path opacity="0.1" d="M118.62 135.259C133.637 129.406 136.681 114.142 137.287 108.103C137.378 107.268 137.429 106.429 137.442 105.589H134.986C134.973 106.429 134.921 107.268 134.831 108.103C134.215 114.142 131.171 129.411 116.163 135.259L114.689 137.416V162.142H117.146V137.416L118.62 135.259Z" fill="white"/>
<path opacity="0.1" d="M125.762 95.1776L124.495 99.5472C123.356 99.148 122.259 98.7191 121.203 98.2606C119.466 95.9307 117.93 93.4276 116.617 90.7838C119.513 92.6051 122.579 94.0782 125.762 95.1776Z" fill="black"/>
<path opacity="0.1" d="M149.959 95.1775C153.141 94.0779 156.206 92.6058 159.101 90.7864C157.787 93.4305 156.252 95.9345 154.515 98.2659C153.459 98.7244 152.363 99.1524 151.226 99.5498L149.959 95.1775Z" fill="black"/>
<path opacity="0.1" d="M140.881 108.103C138.886 108.527 136.836 108.527 134.841 108.103C134.931 107.268 134.983 106.429 134.996 105.589H140.726C140.739 106.429 140.791 107.268 140.881 108.103Z" fill="black"/>
<path d="M108.141 45.2846C108.246 79.286 121.51 106.782 137.862 106.782C154.213 106.782 167.475 79.286 167.583 45.2846H108.141Z" fill="#EE5239"/>
<path opacity="0.1" d="M113.422 46.3846H108.141C108.246 80.3859 121.51 107.882 137.862 107.882C138.747 107.88 139.63 107.798 140.502 107.636C125.386 104.863 113.522 78.5356 113.422 46.3846Z" fill="white"/>
<path d="M153.621 145.781H122.1V154.682H153.621V145.781Z" fill="#3F3D56"/>
<path opacity="0.1" d="M123.573 146.995H153.621V145.781H122.1V154.682H123.573V146.995Z" fill="white"/>
</g>
<rect width="281" height="176" stroke="white"/>
<defs>
<filter id="filter0_d" x="-4.00488" y="9.08966" width="289.005" height="174.403" filterUnits="userSpaceOnUse" color-interpolation-filters="sRGB">
<feFlood flood-opacity="0" result="BackgroundImageFix"/>
<feColorMatrix in="SourceAlpha" type="matrix" values="0 0 0 0 0 0 0 0 0 0 0 0 0 0 0 0 0 0 127 0"/>
<feOffset dy="4"/>
<feGaussianBlur stdDeviation="2"/>
<feColorMatrix type="matrix" values="0 0 0 0 0 0 0 0 0 0 0 0 0 0 0 0 0 0 0.25 0"/>
<feBlend mode="normal" in2="BackgroundImageFix" result="effect1_dropShadow"/>
<feBlend mode="normal" in="SourceGraphic" in2="effect1_dropShadow" result="shape"/>
</filter>
<clipPath id="clip0">
</clipPath>
</defs>
</svg>
