<svg width="252" height="177" viewBox="0 0 252 177" fill="none" xmlns="http://www.w3.org/2000/svg">
<g opacity="0.5" filter="url(#filter0_d)">
<path d="M247.136 93.8613C247.131 101.877 245.341 109.795 241.889 117.071C238.437 124.347 233.405 130.807 227.141 136.005C220.877 141.203 213.529 145.015 205.606 147.179C197.682 149.342 189.371 149.806 181.245 148.537H91.1148C87.6336 149.002 84.1239 149.236 80.6101 149.236C46.369 149.236 17.3697 127.355 7.56102 97.1664C5.19362 89.8726 3.99258 82.2674 4.00003 74.6178C4.00003 33.4065 38.3005 0 80.6101 0C114.686 0 143.56 21.664 153.511 51.6351C163.775 43.1288 176.817 38.4669 190.294 38.4871C221.683 38.4871 247.136 63.2784 247.136 93.8613Z" fill="#EE5239"/>
</g>
<path opacity="0.5" d="M225.297 137.489C219.128 142.18 212.032 145.583 204.453 147.484C196.874 149.385 188.973 149.743 181.245 148.537H91.1148C87.6336 149.002 84.1239 149.236 80.6101 149.236C46.369 149.236 17.3697 127.355 7.56104 97.1664C14.8973 81.8935 33.7506 71.0254 55.8551 71.0254C77.395 71.0254 95.8472 81.3479 103.563 96.0089C107.358 95.3368 111.207 94.9999 115.063 95.0023C137.389 95.0023 156.397 106.092 163.574 121.606C169.519 119.851 175.699 118.966 181.912 118.979C200.12 118.979 216.123 126.354 225.297 137.489Z" fill="#EE5239"/>
<path d="M163.024 65.6513H62.4336V73.2991H163.024V65.6513Z" fill="white"/>
<path d="M163.024 82.1871H62.4336V89.8349H163.024V82.1871Z" fill="white"/>
<path d="M163.024 98.7228H62.4336V106.371H163.024V98.7228Z" fill="white"/>
<path d="M183.316 68.8716L182.781 69.3925L184.5 71.0667L188.32 67.3462L187.786 66.8253L184.5 70.0064L183.316 68.8716ZM187.938 69.5785C187.938 70.1994 187.737 70.8046 187.365 71.3085C186.992 71.8123 186.466 72.1895 185.862 72.3868C185.257 72.5841 184.605 72.5915 183.996 72.4079C183.386 72.2243 182.852 71.8591 182.468 71.3638C182.083 70.8684 181.868 70.268 181.853 69.6472C181.838 69.0265 182.023 68.4167 182.383 67.904C182.742 67.3913 183.258 67.0016 183.857 66.7899C184.457 66.5782 185.109 66.5551 185.723 66.724L186.315 66.1473C185.862 65.9586 185.375 65.8636 184.882 65.8683C184.127 65.8683 183.388 66.0865 182.76 66.4953C182.132 66.9041 181.642 67.4852 181.353 68.165C181.064 68.8449 180.989 69.593 181.136 70.3147C181.283 71.0364 181.647 71.6993 182.181 72.2197C182.716 72.74 183.396 73.0943 184.137 73.2379C184.878 73.3815 185.646 73.3078 186.344 73.0262C187.042 72.7446 187.639 72.2677 188.059 71.6559C188.478 71.044 188.702 70.3247 188.702 69.5888L187.938 69.5785Z" fill="#3ACC6C"/>
<path d="M183.316 85.4074L182.781 85.9283L184.5 87.6025L188.32 83.882L187.786 83.3611L184.5 86.5422L183.316 85.4074ZM187.938 86.1143C187.938 86.7353 187.737 87.3404 187.365 87.8443C186.992 88.3482 186.466 88.7254 185.862 88.9226C185.257 89.1199 184.605 89.1273 183.996 88.9437C183.386 88.7602 182.852 88.3949 182.468 87.8996C182.083 87.4043 181.868 86.8038 181.853 86.1831C181.838 85.5623 182.023 84.9525 182.383 84.4398C182.742 83.9272 183.258 83.5375 183.857 83.3257C184.457 83.114 185.109 83.0909 185.723 83.2598L186.315 82.6831C185.862 82.4945 185.375 82.3994 184.882 82.4041C184.127 82.4041 183.388 82.6223 182.76 83.0311C182.132 83.4399 181.642 84.021 181.353 84.7009C181.064 85.3807 180.989 86.1288 181.136 86.8505C181.283 87.5722 181.647 88.2352 182.181 88.7555C182.716 89.2758 183.396 89.6302 184.137 89.7737C184.878 89.9173 185.646 89.8436 186.344 89.562C187.042 89.2804 187.639 88.8035 188.059 88.1917C188.478 87.5798 188.702 86.8605 188.702 86.1247L187.938 86.1143Z" fill="#3ACC6C"/>
<g opacity="0.5" filter="url(#filter1_d)">
<path d="M125.674 169C185.448 169 233.904 166.64 233.904 163.729C233.904 160.818 185.448 158.458 125.674 158.458C65.9002 158.458 17.4438 160.818 17.4438 163.729C17.4438 166.64 65.9002 169 125.674 169Z" fill="#EE5239"/>
</g>
<path opacity="0.5" d="M196.771 51.5648C196.588 51.31 196.488 51.0076 196.483 50.6967C196.483 48.8137 200.426 47.2862 205.29 47.2862C210.154 47.2862 214.097 48.8137 214.097 50.6967C214.087 51.05 213.959 51.3905 213.732 51.6661C219.147 52.2531 222.797 53.3569 222.797 54.624C222.797 56.507 214.72 58.0345 204.759 58.0345C194.798 58.0345 186.721 56.507 186.721 54.624C186.721 53.2887 190.816 52.1229 196.771 51.5648Z" fill="#EE5239"/>
<path opacity="0.5" d="M165.136 15.3886C164.988 15.1801 164.906 14.9334 164.901 14.6797C164.901 13.1418 168.118 11.8975 172.084 11.8975C176.05 11.8975 179.27 13.1377 179.27 14.6797C179.263 14.9672 179.159 15.2445 178.975 15.4693C183.391 15.9509 186.368 16.85 186.368 17.8835C186.368 19.4192 179.79 20.6656 171.653 20.6656C163.517 20.6656 156.936 19.4254 156.936 17.8835C156.936 16.788 160.278 15.8434 165.136 15.3886Z" fill="#EE5239"/>
<path opacity="0.5" d="M68.858 28.7433C68.6222 28.5339 68.4565 28.2602 68.3826 27.9579C67.9582 26.1183 71.4683 23.7929 76.2155 22.7636C80.9628 21.7342 85.1541 22.3874 85.5743 24.227C85.644 24.5736 85.5955 24.9328 85.4363 25.2501C90.8521 24.6776 94.6614 24.9814 94.9436 26.2175C95.368 28.055 87.8216 31.2568 78.0979 33.3651C68.3741 35.4734 60.1508 35.6966 59.7306 33.857C59.4314 32.5486 63.177 30.5519 68.858 28.7433Z" fill="#EE5239"/>
<path opacity="0.5" d="M47.4153 26.9988C46.9208 26.7197 46.2524 26.9864 45.9128 27.4349C45.5733 27.8835 45.4778 28.4684 45.3929 29.012C45.204 30.2336 45.0661 31.6371 45.9128 32.559C44.5292 28.4725 40.5501 25.3411 36.1509 24.8843" stroke="#EE5239" stroke-width="3" stroke-miterlimit="10"/>
<path opacity="0.5" d="M90.5017 46.2733C90.1834 46.0935 89.7547 46.2733 89.5361 46.5544C89.3424 46.8609 89.2274 47.2083 89.2008 47.5672C89.0799 48.3548 88.9886 49.256 89.5361 49.8409C89.0701 48.5291 88.2351 47.3711 87.1265 46.4988C86.0178 45.6265 84.6799 45.075 83.2651 44.907" stroke="#EE5239" stroke-width="3" stroke-miterlimit="10"/>
<path opacity="0.5" d="M160.639 34.0203C160.321 33.8426 159.892 34.0203 159.673 34.3014C159.479 34.6085 159.364 34.9567 159.338 35.3163C159.217 36.1018 159.126 37.003 159.673 37.59C159.207 36.2784 158.372 35.1207 157.263 34.2485C156.155 33.3762 154.817 32.8245 153.402 32.6561" stroke="#EE5239" stroke-width="3" stroke-miterlimit="10"/>
<path d="M47.3984 158.547C47.4 159.086 47.3431 159.624 47.2286 160.151C47.2074 160.25 47.1841 160.358 47.1607 160.443C46.558 162.797 44.8582 164.519 42.8294 164.628C42.7615 164.628 42.6936 164.628 42.6172 164.628C40.4717 164.628 38.6572 162.826 38.0588 160.343C38.0418 160.277 38.0269 160.211 38.0121 160.137C37.8976 159.609 37.8407 159.072 37.8423 158.533C37.8423 155.17 39.9793 152.446 42.6172 152.446C45.255 152.446 47.3984 155.191 47.3984 158.547Z" fill="#3F3D56"/>
<path opacity="0.1" d="M47.3982 158.547C47.3998 159.086 47.3429 159.624 47.2285 160.151C47.2072 160.251 47.1839 160.358 47.1605 160.443C47.0884 160.443 47.0184 160.443 46.9483 160.443C46.4228 160.415 45.9004 160.346 45.3864 160.236C44.931 160.373 44.4656 160.477 43.9943 160.546C43.6329 160.599 43.2687 160.632 42.9035 160.645H42.5342C42.097 160.645 41.6603 160.617 41.227 160.561C40.5262 160.47 39.838 160.303 39.1748 160.065C38.8118 160.182 38.4419 160.279 38.0671 160.354C38.0501 160.288 38.0352 160.222 38.0204 160.147C37.9059 159.62 37.849 159.082 37.8506 158.543C37.8506 155.18 39.9876 152.456 42.6255 152.456C45.2633 152.456 47.3982 155.191 47.3982 158.547Z" fill="black"/>
<path d="M57.5844 147.208C57.5864 145.728 57.2302 144.269 56.5446 142.948L50.9293 144.649L55.8591 141.826C55.0321 140.662 53.9476 139.695 52.6856 138.995C51.4236 138.294 50.0163 137.878 48.5674 137.778C48.3367 137.438 48.0837 137.112 47.8097 136.803L39.7455 139.248L46.3603 135.459C45.0949 134.513 43.6097 133.886 42.0361 133.632C40.4624 133.379 38.8488 133.507 37.3381 134.005C35.8274 134.504 34.4661 135.357 33.3747 136.49C32.2832 137.623 31.4954 139 31.0807 140.501L37.9884 148.246L30.495 142.967C28.5968 144.278 27.2455 146.21 26.6873 148.41C26.129 150.611 26.401 152.933 27.4536 154.955C28.5063 156.976 30.2695 158.562 32.4221 159.423C34.5747 160.285 36.9734 160.364 39.181 159.647C41.178 160.362 43.3603 160.421 45.3947 159.814C46.813 160.118 48.2833 160.109 49.6973 159.787C51.1114 159.464 52.4332 158.837 53.5656 157.951C54.698 157.066 55.6122 155.944 56.2408 154.669C56.8694 153.394 57.1966 151.998 57.1982 150.583C57.1982 150.377 57.1982 150.17 57.177 149.963C57.452 149.069 57.5893 148.141 57.5844 147.208Z" fill="#EE5239"/>
<path opacity="0.1" d="M57.4173 148.961C54.4518 148.413 51.4109 148.375 48.4321 148.849C45.06 149.393 41.6136 150.587 38.3157 149.715C36.3803 149.202 34.7081 148.016 32.8172 147.357C30.9929 146.737 29.0276 146.622 27.1404 147.026C26.4213 148.702 26.2127 150.544 26.5395 152.332C26.8663 154.12 27.7148 155.778 28.9835 157.109C30.2522 158.44 31.8875 159.387 33.6941 159.837C35.5006 160.287 37.402 160.221 39.171 159.647C41.1679 160.362 43.3502 160.421 45.3847 159.814C46.803 160.118 48.2732 160.109 49.6873 159.786C51.1013 159.464 52.4231 158.837 53.5555 157.951C54.6879 157.066 55.6021 155.944 56.2307 154.669C56.8594 153.394 57.1865 151.998 57.1881 150.583C57.1881 150.377 57.1881 150.17 57.1669 149.963C57.2693 149.634 57.3529 149.299 57.4173 148.961Z" fill="black"/>
<path d="M219.156 148.181L227.81 143.221C226.64 141.271 225.145 139.524 223.385 138.053L207.059 143.014L219.852 135.689C216.684 133.999 213.119 133.141 209.507 133.201C205.896 133.261 202.363 134.235 199.256 136.029C196.149 137.823 193.575 140.374 191.788 143.432C190.001 146.489 189.062 149.947 189.063 153.465C189.063 164.651 198.376 165.04 209.861 165.04C221.346 165.04 230.658 164.651 230.658 153.465C230.661 150.634 230.053 147.834 228.873 145.246L219.156 148.181Z" fill="#EE5239"/>
<path opacity="0.1" d="M221.348 159.056C220.465 158.124 219.368 157.402 218.281 156.71C216.709 155.695 215.083 154.657 213.233 154.312C211.605 154.008 209.926 154.265 208.273 154.172C205.395 154.001 202.686 152.792 200.674 150.78C199.492 149.589 198.562 148.128 197.14 147.218C195.608 146.239 193.664 146.028 191.848 146.272C191.32 146.347 190.797 146.451 190.281 146.584C189.466 148.788 189.05 151.113 189.053 153.456C189.053 164.643 198.365 165.031 209.85 165.031C215.423 165.031 220.484 164.941 224.219 163.568L223.595 162.431C222.946 161.245 222.284 160.046 221.348 159.056Z" fill="black"/>
<path d="M146.003 163.911C145.908 163.583 145.702 163.296 145.419 163.097C145.385 163.074 145.349 163.053 145.313 163.033C145.018 162.899 144.7 162.819 144.375 162.799C143.157 162.646 141.877 162.417 140.954 161.64C140.687 161.414 140.459 161.152 140.213 160.91C139.691 160.424 139.128 159.981 138.53 159.585C138.472 159.532 138.403 159.491 138.328 159.464C138.253 159.437 138.173 159.424 138.093 159.428C137.863 159.251 137.673 159.029 137.535 158.777C137.403 158.456 137.341 158.112 137.353 157.766C137.23 154.252 136.463 150.639 137.314 147.224C137.405 146.839 137.38 146.437 137.242 146.065C137.414 145.988 137.586 145.91 137.756 145.825C139.196 145.089 140.476 144.089 141.527 142.88C142.017 142.366 142.407 141.768 142.675 141.117C142.995 140.24 142.949 139.281 142.834 138.359C142.598 136.734 142.264 135.124 141.835 133.537L140.861 129.61C140.648 128.746 140.413 127.859 139.942 127.105H139.986C139.954 126.668 139.92 126.232 139.855 125.8C139.716 125.014 139.524 124.237 139.282 123.475C139.197 123.186 139.131 122.782 139.033 122.394C139.21 120.631 139.914 118.919 140.033 117.162C140.071 117.212 140.107 117.262 140.148 117.311C140.44 117.667 140.844 117.931 141.141 118.276C141.697 118.934 141.822 119.823 141.939 120.66C141.974 121.096 142.086 121.524 142.268 121.925C142.37 122.09 142.46 122.262 142.537 122.439C142.66 122.797 142.569 123.186 142.495 123.558C142.391 124.087 142.35 124.703 142.743 125.089C142.954 125.287 143.229 125.407 143.522 125.426C143.804 125.446 144.087 125.397 144.346 125.286C144.605 125.175 144.832 125.004 145.007 124.787C145.408 124.281 145.466 123.601 145.449 122.966C145.452 122.488 145.372 122.013 145.211 121.561C144.99 121.086 144.717 120.636 144.398 120.217C143.829 119.362 143.411 118.425 142.942 117.516C142.571 116.773 142.139 116.06 141.65 115.385C141.385 115.025 141.096 114.68 140.858 114.306C140.78 114.182 140.392 113.258 140.029 112.334C140.215 112.297 140.409 112.222 140.453 112.053C140.471 111.953 140.46 111.851 140.421 111.757C139.624 109.088 139.479 106.275 139.997 103.541C140.137 102.801 140.326 102.063 140.324 101.313C140.322 100.562 140.111 99.7729 139.545 99.2458C139.197 98.9213 138.743 98.7167 138.382 98.4066C137.688 97.8072 137.41 96.8874 137.232 96.0069C137.177 95.5937 137.045 95.1937 136.843 94.8266C136.788 94.7446 136.725 94.6672 136.657 94.5951C137.157 93.2779 137.411 91.8842 137.408 90.4798C137.407 89.4258 137.265 88.3764 136.983 87.3587C137.098 87.6356 137.196 87.9188 137.3 88.2082C136.413 83.698 132.939 80.333 128.79 80.333H128.675C123.97 80.333 120.133 84.6592 119.951 90.0767C119.02 90.6555 118.28 91.4842 117.821 92.463C117.362 93.4418 117.203 94.5289 117.364 95.5935C116.295 96.6352 115.694 98.0478 115.694 99.5207C115.705 101.024 116.329 102.46 117.427 103.516C118.526 104.571 120.01 105.158 121.553 105.147C122.54 105.147 123.512 104.905 124.378 104.444C124.428 104.91 124.514 105.372 124.635 105.825C124.83 106.544 125.131 107.239 125.271 107.968C125.411 108.698 125.403 109.5 124.995 110.133C124.666 110.622 124.419 111.159 124.263 111.724C124.124 112.404 124.08 113.1 124.134 113.791C124.153 114.424 124.17 115.054 124.189 115.687C124.261 118.167 124.331 120.647 123.815 123.082C123.582 124.186 122.992 125.234 123.126 126.354C123.192 126.761 123.314 127.157 123.486 127.532C123.699 128.074 123.975 128.657 124.514 128.919C124.777 129.034 125.061 129.093 125.35 129.095C125.704 129.111 126.059 129.096 126.411 129.05C126.623 129.021 126.909 128.882 126.835 128.684C126.802 128.616 126.748 128.559 126.682 128.52C126.406 128.308 126.183 128.038 126.028 127.73C125.874 127.421 125.793 127.084 125.791 126.741C125.791 125.761 126.46 124.816 126.254 123.847C126.124 123.252 125.666 122.675 125.859 122.096C126.283 120.788 126.347 119.384 126.708 118.057C126.829 117.625 126.95 117.191 127.073 116.759C127.285 115.986 127.497 115.211 127.682 114.43C128.119 112.565 128.336 110.657 128.327 108.744C128.671 109.359 128.906 110.028 129.021 110.72C129.085 111.222 129.051 111.753 129.293 112.202C129.535 112.65 130.014 112.979 130.301 113.411C130.183 113.673 130.049 113.928 129.9 114.174C129.599 114.549 129.324 114.944 129.078 115.356C128.866 115.769 128.718 116.195 128.537 116.615C127.932 118.024 126.895 119.302 126.744 120.821C126.621 122.042 127.096 123.237 127.578 124.372C127.861 125.05 128.154 125.725 128.459 126.398C128.478 126.441 128.499 126.489 128.522 126.532C128.558 126.877 128.605 127.22 128.652 127.565H129.431C129.749 127.979 130.103 128.392 130.294 128.874C130.42 129.247 130.492 129.636 130.507 130.029C130.661 131.89 130.632 133.797 131.355 135.527C131.568 136.042 131.78 136.561 131.801 137.084C131.824 137.52 131.895 137.952 132.013 138.374C132.121 138.829 132.178 139.295 132.183 139.763C132.207 140.566 132.186 141.37 132.119 142.171C130.422 143.204 129.008 144.697 127.48 145.988C125.375 147.765 122.985 149.195 120.405 150.22C120.405 150.18 120.405 150.139 120.405 150.1C119.679 150.067 118.987 150.306 118.33 150.635C118.098 150.747 117.873 150.866 117.65 150.984C117.528 151.04 117.416 151.117 117.322 151.212C117.024 151.549 117.241 152.059 117.468 152.452C118.223 153.74 118.979 155.027 119.734 156.313C119.908 156.611 120.085 156.91 120.229 157.222C120.475 157.754 120.632 158.318 120.908 158.835C121.235 159.386 121.628 159.898 122.079 160.358C122.572 160.909 123.067 161.454 123.565 161.993C123.72 162.19 123.914 162.356 124.134 162.481C124.245 162.541 124.372 162.57 124.5 162.565C124.628 162.559 124.751 162.52 124.857 162.45C124.939 162.381 125.003 162.296 125.046 162.2C125.161 161.968 125.214 161.711 125.199 161.454C125.189 161.244 125.136 161.038 125.044 160.848C124.952 160.658 124.822 160.488 124.662 160.348C124.45 160.176 124.195 160.036 124.108 159.79C124.07 159.655 124.062 159.514 124.083 159.376C124.189 158.159 124.295 156.929 124.668 155.763C124.949 154.891 125.384 153.994 125.176 153.103C125.037 153.062 124.895 153.032 124.751 153.014C124.897 152.849 125.051 152.692 125.214 152.543C125.965 151.857 126.88 151.358 127.784 150.869L131.773 148.702C131.957 149.697 132.143 150.69 132.332 151.681C132.397 152.024 132.461 152.367 132.525 152.714L133.42 157.464C133.5 157.847 133.557 158.234 133.592 158.624C133.618 159.008 133.592 159.393 133.592 159.775C133.599 160.204 133.573 160.633 133.514 161.059C133.467 161.298 133.404 161.533 133.325 161.764H133.295C133.213 161.824 133.153 161.909 133.125 162.005C132.872 162.574 132.705 163.176 132.629 163.791C132.569 164.279 132.673 164.773 132.926 165.199C132.973 165.293 133.047 165.372 133.138 165.428C133.245 165.471 133.362 165.487 133.478 165.476L138.721 165.368C139.367 165.338 140.013 165.361 140.655 165.437C141.164 165.511 141.665 165.643 142.178 165.683C143.373 165.753 144.513 165.228 145.574 164.717C145.747 164.659 145.896 164.547 145.998 164.399C146.063 164.243 146.065 164.068 146.003 163.911Z" fill="url(#paint0_linear)"/>
<path d="M117.977 96.0895C117.938 95.8225 117.918 95.5531 117.918 95.2834C117.918 94.3562 118.155 93.4436 118.608 92.628C119.06 91.8124 119.715 91.1196 120.511 90.612C120.69 85.2379 124.444 80.9365 129.049 80.9365C133.768 80.9365 137.595 85.4487 137.595 91.013C137.595 96.5773 133.775 101.087 129.049 101.087C128.604 101.087 128.16 101.047 127.722 100.968C127.564 101.827 127.202 102.638 126.663 103.336C126.125 104.033 125.426 104.598 124.623 104.985C123.82 105.372 122.934 105.57 122.038 105.564C121.142 105.557 120.26 105.346 119.463 104.947C118.666 104.548 117.976 103.972 117.449 103.267C116.922 102.561 116.572 101.744 116.428 100.883C116.283 100.022 116.348 99.1392 116.617 98.3067C116.886 97.4742 117.352 96.7148 117.977 96.0895Z" fill="#3F3D56"/>
<path opacity="0.1" d="M129.498 82.2511C124.893 82.2511 121.139 86.5463 120.961 91.9246C120.164 92.4323 119.509 93.1255 119.057 93.9415C118.604 94.7574 118.367 95.6705 118.368 96.598C118.368 96.8677 118.388 97.1371 118.427 97.4041C117.378 98.446 116.791 99.8474 116.793 101.307C116.794 101.538 116.809 101.769 116.837 101.999C116.443 101.001 116.351 99.9129 116.573 98.8652C116.795 97.8175 117.321 96.854 118.09 96.0895C118.05 95.8225 118.03 95.5531 118.03 95.2834C118.03 94.3562 118.267 93.4436 118.72 92.628C119.173 91.8124 119.827 91.1196 120.623 90.612C120.802 85.2379 124.556 80.9365 129.161 80.9365C133.223 80.9365 136.622 84.2788 137.49 88.758C136.27 84.9547 133.153 82.2511 129.498 82.2511Z" fill="black"/>
<path d="M134.31 93.1111C134.268 93.4402 134.306 93.7743 134.42 94.0867C134.617 94.5311 135.101 94.9279 134.959 95.3909C134.868 95.6906 134.535 95.856 134.242 95.9552C132.807 96.4286 131.241 96.1474 129.728 96.2115C129.223 96.2545 128.717 96.2718 128.211 96.2632C127.7 96.2522 127.206 96.0843 126.799 95.7837C127.588 95.4092 128.332 94.9525 129.019 94.4215C129.185 94.3021 129.334 94.1632 129.465 94.0081C129.787 93.5947 129.836 93.0428 129.855 92.524C129.874 92.0052 129.87 91.4905 129.855 90.9821C130.94 90.9697 132.023 90.9649 133.104 90.9676C133.452 90.9676 134.513 90.8849 134.634 91.2508C134.696 91.4327 134.462 91.9659 134.422 92.1706C134.367 92.4827 134.331 92.7969 134.31 93.1111Z" fill="#A0616A"/>
<path opacity="0.1" d="M134.31 93.1111C134.268 93.4402 134.306 93.7743 134.42 94.0867C134.617 94.5311 135.101 94.9279 134.959 95.3909C134.868 95.6906 134.535 95.856 134.242 95.9552C132.807 96.4286 131.241 96.1474 129.728 96.2115C129.223 96.2545 128.717 96.2718 128.211 96.2632C127.7 96.2522 127.206 96.0843 126.799 95.7837C127.588 95.4092 128.332 94.9525 129.019 94.4215C129.185 94.3021 129.334 94.1632 129.465 94.0081C129.787 93.5947 129.836 93.0428 129.855 92.524C129.874 92.0052 129.87 91.4905 129.855 90.9821C130.94 90.9697 132.023 90.9649 133.104 90.9676C133.452 90.9676 134.513 90.8849 134.634 91.2508C134.696 91.4327 134.462 91.9659 134.422 92.1706C134.367 92.4827 134.331 92.7969 134.31 93.1111Z" fill="black"/>
<path d="M139.702 112.239C139.86 113.413 139.714 114.608 139.278 115.713C136.947 115.476 134.605 115.356 132.262 115.354C132.666 114.826 132.924 114.206 133.011 113.553C133.069 112.942 133.069 112.326 133.011 111.714L137.561 111.699C137.894 111.685 138.228 111.709 138.556 111.772C139.014 111.873 139.256 112.158 139.702 112.239Z" fill="#A0616A"/>
<path d="M140.977 114.678C141.211 115.052 141.493 115.393 141.752 115.751C142.234 116.422 142.659 117.13 143.025 117.867C143.483 118.768 143.893 119.699 144.449 120.554C144.763 120.971 145.03 121.418 145.247 121.89C145.403 122.339 145.481 122.81 145.478 123.285C145.495 123.915 145.438 124.591 145.054 125.093C144.882 125.308 144.659 125.479 144.403 125.59C144.148 125.7 143.868 125.748 143.59 125.728C143.304 125.712 143.034 125.598 142.828 125.405C142.444 125.023 142.482 124.409 142.584 123.884C142.656 123.516 142.747 123.13 142.626 122.774C142.551 122.598 142.463 122.427 142.363 122.264C142.185 121.865 142.076 121.44 142.04 121.007C141.926 120.18 141.805 119.293 141.259 118.642C140.969 118.291 140.574 118.035 140.287 117.681C140.137 117.495 140.018 117.286 139.863 117.111C139.636 116.859 139.32 116.666 139.188 116.356C139.126 116.154 139.087 115.946 139.069 115.736C138.983 115.402 138.857 115.078 138.696 114.771C138.176 113.611 138.036 112.328 137.904 111.069C138.462 111.047 139.014 110.941 139.538 110.755C139.362 110.786 140.818 114.413 140.977 114.678Z" fill="#A0616A"/>
<path opacity="0.1" d="M140.977 114.678C141.211 115.052 141.493 115.393 141.752 115.751C142.234 116.422 142.659 117.13 143.025 117.867C143.483 118.768 143.893 119.699 144.449 120.554C144.763 120.971 145.03 121.418 145.247 121.89C145.403 122.339 145.481 122.81 145.478 123.285C145.495 123.915 145.438 124.591 145.054 125.093C144.882 125.308 144.659 125.479 144.403 125.59C144.148 125.7 143.868 125.748 143.59 125.728C143.304 125.712 143.034 125.598 142.828 125.405C142.444 125.023 142.482 124.409 142.584 123.884C142.656 123.516 142.747 123.13 142.626 122.774C142.551 122.598 142.463 122.427 142.363 122.264C142.185 121.865 142.076 121.44 142.04 121.007C141.926 120.18 141.805 119.293 141.259 118.642C140.969 118.291 140.574 118.035 140.287 117.681C140.137 117.495 140.018 117.286 139.863 117.111C139.636 116.859 139.32 116.666 139.188 116.356C139.126 116.154 139.087 115.946 139.069 115.736C138.983 115.402 138.857 115.078 138.696 114.771C138.176 113.611 138.036 112.328 137.904 111.069C138.462 111.047 139.014 110.941 139.538 110.755C139.362 110.786 140.818 114.413 140.977 114.678Z" fill="black"/>
<path d="M132.085 92.6542C134.196 92.6542 135.907 90.9875 135.907 88.9316C135.907 86.8757 134.196 85.209 132.085 85.209C129.974 85.209 128.263 86.8757 128.263 88.9316C128.263 90.9875 129.974 92.6542 132.085 92.6542Z" fill="#A0616A"/>
<path d="M139.708 126.892C140.428 127.718 140.71 128.826 140.969 129.885L141.924 133.775C142.345 135.351 142.672 136.95 142.902 138.564C143.015 139.48 143.061 140.424 142.747 141.303C142.485 141.948 142.104 142.542 141.623 143.053C140.597 144.251 139.343 145.244 137.93 145.978C137.181 146.356 136.389 146.646 135.621 146.983C134.473 147.485 133.376 148.088 132.279 148.692L128.157 150.966C127.272 151.453 126.379 151.947 125.643 152.63C124.958 153.263 124.431 154.041 124.102 154.903C124.046 155.13 123.919 155.334 123.739 155.488C123.506 155.645 123.187 155.594 122.916 155.513C121.915 155.189 121.051 154.554 120.457 153.706C119.862 152.858 119.571 151.843 119.626 150.817C122.656 149.784 125.453 148.192 127.862 146.127C129.702 144.55 131.362 142.669 133.607 141.71C134.588 141.296 135.767 140.972 136.226 140.027C136.402 139.588 136.483 139.119 136.466 138.649C136.506 137.353 136.546 136.042 136.292 134.769C136.079 133.694 135.655 132.667 135.343 131.615C134.706 129.508 134.494 127.307 134.282 125.12C135.749 124.951 137.225 124.866 138.702 124.866C138.832 124.85 138.963 124.884 139.067 124.961C139.133 125.042 139.172 125.141 139.18 125.244C139.299 125.813 139.326 126.46 139.708 126.892Z" fill="#A0616A"/>
<path opacity="0.1" d="M139.708 126.892C140.428 127.718 140.71 128.826 140.969 129.885L141.924 133.775C142.345 135.351 142.672 136.95 142.902 138.564C143.015 139.48 143.061 140.424 142.747 141.303C142.485 141.948 142.104 142.542 141.623 143.053C140.597 144.251 139.343 145.244 137.93 145.978C137.181 146.356 136.389 146.646 135.621 146.983C134.473 147.485 133.376 148.088 132.279 148.692L128.157 150.966C127.272 151.453 126.379 151.947 125.643 152.63C124.958 153.263 124.431 154.041 124.102 154.903C124.046 155.13 123.919 155.334 123.739 155.488C123.506 155.645 123.187 155.594 122.916 155.513C121.915 155.189 121.051 154.554 120.457 153.706C119.862 152.858 119.571 151.843 119.626 150.817C122.656 149.784 125.453 148.192 127.862 146.127C129.702 144.55 131.362 142.669 133.607 141.71C134.588 141.296 135.767 140.972 136.226 140.027C136.402 139.588 136.483 139.119 136.466 138.649C136.506 137.353 136.546 136.042 136.292 134.769C136.079 133.694 135.655 132.667 135.343 131.615C134.706 129.508 134.494 127.307 134.282 125.12C135.749 124.951 137.225 124.866 138.702 124.866C138.832 124.85 138.963 124.884 139.067 124.961C139.133 125.042 139.172 125.141 139.18 125.244C139.299 125.813 139.326 126.46 139.708 126.892Z" fill="black"/>
<path d="M118.075 152.537C118.813 153.814 119.553 155.092 120.293 156.371C120.464 156.666 120.636 156.964 120.779 157.274C121.018 157.801 121.171 158.361 121.443 158.874C121.762 159.421 122.147 159.928 122.589 160.387L124.036 162.012C124.188 162.206 124.378 162.371 124.594 162.495C124.703 162.556 124.828 162.585 124.953 162.579C125.079 162.574 125.2 162.534 125.303 162.464C125.382 162.394 125.444 162.309 125.488 162.214C125.6 161.984 125.652 161.729 125.636 161.474C125.616 161.055 125.427 160.66 125.11 160.377C124.91 160.207 124.654 160.067 124.569 159.823C124.532 159.688 124.523 159.547 124.543 159.409C124.647 158.2 124.755 156.981 125.118 155.823C125.392 154.957 125.817 154.066 125.613 153.181C125.227 153.068 124.724 152.989 124.492 153.312C124.042 153.932 124.015 153.704 123.321 153.609C122.627 153.514 121.975 153.473 121.468 152.944C120.793 152.245 120.851 151.162 120.95 150.209C120.24 150.176 119.563 150.426 118.92 150.74C118.692 150.852 118.472 150.97 118.253 151.088C118.132 151.143 118.023 151.219 117.931 151.313C117.64 151.648 117.852 152.154 118.075 152.537Z" fill="#3F3D56"/>
<path d="M139.424 123.785C139.663 124.542 139.85 125.313 139.984 126.094C140.05 126.524 140.082 126.958 140.116 127.39C138.607 127.739 137.041 127.756 135.489 127.772L129.023 127.84C128.881 126.992 128.822 126.132 128.847 125.273C128.938 123.861 129.484 122.483 129.392 121.071C131.167 120.763 132.961 120.573 134.761 120.501C135.089 120.468 135.42 120.499 135.735 120.591C136.028 120.695 136.272 120.899 136.555 121.03C137.191 121.323 138.138 121.178 138.677 121.65C139.167 122.09 139.25 123.181 139.424 123.785Z" fill="#3F3D56"/>
<path opacity="0.1" d="M139.424 123.785C139.663 124.542 139.85 125.313 139.984 126.094C140.05 126.524 140.082 126.958 140.116 127.39C138.607 127.739 137.041 127.756 135.489 127.772L129.023 127.84C128.881 126.992 128.822 126.132 128.847 125.273C128.938 123.861 129.484 122.483 129.392 121.071C131.167 120.763 132.961 120.573 134.761 120.501C135.089 120.468 135.42 120.499 135.735 120.591C136.028 120.695 136.272 120.899 136.555 121.03C137.191 121.323 138.138 121.178 138.677 121.65C139.167 122.09 139.25 123.181 139.424 123.785Z" fill="black"/>
<path d="M139.057 125.868C139.545 128.109 139.029 130.426 138.908 132.714C138.823 134.351 138.942 135.992 138.991 137.632C139.019 138.102 138.997 138.575 138.925 139.041C138.834 139.455 138.706 139.859 138.541 140.25L137.959 141.759C137.414 143.177 136.858 144.697 137.414 146.174C137.562 146.555 137.592 146.97 137.499 147.367C136.667 150.755 137.416 154.351 137.535 157.832C137.525 158.175 137.586 158.516 137.715 158.835C138.012 159.455 138.745 159.744 139.129 160.308C139.596 160.993 139.428 161.962 138.878 162.582C138.329 163.202 137.473 163.51 136.633 163.578C135.583 163.663 134.53 163.415 133.499 163.252L133.384 163.144C133.255 162.448 133.647 161.803 133.77 161.09C133.828 160.667 133.855 160.241 133.849 159.814C133.849 159.434 133.87 159.052 133.849 158.671C133.814 158.285 133.758 157.901 133.681 157.52L132.803 152.783L132.614 151.761L131.826 147.508C131.678 146.704 132.039 145.804 132.136 144.994C132.334 143.314 132.531 141.625 132.474 139.936C132.467 139.472 132.411 139.01 132.306 138.558C132.194 138.138 132.128 137.709 132.109 137.276C132.096 136.755 131.882 136.243 131.671 135.73C130.973 134.012 131.001 132.113 130.85 130.271C130.834 129.881 130.763 129.495 130.638 129.124C130.426 128.562 129.984 128.111 129.641 127.613C129.297 127.115 129.036 126.493 129.231 125.922C129.541 125.011 130.812 124.719 131.582 124.453C132.903 123.983 134.343 123.936 135.693 124.318C136.879 124.689 138.01 125.21 139.057 125.868Z" fill="#A0616A"/>
<path d="M133.195 165.217C133.243 165.311 133.316 165.39 133.407 165.445C133.514 165.487 133.629 165.503 133.743 165.492L138.874 165.385C139.506 165.355 140.139 165.378 140.767 165.453C141.266 165.525 141.754 165.66 142.253 165.697C143.42 165.767 144.53 165.246 145.578 164.738C145.745 164.677 145.887 164.566 145.986 164.422C146.048 164.265 146.048 164.091 145.986 163.934C145.893 163.609 145.691 163.325 145.413 163.126C145.379 163.102 145.345 163.081 145.309 163.062C145.021 162.929 144.71 162.85 144.392 162.83C143.199 162.677 141.945 162.45 141.041 161.677C140.78 161.455 140.559 161.195 140.317 160.953C139.807 160.47 139.257 160.031 138.67 159.639C138.614 159.586 138.548 159.545 138.475 159.518C138.402 159.491 138.324 159.479 138.246 159.482C138.157 159.505 138.076 159.551 138.01 159.614C137.764 159.783 137.571 160.016 137.452 160.286C137.4 160.422 137.4 160.572 137.45 160.71C137.501 160.847 137.599 160.962 137.728 161.036C137.94 161.117 138.153 161.075 138.327 161.187C137.957 161.447 137.387 161.577 136.971 161.848C136.56 162.155 136.098 162.393 135.606 162.551C135.105 162.677 134.509 162.59 134.182 162.2C134.006 161.993 133.783 161.668 133.545 161.807C133.464 161.866 133.405 161.949 133.378 162.045C133.129 162.611 132.966 163.209 132.892 163.82C132.836 164.306 132.943 164.795 133.195 165.217Z" fill="#3F3D56"/>
<path d="M134.577 112.89C134.873 112.884 135.169 112.916 135.458 112.985C135.732 113.072 135.996 113.19 136.243 113.336L139.055 114.854C139.261 114.954 139.453 115.08 139.625 115.23C140.031 115.608 140.148 116.193 140.171 116.741C140.266 118.87 139.28 120.912 139.154 123.041C139.1 123.991 139.218 124.942 139.502 125.852C139.572 126.077 139.642 126.352 139.473 126.522C139.411 126.576 139.339 126.618 139.26 126.646C138.371 126.983 137.401 127.059 136.451 127.127C134.116 127.301 131.769 127.475 129.448 127.171C129.332 127.164 129.219 127.133 129.117 127.08C128.984 126.978 128.886 126.84 128.834 126.683C128.541 126.015 128.258 125.345 127.985 124.674C127.512 123.545 127.047 122.359 127.166 121.145C127.315 119.641 128.329 118.369 128.921 116.97C129.1 116.557 129.24 116.119 129.454 115.72C129.694 115.311 129.962 114.919 130.256 114.546C130.483 114.229 130.702 113.512 130.98 113.305C131.319 113.035 132.279 113.041 132.709 112.991C133.329 112.919 133.953 112.885 134.577 112.89Z" fill="#3F3D56"/>
<path opacity="0.1" d="M118.075 152.537C118.813 153.814 119.553 155.092 120.293 156.371C120.464 156.666 120.636 156.964 120.779 157.274C121.018 157.801 121.171 158.361 121.443 158.874C121.762 159.421 122.147 159.929 122.589 160.387L124.036 162.012C124.188 162.206 124.378 162.371 124.594 162.495C124.703 162.556 124.828 162.585 124.953 162.579C125.079 162.574 125.2 162.534 125.303 162.464C125.382 162.394 125.444 162.309 125.488 162.214C125.6 161.984 125.652 161.729 125.636 161.474C125.109 161.224 124.633 160.882 124.231 160.466C123.916 160.096 123.641 159.695 123.412 159.269C123.214 158.928 123.015 158.584 122.816 158.235C121.792 156.48 120.766 154.724 119.739 152.969C119.315 152.283 119.036 151.522 118.92 150.73C118.692 150.842 118.472 150.96 118.253 151.077C118.132 151.133 118.023 151.209 117.931 151.303C117.64 151.648 117.852 152.154 118.075 152.537Z" fill="black"/>
<path opacity="0.1" d="M133.195 165.217C133.243 165.311 133.316 165.39 133.408 165.445C133.514 165.487 133.629 165.503 133.743 165.492L138.874 165.385C139.506 165.355 140.139 165.378 140.767 165.453C141.266 165.525 141.754 165.66 142.253 165.697C143.42 165.767 144.53 165.246 145.578 164.738C145.745 164.677 145.887 164.566 145.986 164.422C146.048 164.265 146.048 164.091 145.986 163.934C145.893 163.61 145.691 163.325 145.413 163.126C145.338 163.171 145.268 163.221 145.2 163.268C144.507 163.771 143.711 164.124 142.866 164.302C142.036 164.447 141.192 164.506 140.349 164.48C138.412 164.48 136.459 164.492 134.545 164.153C134.159 164.085 133.376 163.74 132.89 163.828C132.837 164.311 132.944 164.798 133.195 165.217Z" fill="black"/>
<path d="M127.489 94.8348C129.348 95.143 131.228 95.3164 133.113 95.3536C133.577 95.3536 134.14 95.3082 134.346 94.903C134.441 94.7129 134.435 94.4772 134.571 94.3098C134.823 93.9977 135.332 94.1527 135.695 94.3326C136.205 94.5847 136.737 94.8576 137.041 95.3288C137.241 95.6931 137.37 96.0906 137.421 96.5008C137.599 97.3751 137.868 98.2888 138.55 98.884C138.902 99.192 139.345 99.3925 139.685 99.7108C140.235 100.232 140.449 101.013 140.449 101.759C140.449 102.505 140.266 103.239 140.129 103.975C139.625 106.689 139.77 109.48 140.553 112.131C140.59 112.225 140.6 112.328 140.583 112.427C140.53 112.617 140.292 112.685 140.09 112.716C136.977 113.216 133.635 112.743 130.77 114.031C130.53 113.456 129.94 113.132 129.647 112.584C129.412 112.14 129.435 111.61 129.382 111.112C129.21 109.767 128.321 108.619 127.828 107.352C127.389 106.242 127.236 105.021 126.623 103.992C126.411 103.628 126.133 103.295 125.919 102.927C125.722 102.564 125.554 102.186 125.416 101.798C125.126 101.135 124.931 100.436 124.834 99.7212C124.711 98.2743 125.401 96.8915 126.216 95.6844C126.532 95.2214 126.924 94.7418 127.489 94.8348Z" fill="#FF6F61"/>
<path opacity="0.1" d="M136.506 99.9796C136.862 100.056 137.07 100.405 137.236 100.722C137.347 100.92 137.441 101.128 137.516 101.342C137.614 101.704 137.654 102.078 137.633 102.452C137.64 102.689 137.615 102.926 137.556 103.157C137.494 103.389 137.342 103.589 137.132 103.715" stroke="black" stroke-miterlimit="10"/>
<path d="M131.645 88.2216C133.931 87.6524 135.55 86.2998 135.261 85.2005C134.973 84.1011 132.886 83.6713 130.6 84.2405C128.314 84.8096 126.695 86.1622 126.984 87.2616C127.272 88.3609 129.359 88.7907 131.645 88.2216Z" fill="#3F3D56"/>
<path opacity="0.1" d="M131.415 87.466C133.448 86.9596 134.952 85.8352 135.058 84.8203C135.151 84.9362 135.219 85.0691 135.258 85.211C135.546 86.3106 133.927 87.6624 131.65 88.2329C129.373 88.8034 127.276 88.3714 126.981 87.2718C126.949 87.1497 126.939 87.0229 126.954 86.8976C127.584 87.6996 129.424 87.9621 131.415 87.466Z" fill="black"/>
<path d="M127.716 125.093L127.181 125.614L128.9 127.288L132.72 123.568L132.185 123.047L128.9 126.228L127.716 125.093ZM132.338 125.8C132.337 126.421 132.137 127.026 131.764 127.53C131.391 128.034 130.866 128.411 130.261 128.609C129.657 128.806 129.004 128.813 128.395 128.63C127.786 128.446 127.251 128.081 126.867 127.586C126.483 127.09 126.267 126.49 126.252 125.869C126.237 125.248 126.422 124.638 126.782 124.126C127.142 123.613 127.658 123.223 128.257 123.012C128.856 122.8 129.509 122.777 130.122 122.946L130.714 122.369C130.262 122.18 129.774 122.085 129.282 122.09C128.526 122.09 127.788 122.308 127.16 122.717C126.531 123.126 126.042 123.707 125.753 124.387C125.464 125.067 125.388 125.815 125.535 126.536C125.683 127.258 126.047 127.921 126.581 128.441C127.115 128.962 127.796 129.316 128.537 129.46C129.278 129.603 130.046 129.53 130.744 129.248C131.442 128.966 132.038 128.489 132.458 127.878C132.878 127.266 133.102 126.546 133.102 125.811L132.338 125.8Z" fill="#3ACC6C"/>
<path d="M129.176 101.075C129.072 100.033 128.708 99.0317 128.115 98.1585C127.881 97.7782 127.549 97.4645 127.151 97.2491C126.952 97.1455 126.726 97.0997 126.5 97.1169C126.274 97.1341 126.059 97.2137 125.878 97.3462C125.651 97.5768 125.492 97.8623 125.417 98.173C124.884 99.5078 124.654 100.939 124.743 102.369C124.743 103.671 124.762 104.99 125.099 106.251C125.292 106.966 125.587 107.654 125.736 108.38C125.884 109.105 125.865 109.901 125.466 110.529C125.143 111.016 124.901 111.55 124.751 112.111C124.615 112.784 124.571 113.472 124.622 114.157L124.677 116.04C124.747 118.496 124.817 120.976 124.312 123.382C124.083 124.481 123.505 125.519 123.637 126.633C123.702 127.036 123.82 127.428 123.989 127.801C124.201 128.338 124.467 128.919 124.995 129.18C125.252 129.293 125.53 129.352 125.812 129.353C126.162 129.371 126.513 129.356 126.861 129.31C127.073 129.281 127.349 129.142 127.285 128.944C127.252 128.878 127.2 128.822 127.136 128.783C126.865 128.571 126.646 128.302 126.495 127.996C126.344 127.691 126.265 127.357 126.264 127.018C126.264 126.042 126.918 125.106 126.716 124.151C126.591 123.56 126.143 122.987 126.33 122.412C126.754 121.114 126.81 119.725 127.179 118.402L127.535 117.113C127.748 116.344 127.96 115.577 128.132 114.8C128.614 112.651 128.806 110.449 128.705 108.252C128.69 107.908 128.885 107.518 128.917 107.177C128.951 106.763 128.917 106.367 128.917 105.963C128.913 104.297 129.346 102.733 129.176 101.075Z" fill="#A0616A"/>
<defs>
<filter id="filter0_d" x="0" y="0" width="251.136" height="157.236" filterUnits="userSpaceOnUse" color-interpolation-filters="sRGB">
<feFlood flood-opacity="0" result="BackgroundImageFix"/>
<feColorMatrix in="SourceAlpha" type="matrix" values="0 0 0 0 0 0 0 0 0 0 0 0 0 0 0 0 0 0 127 0"/>
<feOffset dy="4"/>
<feGaussianBlur stdDeviation="2"/>
<feColorMatrix type="matrix" values="0 0 0 0 0 0 0 0 0 0 0 0 0 0 0 0 0 0 0.25 0"/>
<feBlend mode="normal" in2="BackgroundImageFix" result="effect1_dropShadow"/>
<feBlend mode="normal" in="SourceGraphic" in2="effect1_dropShadow" result="shape"/>
</filter>
<filter id="filter1_d" x="13.4438" y="158.458" width="224.461" height="18.5416" filterUnits="userSpaceOnUse" color-interpolation-filters="sRGB">
<feFlood flood-opacity="0" result="BackgroundImageFix"/>
<feColorMatrix in="SourceAlpha" type="matrix" values="0 0 0 0 0 0 0 0 0 0 0 0 0 0 0 0 0 0 127 0"/>
<feOffset dy="4"/>
<feGaussianBlur stdDeviation="2"/>
<feColorMatrix type="matrix" values="0 0 0 0 0 0 0 0 0 0 0 0 0 0 0 0 0 0 0.25 0"/>
<feBlend mode="normal" in2="BackgroundImageFix" result="effect1_dropShadow"/>
<feBlend mode="normal" in="SourceGraphic" in2="effect1_dropShadow" result="shape"/>
</filter>
<linearGradient id="paint0_linear" x1="130.874" y1="165.693" x2="130.874" y2="80.3268" gradientUnits="userSpaceOnUse">
<stop stop-color="#808080" stop-opacity="0.25"/>
<stop offset="0.54" stop-color="#808080" stop-opacity="0.12"/>
<stop offset="1" stop-color="#808080" stop-opacity="0.1"/>
</linearGradient>
</defs>
</svg>
