<svg width="221" height="181" viewBox="0 0 221 181" fill="none" xmlns="http://www.w3.org/2000/svg">
<g clip-path="url(#clip0)" filter="url(#filter0_d)">
<g opacity="0.5" filter="url(#filter1_d)">
<path d="M211.821 100.288C211.821 100.42 211.821 100.551 211.821 100.68C211.798 102.947 211.663 105.207 211.416 107.462C211.417 107.476 211.417 107.489 211.416 107.503C211.396 107.69 211.374 107.876 211.353 108.063C211.316 108.38 211.277 108.694 211.234 109.011C210.728 112.866 209.892 116.671 208.735 120.384C207.184 125.401 204.992 130.2 202.212 134.663C201.357 136.027 200.446 137.348 199.479 138.625C198.964 139.301 198.437 139.962 197.893 140.613C197.512 141.068 197.123 141.516 196.727 141.957L196.48 142.229C194.397 144.502 192.152 146.623 189.762 148.576C185.861 151.79 181.662 154.586 177.395 157.18C177.152 157.329 176.907 157.475 176.662 157.611C176.645 157.623 176.627 157.634 176.608 157.643C170.809 161.129 164.795 164.274 158.6 166.793C151.817 169.557 144.813 171.567 137.627 172.446C127.61 173.669 117.473 172.674 107.517 170.963C99.2374 169.549 91.0578 167.606 83.0292 165.147L81.7073 164.735C81.0225 164.518 80.3384 164.297 79.6551 164.072C75.5275 162.714 71.4462 161.206 67.4111 159.548C57.2767 155.398 47.5952 150.23 38.5174 144.125C37.3616 143.352 36.2225 142.562 35.0999 141.755C33.531 140.632 31.9808 139.476 30.4494 138.286L29.5045 137.558C25.4968 134.438 21.742 131.01 18.2747 127.306C13.6112 122.26 9.62591 116.568 7.00591 110.071C6.59273 109.05 6.21421 108.009 5.87037 106.949L5.83786 106.844C5.66449 106.305 5.50413 105.767 5.35677 105.207C5.14006 104.405 4.95008 103.594 4.78683 102.772C4.75215 102.615 4.72181 102.458 4.69364 102.298C4.17569 99.5334 3.94692 96.7228 4.01101 93.9113C4.06521 91.4479 4.35547 88.9952 4.87784 86.5865C5.41251 84.0896 6.23644 81.6627 7.33314 79.3544C8.32424 77.2787 9.58703 75.3425 11.0887 73.5959C12.1439 72.3747 13.3306 71.2723 14.6275 70.3083C16.9788 68.5676 19.5858 67.3547 22.2882 66.3961C23.5581 65.9436 24.8453 65.5472 26.1391 65.1789C27.0557 64.916 27.9767 64.6661 28.8934 64.4205L31.5979 63.6945C33.3316 63.2249 35.0653 62.7423 36.7729 62.2209C41.4278 60.8077 45.9895 59.0972 50.2088 56.5464C50.8763 56.1436 51.5567 55.7019 52.2372 55.228C53.104 54.6291 53.9578 53.9784 54.803 53.2761C55.6568 52.5652 56.4933 51.8047 57.2908 50.999C57.4143 50.874 57.5357 50.7491 57.657 50.622C58.3072 49.9412 58.9378 49.2281 59.5229 48.487C59.809 48.1251 60.0863 47.7567 60.3507 47.3819C60.717 46.8627 61.0637 46.3348 61.3844 45.792C62.9924 43.0775 63.9849 40.0829 63.8679 36.9268C63.8508 36.4068 63.8038 35.8882 63.727 35.3736C63.4453 33.4713 63.1744 31.6142 62.9751 29.7981C62.1386 22.2859 62.4918 15.4739 68.163 9.07338C75.2147 1.1174 86.282 -0.50482 96.3567 0.13071C125.484 1.9619 152.001 18.4943 175.303 38.1764C177.319 39.8769 179.31 41.6003 181.276 43.3468C181.771 43.7863 182.268 44.2286 182.765 44.6738C186.449 47.9721 190.076 51.3932 193.455 55.0578C193.728 55.3551 194.001 55.6524 194.27 55.9518C194.434 56.1371 194.601 56.3202 194.764 56.5076C195.817 57.6925 196.839 58.9061 197.83 60.1485C200.485 63.4466 202.83 66.9802 204.834 70.7047C207.904 76.5499 209.982 82.8586 210.984 89.3764C211.361 91.7433 211.61 94.1288 211.728 96.5224C211.765 97.2268 211.788 97.9334 211.801 98.6379C211.801 98.8641 211.801 99.0882 211.801 99.3144C211.823 99.6418 211.823 99.9607 211.821 100.288Z" fill="#EE5239"/>
</g>
<path d="M89.3785 96.6739L85.9111 158.027L89.3785 158.073L92.1957 95.8121L89.3785 96.6739Z" fill="#3F3D56"/>
<path d="M76.5927 127.759H33.6846V137.022H76.5927V127.759Z" fill="#EE5239"/>
<path d="M79.4098 135.943V141.76H35.0866C33.5176 140.637 31.9674 139.481 30.436 138.291V135.943H79.4098Z" fill="#3F3D56"/>
<path d="M88.2602 122.705C88.1389 123.263 87.9807 123.814 87.8138 124.364C87.3219 125.951 86.7303 127.518 86.6154 129.168C86.4615 131.348 87.0488 133.884 85.5319 135.467C85.1418 135.876 84.6325 136.182 84.2836 136.62C84.2299 136.688 84.1807 136.76 84.1363 136.835C83.8242 137.348 83.7874 137.973 83.783 138.559C83.7867 139.808 83.8685 141.057 84.0279 142.296C84.5415 146.562 85.5557 150.836 84.223 154.863C83.9815 155.561 83.7 156.245 83.38 156.911C82.7298 158.333 82.0212 159.736 81.8088 161.276C81.6528 162.418 81.7005 163.594 81.6918 164.755C81.007 164.538 80.3229 164.317 79.6396 164.092C75.512 162.735 71.4307 161.227 67.3956 159.568C67.4064 159.51 67.4173 159.449 67.4259 159.391C67.7358 157.474 67.3111 155.513 66.7953 153.643C65.7118 149.681 64.1775 145.758 63.2695 141.769C62.9038 140.21 62.6639 138.625 62.5522 137.029C62.5262 136.671 62.511 136.312 62.5088 135.952C62.498 135.482 62.5088 135.013 62.5283 134.539C62.5738 133.593 62.615 132.47 61.8544 131.895C61.4361 131.583 60.8835 131.529 60.3959 131.339C59.4554 130.975 58.8118 130.131 58.0663 129.454C57.7107 129.111 57.2765 128.86 56.8012 128.721C56.3258 128.582 55.8237 128.56 55.338 128.657C50.4664 129.767 46.8864 133.875 42.3528 135.952C42.1773 136.034 42.0018 136.111 41.8241 136.184C41.2376 136.398 40.6795 136.682 40.1619 137.029C39.7982 137.28 39.5345 137.65 39.4164 138.074C39.3016 138.531 39.4013 139.009 39.4576 139.478C39.5488 140.242 39.5159 141.015 39.3601 141.769C39.3013 142.06 39.2239 142.348 39.1282 142.63C38.9548 143.141 38.723 143.641 38.5019 144.138C37.3462 143.366 36.207 142.576 35.0844 141.769C33.5155 140.645 31.9653 139.489 30.4339 138.3L29.5042 137.557C25.4965 134.437 21.7417 131.009 18.2744 127.304C18.736 126.012 19.4035 124.81 19.7242 123.485C19.9062 122.724 19.9734 121.933 20.2248 121.195C20.5147 120.428 20.9179 119.71 21.421 119.062C23.2638 116.507 25.5139 114.269 28.0826 112.435C30.7676 110.522 33.8687 108.988 36.285 106.816C37.2656 105.963 38.1109 104.967 38.7923 103.863C38.8335 103.796 38.8725 103.725 38.9072 103.647C39.0958 103.258 39.2264 102.842 39.2951 102.415C39.4684 101.45 39.4424 100.39 39.5291 99.4637C42.4726 99.9703 45.4734 100.06 48.4423 99.7309C51.8988 99.3452 55.2795 98.3909 58.7359 98.0203C58.996 97.9902 59.2582 97.9665 59.5204 97.9449C60.6278 97.8566 61.7373 97.8372 62.8491 97.8501C63.7787 97.8501 64.7084 97.8911 65.6381 97.9212L75.8732 98.2659C77.0066 98.3047 78.1638 98.3478 79.2192 98.7593C80.4717 99.2483 81.4751 100.222 82.2791 101.293C82.3809 101.431 82.4828 101.569 82.5781 101.711C83.2397 102.67 83.7702 103.713 84.1558 104.811C84.197 104.923 84.236 105.026 84.2728 105.149C84.3703 105.448 84.4548 105.75 84.5307 106.056C84.5892 106.295 84.6412 106.534 84.6889 106.776C84.9273 107.969 85.0681 109.188 85.4452 110.341C85.4712 110.425 85.4994 110.509 85.5297 110.591C85.9826 111.853 86.7346 112.984 87.3024 114.197C87.7117 115.075 88.0242 115.995 88.2342 116.94C88.6587 118.837 88.6675 120.803 88.2602 122.705Z" fill="#35323E"/>
<path d="M57.1499 45.6073C56.2354 44.8835 54.9091 45.4135 53.8386 45.8809C52.941 46.275 52.0171 46.6069 51.0734 46.8741C50.8803 46.948 50.6709 46.9695 50.4666 46.9366C50.0332 46.8332 49.8512 46.3226 49.5283 46.0124C48.967 45.4759 48.0481 45.603 47.3243 45.8939C46.6005 46.1847 45.8854 46.6048 45.1096 46.5402C44.2818 46.4755 43.5623 45.868 42.7258 45.8486C41.2522 45.8142 40.0148 47.6195 38.6213 47.1412C37.7719 46.8504 37.1044 45.7517 36.2679 46.0641C35.6178 46.3097 35.5593 47.2037 35.167 47.7875C34.7054 48.4683 33.8061 48.66 33.0368 48.9617C30.6118 49.9139 29.006 52.6003 29.3224 55.1726C29.4979 56.5923 30.1892 57.8936 30.6465 59.2486C32.0031 63.1889 31.5372 67.6333 33.247 71.4336C33.4637 71.2311 33.5851 71.1557 33.7953 70.9553C33.2546 72.07 33.1504 73.3447 33.5027 74.5315C33.6826 75.1283 33.9751 75.6841 34.1962 76.2679C34.4258 76.9227 34.6111 77.5921 34.7509 78.2715L36.6363 86.5398C37.3731 89.7713 38.1121 93.0028 38.2399 96.3119C38.3195 98.4636 38.1538 100.617 37.7458 102.732C41.1612 102.17 44.2861 100.664 47.7469 100.683C49.0168 100.683 50.2759 100.899 51.535 101.071C55.2058 101.582 58.9086 101.831 62.6152 101.818C63.1917 101.851 63.769 101.771 64.3142 101.581C64.791 101.379 65.1811 101.019 65.6318 100.758C66.5138 100.241 67.5822 100.112 68.5986 100.112C73.2339 100.028 77.7003 101.715 82.3053 102.31C84.1235 98.5158 84.2319 93.9701 82.8363 90.004C82.4223 88.8256 81.8654 87.6773 81.7007 86.4386C81.6346 85.6771 81.6172 84.9122 81.6487 84.1485C81.6415 82.1934 81.2871 80.2549 80.602 78.4223C80.3333 77.7049 80.0104 76.9745 80.0386 76.2098C80.0667 75.445 80.446 74.7319 80.8187 74.0554C81.575 72.6766 82.3357 71.2849 83.404 70.1216C84.4984 68.9195 85.868 68.0039 87.2224 67.1055L90.5662 64.8736C90.109 62.0019 89.5195 58.9772 88.2951 56.336C87.0707 53.6947 85.2396 51.2668 82.7626 49.7221C81.9275 49.2227 81.0535 48.7905 80.1491 48.4295C78.8835 47.8996 77.5659 47.4321 76.1942 47.3524C74.6339 47.264 73.0974 47.6798 71.5566 47.9383C66.7067 48.7505 60.9986 48.6514 57.1499 45.6073Z" fill="#EE5239"/>
<path d="M93.7127 95.4416L92.1221 97.4387L89.1229 101.202L85.6555 105.552L84.6869 106.767H82.808L36.283 106.821L7.14661 106.853H5.84637C5.673 106.315 5.51264 105.776 5.36527 105.216C5.14857 104.414 4.95859 103.603 4.79533 102.781C4.76066 102.624 4.73032 102.467 4.70215 102.307L15.2732 95.4373L19.2476 95.4157L31.4049 95.3468L38.1943 95.308H39.4339H40.2119L44.7368 95.2843L79.2237 95.0883L80.9876 95.0775H81.7526L83.7788 95.0667L91.3181 95.0236L92.7657 94.4764L92.8719 94.5885L93.7127 95.4416Z" fill="#3F3D56"/>
<path d="M93.0628 94.3644L92.8829 94.5798L91.6997 95.965L89.2639 98.8239L84.1561 104.811L38.9075 103.663L4.78683 102.801C4.75215 102.643 4.72181 102.486 4.69364 102.327C4.17569 99.5621 3.94692 96.7515 4.01101 93.94L7.79473 92.014L8.66156 91.5702L15.4077 88.1233L21.3281 85.1072L36.7707 87.1021L40.1904 87.5437L41.7377 87.7419L44.0023 88.0349L44.193 88.0608L79.7049 92.6387L83.6295 93.145L85.9331 93.4423L93.0324 94.3601L93.0628 94.3644Z" fill="#504F60"/>
<path d="M85.6947 104.705L85.6578 105.552L85.4411 110.332L84.2752 136.615L84.0282 142.296L83.3781 156.911L83.0118 165.167L81.6899 164.755C81.0051 164.538 80.321 164.317 79.6377 164.092L82.8081 106.786L82.8753 105.584L84.2709 105.153L85.6947 104.705Z" fill="#3F3D56"/>
<path d="M7.24614 104.643L7.14862 106.855L7.00559 110.087C6.5924 109.066 6.21389 108.025 5.87004 106.965L5.83754 106.86C5.66417 106.321 5.50381 105.782 5.35645 105.222L7.24614 104.643Z" fill="#3F3D56"/>
<path d="M63.9153 72.0691C69.4208 72.0691 73.8839 66.089 73.8839 58.7122C73.8839 51.3354 69.4208 45.3553 63.9153 45.3553C58.4099 45.3553 53.9468 51.3354 53.9468 58.7122C53.9468 66.089 58.4099 72.0691 63.9153 72.0691Z" fill="#A1616A"/>
<path opacity="0.1" d="M63.9153 72.0691C69.4208 72.0691 73.8839 66.089 73.8839 58.7122C73.8839 51.3354 69.4208 45.3553 63.9153 45.3553C58.4099 45.3553 53.9468 51.3354 53.9468 58.7122C53.9468 66.089 58.4099 72.0691 63.9153 72.0691Z" fill="black"/>
<path d="M65.3239 64.4212C72.9837 64.4212 79.1932 58.2482 79.1932 50.6334C79.1932 43.0186 72.9837 36.8456 65.3239 36.8456C57.6641 36.8456 51.4546 43.0186 51.4546 50.6334C51.4546 58.2482 57.6641 64.4212 65.3239 64.4212Z" fill="#A1616A"/>
<path d="M65.5995 29.3831C64.7527 29.4502 63.9119 29.5776 63.0835 29.7644C60.8904 30.2944 58.9942 31.4706 57.1479 32.6254C56.32 33.1445 55.4684 33.6853 54.9548 34.4479C54.0316 35.8159 54.3892 37.5566 53.8712 39.0754C53.6025 39.8553 53.1084 40.5555 52.6902 41.2815C51.5395 43.2721 50.937 45.4588 50.3454 47.6239C50.224 48.072 50.1894 48.6795 50.6813 48.8518C50.9646 48.9103 51.2592 48.8771 51.5221 48.7571C53.0759 48.2465 55.0501 48.1 56.203 49.1362C57.3559 50.1725 57.2584 52.0101 58.6301 52.7986C60.2013 53.7099 62.6544 52.609 64.0803 53.684C64.6915 54.1451 64.9125 54.884 65.4131 55.4398C66.579 56.7324 68.8219 56.6699 70.6878 56.4093C71.7583 56.2585 73.0716 56.1572 73.7217 56.9048C74.0337 57.2581 74.1226 57.7428 74.4845 58.0616C75.1346 58.639 76.3243 58.346 76.9593 57.7536C77.5942 57.1611 77.8976 56.3597 78.4264 55.694C79.4558 54.4014 81.2653 53.697 82.3271 52.4194C83.2156 51.3423 83.4844 49.9936 83.7271 48.6924L84.6307 43.8689C84.997 41.9127 85.3307 39.7756 84.2233 38.0521C83.8289 37.4317 83.2633 36.8974 82.9231 36.2554C82.6955 35.8245 82.5677 35.37 82.3033 34.9628C81.9898 34.5386 81.6152 34.1626 81.1916 33.8469L79.0527 32.0868C78.3214 31.4504 77.5394 30.874 76.7144 30.3633C73.661 28.5946 69.0885 29.0599 65.5995 29.3831Z" fill="#464353"/>
<path d="M19.9173 64.8995C19.4037 65.4424 18.9291 66.0284 18.3786 66.5368C17.8944 66.9649 17.3881 67.3676 16.8617 67.7432C16.0122 68.3752 15.1815 69.0294 14.3695 69.7058C13.5225 70.3716 12.756 71.1329 12.0854 71.9744C10.9282 73.519 10.3799 75.4407 9.2964 77.0371C8.33855 78.4525 6.98846 79.5706 6.01544 80.9752C5.58858 81.5658 5.27152 82.2275 5.07927 82.9292C4.93576 83.6083 4.87105 84.3015 4.8864 84.9952C4.86689 86.1327 4.84956 87.2831 5.0836 88.3969C5.31764 89.5107 5.83124 90.6051 6.71108 91.3354C7.52806 92.0141 8.58343 92.3264 9.61713 92.585C10.1502 92.7164 10.7267 92.8392 11.2338 92.6302C11.6048 92.4439 11.9269 92.1738 12.1743 91.8417L14.8116 88.8256C16.5756 86.8005 18.409 84.7324 20.8296 83.5475C21.5881 83.1791 22.3877 82.9012 23.1484 82.5436C26.373 80.9989 28.6527 77.8363 29.5369 74.3894C29.7536 73.547 29.8923 72.6874 30.0332 71.8279L30.4146 69.471C30.4439 69.3529 30.4439 69.2294 30.4146 69.1112C30.3549 68.9784 30.2587 68.8649 30.1372 68.7838C28.3002 67.3089 26.5802 65.6956 24.9926 63.9581C24.6155 63.5444 24.2622 62.9778 23.8267 62.631C23.2806 62.2001 23.3217 62.2324 22.6651 62.631C21.655 63.2668 20.7315 64.0292 19.9173 64.8995Z" fill="#A1616A"/>
<path d="M37.958 80.5831C37.936 80.5331 37.9042 80.4879 37.8643 80.4504C37.8243 80.413 37.7772 80.3839 37.7257 80.365C37.6742 80.346 37.6194 80.3377 37.5646 80.3403C37.5097 80.343 37.456 80.3566 37.4066 80.3805C37.3572 80.4043 37.3132 80.4378 37.2771 80.479C37.2411 80.5201 37.2138 80.5681 37.1969 80.6201C37.18 80.672 37.1738 80.7268 37.1787 80.7811C37.1836 80.8355 37.1995 80.8883 37.2255 80.9364L37.0088 81.042L43.471 94.2093L44.6391 93.6427L38.1768 80.4668L37.958 80.5831Z" fill="#3F3D56"/>
<path opacity="0.04" d="M19.9173 64.8995C19.4037 65.4424 18.9291 66.0284 18.3786 66.5368C17.8944 66.9649 17.3881 67.3676 16.8617 67.7432C16.0122 68.3752 15.1815 69.0294 14.3695 69.7058C13.5225 70.3716 12.756 71.1329 12.0854 71.9744C10.9282 73.519 10.3799 75.4407 9.2964 77.0371C8.33855 78.4525 6.98846 79.5706 6.01544 80.9752C5.58858 81.5658 5.27152 82.2275 5.07927 82.9292C4.93576 83.6083 4.87105 84.3015 4.8864 84.9952C4.86689 86.1327 4.84956 87.2831 5.0836 88.3969C5.31764 89.5107 5.83124 90.6051 6.71108 91.3354C7.52806 92.0141 8.58343 92.3264 9.61713 92.585C10.1502 92.7164 10.7267 92.8392 11.2338 92.6302C11.6048 92.4439 11.9269 92.1738 12.1743 91.8417L14.8116 88.8256C16.5756 86.8005 18.409 84.7324 20.8296 83.5475C21.5881 83.1791 22.3877 82.9012 23.1484 82.5436C26.373 80.9989 28.6527 77.8363 29.5369 74.3894C29.7536 73.547 29.8923 72.6874 30.0332 71.8279L30.4146 69.471C30.4439 69.3529 30.4439 69.2294 30.4146 69.1112C30.3549 68.9784 30.2587 68.8649 30.1372 68.7838C28.3002 67.3089 26.5802 65.6956 24.9926 63.9581C24.6155 63.5444 24.2622 62.9778 23.8267 62.631C23.2806 62.2001 23.3217 62.2324 22.6651 62.631C21.655 63.2668 20.7315 64.0292 19.9173 64.8995Z" fill="black"/>
<path d="M94.6248 89.166C94.6032 90.5405 94.549 91.9559 93.9747 93.2097C93.7277 93.7526 93.3441 94.2869 92.7698 94.4657C92.4223 94.5455 92.0626 94.5586 91.7101 94.5044C87.4585 94.133 83.1744 94.4708 79.0349 95.5041C80.1401 93.3066 79.5051 90.6719 79.8107 88.2332C79.8952 87.5675 80.0491 86.9126 80.1076 86.2447C80.3243 83.8749 79.3036 81.5741 78.8355 79.2345C78.4292 77.2092 78.4292 75.1242 78.8355 73.0989C78.9152 72.5776 79.0955 72.0765 79.3664 71.6232C79.6839 71.1821 80.101 70.8213 80.5843 70.5697C82.3397 69.5766 84.4092 69.4624 86.3813 69.5938C87.7097 69.6821 90.373 69.5572 91.4804 70.3694C92.6918 71.2591 93.0754 74.2472 93.4026 75.6281C93.8926 77.746 94.2257 79.8968 94.3995 82.0631C94.6118 84.4243 94.6573 86.7962 94.6248 89.166Z" fill="#A1616A"/>
<path d="M16.998 93.9357L24.7995 99.1061L59.9062 97.8135L36.7185 93.9357H16.998Z" fill="white"/>
<path d="M27.2855 52.8546C26.0048 53.977 24.919 55.2997 23.7055 56.4954C22.0412 58.137 20.1493 59.533 18.2661 60.9226C18.9413 61.1102 19.5559 61.4689 20.0498 61.9636C20.5436 62.4584 20.8998 63.0721 21.0833 63.7448C21.1657 64.0614 21.2068 64.3911 21.3 64.7013C21.5167 65.4359 21.9935 66.0693 22.5049 66.6402C24.7023 69.1026 27.7774 70.9252 29.0733 73.9649C29.1156 74.1129 29.2073 74.242 29.3334 74.3312C29.4388 74.3776 29.556 74.3911 29.6693 74.37C30.8417 74.2472 31.7388 73.3079 32.4865 72.3944C34.0468 70.4555 35.4012 68.3141 36.1705 65.9486C36.9398 63.5832 37.0634 60.9678 36.2247 58.6239C35.8065 57.4562 35.1607 56.3834 34.5192 55.3213C33.9572 54.392 33.3967 53.4642 32.8376 52.5379C32.545 52.0488 32.1723 51.0557 31.598 50.8144C30.3584 50.2844 28.0808 52.0639 27.2855 52.8546Z" fill="#EE5239"/>
<path d="M91.1142 66.7781L92.9583 71.0867C90.9507 70.3894 88.805 70.1771 86.6986 70.4674C84.5921 70.7578 82.5854 71.5424 80.8444 72.7564C79.7933 73.5039 78.829 74.4432 78.3544 75.6367C78.1202 75.681 77.8781 75.6586 77.6561 75.572C77.4341 75.4855 77.2412 75.3384 77.0997 75.1477C76.8223 74.7609 76.6614 74.3036 76.6359 73.8292C76.4647 72.1747 77.0953 70.5525 77.7194 69.0057C78.0098 68.2818 78.3089 67.5429 78.8247 66.9547C79.3404 66.3666 80.0252 65.9788 80.71 65.6126C82.8947 64.4114 85.1828 63.4064 87.5471 62.6094C88.544 62.2884 89.5885 62.2949 90.1476 63.2213C90.7956 64.3264 90.6071 65.6018 91.1142 66.7781Z" fill="#EE5239"/>
<path d="M17.0437 79.7063C17.5053 80.0725 17.9106 80.5056 18.3851 80.8546C18.8871 81.201 19.4211 81.499 19.9801 81.7443L22.1169 82.7655C22.779 83.1076 23.4719 83.3874 24.1864 83.6013C25.1009 83.8448 26.0609 83.8685 26.9798 84.0947C28.1392 84.3791 29.1989 84.9715 30.3409 85.3141C31.483 85.6566 32.8201 85.7126 33.7736 84.9995C34.3695 84.5536 34.8203 83.8168 35.5592 83.7069C36.036 83.6444 36.4954 83.8728 36.9202 84.0947L42.4809 87.0009C43.2307 87.393 44.0238 87.8282 44.4161 88.5757C44.8083 89.3233 44.5439 90.4586 43.7183 90.6525C43.4305 90.6854 43.1411 90.7019 42.8515 90.7021C42.5654 90.7365 42.2534 90.9046 42.2143 91.1911C42.2129 91.369 42.2601 91.544 42.3509 91.6974C42.6001 92.2661 42.6738 92.9469 42.3834 93.4984C42.093 94.0499 41.38 94.3924 40.8101 94.1447C40.9076 94.9784 39.9953 95.5623 39.1826 95.7841C37.1325 96.3421 34.959 95.9996 32.8634 95.6463C32.0399 95.5084 31.2034 95.3662 30.4536 95C30.0939 94.8255 29.7601 94.6014 29.3961 94.4398C28.3971 93.9982 27.2615 94.0564 26.1693 94.0758C21.1178 94.1641 16.1097 93.2334 11.1428 92.307C10.2218 92.1347 9.27475 91.9516 8.4881 91.4453C6.97114 90.4629 6.4077 88.4465 6.65692 86.6627C6.90613 84.8789 7.8163 83.2631 8.71131 81.6948L9.8707 79.6632C10.0223 79.352 10.2344 79.0738 10.4948 78.8446C12.2003 77.5498 15.5831 78.5386 17.0437 79.7063Z" fill="#A1616A"/>
<path opacity="0.04" d="M17.0437 79.7063C17.5053 80.0725 17.9106 80.5056 18.3851 80.8546C18.8871 81.201 19.4211 81.499 19.9801 81.7443L22.1169 82.7655C22.779 83.1076 23.4719 83.3874 24.1864 83.6013C25.1009 83.8448 26.0609 83.8685 26.9798 84.0947C28.1392 84.3791 29.1989 84.9715 30.3409 85.3141C31.483 85.6566 32.8201 85.7126 33.7736 84.9995C34.3695 84.5536 34.8203 83.8168 35.5592 83.7069C36.036 83.6444 36.4954 83.8728 36.9202 84.0947L42.4809 87.0009C43.2307 87.393 44.0238 87.8282 44.4161 88.5757C44.8083 89.3233 44.5439 90.4586 43.7183 90.6525C43.4305 90.6854 43.1411 90.7019 42.8515 90.7021C42.5654 90.7365 42.2534 90.9046 42.2143 91.1911C42.2129 91.369 42.2601 91.544 42.3509 91.6974C42.6001 92.2661 42.6738 92.9469 42.3834 93.4984C42.093 94.0499 41.38 94.3924 40.8101 94.1447C40.9076 94.9784 39.9953 95.5623 39.1826 95.7841C37.1325 96.3421 34.959 95.9996 32.8634 95.6463C32.0399 95.5084 31.2034 95.3662 30.4536 95C30.0939 94.8255 29.7601 94.6014 29.3961 94.4398C28.3971 93.9982 27.2615 94.0564 26.1693 94.0758C21.1178 94.1641 16.1097 93.2334 11.1428 92.307C10.2218 92.1347 9.27475 91.9516 8.4881 91.4453C6.97114 90.4629 6.4077 88.4465 6.65692 86.6627C6.90613 84.8789 7.8163 83.2631 8.71131 81.6948L9.8707 79.6632C10.0223 79.352 10.2344 79.0738 10.4948 78.8446C12.2003 77.5498 15.5831 78.5386 17.0437 79.7063Z" fill="black"/>
<path d="M83.1957 83.429C82.0667 83.9589 80.7708 84.0106 79.5919 84.4178C78.413 84.825 77.4118 85.5575 76.3304 86.1542C73.5132 87.7183 70.2626 88.3086 67.0705 88.8708C65.1353 89.2155 63.1698 89.5602 61.2194 89.4784C58.5799 89.3663 56.0444 88.4917 53.4872 87.8324C50.9301 87.1732 48.2017 86.7294 45.6684 87.4705C44.3455 87.8709 43.1362 88.5756 42.1384 89.5275C41.1407 90.4793 40.3826 91.6515 39.9257 92.949C39.3947 94.498 39.3211 96.1676 39.4229 97.8006C39.956 98.1905 40.7015 97.6498 40.9919 97.0573C41.2823 96.4649 41.4405 95.7389 42.0039 95.3942C42.9812 95.7238 43.2196 97.0185 44.0258 97.6584C44.5285 98.0591 45.2003 98.1647 45.8396 98.2551L49.1336 98.7205C49.9267 98.8325 50.8477 98.9079 51.422 98.3521C51.7016 98.0828 51.8554 97.7058 52.1111 97.4171C52.6356 96.8397 53.5111 96.7406 54.2912 96.8182C56.727 97.0595 59.0111 98.63 61.4296 98.2573C62.2617 98.1302 63.0354 97.7769 63.8285 97.499C68.5289 95.8487 73.7516 96.8527 78.6427 95.9069C80.5086 95.5471 82.3051 94.9094 84.0799 94.2373C85.0443 93.8732 86.0194 93.4919 86.8429 92.8757C87.6231 92.2794 88.2383 91.496 88.631 90.5989C89.0236 89.7018 89.1809 88.7203 89.088 87.7463C88.9066 86.2619 88.1616 84.9025 87.0055 83.946C86.6241 83.6229 86.1235 83.0046 85.6662 82.8021C84.7929 82.4207 83.9369 83.0821 83.1957 83.429Z" fill="#A1616A"/>
<g opacity="0.1">
<path opacity="0.1" d="M76.8636 55.9073C76.5017 55.5884 76.4129 55.1037 76.1008 54.7504C75.4507 54.0028 74.1375 54.1041 73.0669 54.2549C71.2011 54.5156 68.9495 54.5759 67.7923 53.2854C67.2917 52.7296 67.0706 51.9928 66.4595 51.5297C65.0336 50.4525 62.5804 51.5555 61.0093 50.6442C59.6375 49.8493 59.7264 48.0052 58.5822 46.9819C57.4379 45.9585 55.4551 46.0921 53.9013 46.6027C53.6384 46.7227 53.3437 46.756 53.0604 46.6975C52.5685 46.5251 52.6032 45.9176 52.7245 45.4695C53.3162 43.3044 53.9186 41.1177 55.0693 39.1271C55.4876 38.4011 55.9817 37.7009 56.2504 36.9211C56.7206 35.5552 56.4801 34.0106 57.0977 32.718C56.4346 33.1488 55.7975 33.6185 55.3879 34.226C54.4647 35.594 54.8223 37.3347 54.3043 38.8535C54.0356 39.6334 53.5415 40.3336 53.1233 41.0596C51.9726 43.0502 51.3701 45.2368 50.7785 47.4019C50.6572 47.85 50.6225 48.4576 51.1144 48.6299C51.3977 48.6884 51.6923 48.6552 51.9552 48.5351C53.509 48.0246 55.4832 47.8781 56.6361 48.9143C57.789 49.9505 57.6915 51.7882 59.0633 52.5767C60.6344 53.488 63.0875 52.3871 64.5135 53.4621C65.1246 53.9231 65.3456 54.6621 65.8462 55.2179C67.0121 56.5105 69.255 56.448 71.1209 56.1873C72.1914 56.0365 73.5047 55.9353 74.1548 56.6828C74.4669 57.0362 74.5557 57.5209 74.9176 57.8397C75.5677 58.4171 76.7575 58.1241 77.3924 57.5317C77.7995 57.1102 78.1479 56.6363 78.4283 56.1227C77.8648 56.2929 77.2646 56.2671 76.8636 55.9073Z" fill="black"/>
<path opacity="0.1" d="M80.8122 53.5375C80.6726 53.7162 80.5431 53.9025 80.4243 54.0955C81.2565 53.5052 82.1385 52.9537 82.7604 52.2018C82.9219 52.0072 83.0668 51.7997 83.1938 51.5814C82.3292 52.1975 81.4277 52.7641 80.8122 53.5375Z" fill="black"/>
</g>
<path d="M124.594 96.1978L125.244 158.027L128.278 157.596L127.628 96.1978H124.594Z" fill="#3F3D56"/>
<path d="M142.797 107.4L143.447 169.23L146.481 168.799L145.831 107.4H142.797Z" fill="#3F3D56"/>
<path d="M199.473 138.634L199.46 137.447V136.74L199.345 125.865L199.165 108.863L199.134 107.396H196.101L196.116 108.809L196.211 117.916L196.252 121.858L196.287 125.051L196.343 130.57L196.378 133.825V134.17L196.423 138.449L196.462 142.221L196.71 141.949C197.107 141.509 197.495 141.06 197.875 140.605L199.473 138.634Z" fill="#3F3D56"/>
<path d="M139.438 117.418L137.705 119.995L139.438 131.734L154.174 135.743H178.012L192.315 136.602L199.128 131.966L197.949 124.004L192.748 117.418H139.438Z" fill="#EE5239"/>
<path d="M137.704 119.995L136.838 127.151C136.838 127.151 132.287 141.183 168.91 140.323C205.534 139.463 199.249 136.6 199.249 136.6L199.033 128.297C199.033 128.297 200.309 132.227 181.696 131.695C163.083 131.163 145.723 129.444 145.723 129.444C145.723 129.444 139.221 130.588 137.704 119.995Z" fill="#3F3D56"/>
<path d="M168.217 55.847C166.128 56.7927 164.546 58.6261 163.486 60.6533C162.426 62.6805 161.831 64.906 161.243 67.1163C160.623 69.4473 160.001 71.7848 159.681 74.174C159.109 78.4223 159.538 82.8883 161.501 86.7036C163.464 90.5189 167.092 93.5975 171.34 94.3321C172.98 94.6186 174.666 94.5605 176.324 94.3903C179.32 94.0748 182.272 93.4281 185.124 92.4621C188.104 91.4604 191.205 89.9179 192.532 87.0763C193.301 85.4282 193.366 83.5496 193.329 81.7357C193.227 76.7917 192.476 71.8821 191.095 67.1314C190.694 65.7526 190.228 64.3631 189.378 63.2019C188.529 62.0407 187.367 61.1897 186.182 60.4013C181.113 57.0082 174.452 53.0291 168.217 55.847Z" fill="#FBBEBE"/>
<path opacity="0.05" d="M168.217 55.847C166.128 56.7927 164.546 58.6261 163.486 60.6533C162.426 62.6805 161.831 64.906 161.243 67.1163C160.623 69.4473 160.001 71.7848 159.681 74.174C159.109 78.4223 159.538 82.8883 161.501 86.7036C163.464 90.5189 167.092 93.5975 171.34 94.3321C172.98 94.6186 174.666 94.5605 176.324 94.3903C179.32 94.0748 182.272 93.4281 185.124 92.4621C188.104 91.4604 191.205 89.9179 192.532 87.0763C193.301 85.4282 193.366 83.5496 193.329 81.7357C193.227 76.7917 192.476 71.8821 191.095 67.1314C190.694 65.7526 190.228 64.3631 189.378 63.2019C188.529 62.0407 187.367 61.1897 186.182 60.4013C181.113 57.0082 174.452 53.0291 168.217 55.847Z" fill="black"/>
<path d="M165.87 82.9636C166.475 83.7899 167.206 84.5168 168.037 85.118C170.1 86.5355 172.748 86.7273 175.253 86.8048C177.264 86.8651 179.57 86.7509 180.831 85.1912C181.399 84.4889 181.655 83.5927 181.885 82.7202C183.302 77.3625 184.309 71.9057 184.897 66.3967L190.635 66.4161C193.119 76.9875 192.915 87.9768 192.698 98.8325L192.384 114.663L188.687 114.273C179.908 113.348 171.116 112.424 162.29 112.265C157.118 112.17 151.945 112.34 146.791 112.773L154.842 88.9764C155.886 85.8828 156.942 82.7482 157.186 79.4973C157.54 74.7814 156.209 69.8028 158.053 65.4402C158.201 65.0891 158.387 64.725 158.723 64.5419C159.059 64.3587 159.484 64.404 159.869 64.4535C160.597 64.5505 162.823 64.4535 163.352 64.9167C164.132 65.5889 163.616 65.6901 163.341 66.7738C162.849 68.7127 162.383 70.5072 162.39 72.528C162.396 76.1968 163.54 80.0703 165.87 82.9636Z" fill="#EE5239"/>
<path d="M199.473 138.634C200.439 137.359 201.35 136.038 202.205 134.672C201.772 133.75 201.295 132.85 200.916 131.908C200.335 130.465 200.001 128.935 199.672 127.416C199.559 126.899 199.447 126.382 199.336 125.865C198.122 120.24 196.983 114.536 196.746 108.833C196.725 108.359 196.711 107.885 196.705 107.411C196.705 107.342 196.705 107.275 196.705 107.196C196.705 106.677 196.705 106.157 196.705 105.64C196.731 104.348 196.814 103.044 196.963 101.747C196.991 101.493 197.024 101.239 197.058 100.985C197.058 100.929 197.071 100.875 197.08 100.819L211.816 100.285L213.056 100.239C213.907 100.209 214.809 100.162 215.511 99.6814C216.692 98.8756 216.831 97.2233 216.811 95.8036C216.74 92.2152 216.33 88.6414 215.589 85.1288C215.03 82.4876 214.233 79.7882 212.443 77.7588C210.973 76.0913 208.845 74.8784 208.08 72.8038C207.796 72.0326 207.725 71.1859 207.356 70.4491C206.988 69.7123 206.379 69.1716 205.805 68.6028C203.784 66.6119 202.107 64.303 200.842 61.7693C199.964 60.0113 199.013 58.0724 197.867 56.8574C197.81 56.7949 197.754 56.7367 197.696 56.6807C196.72 55.722 195.604 55.3019 194.282 55.9547C194.045 56.0733 193.818 56.2132 193.606 56.3727C193.135 56.7305 192.704 57.1379 192.321 57.5877C190.986 59.114 189.814 60.7747 188.826 62.5427C188.131 63.7875 187.534 65.0839 187.04 66.4205C186.651 67.4764 186.328 68.5557 186.076 69.652C185.889 70.4642 185.742 71.285 185.625 72.108C185.191 75.2016 185.192 78.3555 185.252 81.488C185.317 84.3662 185.445 87.2508 185.707 90.1182C185.772 90.8119 185.845 91.5049 185.924 92.1972C186.083 93.5659 186.279 94.9303 186.513 96.2904C186.607 96.8096 186.702 97.3288 186.808 97.8459C186.834 97.9837 186.862 98.1216 186.89 98.2573L186.903 98.3155C187.19 99.5173 187.412 100.733 187.569 101.959C187.586 102.112 187.599 102.265 187.608 102.417C187.644 103.122 187.638 103.827 187.59 104.531C187.541 105.362 187.463 106.192 187.424 107.023C187.424 107.17 187.424 107.314 187.408 107.454C187.398 107.874 187.408 108.294 187.408 108.715C187.452 109.72 187.573 110.72 187.768 111.707C188.134 113.543 188.765 115.316 189.643 116.972C189.725 117.127 189.81 117.28 189.894 117.431C190.993 119.383 192.38 121.173 193.396 123.17C194.273 124.967 194.928 126.863 195.346 128.817C195.491 129.462 195.628 130.108 195.758 130.756C195.96 131.79 196.14 132.832 196.324 133.875C196.341 133.978 196.361 134.09 196.38 134.185C196.625 135.568 196.883 136.945 197.214 138.296C197.407 139.082 197.624 139.858 197.878 140.62L199.473 138.634Z" fill="#464353"/>
<path d="M196.577 121.653C196.577 121.847 196.564 122.041 196.556 122.237C196.517 123.183 196.43 124.125 196.294 125.062C196.114 126.34 195.799 127.595 195.355 128.808C195.061 129.605 194.686 130.371 194.237 131.094C193.839 131.735 193.372 132.333 192.846 132.875C191.545 134.22 189.673 134.648 187.861 135.215C187.028 135.455 186.222 135.782 185.458 136.191C185.322 136.266 185.187 136.348 185.057 136.434L182.791 137.927C182.084 138.39 181.362 138.871 180.877 139.558C180.797 139.675 180.725 139.797 180.66 139.922C180.354 140.555 180.129 141.224 179.993 141.913C178.814 146.795 177.633 151.681 176.825 156.636C176.77 156.963 176.718 157.293 176.662 157.622L176.643 157.726C176.633 157.701 176.621 157.677 176.608 157.655C170.809 161.14 164.795 164.286 158.599 166.804L157.254 155.601C157.113 154.691 157.067 153.768 157.115 152.848C157.243 151.398 157.837 150.024 157.997 148.578C158.149 147.163 157.88 145.735 157.223 144.47C156.968 143.979 156.647 143.496 156.588 142.947C156.53 142.398 156.848 141.896 157.403 141.84C157.837 141.361 157.871 140.709 157.743 140.062C157.675 139.725 157.574 139.395 157.44 139.078C157.072 138.177 156.606 137.197 156.922 136.277C157.006 136.11 157.043 135.924 157.03 135.738C157.033 135.727 157.033 135.715 157.03 135.704C156.957 135.463 156.669 135.357 156.519 135.152C156.237 134.771 156.519 134.252 156.692 133.812C156.861 133.34 156.959 132.846 156.983 132.345C157.007 132.067 157.024 131.787 157.054 131.512C157.096 131.138 157.164 130.769 157.256 130.404C157.782 128.341 159.048 126.539 160.816 125.337C161.659 124.773 162.598 124.361 163.458 123.829C164.339 123.239 165.181 122.591 165.976 121.89C167.885 120.311 169.869 118.821 171.929 117.422C174.144 115.918 176.439 114.533 178.803 113.273C179.309 113.002 179.814 112.737 180.32 112.48C180.87 112.193 181.425 111.921 181.982 111.664C183.768 110.817 185.794 111.134 187.768 111.698C188.596 111.933 189.413 112.213 190.202 112.467C190.972 112.716 191.713 113.047 192.412 113.454C194.161 114.475 195.607 115.983 196.207 117.888C196.208 117.9 196.208 117.912 196.207 117.924C196.588 119.118 196.612 120.397 196.577 121.653Z" fill="#F86D70"/>
<path opacity="0.1" d="M196.577 121.653C196.577 121.847 196.564 122.041 196.556 122.237C196.517 123.183 196.43 124.125 196.294 125.062C196.114 126.34 195.799 127.595 195.355 128.808C195.061 129.605 194.686 130.371 194.237 131.094C193.839 131.735 193.372 132.333 192.846 132.875C191.545 134.22 189.673 134.648 187.861 135.215C187.028 135.455 186.222 135.782 185.458 136.191C185.322 136.266 185.187 136.348 185.057 136.434L182.791 137.927C182.084 138.39 181.362 138.871 180.877 139.558C180.797 139.675 180.725 139.797 180.66 139.922C180.354 140.555 180.129 141.224 179.993 141.913C178.814 146.795 177.633 151.681 176.825 156.636C176.77 156.963 176.718 157.293 176.662 157.622L176.643 157.726C176.633 157.701 176.621 157.677 176.608 157.655C170.809 161.14 164.795 164.286 158.599 166.804L157.254 155.601C157.113 154.691 157.067 153.768 157.115 152.848C157.243 151.398 157.837 150.024 157.997 148.578C158.149 147.163 157.88 145.735 157.223 144.47C156.968 143.979 156.647 143.496 156.588 142.947C156.53 142.398 156.848 141.896 157.403 141.84C157.837 141.361 157.871 140.709 157.743 140.062C157.675 139.725 157.574 139.395 157.44 139.078C157.072 138.177 156.606 137.197 156.922 136.277C157.006 136.11 157.043 135.924 157.03 135.738C157.033 135.727 157.033 135.715 157.03 135.704C156.957 135.463 156.669 135.357 156.519 135.152C156.237 134.771 156.519 134.252 156.692 133.812C156.861 133.34 156.959 132.846 156.983 132.345C157.007 132.067 157.024 131.787 157.054 131.512C157.096 131.138 157.164 130.769 157.256 130.404C157.782 128.341 159.048 126.539 160.816 125.337C161.659 124.773 162.598 124.361 163.458 123.829C164.339 123.239 165.181 122.591 165.976 121.89C167.885 120.311 169.869 118.821 171.929 117.422C174.144 115.918 176.439 114.533 178.803 113.273C179.309 113.002 179.814 112.737 180.32 112.48C180.87 112.193 181.425 111.921 181.982 111.664C183.768 110.817 185.794 111.134 187.768 111.698C188.596 111.933 189.413 112.213 190.202 112.467C190.972 112.716 191.713 113.047 192.412 113.454C194.161 114.475 195.607 115.983 196.207 117.888C196.208 117.9 196.208 117.912 196.207 117.924C196.588 119.118 196.612 120.397 196.577 121.653Z" fill="black"/>
<path d="M176.001 85.969C175.979 85.9189 175.947 85.8738 175.907 85.8363C175.867 85.7988 175.82 85.7698 175.769 85.7508C175.717 85.7319 175.662 85.7235 175.608 85.7262C175.553 85.7289 175.499 85.7425 175.45 85.7663C175.4 85.7902 175.356 85.8237 175.32 85.8648C175.284 85.906 175.257 85.954 175.24 86.0059C175.223 86.0578 175.217 86.1126 175.222 86.167C175.227 86.2214 175.243 86.2742 175.268 86.3223L175.052 86.4278L181.514 99.5951L182.682 99.0286L176.22 85.8526L176.001 85.969Z" fill="#3F3D56"/>
<path d="M184.08 72.1769C191.74 72.1769 197.949 66.0039 197.949 58.3891C197.949 50.7743 191.74 44.6013 184.08 44.6013C176.42 44.6013 170.21 50.7743 170.21 58.3891C170.21 66.0039 176.42 72.1769 184.08 72.1769Z" fill="#FBBEBE"/>
<path d="M202.385 49.8536C202.321 48.7575 202.157 47.6695 201.896 46.6027C201.081 43.1191 199.592 39.6894 197.028 37.1882C196.87 36.5767 196.682 35.9734 196.463 35.3807C196.459 35.366 196.454 35.3516 196.448 35.3376C195.683 33.2496 194.577 31.3011 193.175 29.5705C192.363 28.5665 191.309 27.5755 190.014 27.5368C189.649 27.5238 189.264 27.5863 188.93 27.4204C188.685 27.2627 188.478 27.0521 188.325 26.8043C187.684 25.9981 186.833 25.3815 185.864 25.0212C184.895 24.6609 183.846 24.5705 182.83 24.7598L182.695 24.7878C182.619 24.8029 182.544 24.8201 182.479 24.8395C182.414 24.8589 182.297 24.8912 182.206 24.9192C182.305 25.083 182.403 25.2488 182.498 25.4169C182.755 25.8722 182.994 26.3375 183.213 26.8129C183.395 27.2093 183.564 27.6122 183.718 28.0215C181.499 28.2735 179.692 29.8397 178.04 31.3306L174.153 34.8378C174.146 34.8437 174.139 34.8502 174.133 34.8572L174.021 34.9649C173.992 34.9929 173.964 35.0209 173.938 35.0511C173.928 35.0601 173.918 35.0702 173.91 35.0813C173.877 35.1157 173.847 35.1523 173.817 35.189C173.763 35.2568 173.714 35.3289 173.672 35.4044C173.65 35.4367 173.632 35.4706 173.615 35.5057C173.609 35.516 173.604 35.5268 173.6 35.538C173.586 35.5674 173.574 35.5976 173.563 35.6285C173.562 35.6327 173.562 35.6371 173.563 35.6414C173.557 35.659 173.552 35.677 173.548 35.6952C173.504 35.8468 173.517 36.0093 173.585 36.152L176.149 36.18H176.45C176.463 36.5204 176.474 36.8629 176.487 37.2033C176.08 37.506 175.689 37.8296 175.316 38.1727C174.91 38.5468 174.528 38.947 174.174 39.3705C171.862 42.1475 170.655 45.7345 170.534 49.3451C170.534 49.4572 170.534 49.5606 170.534 49.6769C170.534 50.0065 170.534 50.3361 170.534 50.6636C170.534 50.879 170.553 51.0945 170.571 51.3099C170.572 51.5905 170.646 51.866 170.787 52.1092C170.806 52.1363 170.826 52.1622 170.848 52.1867C170.978 52.327 171.134 52.4411 171.307 52.5228L171.494 52.6133C171.587 52.6585 171.676 52.7016 171.762 52.7512C172.579 53.21 173.063 54.0955 173.806 54.6642C173.849 54.6965 173.893 54.7288 173.936 54.7568L174.034 54.8215L174.094 54.8603L174.177 54.9076C174.231 54.94 174.286 54.9695 174.343 54.996L174.447 55.0477H174.465C174.551 55.0865 174.638 55.1231 174.727 55.1554L174.851 55.1985L174.887 55.2114C174.922 55.2222 174.959 55.2351 174.996 55.2437C175.069 55.2653 175.142 55.2847 175.212 55.3019L175.429 55.3493C175.514 55.3644 175.6 55.3794 175.687 55.3902L175.815 55.4075L175.945 55.4204C176.151 55.439 176.36 55.4498 176.569 55.4527C177.226 55.4487 177.883 55.4033 178.535 55.317L184.065 54.6707C185.32 54.5263 186.6 54.382 187.838 54.6362C188.887 54.8516 189.853 55.3471 190.872 55.6983C191.101 55.778 191.331 55.8512 191.563 55.9137C191.648 55.9374 191.734 55.9633 191.821 55.9848L191.94 56.015L192.217 56.0818C192.317 56.1055 192.417 56.1292 192.517 56.1485C192.657 56.1787 192.796 56.2046 192.937 56.2304C193.032 56.2498 193.13 56.2649 193.227 56.2821H193.247L193.524 56.3252H193.591L193.797 56.3532C193.897 56.3683 193.997 56.3812 194.098 56.392C194.32 56.4193 194.541 56.443 194.762 56.4631C195.119 56.4975 195.479 56.5234 195.845 56.5449L196.205 56.5665L196.565 56.5837L197.648 56.6311H197.696H197.848C198.298 56.6623 198.751 56.6392 199.195 56.5622C199.273 56.5471 199.349 56.5299 199.425 56.5083C199.501 56.4868 199.564 56.4652 199.642 56.4394C200.455 56.1292 201.048 55.4161 201.46 54.6534C201.547 54.4919 201.627 54.3303 201.701 54.1644C201.774 53.9985 201.841 53.8305 201.902 53.6624C201.978 53.447 202.043 53.2423 202.099 53.0269C202.117 52.9687 202.132 52.9106 202.145 52.8503C202.158 52.7899 202.188 52.6714 202.206 52.581C202.26 52.3332 202.301 52.0833 202.331 51.8312C202.331 51.7515 202.351 51.6697 202.359 51.59C202.379 51.3745 202.394 51.1742 202.403 50.963C202.403 50.8036 202.403 50.6421 202.403 50.4805C202.401 50.306 202.385 50.0755 202.385 49.8536ZM196.829 36.9922C196.653 36.8284 196.474 36.6712 196.292 36.5225C196.494 36.6496 196.675 36.8081 196.827 36.9922H196.829Z" fill="#464353"/>
<path d="M157.461 57.6308C155.83 57.4304 154.211 56.7195 152.601 57.0685C151.593 57.2839 150.726 57.9065 149.92 58.5464C146.92 60.9367 144.369 63.8359 142.385 67.1099C142.049 67.5994 141.812 68.1498 141.689 68.7299C141.585 69.4021 141.77 70.085 141.989 70.7292C143.471 75.0831 146.641 78.7196 148.085 83.0865C149.601 87.6795 149.075 92.6991 147.957 97.4042C146.571 103.213 144.318 108.782 141.273 113.928C140.86 114.693 140.342 115.398 139.735 116.022C138.946 116.776 137.886 117.315 137.418 118.301C137.201 118.732 137.139 119.223 136.985 119.684C136.551 120.977 135.502 122.084 135.401 123.448C135.325 124.489 135.821 125.473 136.122 126.464C136.63 128.167 136.576 129.986 135.968 131.656C134.87 134.651 131.996 137.374 132.83 140.452C134.692 139.92 136.755 139.229 137.633 137.512C137.943 136.904 138.096 136.18 138.619 135.736C139.661 134.855 141.436 135.652 142.543 134.842C143.38 134.226 143.41 132.964 143.037 131.994C142.665 131.025 142.023 130.172 141.737 129.174C141.239 127.375 142.036 125.473 141.889 123.614C141.819 122.752 141.553 121.927 141.533 121.07C141.497 119.404 142.424 117.838 143.657 116.707C144.89 115.576 146.414 114.826 147.913 114.087L153.582 111.287C155.639 110.274 157.893 109.04 158.567 106.86C158.822 106.043 158.825 105.173 158.838 104.32C159.03 91.2837 162.316 78.5106 165.582 65.884C166.089 63.9279 166.604 61.9632 167.359 60.0846C168.113 58.206 169.588 56.6979 170.34 54.9529C165.978 54.4445 161.993 58.1952 157.461 57.6308Z" fill="#464353"/>
<path d="M188.713 139.412C189.214 142.428 189.519 145.508 189.758 148.574C185.857 151.788 181.657 154.585 177.39 157.178C177.147 157.327 176.903 157.474 176.658 157.609L176.638 157.713C176.628 157.688 176.617 157.664 176.604 157.642C176.272 156.931 175.694 156.363 174.974 156.043C173.375 152.704 171.777 149.365 170.18 146.025C169.313 144.222 168.447 142.402 168.013 140.457C168.013 140.416 167.994 140.372 167.987 140.332C167.658 138.824 167.582 137.257 167.363 135.73C167.252 134.855 167.054 133.993 166.771 133.158C166.511 132.414 166.154 131.693 165.837 130.967C165.447 130.07 165.12 129.163 165.105 128.196C165.105 127.888 165.125 127.55 164.973 127.291C164.811 127.069 164.61 126.876 164.381 126.723C164.095 126.47 163.878 126.15 163.751 125.792C163.624 125.433 163.59 125.049 163.653 124.674C162.353 124.741 161.62 126.13 161.098 127.309C160.623 128.461 160 129.547 159.243 130.54C158.692 131.249 157.99 131.829 157.189 132.24C157.117 132.274 157.046 132.309 156.972 132.339C155.162 133.132 153.05 132.852 151.088 132.494C149.374 132.182 147.602 131.794 146.223 130.734L146.076 130.618C145.668 130.281 145.304 129.894 144.992 129.467C143.837 127.899 143.326 125.833 143.042 123.866C143.016 123.681 142.99 123.495 142.966 123.31C142.769 121.92 142.715 120.514 142.804 119.113C142.83 118.769 142.866 118.424 142.912 118.082C142.942 117.866 142.975 117.633 143.012 117.409C143.011 117.403 143.011 117.396 143.012 117.39C143.068 117.035 143.129 116.677 143.189 116.313C143.406 115.091 143.623 113.837 144.273 112.786C144.701 112.132 145.241 111.557 145.868 111.089C146.102 110.905 146.342 110.731 146.585 110.563C146.98 110.291 147.385 110.033 147.797 109.789C148.832 109.173 149.92 108.647 151.047 108.217C151.316 108.113 151.589 108.016 151.862 107.924C152.923 107.549 154.066 107.459 155.173 107.663C156.155 107.804 157.147 107.862 158.138 107.835C160.68 107.786 163.233 107.303 165.77 106.991C169.294 106.56 173.08 106.508 176.153 108.284C176.3 108.368 176.443 108.456 176.586 108.549C178.103 109.535 179.325 110.918 180.311 112.463C180.528 112.788 180.717 113.122 180.903 113.46C181.333 114.237 181.721 115.035 182.067 115.852C182.271 116.253 182.382 116.695 182.39 117.144C182.385 117.23 182.373 117.315 182.355 117.399C182.296 117.705 182.179 118.002 182.138 118.312C182.002 119.486 183.005 120.466 183.38 121.584C183.623 122.313 183.597 123.093 183.733 123.859C183.93 124.937 184.461 125.906 184.938 126.876C185.692 128.436 186.336 130.046 186.867 131.695C187.244 132.843 187.567 134.009 187.851 135.185C187.943 135.563 188.031 135.941 188.113 136.32C188.349 137.363 188.542 138.384 188.713 139.412Z" fill="#F86D70"/>
<path d="M211.818 107.508V109.016L211.539 109.012L211.227 109.007L207.742 108.964L199.156 108.852L196.746 108.822L196.122 108.814L192.505 108.768L187.408 108.702L176.595 108.562L157.83 108.32L151.058 108.234L148.34 108.2L145.84 108.167L144.281 108.146L142.806 108.126L131.864 107.986L128.83 107.948L128.169 107.939L127.74 106.838L124.622 98.8433L124.052 97.3827L124.485 95.6592L126.436 96.9518L127.636 97.1004L147.402 99.5435L151.112 100.002L158.979 100.976L166.685 101.928L169.706 102.301L187.582 104.511L192.577 105.13L196.712 105.64L211.413 107.459L211.818 107.508Z" fill="#3F3D56"/>
<path d="M124.485 95.6592L128.386 105.785L211.819 107.508V96.5209L124.485 95.6592Z" fill="#504F60"/>
<path d="M128.819 106.862L129.469 168.691L132.503 168.26L131.853 106.862H128.819Z" fill="#3F3D56"/>
<path d="M211.539 109.01H211.227C210.722 112.864 209.886 116.669 208.728 120.382L207.742 108.964L207.701 108.477L211.346 108.06L211.468 108.047L211.539 109.01Z" fill="#3F3D56"/>
<path d="M199.683 101.691L167.935 102.338L158.075 99.1061L184.513 97.5981L199.683 101.691Z" fill="white"/>
<path d="M159.858 89.1272C159.522 89.2556 159.223 89.4668 158.991 89.7412C158.81 90.0384 158.7 90.373 158.669 90.7192L158.135 93.8797C158.054 94.1687 158.069 94.4762 158.177 94.7565C158.315 95.0215 158.718 95.1593 158.92 94.9396C158.894 95.5579 158.948 96.2171 159.31 96.7212C159.672 97.2254 160.43 97.4903 160.942 97.1392C161.022 97.2691 161.13 97.3801 161.257 97.4646C161.385 97.549 161.53 97.6048 161.681 97.6282C161.833 97.6516 161.987 97.6419 162.135 97.5999C162.282 97.5578 162.419 97.4844 162.535 97.3848C162.227 97.4882 162.205 97.9557 162.424 98.1926C162.669 98.4077 162.982 98.5318 163.308 98.5438C167.116 99.0774 170.999 98.5918 174.555 97.137C174.891 96.9991 174.007 92.8822 173.918 92.46C173.702 91.4668 173.593 90.2539 172.75 89.5861C170.735 87.9875 167.155 87.673 164.7 87.8626C163.022 87.9887 161.382 88.4173 159.858 89.1272Z" fill="#FBBEBE"/>
<path opacity="0.1" d="M192.161 89.6055C184.322 89.7542 176.322 89.8813 168.841 87.5481C169.555 90.301 169.506 93.1949 168.698 95.922L205.347 98.9381C206.901 99.0652 213.344 99.7891 214.859 99.425C216.373 99.0609 202.149 94.4032 202.723 92.962C204.303 88.9915 209.595 86.6648 205.783 86.5162C200.972 86.3266 197.008 89.515 192.161 89.6055Z" fill="black"/>
<path d="M192.378 90.0364C184.539 90.185 176.538 90.3121 169.058 87.979C169.772 90.7318 169.723 93.6258 168.915 96.3529L205.564 99.369C207.118 99.4961 213.561 100.231 215.076 99.8559C216.59 99.481 216.235 97.6347 216.809 96.1935C218.389 92.223 209.812 87.0957 206 86.947C201.189 86.7575 197.225 89.9459 192.378 90.0364Z" fill="#464353"/>
<path d="M179.915 90.6352C180.252 90.7634 180.55 90.9747 180.782 91.2492C180.963 91.5467 181.074 91.8811 181.107 92.2273L181.64 95.3877C181.72 95.6769 181.706 95.984 181.599 96.2645C181.46 96.5295 181.055 96.6674 180.855 96.4476C180.879 97.0659 180.827 97.7252 180.465 98.2293C180.103 98.7334 179.345 98.9984 178.831 98.6472C178.751 98.7771 178.644 98.8882 178.516 98.9726C178.388 99.057 178.244 99.1129 178.092 99.1362C177.941 99.1596 177.786 99.1499 177.638 99.1079C177.491 99.0659 177.355 98.9925 177.239 98.8928C177.546 98.9962 177.57 99.4637 177.351 99.7007C177.105 99.9157 176.792 100.04 176.465 100.052C172.657 100.585 168.776 100.1 165.22 98.6451C164.884 98.5072 165.766 94.3903 165.857 93.968C166.074 92.9749 166.182 91.762 167.025 91.0941C169.038 89.4956 172.621 89.1811 175.076 89.3706C176.753 89.497 178.392 89.9256 179.915 90.6352Z" fill="#FBBEBE"/>
<path d="M128.122 83.7737C127.402 84.6957 126.681 85.6372 126.217 86.7122C125.33 88.7631 125.46 91.0855 125.608 93.3131C125.649 93.9594 125.701 94.6186 126.041 95.155C126.335 95.5603 126.723 95.8891 127.172 96.1137C129.049 97.1737 131.247 97.4903 133.392 97.7273C136.677 98.0893 139.974 98.3097 143.283 98.3887C151.478 98.5869 159.8 97.9212 167.784 99.7675C166.795 98.2745 166.797 96.299 167.35 94.5971C167.903 92.8951 168.967 91.413 170.009 89.9545C166.355 88.8041 162.437 90.6008 158.61 90.422C154.681 90.2388 151.045 87.9811 147.112 87.9833C146.267 87.9833 145.406 88.0888 144.585 87.8863C143.764 87.6838 142.968 87.0677 142.892 86.2296C143.941 86.4644 144.936 85.5725 145.369 84.5945C145.803 83.6164 145.881 82.5112 146.301 81.5267C147.348 79.0772 150.176 77.9419 151.936 75.9254C152.213 75.6066 152.475 75.2296 152.467 74.8073C152.425 74.4496 152.274 74.1133 152.033 73.8443C150.57 71.9054 148.366 70.8282 146.535 69.3202C145.898 68.7945 144.613 66.8125 143.898 66.6294C142.572 66.2912 141.447 68.1956 140.584 69.1242C136.23 73.8278 132.076 78.711 128.122 83.7737Z" fill="#464353"/>
<path opacity="0.07" d="M171.697 83.2264C172.247 83.6314 172.735 84.1124 173.147 84.6548C173.352 84.9272 173.499 85.239 173.577 85.5705C173.655 85.902 173.663 86.246 173.6 86.5807C173.533 85.9564 173.673 85.3272 173.999 84.7893C174.325 84.2514 174.819 83.8342 175.405 83.6013L171.697 83.2264Z" fill="black"/>
<g opacity="0.1">
<path opacity="0.1" d="M183.716 26.7311C183.461 26.0577 183.167 25.3995 182.836 24.7598C182.622 24.8007 182.411 24.8547 182.203 24.9214C182.575 25.5353 182.91 26.1705 183.206 26.8237C183.373 26.7806 183.542 26.7504 183.716 26.7311Z" fill="black"/>
<path opacity="0.1" d="M196.289 35.2256C196.348 35.273 196.404 35.3268 196.46 35.3764C196.456 35.3624 196.451 35.3487 196.445 35.3355C196.396 35.2996 196.344 35.2629 196.289 35.2256Z" fill="black"/>
<path opacity="0.1" d="M176.144 36.1735C176.257 36.0852 176.361 35.9926 176.482 35.9064L176.448 34.8831L174.133 34.8594C173.758 35.2019 173.359 35.6931 173.58 36.152L176.144 36.1735Z" fill="black"/>
<path opacity="0.1" d="M201.447 53.3996C201.035 54.1623 200.441 54.8775 199.629 55.1856C199.002 55.4226 198.313 55.401 197.644 55.3709C195.36 55.2782 193.036 55.177 190.878 54.4251C189.868 54.0718 188.902 53.5784 187.844 53.3609C186.607 53.1066 185.326 53.251 184.071 53.3975L178.541 54.0438C176.909 54.2334 175.091 54.3755 173.788 53.3802C173.043 52.8115 172.562 51.9261 171.745 51.4693C171.4 51.2754 170.991 51.1505 170.768 50.823C170.627 50.5799 170.552 50.3044 170.551 50.0238C170.534 49.7976 170.523 49.5714 170.514 49.3452C170.491 50.0024 170.503 50.6604 170.551 51.3164C170.552 51.597 170.627 51.8725 170.768 52.1156C170.984 52.4409 171.4 52.5659 171.745 52.7619C172.562 53.2187 173.045 54.1041 173.788 54.6728C175.089 55.6682 176.909 55.5346 178.541 55.3364L184.071 54.6901C185.326 54.5436 186.607 54.3992 187.844 54.6535C188.893 54.8689 189.86 55.3644 190.878 55.7177C193.045 56.4696 195.36 56.5794 197.644 56.6635C198.313 56.6915 199.002 56.7152 199.629 56.4782C200.441 56.1701 201.035 55.4549 201.447 54.6922C202.244 53.2165 202.468 51.5426 202.383 49.8557C202.337 51.0911 202.017 52.301 201.447 53.3996Z" fill="black"/>
</g>
<path opacity="0.1" d="M183.653 28.1163L186.687 30.9169C186.687 30.9169 184.086 29.8397 183.653 28.1163Z" fill="black"/>
</g>
<defs>
<filter id="filter0_d" x="0" y="0" width="221" height="181" filterUnits="userSpaceOnUse" color-interpolation-filters="sRGB">
<feFlood flood-opacity="0" result="BackgroundImageFix"/>
<feColorMatrix in="SourceAlpha" type="matrix" values="0 0 0 0 0 0 0 0 0 0 0 0 0 0 0 0 0 0 127 0"/>
<feOffset dy="4"/>
<feGaussianBlur stdDeviation="2"/>
<feColorMatrix type="matrix" values="0 0 0 0 0 0 0 0 0 0 0 0 0 0 0 0 0 0 0.25 0"/>
<feBlend mode="normal" in2="BackgroundImageFix" result="effect1_dropShadow"/>
<feBlend mode="normal" in="SourceGraphic" in2="effect1_dropShadow" result="shape"/>
</filter>
<filter id="filter1_d" x="0.000488281" y="0.00616455" width="215.821" height="180.983" filterUnits="userSpaceOnUse" color-interpolation-filters="sRGB">
<feFlood flood-opacity="0" result="BackgroundImageFix"/>
<feColorMatrix in="SourceAlpha" type="matrix" values="0 0 0 0 0 0 0 0 0 0 0 0 0 0 0 0 0 0 127 0"/>
<feOffset dy="4"/>
<feGaussianBlur stdDeviation="2"/>
<feColorMatrix type="matrix" values="0 0 0 0 0 0 0 0 0 0 0 0 0 0 0 0 0 0 0.25 0"/>
<feBlend mode="normal" in2="BackgroundImageFix" result="effect1_dropShadow"/>
<feBlend mode="normal" in="SourceGraphic" in2="effect1_dropShadow" result="shape"/>
</filter>
<clipPath id="clip0">
<rect width="213" height="173" fill="white" transform="translate(4)"/>
</clipPath>
</defs>
</svg>
