<svg width="238" height="194" viewBox="0 0 238 194" fill="none" xmlns="http://www.w3.org/2000/svg">
<g opacity="0.5" filter="url(#filter0_d)">
<path d="M74.2151 9.73399C81.9301 1.19248 94.0419 -0.546779 105.065 0.132961C139.69 2.26894 170.946 23.0143 197.982 46.4811C207.769 54.9766 217.405 64.1398 223.764 75.8308C236.699 99.6459 232.861 132.639 214.878 152.257C208.759 158.933 201.342 164.049 193.727 168.588C180.188 176.652 165.583 183.126 150.214 184.969C139.255 186.283 128.171 185.211 117.268 183.382C86.8307 178.259 56.9547 166.933 31.9124 147.547C20.9244 139.047 10.5721 128.478 6.04547 114.719C1.51881 100.959 4.41587 83.5402 15.6302 75.4003C20.269 72.033 25.8132 70.5139 31.2433 69.0842C39.2358 66.9845 47.3543 64.9115 54.5674 60.6395C62.0167 56.2272 70.8359 47.693 69.3617 37.9251C67.7794 27.4532 66.5099 18.2489 74.2151 9.73399Z" fill="#EE5239"/>
</g>
<path d="M66.1006 108.334C66.1006 108.334 68.6093 106.536 71.2051 107.647C71.2051 107.647 70.4793 109.19 67.2449 109.171L66.1006 108.334Z" fill="#EE5239"/>
<path d="M65.7883 108.438C65.7883 108.438 65.1182 111.449 67.16 113.404C67.16 113.404 68.2922 112.129 67.0052 109.163L65.7883 108.438Z" fill="#EE5239"/>
<path d="M62.4717 105.697C62.4717 105.697 62.5636 103.154 68.3213 103.776C68.3213 103.776 68.4108 105.411 66.4319 106.263C64.453 107.114 63.5047 106.502 62.4717 105.697Z" fill="#EE5239"/>
<path d="M62.1162 105.692C62.1162 105.692 59.7236 106.563 62.0896 111.851C62.0896 111.851 63.6718 111.433 63.8725 109.287C64.0733 107.141 63.1976 106.432 62.1162 105.692Z" fill="#EE5239"/>
<path d="M58.7363 102.22C58.7363 102.22 58.2524 98.0592 64.1165 98.2624C64.1165 98.2624 64.6754 102.024 59.808 103.183L58.7363 102.22Z" fill="#EE5239"/>
<path d="M54.6895 97.6576C54.6895 97.6576 55.3112 92.8991 61.2212 94.0821C61.2212 94.0821 61.4003 98.1705 55.6958 98.7487L54.6895 97.6576Z" fill="#EE5239"/>
<path d="M51.6772 92.8943C51.6772 92.8943 52.8433 88.2277 58.6929 89.3938C58.6929 89.3938 57.4833 93.5911 52.0958 93.7314L51.6772 92.8943Z" fill="#EE5239"/>
<path d="M48.8105 88.2421C48.8105 88.2421 49.9403 83.4038 55.5843 84.6327C55.5843 84.6327 53.8908 89.2461 49.2049 89.0429L48.8105 88.2421Z" fill="#EE5239"/>
<path d="M46.9067 83.7909C46.9067 83.7909 47.693 77.905 52.9547 78.9985C52.9547 78.9985 51.6435 84.3763 47.318 84.6255L46.9067 83.7909Z" fill="#EE5239"/>
<path d="M45.0752 78.3937C45.0752 78.3937 46.0598 72.4546 51.4014 73.9666C51.4014 73.9666 49.5434 79.6154 45.4744 79.1945L45.0752 78.3937Z" fill="#EE5239"/>
<path d="M43.8755 73.3594C43.8755 73.3594 45.5689 67.3937 49.6622 67.3961C49.6622 67.3961 47.9325 73.686 44.2626 74.5279L43.8755 73.3594Z" fill="#EE5239"/>
<path d="M43.0479 68.4194C43.0479 68.4194 44.8695 61.2441 48.2128 61.665C48.2128 61.665 46.9718 67.142 43.2075 69.5201L43.0479 68.4194Z" fill="#EE5239"/>
<path d="M42.4604 62.5118C42.4604 62.5118 44.195 56.5267 47.4657 56.1638C47.4657 56.1638 46.3529 62.0303 42.5911 64.0455L42.4604 62.5118Z" fill="#EE5239"/>
<path d="M41.8506 57.0154C41.8506 57.0154 44.0714 51.0037 46.2342 50.786C46.2342 50.786 45.3947 56.6525 42.1046 57.9783L41.8506 57.0154Z" fill="#EE5239"/>
<path d="M41.3838 51.8915C41.3838 51.8915 42.6418 45.4057 44.7852 44.7912C44.7852 44.7912 44.6908 50.0578 41.6185 52.3632L41.3838 51.8915Z" fill="#EE5239"/>
<path d="M40.312 45.2049C40.312 45.2049 41.6982 40.023 43.4207 39.1739C43.4207 39.1739 43.3045 45.2218 40.7596 46.4314L40.312 45.2049Z" fill="#EE5239"/>
<path d="M39.4651 40.8165L38.7998 31.7977C38.7998 31.7977 42.3318 38.4892 39.7675 42.401L39.4651 40.8165Z" fill="#EE5239"/>
<path d="M36.5864 31.938C36.5864 31.938 33.9761 25.4329 33.3955 25.0869C33.3955 25.0869 38.1855 29.1995 37.9436 34.7104L36.5864 31.938Z" fill="#EE5239"/>
<path d="M58.5766 102.196C58.5766 102.196 54.4036 101.811 54.7543 107.671C54.7543 107.671 58.5283 108.138 59.5661 103.241L58.5766 102.196Z" fill="#EE5239"/>
<path d="M54.4885 97.5077C54.4885 97.5077 49.6937 97.6746 50.313 103.662C50.313 103.662 54.3652 104.228 55.4804 98.6036L54.4885 97.5077Z" fill="#EE5239"/>
<path d="M51.646 93.2862C51.646 93.2862 47.2141 91.4113 44.6304 96.7867C44.6304 96.7867 48.7164 98.3326 52.0621 94.1256L51.646 93.2862Z" fill="#EE5239"/>
<path d="M48.7139 88.2906C48.7139 88.2906 44.1755 86.2875 41.7539 91.5372C41.7539 91.5372 46.4592 92.9572 49.1131 89.0889L48.7139 88.2906Z" fill="#EE5239"/>
<path d="M46.9673 83.9142C46.9673 83.9142 42.5208 79.9806 39.2573 84.2578C39.2573 84.2578 43.7691 87.4608 47.1995 84.819L46.9673 83.9142Z" fill="#EE5239"/>
<path d="M45.3125 78.2438C45.3125 78.2438 40.837 74.2182 37.6074 78.7276C37.6074 78.7276 42.5837 81.9814 45.5012 79.1122L45.3125 78.2438Z" fill="#EE5239"/>
<path d="M44.311 73.1682C44.311 73.1682 40.7862 68.0638 36.9155 69.3798C36.9155 69.3798 40.5782 74.7891 44.3207 74.3996L44.311 73.1682Z" fill="#EE5239"/>
<path d="M43.1472 68.3832C43.1472 68.3832 39.5402 61.9191 36.4194 63.1844C36.4194 63.1844 39.0273 68.1582 43.273 69.4863L43.1472 68.3832Z" fill="#EE5239"/>
<path d="M42.6754 62.1659C42.6754 62.1659 39.0321 57.1098 35.8315 57.867C35.8315 57.867 38.8483 63.0198 43.0673 63.6561L42.6754 62.1659Z" fill="#EE5239"/>
<path d="M42.2108 56.8847C42.2108 56.8847 39.3199 51.1658 37.1475 51.1972C37.1475 51.1972 38.6498 56.9307 42.0681 57.8693L42.2108 56.8847Z" fill="#EE5239"/>
<path d="M41.4853 51.7609C41.4853 51.7609 38.292 45.979 36.0615 46.0516C36.0615 46.0516 37.7743 51.0351 41.4055 52.2834L41.4853 51.7609Z" fill="#EE5239"/>
<path d="M40.8007 45.5388C40.8007 45.5388 38.3936 40.7439 36.5356 40.2625C36.5356 40.2625 37.8735 46.1653 40.6047 46.8427L40.8007 45.5388Z" fill="#EE5239"/>
<path d="M39.1945 40.6568L33.9473 33.2928C33.9473 33.2928 35.5028 40.7004 39.9735 42.0696L39.1945 40.6568Z" fill="#EE5239"/>
<path d="M35.4758 32.5889C35.4758 32.5889 29.5705 28.8319 29.3286 28.1956C29.3286 28.1956 32.4736 33.6581 37.9554 34.4323L35.4758 32.5889Z" fill="#EE5239"/>
<path d="M35.0621 30.8132C35.0621 30.8132 28.2013 24.7047 26.5127 24.7773C26.5127 24.7773 31.9801 24.816 35.2218 30.4697L35.0621 30.8132Z" fill="#EE5239"/>
<path d="M40.7718 46.5064L40.5299 46.5476C38.9139 36.8587 36.8794 31.1761 34.8037 30.5422L34.8739 30.3003C37.0705 30.968 39.1171 36.5684 40.7718 46.5064Z" fill="#444053"/>
<path d="M43.493 69.7016L43.1302 69.7451C43.0189 68.8403 42.9221 67.9114 42.8471 66.9872C42.1915 58.9434 41.369 51.5649 40.4497 46.0443L40.6505 45.7758C41.5722 51.3061 42.5544 58.9023 43.2124 66.9582C43.2874 67.8775 43.3818 68.7992 43.493 69.7016Z" fill="#444053"/>
<path d="M73.0747 112.707C73.0094 112.681 66.4873 110.063 59.5684 103.488C55.5166 99.6394 52.1003 95.173 49.4466 90.255C46.1298 84.1079 43.9598 76.4777 43.043 69.0218L43.43 69.1863C45.4863 85.9222 53.5713 97.1086 59.8805 103.12C66.7316 109.638 73.186 112.228 73.2465 112.253L73.0747 112.707Z" fill="#444053"/>
<g opacity="0.7">
<path opacity="0.7" d="M76.2222 93.0056C76.2222 93.0056 79.1518 92.0379 81.3025 93.8693C81.3025 93.8693 80.1485 95.1272 77.0665 94.1451L76.2222 93.0056Z" fill="#EE5239"/>
<path opacity="0.7" d="M75.8931 93.0103C75.8931 93.0103 74.3594 95.6884 75.7262 98.1584C75.7262 98.1584 77.1777 97.2802 76.8415 94.0651L75.8931 93.0103Z" fill="#EE5239"/>
<path opacity="0.7" d="M73.5396 89.4082C73.5396 89.4082 74.3863 87.0083 79.6964 89.3138C79.6964 89.3138 79.2972 90.9032 77.1514 91.1258C75.0056 91.3483 74.2895 90.4799 73.5396 89.4082Z" fill="#EE5239"/>
<path opacity="0.7" d="M73.2033 89.2994C73.2033 89.2994 70.6632 89.4204 71.3454 95.1708C71.3454 95.1708 72.9832 95.2433 73.8129 93.2524C74.6427 91.2614 74.0162 90.3251 73.2033 89.2994Z" fill="#EE5239"/>
<path opacity="0.7" d="M71.0112 84.9714C71.0112 84.9714 71.783 80.8588 77.3229 82.7942C77.3229 82.7942 76.7399 86.5511 71.7467 86.21L71.0112 84.9714Z" fill="#EE5239"/>
<path opacity="0.7" d="M68.5054 79.4072C68.5054 79.4072 70.5133 75.0527 75.7968 77.9364C75.7968 77.9364 74.7517 81.8917 69.1319 80.7475L68.5054 79.4072Z" fill="#EE5239"/>
<path opacity="0.7" d="M67.0439 73.9762C67.0439 73.9762 69.5478 69.8636 74.7853 72.7207C74.7853 72.7207 72.3662 76.364 67.1964 74.8979L67.0439 73.9762Z" fill="#EE5239"/>
<path opacity="0.7" d="M65.6919 68.6806C65.6919 68.6806 68.2078 64.4035 73.2373 67.2509C73.2373 67.2509 70.2496 71.1506 65.837 69.5636L65.6919 68.6806Z" fill="#EE5239"/>
<path opacity="0.7" d="M65.1982 63.8641C65.1982 63.8641 67.6997 58.479 72.4026 61.0917C72.4026 61.0917 69.5504 65.8333 65.3482 64.7858L65.1982 63.8641Z" fill="#EE5239"/>
<path opacity="0.7" d="M65.0576 58.1669C65.0576 58.1669 67.7647 52.7891 72.4119 55.8227C72.4119 55.8227 68.9598 60.6611 65.2003 59.0499L65.0576 58.1669Z" fill="#EE5239"/>
<path opacity="0.7" d="M65.4136 52.9971C65.4136 52.9971 68.8004 47.8055 72.7098 49.0248C72.7098 49.0248 69.1851 54.5236 65.4329 54.2284L65.4136 52.9971Z" fill="#EE5239"/>
<path opacity="0.7" d="M66.1005 48.0401C66.1005 48.0401 69.9711 41.7333 73.0411 43.1292C73.0411 43.1292 70.2252 47.9893 65.9263 49.1384L66.1005 48.0401Z" fill="#EE5239"/>
<path opacity="0.7" d="M67.2836 42.2269C67.2836 42.2269 70.7237 37.028 73.9509 37.6546C73.9509 37.6546 71.1446 42.926 66.9546 43.7292L67.2836 42.2269Z" fill="#EE5239"/>
<path opacity="0.7" d="M68.3409 36.7958C68.3409 36.7958 72.2479 31.7155 74.3767 32.1558C74.3767 32.1558 71.8294 37.507 68.2949 37.7901L68.3409 36.7958Z" fill="#EE5239"/>
<path opacity="0.7" d="M69.417 31.7663C69.417 31.7663 72.5474 25.9603 74.7779 25.999C74.7779 25.999 73.1183 30.9994 69.5017 32.2889L69.417 31.7663Z" fill="#EE5239"/>
<path opacity="0.7" d="M70.3828 25.0627C70.3828 25.0627 73.2495 20.5292 75.1462 20.2244C75.1462 20.2244 73.235 25.9675 70.4481 26.3715L70.3828 25.0627Z" fill="#EE5239"/>
<path opacity="0.7" d="M70.8806 20.6211L72.9297 11.8104C72.9297 11.8104 74.311 19.2494 70.6968 22.2129L70.8806 20.6211Z" fill="#EE5239"/>
<path opacity="0.7" d="M70.7793 11.2903C70.7793 11.2903 70.2205 4.30373 69.7705 3.79086C69.7705 3.79086 73.1235 9.13242 71.251 14.3337L70.7793 11.2903Z" fill="#EE5239"/>
<path opacity="0.7" d="M70.8641 84.9061C70.8641 84.9061 66.9934 83.2997 65.5879 88.9994C65.5879 88.9994 69.0497 90.567 71.498 86.2004L70.8641 84.9061Z" fill="#EE5239"/>
<path opacity="0.7" d="M68.3553 79.2138C68.3553 79.2138 63.7273 77.9486 62.5371 83.849C62.5371 83.849 66.2385 85.5956 68.977 80.5565L68.3553 79.2138Z" fill="#EE5239"/>
<path opacity="0.7" d="M66.8986 74.3392C66.8986 74.3392 63.2263 71.2305 59.1572 75.5947C59.1572 75.5947 62.5973 78.2873 67.0462 75.2609L66.8986 74.3392Z" fill="#EE5239"/>
<path opacity="0.7" d="M65.5878 68.6976C65.5878 68.6976 61.8477 65.4365 57.9771 69.7257C57.9771 69.7257 62.0461 72.4836 65.7305 69.5806L65.5878 68.6976Z" fill="#EE5239"/>
<path opacity="0.7" d="M65.2224 64.0019C65.2224 64.0019 62.1452 58.9216 57.7568 62.0327C57.7568 62.0327 61.1122 66.4356 65.1741 64.9357L65.2224 64.0019Z" fill="#EE5239"/>
<path opacity="0.7" d="M65.3291 58.0943C65.3291 58.0943 62.2519 52.9196 57.8296 56.2678C57.8296 56.2678 61.6132 60.8642 65.2492 58.9845L65.3291 58.0943Z" fill="#EE5239"/>
<path opacity="0.7" d="M65.8801 52.9487C65.8801 52.9487 64.0342 47.0289 59.9482 47.1426C59.9482 47.1426 61.8352 53.3986 65.5245 54.1389L65.8801 52.9487Z" fill="#EE5239"/>
<path opacity="0.7" d="M66.1925 48.0353C66.1925 48.0353 64.6733 40.7899 61.3179 41.0705C61.3179 41.0705 62.3291 46.5959 65.9869 49.1288L66.1925 48.0353Z" fill="#EE5239"/>
<path opacity="0.7" d="M67.5958 41.9608C67.5958 41.9608 65.6217 36.0483 62.3389 35.8185C62.3389 35.8185 63.6864 41.6366 67.5256 43.4994L67.5958 41.9608Z" fill="#EE5239"/>
<path opacity="0.7" d="M68.723 36.7788C68.723 36.7788 67.6634 30.4599 65.578 29.843C65.578 29.843 65.3095 35.7628 68.2924 37.6788L68.723 36.7788Z" fill="#EE5239"/>
<path opacity="0.7" d="M69.5525 31.672C69.5525 31.672 68.2244 25.2006 66.0737 24.6079C66.0737 24.6079 66.2261 29.8745 69.3227 32.1461L69.5525 31.672Z" fill="#EE5239"/>
<path opacity="0.7" d="M70.7475 25.5369C70.7475 25.5369 69.8766 20.2437 68.246 19.23C68.246 19.23 67.7622 25.2635 70.1814 26.7295L70.7475 25.5369Z" fill="#EE5239"/>
<path opacity="0.7" d="M70.6707 20.3792L67.8499 11.7863C67.8499 11.7863 67.1241 19.3196 70.9948 21.9589L70.6707 20.3792Z" fill="#EE5239"/>
<path opacity="0.7" d="M69.5216 11.5806C69.5216 11.5806 64.9904 6.23181 64.9565 5.55685C64.9565 5.55685 66.3427 11.7088 71.3359 14.0772L69.5216 11.5806Z" fill="#EE5239"/>
<path opacity="0.7" d="M69.6544 9.76379C69.6544 9.76379 64.9201 1.88934 63.2871 1.45389C63.2871 1.45389 68.4932 3.12071 69.8963 9.47591L69.6544 9.76379Z" fill="#EE5239"/>
<path opacity="0.7" d="M70.4381 26.4271L70.1961 26.3932C71.534 16.6657 71.2848 10.6323 69.4897 9.41057L69.6276 9.20978C71.5315 10.5089 71.8097 16.4625 70.4381 26.4271Z" fill="#444053"/>
<path opacity="0.7" d="M66.1319 49.4094L65.7715 49.3441C65.936 48.4466 66.1198 47.5321 66.3231 46.6249C68.0915 38.7505 69.5019 31.4639 70.2639 25.9191L70.5373 25.7207C69.7728 31.2849 68.4495 38.8206 66.6811 46.7072C66.4779 47.595 66.294 48.5046 66.1319 49.4094Z" fill="#444053"/>
<path opacity="0.7" d="M81.5835 99.2567C81.5302 99.2132 76.0822 94.774 71.4229 86.435C68.6999 81.5554 66.768 76.2749 65.6991 70.7902C64.3613 63.9342 64.5572 56.0041 65.9023 48.6135L66.2216 48.8844C63.2097 65.4752 67.6006 78.563 71.8438 86.181C76.4403 94.4401 81.8302 98.8334 81.8859 98.8769L81.5835 99.2567Z" fill="#444053"/>
</g>
<path opacity="0.1" d="M176.747 169.585L152.48 178.974L117.01 192.683C115.672 190.199 113.698 186.8 111.255 182.765C102.855 168.842 88.9547 147.188 76.583 128.159C62.6388 106.718 50.6396 88.6124 50.6396 88.6124L59.3269 86.094L130.286 65.514L176.747 169.585Z" fill="black"/>
<path d="M177.231 167.891L152.964 177.28L117.494 190.99C116.156 188.505 114.182 185.106 111.739 181.071C103.339 167.149 89.4386 145.495 77.0669 126.465C63.1227 105.024 51.1235 86.9189 51.1235 86.9189L59.8108 84.4006L130.77 63.8206L177.231 167.891Z" fill="white"/>
<path opacity="0.1" d="M177.231 167.891L152.964 177.28C139.41 180.104 125.579 181.375 111.738 181.071C103.339 167.149 89.4383 145.495 77.0666 126.465L59.8105 84.4006L130.77 63.8206L177.231 167.891Z" fill="black"/>
<path d="M195.285 162.052C195.285 162.052 157.584 184.352 101.3 179.32L56.4238 69.9265L77.928 66.2324L152.265 53.4664L194.443 159.937L195.285 162.052Z" fill="#EE5239"/>
<path opacity="0.1" d="M194.443 159.937C185.565 160.373 175.298 160.331 164.963 159.1C153.781 157.789 142.547 155.075 132.894 150.106C124.833 145.952 117.941 141.44 111.929 136.024C96.2991 121.963 86.6248 101.85 77.9375 66.2324L152.274 53.4664L194.443 159.937Z" fill="black"/>
<path d="M222.097 153.821C222.097 153.821 194.296 159.269 166.025 155.914C154.843 154.596 143.597 151.888 133.956 146.919C125.895 142.766 119.003 138.254 112.992 132.837C93.6381 115.419 83.4267 88.755 72.8936 34.8822C72.8936 34.8822 119.1 46.0322 164.752 21.6081C164.752 21.6081 180.151 117.715 222.097 153.821Z" fill="white"/>
<path opacity="0.1" d="M166.025 155.914C154.844 154.596 143.597 151.889 133.956 146.92C125.896 142.766 119.003 138.254 112.992 132.837C129.464 131.5 131.832 122.493 131.832 122.493C144.044 141.875 166.025 155.914 166.025 155.914Z" fill="black"/>
<path opacity="0.3" d="M96.7881 54.6615C96.7881 54.6615 121.609 57.4944 144.84 44.4404L146.432 49.5522C146.432 49.5522 124.207 60.6345 96.7881 60.6345V54.6615Z" fill="#EE5239"/>
<path opacity="0.3" d="M96.7881 79.8911C96.7881 79.8911 121.464 77.9001 148.934 64.6237L149.863 66.7477C149.863 66.7477 139.753 79.4702 96.7881 82.7942V79.8911Z" fill="black"/>
<path opacity="0.3" d="M99.7129 89.7324C99.7129 89.7324 124.389 87.7414 151.858 74.4673L152.787 76.5914C152.787 76.5914 142.68 89.326 99.7129 92.6523V89.7324Z" fill="black"/>
<path opacity="0.3" d="M102.388 100.341C102.388 100.341 127.064 98.3496 154.534 85.0755L155.463 87.1995C155.463 87.1995 145.341 99.9269 102.388 103.261V100.341Z" fill="black"/>
<path opacity="0.3" d="M105.564 109.432C105.564 109.432 130.24 107.441 157.71 94.1669L158.639 96.2909C158.639 96.2909 148.532 109.021 105.564 112.354V109.432Z" fill="black"/>
<path opacity="0.1" d="M108.492 119.283C108.492 119.283 133.167 117.292 160.637 104.018L161.566 106.142C161.566 106.142 151.456 118.871 108.492 122.203V119.283Z" fill="black"/>
<path opacity="0.3" d="M159.914 57.999L153.01 60.3496L155.36 67.2543L162.265 64.9037L159.914 57.999Z" fill="#EE5239"/>
<path opacity="0.3" d="M163.842 68.2711L156.938 70.6217L159.288 77.5264L166.193 75.1759L163.842 68.2711Z" fill="#EE5239"/>
<path opacity="0.3" d="M170.14 88.0358L163.235 90.3864L165.585 97.2911L172.49 94.9405L170.14 88.0358Z" fill="#EE5239"/>
<path opacity="0.3" d="M173.752 98.6437L166.848 100.994L169.198 107.899L176.103 105.548L173.752 98.6437Z" fill="#EE5239"/>
<path opacity="0.3" d="M167.045 78.9421L160.14 81.2927L162.491 88.1974L169.395 85.8468L167.045 78.9421Z" fill="#EE5239"/>
<g opacity="0.1">
<path opacity="0.1" d="M213.063 130.191L212.681 130.232V130.416C212.681 130.416 213.547 130.322 214.805 130.191C216.929 129.976 220.173 129.673 222.319 129.584C220.834 129.448 215.928 129.901 213.063 130.191Z" fill="black"/>
<path opacity="0.1" d="M237.991 109.456L235.889 107.361L234.488 107.712L236.249 109.466C236.261 109.641 236.261 109.816 236.249 109.991C236.203 111.215 235.744 114.401 232.449 117.618C228.249 121.716 230.029 127.607 230.029 127.607C230.029 127.607 225.885 129.233 223.512 129.569C223.739 129.568 223.965 129.581 224.19 129.605C224.327 129.625 224.465 129.632 224.603 129.627C226.764 129.574 231.771 127.607 231.771 127.607C231.771 127.607 229.981 121.716 234.19 117.618C237.485 114.401 237.945 111.215 237.991 109.991C238.003 109.813 238.003 109.634 237.991 109.456Z" fill="black"/>
</g>
<g opacity="0.1">
<path opacity="0.1" d="M221.986 79.2234C221.978 79.1335 221.963 79.0444 221.94 78.9573C221.572 79.5355 221.115 80.0967 221.071 80.7741C221.062 80.9308 221.075 81.088 221.11 81.241C221.519 80.5902 222.044 79.9782 221.986 79.2234Z" fill="black"/>
<path opacity="0.1" d="M217.399 83.9892C215.517 83.2344 213.925 81.8628 212.181 80.8007C210.881 80.0097 209.493 79.3831 208.247 78.5049C206.96 77.5953 205.845 76.4268 204.512 75.6019C203.179 74.777 201.507 74.298 200.082 74.939C199.01 75.4229 198.256 76.451 197.293 77.1478C196.33 77.8445 194.854 78.1154 194.116 77.1478C193.787 76.722 193.691 76.1559 193.589 75.6188C193.262 73.8988 192.67 72.0772 191.286 71.1095C189.779 70.0571 186.588 70.1757 186.01 67.9645C185.913 67.569 185.888 67.1594 185.935 66.7549C185.565 67.742 185.374 68.7338 185.599 69.5975C186.179 71.8183 189.37 71.6998 190.875 72.7424C192.261 73.7101 192.851 75.5342 193.18 77.2542C193.282 77.7913 193.379 78.3574 193.705 78.7831C194.431 79.7363 195.921 79.4678 196.884 78.771C197.847 78.0743 198.599 77.0486 199.673 76.5647C201.096 75.9237 202.77 76.393 204.103 77.2276C205.436 78.0622 206.551 79.2307 207.838 80.1306C209.084 81.0112 210.473 81.6354 211.769 82.4264C213.513 83.4909 215.108 84.8625 216.99 85.6173C218.872 86.3721 221.223 86.3673 222.665 84.8916C222.292 84.6912 221.938 84.4572 221.608 84.1924C220.297 84.6738 218.732 84.5239 217.399 83.9892Z" fill="black"/>
</g>
<path d="M157.688 63.1577L154.425 61.5659C154.378 61.5432 154.336 61.5115 154.302 61.4727C154.268 61.4339 154.241 61.3888 154.225 61.3398C154.208 61.2908 154.201 61.239 154.204 61.1873C154.207 61.1356 154.22 61.0851 154.243 61.0385L154.589 60.3273C154.612 60.2805 154.643 60.2387 154.682 60.2042C154.721 60.1697 154.766 60.1432 154.815 60.1263C154.864 60.1095 154.916 60.1025 154.968 60.1058C155.019 60.1092 155.07 60.1228 155.116 60.1458L157.315 61.2175L159.611 56.5098C159.657 56.4158 159.738 56.3438 159.837 56.3093C159.936 56.2749 160.044 56.2809 160.139 56.3259L160.85 56.6743C160.897 56.6968 160.938 56.7283 160.973 56.767C161.007 56.8058 161.034 56.851 161.051 56.9001C161.068 56.9491 161.075 57.0011 161.071 57.0528C161.068 57.1046 161.054 57.1552 161.031 57.2017L158.215 62.9763C158.193 63.0228 158.161 63.0644 158.122 63.0987C158.083 63.1331 158.038 63.1594 157.989 63.1762C157.94 63.1931 157.889 63.2001 157.837 63.1969C157.785 63.1938 157.735 63.1804 157.688 63.1577Z" fill="#3ACC6C"/>
<path d="M164.818 83.52L161.554 81.9282C161.508 81.9055 161.466 81.8738 161.432 81.835C161.398 81.7962 161.371 81.7511 161.354 81.7021C161.338 81.6531 161.331 81.6013 161.334 81.5496C161.337 81.4979 161.35 81.4474 161.373 81.4008L161.719 80.6896C161.765 80.5954 161.847 80.5234 161.946 80.4894C162.046 80.4554 162.154 80.4622 162.249 80.5081L164.445 81.5799L166.739 76.8673C166.785 76.7733 166.866 76.7013 166.965 76.6668C167.063 76.6324 167.172 76.6384 167.266 76.6834L167.975 77.0318C168.022 77.0543 168.064 77.0858 168.098 77.1245C168.133 77.1632 168.159 77.2083 168.176 77.2573C168.193 77.3063 168.201 77.3582 168.198 77.41C168.195 77.4618 168.181 77.5125 168.159 77.5592L165.343 83.3338C165.296 83.4275 165.214 83.499 165.115 83.533C165.016 83.5669 164.908 83.5605 164.813 83.5152L164.818 83.52Z" fill="#3ACC6C"/>
<path d="M161.617 73.4828L158.354 71.8909C158.26 71.845 158.188 71.7638 158.153 71.6651C158.119 71.5663 158.125 71.4579 158.17 71.3635L158.518 70.6523C158.541 70.6055 158.572 70.5637 158.611 70.5292C158.65 70.4947 158.695 70.4683 158.744 70.4514C158.793 70.4345 158.845 70.4275 158.897 70.4309C158.949 70.4342 158.999 70.4478 159.046 70.4709L161.245 71.5426L163.541 66.8276C163.563 66.781 163.595 66.7394 163.634 66.7051C163.673 66.6708 163.718 66.6445 163.767 66.6276C163.816 66.6108 163.868 66.6037 163.919 66.6069C163.971 66.6101 164.021 66.6234 164.068 66.6461L164.779 66.9921C164.873 67.0389 164.945 67.1207 164.978 67.2198C165.012 67.3189 165.006 67.4274 164.961 67.5219L162.142 73.3013C162.12 73.3479 162.088 73.3895 162.049 73.4238C162.01 73.4581 161.965 73.4844 161.916 73.5013C161.867 73.5181 161.815 73.5252 161.764 73.522C161.712 73.5188 161.662 73.5055 161.615 73.4828H161.617Z" fill="#3ACC6C"/>
<path d="M167.914 92.7128L164.651 91.121C164.604 91.0983 164.562 91.0666 164.528 91.0279C164.494 90.9891 164.468 90.9439 164.451 90.8949C164.434 90.8459 164.427 90.7941 164.43 90.7424C164.433 90.6907 164.446 90.6402 164.469 90.5936L164.815 89.8824C164.838 89.8358 164.869 89.7942 164.908 89.7599C164.947 89.7256 164.992 89.6993 165.041 89.6824C165.09 89.6656 165.142 89.6586 165.194 89.6617C165.245 89.6649 165.296 89.6782 165.342 89.701L167.542 90.7727L169.837 86.0649C169.884 85.9708 169.965 85.8987 170.065 85.8643C170.164 85.8299 170.272 85.8359 170.367 85.8811L171.076 86.2294C171.123 86.2519 171.165 86.2834 171.199 86.3222C171.234 86.3609 171.26 86.4061 171.277 86.4552C171.294 86.5043 171.301 86.5562 171.297 86.608C171.294 86.6597 171.28 86.7103 171.257 86.7568L168.444 92.5314C168.397 92.6251 168.315 92.6967 168.216 92.7306C168.117 92.7646 168.009 92.7582 167.914 92.7128Z" fill="#3ACC6C"/>
<defs>
<filter id="filter0_d" x="0" y="0" width="235.403" height="193.551" filterUnits="userSpaceOnUse" color-interpolation-filters="sRGB">
<feFlood flood-opacity="0" result="BackgroundImageFix"/>
<feColorMatrix in="SourceAlpha" type="matrix" values="0 0 0 0 0 0 0 0 0 0 0 0 0 0 0 0 0 0 127 0"/>
<feOffset dy="4"/>
<feGaussianBlur stdDeviation="2"/>
<feColorMatrix type="matrix" values="0 0 0 0 0 0 0 0 0 0 0 0 0 0 0 0 0 0 0.25 0"/>
<feBlend mode="normal" in2="BackgroundImageFix" result="effect1_dropShadow"/>
<feBlend mode="normal" in="SourceGraphic" in2="effect1_dropShadow" result="shape"/>
</filter>
</defs>
</svg>
