<svg width="512" height="953" viewBox="0 0 512 953" fill="none" xmlns="http://www.w3.org/2000/svg">
<path d="M512 953C-499.187 739.741 299.481 171 299.481 171C299.481 171 2.06563 628.914 512 821.462" fill="#103F4A"/>
<path d="M412.194 113.667C353.77 166.59 344.465 156.318 332.99 143.651C327.058 137.102 321.706 131.193 325.991 119.705C327.223 116.402 329.252 112.632 332.296 108.255C339.136 98.4125 351.1 85.4834 370.635 67.7877C378.147 60.9831 386.637 55.5556 395.244 51.2338C399.387 49.1518 403.554 47.3282 407.655 45.7297C412.675 43.7708 417.596 42.1505 422.232 40.8142C425.346 39.9125 428.337 39.1416 431.144 38.4798C444.105 35.43 453.22 34.7406 453.22 34.7406C453.22 34.7406 444.461 84.4381 412.194 113.667Z" fill="#103F4A"/>
<path d="M412.194 113.667C353.77 166.59 344.465 156.318 332.99 143.651C327.058 137.102 321.706 131.193 325.991 119.705C327.223 116.402 329.252 112.632 332.296 108.255C339.136 98.4125 351.1 85.4834 370.635 67.7877C378.147 60.9831 386.637 55.5556 395.244 51.2338C399.387 49.1518 403.554 47.3282 407.655 45.7297C412.675 43.7708 417.596 42.1505 422.232 40.8142C425.346 39.9125 428.337 39.1416 431.144 38.4798C444.105 35.43 453.22 34.7406 453.22 34.7406C453.22 34.7406 444.461 84.4381 412.194 113.667Z" stroke="white"/>
<path d="M371.429 148.907C374.065 151.609 376.747 156.968 372.847 166.566C366.514 182.154 339.287 190.905 339.287 190.905C339.287 190.905 353.813 174.858 339.939 159.186L317.247 134.136C303.019 118.785 286.879 133.05 286.879 133.05C286.879 133.05 298.271 106.818 314.407 102.052C324.342 99.1172 329.411 102.314 331.84 105.204L371.429 148.907Z" fill="#103F4A"/>
<path d="M371.429 148.907C374.065 151.609 376.747 156.968 372.847 166.566C366.514 182.154 339.287 190.905 339.287 190.905C339.287 190.905 353.813 174.858 339.939 159.186L317.247 134.136C303.019 118.785 286.879 133.05 286.879 133.05C286.879 133.05 298.271 106.818 314.407 102.052C324.342 99.1172 329.411 102.314 331.84 105.204L371.429 148.907Z" stroke="white"/>
</svg>
