<svg width="82" height="224" viewBox="0 0 82 224" fill="none" xmlns="http://www.w3.org/2000/svg">
<g filter="url(#filter0_d)">
<path d="M38.6965 185.341L36.5668 196.201L43.0619 196.029L44.6419 187.025L38.6965 185.341Z" fill="#FFB9B9"/>
<path d="M29.239 100.629C29.239 100.629 -6.53407 129.397 13.3652 141.114L19.7916 141.698C19.7916 141.698 35.8732 119.906 42.6435 120.904L42.5422 143.002L37.3912 187.129L45.6736 188.262C45.6736 188.262 52.6137 166.404 53.3687 153.895L66.2521 108.564L29.239 100.629Z" fill="#2F2E41"/>
<path d="M15.3918 139.774L19.7909 141.698C19.7909 141.698 37.9361 139.153 39.0342 139.634L42.5541 139.929L43.2614 130.87L28.1414 129.497L15.3918 139.774Z" fill="#2F2E41"/>
<path d="M43.955 194.586C43.955 194.586 37.4249 190.943 36.0162 193.865C34.6075 196.786 34.1958 205.515 34.1958 205.515C34.9444 207.341 35.0297 209.372 34.4369 211.254C33.4062 214.21 37.0492 216.065 42.101 215C47.1527 213.934 47.496 210.154 47.496 210.154L43.955 194.586Z" fill="#2F2E41"/>
<path d="M55.4278 131.211C55.4278 131.211 60.9949 128.667 60.2049 133.169C59.6191 136.137 58.5881 138.999 57.1468 141.658C57.1468 141.658 60.8939 154.957 55.8765 155.645C50.8592 156.333 47.3191 153.343 47.4908 151.453C47.6624 149.563 55.4278 131.211 55.4278 131.211Z" fill="#2F2E41"/>
<path d="M48.2015 26.1209L47.6532 40.5552L53.5647 46.8084L61.6744 37.254L62.6014 27.0476L48.2015 26.1209Z" fill="#FFB9B9"/>
<path d="M51.8111 40.9324L47.7756 37.3237L44.5257 41.4141L30.986 47.8068L36.7607 68.1509L35.3877 87.4652C35.3877 87.4652 20.0959 100.56 28.2409 103.206C36.386 105.851 65.4951 112.687 67.3161 109.423C69.137 106.158 68.9281 70.6916 68.9281 70.6916L72.7744 40.9299L61.8068 35.7997L51.8111 40.9324Z" fill="#EE5239"/>
<path d="M26.5768 62.7808C26.5768 62.7808 21.607 83.9261 27.2778 84.4412C30.6444 84.7585 34.0406 84.4198 37.2782 83.4438L33.8061 71.3127L36.4171 63.5455L26.5768 62.7808Z" fill="#FFB9B9"/>
<path d="M33.5662 82.3457L37.6559 83.4793C37.6559 83.4793 50.4397 77.018 51.2301 76.7079C52.0205 76.3978 39.7509 68.8044 39.7509 68.8044L30.7471 71.4172L33.5662 82.3457Z" fill="#FFB9B9"/>
<path opacity="0.1" d="M39.7513 68.8044L34.0973 70.4448L36.4176 63.5468L26.5774 62.7805C26.5774 62.7805 21.6076 83.9258 27.2784 84.4409C30.645 84.7582 34.0412 84.4195 37.2788 83.4435L37.2569 83.3668L37.6568 83.4778C37.6568 83.4778 50.4406 77.0165 51.231 76.7064C52.0214 76.3963 39.7513 68.8044 39.7513 68.8044Z" fill="black"/>
<path d="M56.2959 34.083C62.2577 34.6245 67.5296 30.2304 68.0711 24.2686C68.6125 18.3068 64.2185 13.0349 58.2567 12.4934C52.2949 11.952 47.023 16.346 46.4815 22.3078C45.9401 28.2696 50.3341 33.5415 56.2959 34.083Z" fill="#FFB9B9"/>
<path d="M48.8385 10.2433L46.806 9.20759C46.806 9.20759 51.6569 4.7529 57.754 5.73242L56.2008 3.67575C56.2008 3.67575 60.5725 2.37008 64.0045 7.15126C65.8089 9.66344 67.8922 12.6156 69.0675 15.8332L71.3263 16.0384L70.1951 18.0283L73.305 20.4046L69.9522 19.724C70.1102 21.5452 69.8331 23.3779 69.1436 25.0709L69.0853 26.721C69.0853 26.721 65.7115 20.2909 65.7881 19.4467L65.5964 21.5577C65.5964 21.5577 63.6598 19.4663 63.7748 18.1998L62.4902 19.5729L62.1245 17.1949L54.8194 18.8724L56.1424 17.077L51.6749 17.3099L53.6116 15.1448C53.6116 15.1448 48.3773 17.4362 47.9743 19.7409C47.5714 22.0457 44.8109 24.7743 44.8109 24.7743L43.8522 22.5587C43.8522 22.5587 42.9905 12.9048 48.8385 10.2433Z" fill="#2F2E41"/>
<path d="M63.4633 59.5236C61.3413 61.7075 60.0108 64.5384 59.6836 67.5657L39.7163 64.9901C39.7163 64.9901 34.4926 63.7534 34.1492 67.5338L33.8059 71.3138C33.8059 71.3138 36.5553 70.4201 37.9643 71.6915C39.3733 72.9628 54.7362 84.2683 63.0183 81.2089C71.3004 78.1495 74.5294 63.578 74.5294 63.578C74.5294 63.578 67.8964 56.8769 63.4633 59.5236Z" fill="#FFB9B9"/>
<path d="M69.7182 41.0339L72.7769 40.9306C72.7769 40.9306 78.7567 42.2359 76.9363 53.8864C75.116 65.5369 74.6693 66.2586 74.6693 66.2586C74.6693 66.2586 67.3829 58.3548 61.4035 61.2426L69.7182 41.0339Z" fill="#EE5239"/>
<path d="M32.4981 47.946L30.9861 47.8086C28.8022 50.1054 27.4582 53.0724 27.172 56.2287C26.8303 59.606 26.0806 62.9295 24.9392 66.1264L37.0362 65.1289L32.4981 47.946Z" fill="#EE5239"/>
</g>
<defs>
<filter id="filter0_d" x="3.34082" y="3.51282" width="77.9402" height="219.791" filterUnits="userSpaceOnUse" color-interpolation-filters="sRGB">
<feFlood flood-opacity="0" result="BackgroundImageFix"/>
<feColorMatrix in="SourceAlpha" type="matrix" values="0 0 0 0 0 0 0 0 0 0 0 0 0 0 0 0 0 0 127 0"/>
<feOffset dy="4"/>
<feGaussianBlur stdDeviation="2"/>
<feColorMatrix type="matrix" values="0 0 0 0 0 0 0 0 0 0 0 0 0 0 0 0 0 0 0.25 0"/>
<feBlend mode="normal" in2="BackgroundImageFix" result="effect1_dropShadow"/>
<feBlend mode="normal" in="SourceGraphic" in2="effect1_dropShadow" result="shape"/>
</filter>
</defs>
</svg>
