<svg width="267" height="199" viewBox="0 0 267 199" fill="none" xmlns="http://www.w3.org/2000/svg">
<path opacity="0.1" d="M245.978 48.3741C215.674 6.0616 151.658 -11.1022 88.7008 7.38362C55.4171 17.1565 23.3255 36.7379 7.42165 74.6539C-21.0081 142.433 38.6838 164.08 77.7158 170.979C96.5896 174.315 114.366 179.919 130.609 187.548C159.833 201.275 211.562 213.438 250.569 156.261C278.841 114.819 266.163 76.5584 245.978 48.3741Z" fill="#46C894"/>
<path d="M70.2856 56.7455C70.2009 56.073 70.0294 55.4144 69.7756 54.7863C69.7432 54.6675 69.6866 54.5567 69.6092 54.4611C69.5319 54.3655 69.4355 54.2871 69.3263 54.231C69.1803 54.1929 69.0272 54.1911 68.8804 54.2259L66.5914 54.5774C66.3998 54.5862 66.2164 54.6577 66.0691 54.781C65.771 55.0956 66.0646 55.6022 66.0554 56.0362C66.0452 56.5243 65.613 56.9205 65.1443 57.0515C64.6659 57.1485 64.1725 57.1424 63.6966 57.0335L60.4959 56.5344C61.4385 56.2324 62.2776 55.6706 62.9173 54.9131C63.3385 54.4124 63.5626 53.4776 62.9538 53.2405C62.773 53.1907 62.5844 53.1755 62.3979 53.1958C60.9477 53.2071 59.8066 51.9922 58.449 51.4805C57.5801 51.1742 56.6369 51.1514 55.7543 51.4154C54.8717 51.6794 54.0949 52.2166 53.535 52.9503L55.2401 53.0328C55.4005 53.0239 55.5596 53.0665 55.6943 53.1544C56.0679 53.4624 55.6034 54.0541 55.656 54.5365C55.7244 55.1633 56.5537 55.2971 57.1789 55.3604C57.8041 55.4238 58.5971 55.9335 58.2964 56.4871C55.1543 57.573 51.9568 54.3642 48.6569 54.7592C47.8218 54.8592 47.0331 55.1884 46.2177 55.3954C41.2365 56.66 36.0869 53.286 30.9984 54.0005C29.8672 54.194 28.7554 54.4882 27.6761 54.8797C26.9836 55.1079 26.2612 55.3544 25.758 55.8836C25.2548 56.4128 25.0633 57.3177 25.54 57.871C24.2261 57.9796 22.9033 57.8535 21.6333 57.4984C21.9768 57.69 22.2625 57.9708 22.4605 58.3113C22.6585 58.6519 22.7614 59.0396 22.7586 59.4339C20.707 59.7696 18.7098 60.3806 16.8206 61.2506C17.1732 61.8389 17.585 62.3894 18.0496 62.8934L15.4524 64.5676C16.3299 64.7895 16.7835 65.99 16.2733 66.7398C17.1831 66.3337 17.747 65.2831 18.7199 65.0701C19.3573 64.9305 20.0058 65.1921 20.6105 65.4379C21.2151 65.6837 21.8797 65.922 22.5057 65.7375C23.1316 65.5531 23.5933 64.7387 23.1956 64.2198C25.871 63.4366 28.6361 63.0031 31.4222 62.9302C31.6371 62.9031 31.8551 62.9446 32.0452 63.0488C32.4079 63.3013 32.3125 63.8466 32.2929 64.2891C32.2734 64.7316 32.6171 65.3131 33.0112 65.1137C32.5475 65.5171 32.9439 66.2766 33.3888 66.7009C33.8337 67.1252 34.3699 67.7106 34.0975 68.2625C34.0264 68.4065 33.9058 68.5217 33.8375 68.6671C33.6356 69.0961 33.9561 69.5963 34.3342 69.8812C34.7123 70.1661 35.1754 70.3652 35.438 70.7597C35.7006 71.1542 35.5814 71.8448 35.1117 71.8998L33.7769 70.1993C33.3208 70.6738 33.0082 71.2683 32.8752 71.9139C34.2907 73.0749 34.5036 75.4382 33.3185 76.8351C32.713 77.549 31.8518 77.9828 31.1001 78.5396C30.3485 79.0964 29.653 79.8893 29.6549 80.8268C29.6582 82.4464 29.5263 83.9511 30.1311 85.4527C31.2465 88.2215 32.5342 90.9172 33.9867 93.5239C34.3681 94.2083 34.861 94.9586 35.6337 95.0764C34.6572 92.6911 33.7781 90.2686 32.9965 87.809C33.5056 87.811 34.0939 87.8516 34.3923 88.2654C34.6395 88.6081 34.5864 89.074 34.6632 89.4899C34.7608 89.8929 34.9237 90.277 35.1453 90.6271L39.8084 98.9618C40.195 99.6528 40.6384 100.394 41.3772 100.674C41.8496 100.853 42.3961 100.819 42.8309 101.077C43.1716 101.279 43.4012 101.637 43.7486 101.827C44.7309 102.365 46.0969 101.334 47.0149 101.976C47.2774 102.159 47.4444 102.451 47.6863 102.661C48.5341 103.398 49.9249 102.905 50.9037 103.455C51.5345 103.809 51.8614 104.517 52.1979 105.159C53.0406 106.767 54.4043 108.342 56.2105 108.471C56.7778 108.511 57.3573 108.403 57.9119 108.529C58.4665 108.656 59.0124 109.142 58.9234 109.705C58.7708 110.672 59.2466 111.73 59.1188 112.7C58.886 114.467 56.3884 115.243 56.1739 117.012C56.1269 117.399 56.2005 117.799 56.1085 118.178C55.9959 118.643 55.6481 119.021 55.5245 119.483C55.2903 120.359 55.9153 121.23 56.6019 121.819C57.2884 122.408 58.1074 122.915 58.4828 123.74C58.8795 124.611 58.6846 125.627 58.8137 126.576C59.0954 128.648 60.879 130.184 62.7147 131.175C63.274 131.476 63.8745 131.769 64.2365 132.292C64.7089 132.975 64.6619 133.876 64.8196 134.693C65.206 136.692 66.8836 138.34 66.9312 140.376C66.9651 141.823 66.1633 143.136 65.6844 144.502C65.2353 145.81 65.0728 147.2 65.208 148.577C65.3431 149.954 65.7727 151.286 66.4674 152.481C66.8257 153.088 67.2542 153.661 67.5076 154.319C67.9599 155.493 67.8132 156.828 68.2302 158.015C68.7815 159.585 70.2965 160.882 70.1515 162.54C70.8392 163.973 72.358 164.677 73.8852 165.104L76.6222 165.868C77.1463 166.015 77.694 166.162 78.2276 166.056C78.7613 165.95 79.2706 165.506 79.2568 164.96C77.9146 164.656 76.5293 164.333 75.4229 163.513C74.3164 162.692 73.5585 161.231 73.9783 159.916C74.173 159.306 74.5871 158.602 74.1934 158.098C73.9679 157.81 73.5557 157.735 73.3014 157.471C72.9048 157.061 73.0411 156.371 73.3262 155.876C73.6113 155.382 74.0235 154.939 74.1385 154.379C74.1965 154.066 74.1577 153.742 74.0273 153.452C73.8969 153.161 73.681 152.918 73.4087 152.754C73.9162 152.562 74.3778 152.265 74.7634 151.882C75.1197 151.474 75.2843 150.844 75.004 150.38C75.8363 150.486 76.8188 150.538 77.3652 149.899C77.8014 149.389 77.7715 148.626 77.5991 147.977C77.4267 147.327 77.1353 146.696 77.1263 146.024C79.0461 146.116 80.9702 146.05 82.8795 145.828C82.6034 144.895 81.976 144.107 81.1303 143.63C81.995 143.484 82.7828 142.445 83.056 141.609C83.3292 140.772 83.2595 139.862 83.0906 138.998C83.0258 138.776 83.0169 138.541 83.0648 138.314C83.1621 138.003 83.467 137.813 83.749 137.65L88.0411 135.177C88.2973 135.048 88.5294 134.876 88.7275 134.668C89.1772 134.138 89.1106 133.338 88.8803 132.682C88.6501 132.025 88.2812 131.408 88.1926 130.717C87.9273 128.653 90.1299 127.171 90.8733 125.228C91.165 124.465 91.2245 123.636 91.2809 122.821C91.3416 121.946 91.3461 120.929 90.6763 120.365C90.0342 119.824 89.0309 119.945 88.3591 119.442C87.7431 118.981 87.5306 118.085 86.8577 117.713C86.2465 117.375 85.4803 117.59 84.8006 117.431C83.6039 117.151 82.8508 115.767 81.6286 115.639C80.9391 115.566 80.1586 115.904 79.5934 115.502C79.0954 115.146 79.0755 114.433 78.9807 113.827C78.8145 112.886 78.365 112.019 77.6925 111.342C77.02 110.665 76.1569 110.211 75.2195 110.041C74.5085 109.927 73.7346 109.97 73.1297 109.578C72.5173 109.181 72.2364 108.438 71.7553 107.888C70.9799 107.002 69.7588 106.687 68.6148 106.417L63.9616 105.32C63.1356 105.125 62.0708 105.022 61.6276 105.748C61.4963 106.024 61.4034 106.317 61.3515 106.619C61.1854 107.165 60.8511 107.644 60.3967 107.987C59.9423 108.33 59.3912 108.52 58.8225 108.529C58.4326 107.861 57.8008 107.371 57.059 107.16C56.5871 107.028 56.0821 107.013 55.6321 106.819C55.387 106.699 55.1689 106.53 54.9912 106.322C54.8134 106.115 54.6797 105.873 54.5983 105.612C54.5169 105.351 54.4895 105.076 54.5177 104.804C54.5459 104.531 54.6292 104.268 54.7624 104.029C55.0307 103.55 55.1343 102.995 55.0572 102.451C54.9802 101.907 54.7267 101.403 54.336 101.018C53.5447 100.305 52.4 100.133 51.339 100.204C51.0611 99.5956 51.5257 98.9092 52.0265 98.467C52.5272 98.0248 53.1352 97.5901 53.2442 96.9299C53.4158 95.8913 52.095 95.1024 51.0922 95.4121C50.0894 95.7218 49.4494 96.6991 49.0263 97.6625C48.7836 98.2153 48.5772 98.7973 48.1943 99.2634C47.8113 99.7295 47.1947 100.063 46.6114 99.9136C45.7857 99.7019 45.4668 98.7175 45.2841 97.8823C45.0389 96.7616 44.7923 95.6254 44.8436 94.4792C44.895 93.333 45.2801 92.1562 46.1224 91.3802C47.495 90.1158 49.6007 90.2398 51.4532 90.4415C51.0155 89.9467 51.1237 89.1128 51.5919 88.6471C51.8391 88.4267 52.1362 88.2702 52.4573 88.191C52.7784 88.1119 53.1139 88.1125 53.4348 88.1929C53.993 88.3094 54.4958 88.6111 54.8624 89.0493C55.3888 89.6933 55.5385 90.5628 55.9364 91.2938C56.3343 92.0248 57.229 92.6482 57.9613 92.2561C58.5938 91.9173 58.6942 91.0373 58.5368 90.3354C58.3794 89.6336 58.045 88.9511 58.102 88.234C58.2108 86.8656 59.6245 86.042 60.872 85.4784C62.1194 84.9149 63.5478 84.157 63.7455 82.7987C63.7522 82.5327 63.8022 82.2697 63.8935 82.0199C64.0318 81.7993 64.2241 81.6178 64.452 81.4928C68.0928 79.0786 71.7941 76.6349 75.9553 75.3158C76.1718 75.2471 76.1972 75.3234 76.4178 75.2696C76.7266 75.0906 76.522 74.5952 76.226 74.3957C75.9299 74.1961 75.5342 74.0431 75.4591 73.6932C75.4039 73.4361 75.5549 73.1836 75.5941 72.9235C75.6905 72.2843 74.9285 71.6942 74.3367 71.9497C74.0025 71.5056 74.6639 70.9894 75.1987 70.8417C76.8046 70.3982 78.4531 70.128 80.1162 70.0357C80.3081 70.005 80.5047 70.0386 80.6758 70.1312C80.9551 70.3253 80.9194 70.7706 80.7215 71.0477C80.5235 71.3248 80.2156 71.4988 79.9689 71.7333C79.6993 71.9968 79.5071 72.3294 79.4132 72.695C79.3192 73.0606 79.3271 73.4451 79.436 73.8065C80.3042 74.2496 81.2481 74.7058 82.2097 74.5497C83.1713 74.3935 84.0248 73.3095 83.5728 72.4437C83.1519 71.6374 81.8876 71.4555 81.6702 70.5719C81.4156 69.5373 82.8753 68.6171 82.5465 67.6038C82.4024 67.16 81.9616 66.8988 81.6233 66.5783C81.2238 66.1854 80.952 65.6805 80.8437 65.1298C80.7354 64.5791 80.7956 64.0084 81.0164 63.4927C80.4654 63.5899 79.8992 63.5532 79.3653 63.3856C78.8313 63.2179 78.3453 62.9242 77.9478 62.5291C77.2138 61.7859 76.6283 60.6134 75.586 60.6467C74.6295 60.6772 73.8057 61.7968 72.9114 61.4553C72.6914 61.3712 72.4594 61.2002 72.2462 61.3004C72.1763 61.3459 72.1177 61.4068 72.0747 61.4784C72.0317 61.55 72.0055 61.6304 71.9981 61.7137C71.7708 62.804 72.1618 64.0462 71.5696 64.9883C70.9251 66.0136 69.4345 66.1557 68.6532 67.0802C68.2291 67.5821 68.0648 68.2583 67.675 68.7874C67.2852 69.3165 66.4578 69.6529 65.99 69.1918C66.2199 68.7176 66.2827 68.1791 66.1681 67.6643C66.0535 67.1496 65.7682 66.6891 65.359 66.3582C64.9247 66.0738 64.4565 65.8453 63.9654 65.678C63.4167 65.4449 62.8947 65.153 62.4086 64.8074C62.165 64.66 61.9671 64.4475 61.837 64.1937C61.7341 63.876 61.748 63.5318 61.8761 63.2234C62.1133 62.5409 62.5318 61.9365 63.0864 61.4753C63.641 61.0141 64.3106 60.7136 65.0229 60.6063C65.6458 60.5213 66.3707 60.5513 66.7829 60.0751C67.001 59.8231 67.1155 59.4421 67.4321 59.3398C67.6346 59.299 67.8448 59.325 68.0314 59.4139L70.3563 60.235C70.6157 60.3525 70.9012 60.3999 71.1845 60.3724C71.325 60.3534 71.4531 60.2818 71.5432 60.172C71.6332 60.0622 71.6786 59.9223 71.6701 59.7803C71.5958 59.3929 71.0017 59.207 71.0557 58.8162C71.086 58.6896 71.1539 58.5752 71.2503 58.488C72.0894 57.592 73.1154 56.8931 74.2551 56.4416C75.3948 55.99 76.62 55.7968 77.8428 55.8759C78.1362 56.3595 77.6721 56.9321 77.286 57.3449C76.8998 57.7577 76.5895 58.4953 77.0565 58.8131C77.2479 58.9111 77.4607 58.9592 77.6755 58.953C78.2479 59.0307 78.8042 59.2 79.3232 59.4544C80.1265 59.8053 80.9145 60.1891 81.6871 60.606C81.6188 60.0948 81.5537 59.5564 81.7468 59.0785C81.9398 58.6006 82.4886 58.2257 82.9679 58.4119C83.4298 58.5912 83.6667 59.2049 84.1588 59.2611C84.8152 59.3361 85.0742 58.3631 84.8 57.7599C84.5258 57.1568 83.983 56.6518 83.9377 55.9904C83.9071 55.5442 84.0763 54.9908 83.7211 54.7206C83.5947 54.6395 83.4512 54.589 83.302 54.5732L74.433 52.9356C73.9063 52.8383 73.1454 52.9129 73.122 53.4497C73.109 53.7493 73.3757 54.0458 73.2576 54.3213C73.1315 54.6153 72.7172 54.5884 72.4155 54.6924C71.9473 54.8538 71.7124 55.4116 71.7574 55.9062C71.8397 56.3977 72.0294 56.8649 72.3129 57.2741C71.736 57.032 70.8625 56.9875 70.2856 56.7455Z" fill="#103F4A"/>
<path d="M69.2089 30.1911C68.6496 30.0054 68.0469 29.9967 67.4826 30.1663C66.9183 30.3359 66.4195 30.6755 66.0541 31.1391C65.908 31.332 65.7854 31.598 65.9076 31.8069C66.0829 32.1064 66.5295 31.9881 66.8588 31.881C67.3428 31.7075 67.8695 31.6949 68.3612 31.845C68.6704 31.9515 68.947 32.1398 69.2575 32.2423C69.4087 32.3057 69.5742 32.3267 69.7364 32.3029C69.8985 32.2791 70.0511 32.2115 70.1779 32.1073C70.391 31.8892 70.4044 31.5501 70.4047 31.2447C70.4195 31.1425 70.4114 31.0383 70.3809 30.9396C70.3504 30.841 70.2984 30.7504 70.2286 30.6745C70.1043 30.6023 69.9646 30.5608 69.8211 30.5536C69.4998 30.4939 69.2093 30.3236 68.9998 30.0721" fill="#103F4A"/>
<path d="M72.4069 29.2977C72.2818 29.2909 72.157 29.3165 72.0445 29.372C71.932 29.4276 71.8357 29.5112 71.7648 29.6149C71.6939 29.7186 71.6507 29.8389 71.6395 29.9641C71.6283 30.0894 71.6494 30.2155 71.7008 30.3302C72.0852 30.4354 72.4867 30.4616 72.8815 30.4074C73.0783 30.3767 73.2618 30.2883 73.4086 30.1532C73.5555 30.0181 73.6592 29.8424 73.7067 29.6482C73.242 29.7331 72.7624 29.6412 72.3615 29.3904" fill="#103F4A"/>
<path d="M83.1366 27.8056C82.0904 28.0288 81.0742 28.3752 80.109 28.8376C80.564 29.0131 80.9508 29.3306 81.2124 29.7433C81.474 30.1561 81.5965 30.6422 81.5619 31.1301C81.521 31.3174 81.5258 31.5118 81.5757 31.6969C81.6869 31.9674 82.0091 32.0689 82.2923 32.1383C82.8013 32.2937 83.3327 32.3618 83.8642 32.3396C84.1301 32.3257 84.3883 32.2454 84.6155 32.1061C84.8427 31.9668 85.0317 31.7729 85.1654 31.5418C85.2424 31.3226 85.3328 31.1082 85.4359 30.9C86.1149 29.8624 88.1321 31.1171 88.8611 30.1142C89.1179 29.7609 89.0944 29.2291 89.4292 28.9492C89.6024 28.8272 89.803 28.7504 90.0132 28.7256C91.4792 28.4333 92.9601 28.2217 94.4492 28.0916C95.1547 28.03 96.0744 27.7758 96.0802 27.0652C93.4227 26.5415 90.6672 26.9135 88.242 28.1233C87.3683 28.5624 86.2126 29.4861 85.371 28.9039C85.0559 28.686 85.0715 28.099 84.6377 27.8539C84.1943 27.6033 83.6073 27.7052 83.1366 27.8056Z" fill="#103F4A"/>
<path d="M85.8275 48.4364L87.075 48.6769C86.8454 48.6667 86.6162 48.7057 86.4028 48.7914C86.1894 48.8771 85.9967 49.0075 85.8375 49.1739C85.6783 49.3402 85.5563 49.5387 85.4796 49.7562C85.4029 49.9736 85.3733 50.2049 85.3928 50.4347C86.561 50.8263 87.8346 50.4453 89.0652 50.4973C90.2958 50.5494 91.7276 51.4314 91.5176 52.6492C91.454 53.0174 91.2421 53.3853 91.3523 53.7423C91.4296 53.9924 91.6495 54.17 91.7736 54.4004C92.0322 54.8805 91.8255 55.4878 91.4989 55.9243C91.1723 56.3607 90.7334 56.709 90.4467 57.1728C89.7337 58.3265 90.1388 59.8179 90.5635 61.1067C90.6863 61.5937 90.9131 62.048 91.2281 62.4384C91.8574 63.1097 92.8828 63.1681 93.8011 63.1816C94.4695 63.1913 95.2352 63.1582 95.6578 62.6386C96.2097 61.9602 95.8238 60.9018 96.1871 60.1056C96.5171 59.3825 97.3578 59.0722 98.1194 58.8522C99.5148 58.4492 100.937 58.1065 102.256 57.4976C103.894 56.7416 105.425 55.5634 107.225 55.4661C107.731 55.4388 108.248 55.4986 108.735 55.3598C109.221 55.2209 109.684 54.7988 109.647 54.2926C109.615 53.8601 109.251 53.5425 108.966 53.2164C108.681 52.8904 108.457 52.389 108.719 52.044L113.438 51.1595C113.103 50.2448 112.843 49.04 113.611 48.4446C113.889 48.2298 114.26 48.1439 114.496 47.8842C114.899 47.4415 114.696 46.679 114.232 46.3025C113.767 45.9261 113.139 45.8387 112.544 45.7891C110.475 45.6167 108.393 45.7306 106.32 45.8446C102.267 46.0675 98.2145 46.2904 94.1617 46.5134C93.3458 46.5582 92.4039 46.4897 91.6556 46.769C91.0221 47.0054 90.5717 47.4394 89.8472 47.5919C88.5097 47.8734 87.0378 47.6829 85.8275 48.4364Z" fill="#103F4A"/>
<path d="M114.176 39.3304C114.049 39.3102 113.919 39.3398 113.813 39.4131C113.743 39.4905 113.701 39.5896 113.695 39.694C113.614 40.1548 113.71 40.6291 113.963 41.022C114.092 41.2147 114.27 41.3693 114.479 41.4696C114.688 41.57 114.919 41.6125 115.15 41.5927C115.711 41.5208 116.125 41.04 116.642 40.8053C117.438 40.444 120.818 39.8808 118.48 38.6133C117.674 38.1765 117.153 38.5621 116.518 38.8497C115.796 39.2207 114.986 39.3868 114.176 39.3304Z" fill="#103F4A"/>
<path d="M134.656 28.7207C134.383 28.8327 134.154 29.0322 134.006 29.2881C133.938 29.418 133.922 29.5693 133.962 29.7107C134.002 29.852 134.094 29.9726 134.22 30.0474C134.322 30.0845 134.43 30.1017 134.539 30.0981L135.649 30.1314C136.121 30.1456 136.71 30.2463 136.836 30.7024C136.93 31.041 136.72 31.4761 136.974 31.7181C137.083 31.8028 137.214 31.8541 137.352 31.8659C137.717 31.9601 138.099 31.9725 138.47 31.9021C139.278 31.6847 138.854 31.19 139.108 30.7496C139.497 30.0756 139.43 30.4836 140.116 30.0973C140.622 29.8121 141.277 29.2946 140.854 28.5676C140.119 27.3033 135.741 28.1776 134.656 28.7207Z" fill="#103F4A"/>
<path d="M156.567 28.0852L155.923 28.1715C154.469 28.3661 153.007 28.5626 151.607 29.0006C152.213 29.241 152.849 29.3976 153.497 29.4659C153.854 29.4835 154.208 29.534 154.556 29.6169C155.174 29.8016 155.797 30.2786 156.395 30.0343C156.765 29.8828 156.886 29.4958 157.193 29.2907C157.405 29.1491 158.208 28.9198 158.298 28.7769C159.025 27.6213 157.126 28.0104 156.567 28.0852Z" fill="#103F4A"/>
<path d="M159.398 31.0248C158.537 31.508 157.738 32.095 157.019 32.7729C156.716 33.0586 156.407 33.4139 156.434 33.8301C156.471 34.3832 157.058 34.7041 157.567 34.9202L159.628 35.7957C159.878 35.4421 159.649 34.9541 159.39 34.6066C159.132 34.2592 158.825 33.8572 158.939 33.4391C159.069 32.962 159.649 32.7994 160.135 32.7172C160.928 32.5833 163.064 32.594 162.808 31.3131C162.505 29.8038 160.193 30.5789 159.398 31.0248Z" fill="#103F4A"/>
<path d="M152.984 135.439C152.787 136.009 152.769 136.681 153.108 137.178C153.489 137.736 154.251 137.945 154.91 137.803C155.567 137.628 156.152 137.25 156.584 136.724C156.978 136.282 157.303 135.783 157.546 135.243C157.886 134.401 158.125 133.522 158.259 132.624L158.899 129.253C159.042 128.499 159.037 126.19 157.657 126.942C157.28 127.148 156.407 128.771 156.012 129.231C155.3 130.061 155.206 130.866 154.831 131.871C154.361 133.129 153.418 134.179 152.984 135.439Z" fill="#103F4A"/>
<path d="M225.868 152.689C225.416 152.512 224.978 152.303 224.556 152.062C224.134 153.228 223.909 154.457 223.892 155.698L226.981 153.943C227.446 153.679 227.973 153.313 227.963 152.777C227.967 152.711 227.954 152.645 227.924 152.586C227.893 152.527 227.848 152.477 227.792 152.441C227.724 152.414 227.649 152.405 227.576 152.416C227.117 152.454 226.7 152.68 226.267 152.838C225.835 152.995 225.33 153.078 224.933 152.845" fill="#103F4A"/>
<path d="M242.167 153.73C241.828 153.823 241.496 153.942 241.176 154.087C240.467 154.449 239.984 155.137 239.346 155.613C238.736 156.07 238.001 156.32 237.279 156.564C237.067 156.752 237.165 157.131 237.395 157.297C237.643 157.438 237.927 157.502 238.211 157.481C238.961 157.497 239.75 157.504 240.407 157.141C240.777 156.9 241.123 156.625 241.441 156.318C242.209 155.675 243.13 155.251 244.043 154.841C244.375 154.715 244.682 154.531 244.95 154.297C245.524 153.73 245.564 152.856 244.737 152.663C244.069 152.507 242.803 153.524 242.167 153.73Z" fill="#103F4A"/>
<path d="M249.368 149.01C249.405 148.62 249.354 148.227 249.217 147.86C249.081 147.492 248.863 147.161 248.58 146.891C248.571 147.672 248.548 148.503 248.11 149.148C247.799 149.608 247.31 149.919 246.968 150.357C246.627 150.795 246.475 151.489 246.876 151.874C247.132 152.069 247.444 152.177 247.765 152.181C248.563 152.275 249.486 152.328 250.045 151.75C250.35 151.434 250.499 150.967 250.871 150.735C251.01 150.676 251.133 150.588 251.233 150.475C251.387 150.23 251.143 149.906 250.868 149.818C250.593 149.73 250.29 149.771 250.014 149.687C249.737 149.603 249.484 149.292 249.626 149.039" fill="#103F4A"/>
<path d="M236.569 120.396C236.15 120.498 235.717 120.523 235.29 120.471C234.58 120.34 234.027 119.803 233.454 119.363C232.092 118.322 230.436 117.742 228.724 117.705C227.167 117.675 225.595 118.099 224.065 117.803C224.165 118.361 224.641 118.779 225.148 119.028C225.656 119.277 226.216 119.402 226.726 119.645C227.542 120.039 228.19 120.715 228.55 121.55C228.714 121.934 228.818 122.353 229.066 122.689C229.575 123.375 230.539 123.526 231.389 123.47C232.498 123.396 233.656 123.076 234.688 123.491C235.477 123.808 236.042 124.501 236.701 125.04C237.36 125.579 238.288 125.979 239.045 125.59C238.259 125.335 237.575 124.834 237.092 124.161C236.61 123.488 236.355 122.678 236.364 121.849C237.106 121.918 239.243 121.891 239.128 120.626C239.031 119.554 237.206 120.28 236.569 120.396Z" fill="#103F4A"/>
<path d="M226.86 129.12C226.992 128.395 227.713 127.755 227.488 127.053C227.333 126.567 226.772 126.328 226.264 126.316C225.756 126.304 225.257 126.456 224.75 126.47C224.419 126.452 224.088 126.457 223.758 126.484C222.75 126.65 222.128 127.71 221.178 128.087C220.601 128.317 219.952 128.273 219.351 128.431C217.987 128.791 217.124 130.084 216.171 131.127C214.63 132.804 212.624 133.978 210.41 134.497C209.635 134.677 208.801 134.793 208.185 135.298C207.369 135.967 207.168 137.114 206.986 138.156C206.485 141.033 205.718 143.858 204.696 146.592L207.934 147.007C208.55 147.086 209.188 147.163 209.781 146.98C210.212 146.817 210.621 146.599 210.996 146.331C212.438 145.433 214.052 144.848 215.734 144.615C216.582 144.498 217.471 144.477 218.267 144.793C219.063 145.109 219.746 145.827 219.812 146.683C220.156 146.575 220.523 146.564 220.873 146.649C221.224 146.735 221.544 146.914 221.801 147.168C222.308 147.687 222.64 148.352 222.75 149.07C222.835 149.514 222.921 150.047 223.332 150.233C223.667 150.385 224.052 150.222 224.419 150.192C225.664 150.092 226.697 151.549 227.921 151.298C229.233 151.029 229.555 149.057 230.836 148.662C231.571 148.435 232.602 148.711 232.955 148.024C233.265 147.419 232.646 146.721 232.71 146.044C232.788 145.21 233.769 144.856 234.525 144.5C237.131 143.273 238.367 139.754 237.104 137.158C236.356 135.62 234.884 134.409 234.612 132.72C234.403 131.42 234.914 129.904 234.088 128.881C233.668 128.361 232.956 128.073 232.706 127.452C232.549 127.061 232.612 126.618 232.527 126.205C232.443 125.792 232.084 125.36 231.677 125.467C230.497 125.778 230.121 129.435 229.489 130.323C228.529 131.674 226.558 130.784 226.86 129.12Z" fill="#103F4A"/>
<path d="M205.054 121.777C204.651 121.664 204.211 121.552 203.824 121.714C203.438 121.876 203.213 122.445 203.523 122.728C205.948 122.633 208.388 122.539 210.793 122.869C213.564 123.25 216.306 124.193 219.089 123.916C217.499 123.445 215.884 123.069 214.25 122.789L211.525 122.267C210.794 122.113 210.056 121.999 209.313 121.924C207.759 121.795 206.582 122.207 205.054 121.777Z" fill="#103F4A"/>
<path d="M207.482 113.301C207.281 113.284 207.032 113.27 206.927 113.443C206.828 113.609 206.942 113.829 206.888 114.015C206.815 114.269 206.483 114.334 206.222 114.299C205.96 114.265 205.678 114.182 205.446 114.308C205.328 114.389 205.24 114.505 205.194 114.641C205.148 114.776 205.147 114.922 205.192 115.058C205.286 115.327 205.439 115.572 205.64 115.775C205.983 116.208 206.373 116.601 206.804 116.946C207.637 117.564 208.767 117.861 209.292 118.758C209.366 118.931 209.48 119.085 209.624 119.206C209.876 119.366 210.205 119.245 210.476 119.12L211.427 118.684C211.599 118.622 211.752 118.518 211.872 118.381C212.089 118.085 211.956 117.664 211.773 117.345C211.591 117.027 211.358 116.697 211.397 116.331C211.467 115.68 212.301 115.43 212.645 114.873C212.991 114.311 212.766 113.587 212.805 112.927C212.852 112.156 213.335 111.153 212.558 110.577C211.898 110.087 211.267 110.54 210.793 111.08C209.793 112.22 209.32 113.455 207.482 113.301Z" fill="#103F4A"/>
<path d="M213.257 101.779C213.581 102.403 214.258 102.775 214.612 103.383C214.996 104.042 214.953 104.893 215.369 105.531C215.796 106.186 216.656 106.534 216.896 107.279C217.157 108.092 216.564 109.08 217.037 109.791C217.125 109.907 217.236 110.004 217.364 110.074C217.491 110.145 217.632 110.189 217.777 110.202C217.922 110.215 218.068 110.198 218.206 110.152C218.344 110.106 218.471 110.031 218.579 109.933C218.778 109.715 218.885 109.428 218.876 109.132C218.868 108.836 218.744 108.556 218.532 108.35C218.252 108.094 217.85 107.983 217.616 107.684C217.494 107.511 217.413 107.313 217.379 107.104C217.251 106.502 217.271 105.877 217.438 105.285C217.501 105.134 217.517 104.968 217.484 104.809C217.378 104.502 216.964 104.48 216.673 104.337C216.012 104.014 216.028 103.078 216.144 102.35C216.067 102.835 214.345 102.01 214.165 101.735C213.807 101.19 214.002 100.137 213.931 99.5338C213.158 99.9077 212.859 101.016 213.257 101.779Z" fill="#103F4A"/>
<path d="M195.911 111.379C195.593 111.022 195.115 110.649 194.689 110.864C194.364 111.028 194.274 111.48 194.402 111.822C194.557 112.154 194.796 112.44 195.095 112.651C195.983 113.386 196.939 114.049 197.713 114.903C199.099 116.431 199.834 118.494 201.341 119.902C201.644 120.228 202.045 120.446 202.484 120.522C202.923 120.563 203.416 120.281 203.466 119.841C203.508 119.479 203.256 119.155 203.01 118.886C202.425 118.247 201.784 117.659 201.231 116.991C200.976 116.735 200.815 116.399 200.776 116.038C200.773 115.679 201.1 115.302 201.447 115.391C201.025 115.283 200.712 114.577 200.092 114.444C199.574 114.333 199.449 114.655 198.832 114.39C197.657 113.884 196.734 112.304 195.911 111.379Z" fill="#103F4A"/>
<path d="M223.535 76.6223C223.198 76.5218 222.866 76.4029 222.542 76.2663C221.669 76.0034 220.514 76.6472 220.63 77.5542C220.708 78.1568 221.267 78.5631 221.575 79.0858C222.033 79.8609 221.911 80.8441 221.671 81.7122C221.611 81.981 221.499 82.2351 221.34 82.4595C221.118 82.6964 220.853 82.8881 220.558 83.0241C219.379 83.6873 218.34 84.5735 217.497 85.6335C217.405 85.7314 217.341 85.8522 217.312 85.9832C217.27 86.2894 217.577 86.5125 217.751 86.7679C218.136 87.3353 217.857 88.0987 217.896 88.7842C217.89 88.8811 217.909 88.9779 217.95 89.0654C217.992 89.153 218.056 89.2283 218.135 89.2843C218.367 89.4027 218.642 89.2016 218.768 88.9728C219.186 88.2135 218.871 86.9947 219.655 86.6287C219.803 86.5594 219.983 86.5302 220.082 86.3996C220.238 86.1923 220.087 85.8854 220.167 85.6377C220.286 85.2658 220.793 85.2491 221.182 85.2656C221.852 85.2937 222.522 85.2042 223.162 85.0011C223.413 84.9413 223.64 84.8089 223.817 84.6203C224.051 84.327 224.03 83.91 223.984 83.5371C223.749 81.6779 223.162 79.881 222.255 78.2432C222.943 78.3315 223.692 78.4079 224.286 78.0479C224.618 77.8464 225.017 77.2437 224.852 76.8335C224.591 76.1847 224.12 76.7308 223.535 76.6223Z" fill="#103F4A"/>
<path d="M135.296 86.8473C135.378 87.2906 135.459 87.7573 135.315 88.1842C135.17 88.6111 134.714 88.9677 134.284 88.837C133.951 88.7354 133.758 88.3987 133.521 88.142C132.203 86.7143 129.229 87.5409 128.415 85.7746C128.083 85.0537 128.308 84.19 128.082 83.429C127.939 82.9892 127.654 82.6095 127.273 82.3496C126.892 82.0896 126.435 81.9641 125.975 81.9928C125.555 82.0536 125.146 82.176 124.762 82.356C122.188 83.3904 119.485 84.0687 116.729 84.372C116.205 84.4041 115.687 84.4987 115.185 84.6538C114.053 85.0656 113.28 86.1185 112.73 87.1929C112.179 88.2673 111.773 89.4305 111.035 90.385C110.26 91.3882 109.173 92.0907 108.159 92.8505C107.769 93.1031 107.444 93.445 107.211 93.8482C106.991 94.3009 107.003 94.8275 107.02 95.3307L107.228 101.443C107.254 102.229 107.288 103.043 107.638 103.747C108.076 104.625 108.941 105.201 109.541 105.977C110.154 106.774 110.473 107.76 110.444 108.766C110.432 109.171 110.392 109.65 110.706 109.904C110.897 110.028 111.12 110.092 111.348 110.089L119.588 110.766C121.037 110.885 122.644 111.08 123.59 112.188C124.037 112.711 124.395 113.463 125.08 113.52C125.373 113.544 125.659 113.423 125.952 113.399C126.692 113.341 127.343 113.905 127.753 114.526C128.375 115.472 128.657 116.603 128.553 117.732C128.486 118.44 128.267 119.129 128.22 119.839C128.04 122.541 130.323 124.889 130.367 127.597C130.394 129.19 129.64 130.678 128.905 132.09C130.091 133.893 129.12 136.293 129.592 138.4C130.04 140.399 131.701 141.964 132.115 143.97C132.305 144.889 132.316 146.019 133.123 146.492C133.477 146.666 133.87 146.744 134.263 146.721C136.636 146.75 138.981 146.214 141.108 145.158C142.106 144.661 143.141 143.919 143.315 142.814C143.456 141.924 143.006 140.928 143.464 140.152C144.004 139.238 145.387 139.31 146.181 138.607C147.469 137.467 146.465 135.292 146.987 133.65C147.456 132.173 149.072 131.389 149.872 130.064C150.187 129.494 150.414 128.879 150.543 128.24C150.91 126.714 151.138 125.157 151.225 123.589C151.246 122.637 151.316 121.686 151.435 120.741C152.298 115.358 157.601 111.754 159.323 106.584C159.487 106.09 159.564 105.432 159.127 105.153C158.867 105.029 158.573 104.998 158.293 105.065L154.494 105.546C154.023 105.606 153.523 105.661 153.089 105.465C152.656 105.268 152.345 104.718 152.575 104.3C153.22 103.128 151.893 101.646 151.304 100.444C149.716 97.2088 147.825 94.132 145.657 91.2555C145.518 91.1075 145.431 90.9182 145.409 90.7161L146.487 90.7522C146.123 89.4419 145.523 88.0081 144.254 87.5288C143.539 87.2588 142.748 87.3521 141.985 87.394C139.8 87.5137 137.458 87.1828 135.296 86.8473Z" fill="#103F4A"/>
<path d="M141.987 57.3208C142.558 57.93 143.199 58.5758 144.026 58.682C145.487 58.8695 146.538 57.3537 147.206 56.037C147.231 56.3726 147.385 56.6854 147.636 56.9087C147.887 57.132 148.215 57.2482 148.55 57.2326C148.911 57.1717 149.255 57.0367 149.561 56.836C152.456 55.2488 155.698 54.4079 158.997 54.3887C158.965 54.1379 159.027 53.8843 159.171 53.6768C159.314 53.4692 159.529 53.3224 159.775 53.2647C160.445 53.1313 161.049 53.7131 161.373 54.3174C161.697 54.9218 161.898 55.6223 162.412 56.0747C162.926 56.5271 163.921 56.5074 164.124 55.8523C164.319 55.2234 163.666 54.687 163.124 54.3162C162.581 53.9455 162.01 53.2592 162.375 52.712C165.146 52.0964 167.935 51.4785 170.771 51.3562C171.254 51.373 171.735 51.2899 172.184 51.1119C172.617 50.8989 172.961 50.4155 172.844 49.9464C172.225 50.0924 171.577 50.0501 170.982 49.825C170.388 49.5999 169.873 49.2021 169.504 48.6824C173.439 48.3565 177.625 48.0788 181.112 49.9367C181.531 50.8382 179.398 51.5881 179.969 52.4012C180.151 52.6605 180.515 52.6909 180.831 52.6968C183.255 52.742 185.692 52.7862 188.088 52.4191C188.964 52.2849 189.848 52.0956 190.727 52.2043C192.192 52.3856 193.444 53.3659 194.885 53.6855C195.471 53.8156 196.128 53.82 196.623 53.4778C197.117 53.1356 197.329 52.3565 196.924 51.9116C198.281 50.5778 200.532 50.9084 202.321 51.5469C204.111 52.1855 205.806 53.2154 207.7 53.3577C209.058 53.4598 210.435 53.0932 211.776 53.3262C212.62 53.4726 213.405 53.849 214.229 54.0803C215.788 54.5177 217.437 54.4254 219.055 54.4464C223.185 54.5023 227.269 55.3166 231.106 56.8492C231.605 57.0123 232.063 57.2834 232.446 57.6434C232.803 58.027 232.985 58.6232 232.745 59.0896L228.78 58.5083C229.154 59.2462 230.12 59.3719 230.905 59.6265C231.69 59.8811 232.504 60.7508 232.032 61.4297C231.181 61.158 230.411 62.0112 229.981 62.7961C229.552 63.5811 229.028 64.5211 228.137 64.569C227.339 64.6118 226.374 63.9299 225.854 64.5387C226.572 65.4484 227.188 66.4356 227.688 67.482C228.202 68.5563 228.568 69.91 227.874 70.8765C227.764 71.0491 227.599 71.178 227.405 71.2413C226.838 71.3854 226.469 70.689 226.062 70.267C225.549 69.7351 224.774 69.5845 224.08 69.3351C223.386 69.0856 222.654 68.5949 222.6 67.857C222.566 67.3979 222.808 66.9712 222.986 66.5469C223.285 65.8316 223.416 65.0569 223.368 64.2828C223.329 63.66 223.155 63.0121 222.709 62.577C222.264 62.1418 221.494 62.0038 221.015 62.4023C220.792 62.5883 220.613 62.8857 220.323 62.8969C219.811 62.9165 219.417 62.0202 219.005 62.3262C219.054 62.6522 218.986 62.9849 218.815 63.2661C217.585 64.3395 215.695 63.8854 214.109 64.2646C213.355 64.4811 212.633 64.7975 211.962 65.2053C211.712 65.313 211.498 65.4928 211.349 65.7222C211.151 66.1081 211.369 66.6025 211.718 66.8591C212.088 67.0868 212.504 67.2292 212.935 67.276C214.869 67.6434 216.83 68.2122 218.356 69.4581C219.883 70.7041 220.884 72.7638 220.401 74.6777L216.588 71.0224C216.733 72.5572 216.815 74.0962 216.835 75.6394C216.859 75.9408 216.818 76.2439 216.714 76.5275C216.442 77.1299 215.705 77.3326 215.06 77.4655C214.88 77.4998 214.71 77.5717 214.56 77.6767C214.41 77.7816 214.284 77.9172 214.19 78.0745C214.096 78.2318 214.037 78.4073 214.015 78.5894C213.994 78.7715 214.011 78.9561 214.065 79.1311C214.295 79.8812 214.867 80.466 215.39 81.0487C215.914 81.6314 216.429 82.2937 216.498 83.0753C216.566 83.8569 215.979 84.7378 215.198 84.6835C214.607 84.6423 214.168 84.1111 213.916 83.5729C213.664 83.0346 213.514 82.435 213.135 81.9777C211.988 80.5934 209.411 81.1865 208.384 79.7107C208.122 80.0088 207.94 80.3692 207.856 80.7576C207.772 81.146 207.788 81.5495 207.903 81.9298C208.381 81.6295 209.036 81.9085 209.395 82.3449C209.754 82.7812 209.923 83.3406 210.205 83.8307C210.586 84.492 211.192 85.0782 211.245 85.84C211.231 86.1281 211.236 86.4168 211.259 86.7042C211.354 87.1658 211.743 87.4972 212.012 87.883C212.64 88.7807 212.609 90.014 212.204 91.0326C211.8 92.0512 211.074 92.9023 210.354 93.7275C209.097 95.1688 207.815 96.6017 206.325 97.7986C205.9 98.1401 205.447 98.476 205.182 98.9535C204.917 99.431 204.903 100.101 205.31 100.464C205.019 100.479 204.497 100.623 204.206 100.637C204.104 99.4655 204.081 98.2881 204.139 97.1133C202.991 96.5598 201.754 98.0421 201.902 99.3121C202.05 100.582 202.966 101.601 203.617 102.7C204.094 103.504 204.448 104.441 204.289 105.362C204.13 106.283 203.31 107.133 202.382 107.052C200.905 106.923 200.288 104.796 198.825 104.552C198.696 104.522 198.561 104.535 198.44 104.591C198.223 104.71 198.185 105.001 198.173 105.25C198.113 106.468 198.062 107.734 198.536 108.857C199.229 110.5 201.02 111.88 200.644 113.623C198.62 112.679 197.568 110.402 197.09 108.215C196.613 106.028 196.533 103.731 195.677 101.664C195.026 102.5 193.66 101.809 193.066 100.931C192.502 100.1 192.155 99.1374 191.609 98.2945C191.063 97.4515 190.225 96.6967 189.224 96.6504C188.175 96.6018 187.264 97.3245 186.464 98.0074C185.805 98.5689 185.13 99.1526 184.745 99.9288C184.185 101.058 184.331 102.39 184.304 103.651C184.275 105.015 183.987 106.454 183.061 107.452C182.135 108.45 180.425 108.798 179.404 107.898C178.87 107.428 178.612 106.727 178.382 106.053C177.273 102.806 176.35 99.4983 175.616 96.1458C175.445 96.911 174.775 97.8972 174.135 97.4465C173.992 97.3253 173.875 97.175 173.794 97.0054C172.601 94.9762 170.391 93.759 168.158 93.0292C165.926 92.2994 163.577 91.9589 161.369 91.1569C160.131 90.7072 158.95 90.1165 157.847 89.3965C157.565 89.811 157.401 90.2941 157.371 90.7946C157.342 91.2952 157.447 91.7945 157.677 92.2396C158.167 93.1098 159.275 93.6132 160.224 93.3091C160.714 93.1519 161.128 92.8104 161.615 92.6418C162.101 92.4731 162.754 92.5559 162.967 93.0262C163.171 93.4763 162.863 94.0208 163.015 94.4908C163.248 95.2066 164.324 95.2617 164.7 95.9131C164.98 96.3978 164.75 97.0413 164.35 97.4324C163.95 97.8235 163.417 98.0379 162.929 98.3102C161.346 99.1935 160.22 100.701 158.837 101.874C157.453 103.048 155.501 103.904 153.853 103.152C154.246 101.155 151.875 99.6886 151.439 97.7007C151.295 97.0464 151.37 96.3514 151.165 95.7137C150.868 94.7906 150.052 94.1558 149.382 93.4562C148.57 92.5985 147.937 91.5862 147.521 90.4791C147.105 89.3719 146.914 88.1924 146.96 87.0102C146.996 86.1886 147.147 85.3536 146.96 84.5529C146.774 83.7521 146.113 82.977 145.294 83.0133C143.424 83.0962 141.068 83.2358 140.087 81.6362C139.737 81.0653 139.584 80.2291 140.091 79.7917C140.448 79.4832 140.975 79.5122 141.444 79.5585L145.658 79.9744C146.643 80.0717 147.709 80.152 148.554 79.635C149.4 79.1181 149.766 77.7459 148.983 77.1377C148.411 76.6933 147.386 76.7174 147.22 76.0108C147.081 75.4223 147.73 74.7547 147.38 74.2629C147.128 73.9103 146.563 74.0081 146.221 74.2724C145.878 74.5368 145.63 74.9234 145.246 75.1235C144.574 75.4746 143.771 75.1405 143.047 74.9134C142.324 74.6863 141.354 74.667 141.003 75.3411C140.611 76.095 141.351 77.083 140.962 77.8384C140.447 78.8373 138.703 78.2687 137.98 79.1278C137.151 80.1137 138.545 81.5838 138.265 82.8433C137.908 83.0208 137.511 83.1023 137.113 83.0799C136.715 83.0574 136.329 82.9318 135.994 82.7153C135.665 82.4903 135.402 82.1798 135.234 81.817C135.066 81.4541 134.999 81.0524 135.041 80.6545C135.11 80.0879 135.405 79.5096 135.207 78.9742C135.048 78.5413 134.615 78.2836 134.212 78.0603L130.118 75.79C129.737 76.4976 130.218 77.3748 130.819 77.9063C131.42 78.4378 132.173 78.8381 132.568 79.5376C132.818 80.0222 132.874 80.5842 132.724 81.1088C132.575 81.6335 132.232 82.0812 131.765 82.3605C131.706 82.401 131.64 82.4284 131.57 82.4406C131.5 82.4529 131.428 82.4498 131.359 82.4315C131.294 82.393 131.237 82.3417 131.192 82.2807C131.146 82.2197 131.114 82.1502 131.096 82.0763C130.373 80.2212 129.289 78.3922 127.554 77.4231C125.82 76.454 123.328 76.6533 122.191 78.2857C121.921 78.6735 121.74 79.1154 121.505 79.5254C120.254 81.7034 117.574 82.7347 115.07 82.6673C114.825 82.6809 114.582 82.6235 114.368 82.5018C113.964 82.2214 113.982 81.6263 114.044 81.1368L114.307 79.0592C114.36 78.642 114.436 78.1809 114.765 77.9205C115.229 77.5534 115.898 77.785 116.489 77.7765C116.936 77.7555 117.367 77.5969 117.721 77.3222C118.076 77.0476 118.338 76.6701 118.472 76.241C118.591 75.8077 118.59 75.35 118.47 74.9171C118.349 74.4841 118.113 74.0925 117.786 73.7844C117.516 73.5292 117.152 73.2087 117.295 72.8647C117.352 72.7695 117.429 72.6881 117.521 72.6261C117.613 72.564 117.717 72.5229 117.827 72.5057C118.888 72.1965 120.009 72.1154 121.052 71.7506C122.096 71.3858 123.108 70.6394 123.355 69.5588C123.43 69.2276 123.465 68.8264 123.761 68.6622C123.91 68.5992 124.07 68.5665 124.231 68.5659C124.797 68.4851 125.312 68.1948 125.675 67.7521C126.038 67.3094 126.223 66.7463 126.193 66.1738C126.693 65.8232 127.394 66.0811 127.877 66.454C128.361 66.8269 128.788 67.3196 129.377 67.4803C130.474 67.7799 131.534 66.8053 132.671 66.8008C133.149 66.7989 133.644 66.9685 134.094 66.8059C134.55 66.641 134.822 66.1856 135.172 65.8491C135.522 65.5127 136.136 65.3074 136.459 65.6699L136.184 63.6248C136.738 63.7652 137.316 63.7851 137.878 63.6831C138.441 63.581 138.975 63.3595 139.445 63.0332L135.888 61.8275C135.765 61.7964 135.65 61.7352 135.556 61.6491C135.297 61.3697 135.554 60.9344 135.764 60.6168C136.267 59.8571 136.352 58.6057 135.525 58.2275C134.96 57.9694 134.312 58.2793 133.77 58.5824L131.175 60.0346C131.092 60.5297 131.695 60.8103 132.069 61.1438C132.296 61.3455 132.456 61.6112 132.529 61.9059C132.602 62.2007 132.584 62.5107 132.478 62.7952C132.372 63.0797 132.183 63.3254 131.936 63.5001C131.688 63.6748 131.394 63.7703 131.091 63.774C131.262 63.997 131.381 64.2557 131.438 64.531C131.496 64.8062 131.492 65.091 131.425 65.3642L129.678 65.4903C129.482 65.5298 129.279 65.49 129.112 65.3793C128.925 65.2129 128.95 64.9212 128.907 64.6743C128.803 64.0785 128.221 63.6608 127.628 63.5538C127.034 63.4467 126.427 63.5839 125.84 63.7195C125.59 63.8096 125.316 63.8032 125.071 63.7017C124.93 63.61 124.824 63.4748 124.767 63.3165C124.509 62.6897 124.75 61.953 125.164 61.417C125.578 60.881 126.144 60.4891 126.653 60.0429C127.869 58.9719 128.763 57.5808 129.233 56.0269C130.195 55.6227 131.19 55.0736 132.151 54.6694C133.634 53.9164 135.296 53.5932 136.951 53.7363L140.207 53.7987C141.171 53.8171 142.161 53.8408 143.052 54.2096C143.944 54.5783 144.727 55.3759 144.789 56.3413C144.807 56.4506 144.798 56.5628 144.761 56.6675C144.725 56.7721 144.662 56.8658 144.58 56.9396C144.454 57.0085 144.311 57.0407 144.168 57.0327C143.269 57.0644 142.886 57.2891 141.987 57.3208Z" fill="#103F4A"/>
<path d="M116.035 67.5596C116.162 67.4388 116.254 67.2852 116.3 67.1155C116.345 66.9459 116.344 66.7669 116.295 66.5982C115.985 66.4783 115.648 66.4476 115.322 66.5093C114.996 66.5711 114.694 66.723 114.449 66.9478C114.257 67.1436 114.09 67.3641 113.955 67.6036C113.527 68.304 113.149 69.1406 113.397 69.9235C113.417 70.0089 113.454 70.0893 113.506 70.1602C113.557 70.231 113.622 70.2908 113.697 70.336C113.808 70.3808 113.928 70.3996 114.048 70.3911C114.519 70.3905 114.99 70.3614 115.458 70.304C115.745 70.2688 116.079 70.1873 116.19 69.9191C116.336 69.5666 115.982 69.1676 116.085 68.8001C116.153 68.6357 116.256 68.4882 116.386 68.3677C116.451 68.3071 116.501 68.2322 116.532 68.1489C116.562 68.0656 116.573 67.9762 116.564 67.8879C116.522 67.7155 116.259 67.6176 116.164 67.7675" fill="#103F4A"/>
<path d="M118.479 64.3803C118.06 64.2838 117.629 64.2566 117.201 64.2998C117.107 64.297 117.013 64.3183 116.929 64.3619C116.848 64.4221 116.788 64.5079 116.761 64.6057C116.671 64.8964 116.693 65.2106 116.823 65.4857C116.954 65.7607 117.182 65.9765 117.464 66.0899C117.617 66.1253 117.765 66.1846 117.9 66.2656C118.261 66.547 118.031 67.122 118.099 67.5758C118.176 68.0854 118.668 68.5131 118.577 69.0204C118.506 69.4202 118.081 69.7367 118.149 70.1368C118.221 70.5559 118.751 70.6819 119.174 70.7154C119.419 70.7585 119.671 70.7295 119.899 70.632C120.129 70.4746 120.292 70.2376 120.357 69.9667C120.53 69.4501 120.603 68.905 120.571 68.361C120.57 68.1136 120.508 67.8703 120.391 67.6523C120.264 67.4796 120.123 67.3175 119.969 67.1678C119.16 66.223 120.012 64.8138 118.479 64.3803Z" fill="#103F4A"/>
<path opacity="0.8" d="M224.92 138.389C224.92 138.389 162.924 102.681 136.234 109.447C136.234 109.447 79.67 115.555 73.1145 128.992C73.1145 128.992 55.1338 72.6118 48.5784 70.7324" stroke="#46C894" stroke-width="2" stroke-miterlimit="10"/>
<path opacity="0.8" d="M73.1145 128.992C83.5096 101.178 177.159 70.3567 177.159 70.3567C163.861 73.7395 136.234 109.447 136.234 109.447C136.234 109.447 77.797 66.7859 48.5784 70.7326C48.5784 70.7326 177.253 74.9611 224.92 138.389" stroke="#46C894" stroke-width="2" stroke-miterlimit="10"/>
<path d="M48.5784 73.4576C50.0783 73.4576 51.2942 72.2375 51.2942 70.7325C51.2942 69.2275 50.0783 68.0074 48.5784 68.0074C47.0785 68.0074 45.8625 69.2275 45.8625 70.7325C45.8625 72.2375 47.0785 73.4576 48.5784 73.4576Z" fill="#46C894"/>
<path d="M73.1145 131.717C74.6144 131.717 75.8303 130.497 75.8303 128.992C75.8303 127.487 74.6144 126.267 73.1145 126.267C71.6146 126.267 70.3987 127.487 70.3987 128.992C70.3987 130.497 71.6146 131.717 73.1145 131.717Z" fill="#46C894"/>
<path d="M177.159 73.0817C178.659 73.0817 179.875 71.8617 179.875 70.3566C179.875 68.8516 178.659 67.6316 177.159 67.6316C175.659 67.6316 174.443 68.8516 174.443 70.3566C174.443 71.8617 175.659 73.0817 177.159 73.0817Z" fill="#46C894"/>
<path d="M224.92 141.114C226.42 141.114 227.636 139.894 227.636 138.389C227.636 136.884 226.42 135.664 224.92 135.664C223.42 135.664 222.204 136.884 222.204 138.389C222.204 139.894 223.42 141.114 224.92 141.114Z" fill="#46C894"/>
<path d="M136.234 112.172C137.734 112.172 138.95 110.952 138.95 109.447C138.95 107.942 137.734 106.722 136.234 106.722C134.734 106.722 133.518 107.942 133.518 109.447C133.518 110.952 134.734 112.172 136.234 112.172Z" fill="#46C894"/>
</svg>
