<svg width="239" height="182" viewBox="0 0 239 182" fill="none" xmlns="http://www.w3.org/2000/svg">
<g clip-path="url(#clip0)">
<path opacity="0.1" d="M244.704 124.794C236.302 136.376 239.075 152.909 243.932 166.08C245.559 170.489 247.406 175.152 246.563 179.95C245.533 185.814 240.691 190.208 235.658 192.601C226.483 196.963 215.645 196.266 207.438 190.771C200.356 186.027 195.37 178.145 188.151 173.628C176.068 166.071 160.381 169.447 146.933 175.217C137.419 179.298 126.997 184.555 117.726 180.786C111.202 178.134 106.808 171.384 104.497 164.167C103.381 160.683 102.6 156.901 100.376 154.174C99.0543 152.553 97.3073 151.423 95.511 150.479C79.1163 141.854 58.028 147.245 42.1335 137.622C31.4026 131.124 24.7237 118.513 21.9487 105.256C19.1737 91.9982 19.8605 78.0034 20.9658 64.2478C21.7513 54.4723 22.9939 44.0263 28.8444 36.3444C35.0318 28.2225 45.4021 24.995 54.6757 26.267C63.9493 27.5391 72.2636 32.7136 79.537 38.8906C88.6346 46.5963 97.0047 56.2705 108.319 59.1962C116.026 61.1884 124.214 59.7784 132.226 59.1553C145.618 58.116 158.963 59.3126 172.226 60.6645C184.923 61.9581 197.707 63.4027 209.732 67.6436C218.242 70.6448 224.987 76.3173 232.999 80.1939C238.221 82.7208 243.966 83.3072 248.881 86.5715C254.946 90.5925 260.427 97.716 258.648 106.265C256.968 114.391 249.168 118.647 244.704 124.794Z" fill="#46C894"/>
<path d="M197.549 34.4711H63.1982V197.317H197.549V34.4711Z" fill="url(#paint0_linear)"/>
<path d="M195.832 36.5538H64.9151V195.238H195.832V36.5538Z" fill="white"/>
<path d="M174.575 35.449H121.779V38.0362H174.575V35.449Z" fill="#C0BCCF"/>
<path d="M174.575 43.6418H121.779V46.2291H174.575V43.6418Z" fill="#C0BCCF"/>
<path d="M155.913 70.8348H128.442V73.4221H155.913V70.8348Z" fill="#46C894"/>
<path opacity="0.5" d="M168.575 106.41H115.779V108.997H168.575V106.41Z" fill="#C0BCCF"/>
<path opacity="0.5" d="M168.575 114.603H115.779V117.19H168.575V114.603Z" fill="#C0BCCF"/>
<path opacity="0.5" d="M155.913 122.795H128.442V125.383H155.913V122.795Z" fill="#46C894"/>
<path opacity="0.5" d="M168.575 158.37H115.779V160.957H168.575V158.37Z" fill="#C0BCCF"/>
<path opacity="0.5" d="M168.575 166.563H115.779V169.15H168.575V166.563Z" fill="#C0BCCF"/>
<path opacity="0.5" d="M155.913 174.756H128.442V177.343H155.913V174.756Z" fill="#46C894"/>
<g opacity="0.5">
<path opacity="0.5" d="M97.1914 120.84L96.084 120.34C96.1009 120.171 96.1081 120.001 96.1055 119.831C96.1132 119.687 96.1132 119.543 96.1055 119.4C95.996 118.266 95.277 117.278 94.7684 116.241C94.3027 115.294 94.007 114.273 93.8949 113.223C93.7597 111.929 93.8949 110.588 93.4227 109.372C93.0386 108.391 92.2788 107.572 91.4654 106.847C90.5524 105.986 89.4856 105.307 88.3213 104.844C87.1323 104.413 85.7652 104.303 84.5762 104.743C83.5031 105.14 82.6769 105.931 81.8785 106.701C81.2987 107.214 80.7867 107.799 80.3547 108.443C79.8675 109.245 79.6593 110.167 79.4962 111.077C79.24 112.534 79.0637 114.004 78.9683 115.48C78.8846 116.711 78.7537 118.108 77.7063 118.863C77.1955 119.231 76.4766 119.438 76.2426 119.997C76.1763 120.165 76.1499 120.345 76.1654 120.525C76.1589 120.675 76.1697 120.824 76.1976 120.971C76.2126 121.058 76.2298 121.142 76.2512 121.228C75.9506 121.979 75.6983 122.748 75.4958 123.531C75.3391 124.113 75.1953 124.684 75.0665 125.238H75.4142H75.5988L77.599 125.286H77.6269L79.7731 125.335H79.7838L81.784 125.383H81.8334L82.4107 125.424H82.5996L90.5984 125.609H90.6413L91.1736 125.622H91.3603L92.9613 125.659L95.3221 125.713H95.3393L97.1163 125.756H97.3052H97.67L97.5756 123.884C97.9662 121.019 97.1914 120.84 97.1914 120.84ZM88.2054 120.611C88.2054 122.198 86.5142 124.141 86.5142 124.141L84.8123 121.812L84.8745 121.722L86.5142 123.964C86.5142 123.964 88.2054 122.024 88.2054 120.435C88.2448 120.354 88.29 120.276 88.3406 120.202L88.3792 120.322C88.3143 120.414 88.2562 120.511 88.2054 120.611ZM90.8066 126.838C90.8066 126.758 90.8066 126.676 90.7915 126.597C90.7765 126.517 90.7787 126.446 90.7679 126.368C90.7572 126.29 90.7486 126.215 90.7379 126.137C90.7271 126.06 90.7121 125.984 90.6971 125.907C90.6821 125.829 90.6671 125.753 90.6499 125.676C90.6499 125.65 90.6392 125.626 90.6327 125.598C90.6091 125.497 90.5834 125.396 90.5555 125.294C90.5276 125.193 90.5104 125.13 90.4846 125.051C90.4846 125.014 90.4632 124.977 90.4503 124.943C90.4374 124.908 90.4138 124.826 90.3945 124.768L90.3559 124.656C90.3387 124.606 90.3215 124.555 90.3022 124.505C90.27 124.415 90.2357 124.326 90.2013 124.236C90.167 124.145 90.1305 124.057 90.094 123.968C90.0211 123.787 89.9417 123.608 89.8622 123.427C89.5511 122.729 89.2012 122.041 88.8793 121.359C88.7067 121.003 88.5533 120.637 88.42 120.264L88.3792 120.318C88.3142 120.411 88.2561 120.508 88.2054 120.609C88.2054 122.196 86.5142 124.139 86.5142 124.139L84.8123 121.81L83.3229 123.966C83.1082 124.074 82.8936 124.44 82.7262 124.962C82.679 125.102 82.6339 125.258 82.591 125.419C82.561 125.529 82.5331 125.635 82.5073 125.758C82.4923 125.816 82.4794 125.874 82.4665 125.935L82.4279 126.118V126.146C82.4021 126.271 82.3764 126.4 82.3528 126.532C82.3292 126.663 82.3013 126.814 82.2777 126.963C82.2605 127.056 82.2455 127.149 82.2326 127.241C82.2026 127.42 82.1768 127.601 82.151 127.782C82.136 127.888 82.121 127.998 82.1081 128.095L82.0566 128.496C82.1661 128.826 82.2884 129.143 82.415 129.475C82.4955 129.649 82.5429 129.837 82.5545 130.029C85.1947 130.736 87.9732 130.736 90.6134 130.029C90.6125 130.022 90.6125 130.016 90.6134 130.01C90.5738 129.829 90.5565 129.644 90.5619 129.46C90.6053 128.942 90.6769 128.426 90.7765 127.916C90.8083 127.664 90.8219 127.411 90.8173 127.157V127.067C90.8109 126.985 90.8087 126.911 90.8066 126.84V126.838ZM90.8066 126.838C90.8066 126.758 90.8066 126.676 90.7915 126.597C90.7765 126.517 90.7787 126.446 90.7679 126.368C90.7572 126.29 90.7486 126.215 90.7379 126.137C90.7271 126.06 90.7121 125.984 90.6971 125.907C90.6821 125.829 90.6671 125.753 90.6499 125.676C90.6499 125.65 90.6392 125.626 90.6327 125.598C90.6091 125.497 90.5834 125.396 90.5555 125.294C90.5276 125.193 90.5104 125.13 90.4846 125.051C90.4846 125.014 90.4632 124.977 90.4503 124.943C90.4374 124.908 90.4138 124.826 90.3945 124.768L90.3559 124.656C90.3387 124.606 90.3215 124.555 90.3022 124.505C90.27 124.415 90.2357 124.326 90.2013 124.236C90.167 124.145 90.1305 124.057 90.094 123.968C90.0211 123.787 89.9417 123.608 89.8622 123.427C89.5511 122.729 89.2012 122.041 88.8793 121.359C88.7067 121.003 88.5533 120.637 88.42 120.264L88.3792 120.318C88.3142 120.411 88.2561 120.508 88.2054 120.609C88.2054 122.196 86.5142 124.139 86.5142 124.139L84.8123 121.81L83.3229 123.966C83.1082 124.074 82.8936 124.44 82.7262 124.962C82.679 125.102 82.6339 125.258 82.591 125.419C82.561 125.529 82.5331 125.635 82.5073 125.758C82.4923 125.816 82.4794 125.874 82.4665 125.935L82.4279 126.118V126.146C82.4021 126.271 82.3764 126.4 82.3528 126.532C82.3292 126.663 82.3013 126.814 82.2777 126.963C82.2605 127.056 82.2455 127.149 82.2326 127.241C82.2026 127.42 82.1768 127.601 82.151 127.782C82.136 127.888 82.121 127.998 82.1081 128.095L82.0566 128.496C82.1661 128.826 82.2884 129.143 82.415 129.475C82.4955 129.649 82.5429 129.837 82.5545 130.029C85.1947 130.736 87.9732 130.736 90.6134 130.029C90.6125 130.022 90.6125 130.016 90.6134 130.01C90.5738 129.829 90.5565 129.644 90.5619 129.46C90.6053 128.942 90.6769 128.426 90.7765 127.916C90.8083 127.664 90.8219 127.411 90.8173 127.157V127.067C90.8109 126.985 90.8087 126.911 90.8066 126.84V126.838ZM90.8066 126.838C90.8066 126.758 90.8066 126.676 90.7915 126.597C90.7765 126.517 90.7787 126.446 90.7679 126.368C90.7572 126.29 90.7486 126.215 90.7379 126.137C90.7271 126.06 90.7121 125.984 90.6971 125.907C90.6821 125.829 90.6671 125.753 90.6499 125.676C90.6499 125.65 90.6392 125.626 90.6327 125.598C90.6091 125.497 90.5834 125.396 90.5555 125.294C90.5276 125.193 90.5104 125.13 90.4846 125.051C90.4846 125.014 90.4632 124.977 90.4503 124.943C90.4374 124.908 90.4138 124.826 90.3945 124.768L90.3559 124.656C90.3387 124.606 90.3215 124.555 90.3022 124.505C90.27 124.415 90.2357 124.326 90.2013 124.236C90.167 124.145 90.1305 124.057 90.094 123.968C90.0211 123.787 89.9417 123.608 89.8622 123.427C89.5511 122.729 89.2012 122.041 88.8793 121.359C88.7067 121.003 88.5533 120.637 88.42 120.264L88.3792 120.318C88.3142 120.411 88.2561 120.508 88.2054 120.609C88.2054 122.196 86.5142 124.139 86.5142 124.139L84.8123 121.81L83.3229 123.966C83.1082 124.074 82.8936 124.44 82.7262 124.962C82.679 125.102 82.6339 125.258 82.591 125.419C82.561 125.529 82.5331 125.635 82.5073 125.758C82.4923 125.816 82.4794 125.874 82.4665 125.935L82.4279 126.118V126.146C82.4021 126.271 82.3764 126.4 82.3528 126.532C82.3292 126.663 82.3013 126.814 82.2777 126.963C82.2605 127.056 82.2455 127.149 82.2326 127.241C82.2026 127.42 82.1768 127.601 82.151 127.782C82.136 127.888 82.121 127.998 82.1081 128.095L82.0566 128.496C82.1661 128.826 82.2884 129.143 82.415 129.475C82.4955 129.649 82.5429 129.837 82.5545 130.029C85.1947 130.736 87.9732 130.736 90.6134 130.029C90.6125 130.022 90.6125 130.016 90.6134 130.01C90.5738 129.829 90.5565 129.644 90.5619 129.46C90.6053 128.942 90.6769 128.426 90.7765 127.916C90.8083 127.664 90.8219 127.411 90.8173 127.157V127.067C90.8109 126.985 90.8087 126.911 90.8066 126.84V126.838ZM90.8066 126.838C90.8066 126.758 90.8066 126.676 90.7915 126.597C90.7765 126.517 90.7787 126.446 90.7679 126.368C90.7572 126.29 90.7486 126.215 90.7379 126.137C90.7271 126.06 90.7121 125.984 90.6971 125.907C90.6821 125.829 90.6671 125.753 90.6499 125.676C90.6499 125.65 90.6392 125.626 90.6327 125.598C90.6091 125.497 90.5834 125.396 90.5555 125.294C90.5276 125.193 90.5104 125.13 90.4846 125.051C90.4846 125.014 90.4632 124.977 90.4503 124.943C90.4374 124.908 90.4138 124.826 90.3945 124.768L90.3559 124.656C90.3387 124.606 90.3215 124.555 90.3022 124.505C90.27 124.415 90.2357 124.326 90.2013 124.236C90.167 124.145 90.1305 124.057 90.094 123.968C90.0211 123.787 89.9417 123.608 89.8622 123.427C89.5511 122.729 89.2012 122.041 88.8793 121.359C88.7067 121.003 88.5533 120.637 88.42 120.264L88.3792 120.318C88.3142 120.411 88.2561 120.508 88.2054 120.609C88.2054 122.196 86.5142 124.139 86.5142 124.139L84.8123 121.81L83.3229 123.966C83.1082 124.074 82.8936 124.44 82.7262 124.962C82.679 125.102 82.6339 125.258 82.591 125.419C82.561 125.529 82.5331 125.635 82.5073 125.758C82.4923 125.816 82.4794 125.874 82.4665 125.935L82.4279 126.118V126.146C82.4021 126.271 82.3764 126.4 82.3528 126.532C82.3292 126.663 82.3013 126.814 82.2777 126.963C82.2605 127.056 82.2455 127.149 82.2326 127.241C82.2026 127.42 82.1768 127.601 82.151 127.782C82.136 127.888 82.121 127.998 82.1081 128.095L82.0566 128.496C82.1661 128.826 82.2884 129.143 82.415 129.475C82.4955 129.649 82.5429 129.837 82.5545 130.029C85.1947 130.736 87.9732 130.736 90.6134 130.029C90.6125 130.022 90.6125 130.016 90.6134 130.01C90.5738 129.829 90.5565 129.644 90.5619 129.46C90.6053 128.942 90.6769 128.426 90.7765 127.916C90.8083 127.664 90.8219 127.411 90.8173 127.157V127.067C90.8109 126.985 90.8087 126.911 90.8066 126.84V126.838Z" fill="url(#paint1_linear)"/>
<path opacity="0.5" d="M90.8838 111.8H81.0114V118.483H90.8838V111.8Z" fill="#493545"/>
<path opacity="0.5" d="M92.5235 119.171L88.3921 125.018L84.074 124.641C84.074 124.641 78.4403 125.016 82.1961 120.68C84.001 118.596 84.5912 116.858 84.7179 115.618C84.8552 114.277 84.4496 113.514 84.4496 113.514L89.1433 112.949C88.9315 113.584 88.9047 114.267 89.066 114.917C89.6541 117.367 92.5235 119.171 92.5235 119.171Z" fill="#C77485"/>
<path opacity="0.1" d="M89.0639 114.911C88.4517 115.376 87.7351 115.684 86.977 115.807C86.2189 115.929 85.4424 115.863 84.7157 115.614C84.8531 114.273 84.4474 113.509 84.4474 113.509L89.1411 112.944C88.9297 113.579 88.9029 114.261 89.0639 114.911Z" fill="#103F4A"/>
<path opacity="0.5" d="M86.233 115.678C88.8253 115.678 90.9267 113.567 90.9267 110.963C90.9267 108.359 88.8253 106.248 86.233 106.248C83.6408 106.248 81.5394 108.359 81.5394 110.963C81.5394 113.567 83.6408 115.678 86.233 115.678Z" fill="#C77485"/>
<path opacity="0.1" d="M92.3518 119.413L92.2424 118.981L92.1479 118.602L92.0084 118.041L91.9827 117.938L91.9612 117.852C91.9612 117.852 92.0728 117.513 91.3367 117.623L91.1993 117.647C91.0834 117.67 90.9482 117.703 90.7937 117.746L90.6542 117.789L90.4696 117.847C89.8853 118.038 89.3523 118.361 88.9115 118.792C88.7136 118.982 88.5386 119.194 88.39 119.425C88.375 119.447 88.3642 119.466 88.3514 119.484C88.3005 119.564 88.2553 119.647 88.2161 119.734C88.2161 121.433 86.525 123.507 86.525 123.507L84.8746 121.112L84.8424 121.064L84.4496 120.491L84.3101 120.305L84.2629 120.24L83.4044 119.083L83.1898 118.794L83.119 118.697L83.0138 118.557L82.767 118.227L81.8012 118.794L80.5135 119.548L79.7624 124.453V124.589L79.786 124.995L79.9426 127.659V127.696L79.6679 128.8L79.7087 128.822C80.3569 129.173 81.0314 129.473 81.7261 129.718L81.9085 129.783C82.1232 129.854 82.3249 129.919 82.5352 129.981C82.543 130.013 82.5488 130.046 82.5524 130.078C82.5524 130.048 82.5524 130.016 82.5524 129.986C85.186 130.742 87.9777 130.742 90.6113 129.986L90.6606 129.971C90.783 129.936 90.9074 129.9 91.0276 129.859L91.2229 129.796C91.7525 129.618 92.2713 129.409 92.7768 129.171L92.957 125.311L93.0858 122.528V122.368L92.3518 119.413Z" fill="#103F4A"/>
<path opacity="0.5" d="M90.8066 126.581C90.8066 126.495 90.8066 126.409 90.7915 126.323C90.7765 126.236 90.7787 126.161 90.7679 126.079C90.7572 125.997 90.7486 125.915 90.7379 125.833C90.7272 125.751 90.7121 125.669 90.6971 125.588C90.6821 125.506 90.6671 125.424 90.6499 125.342C90.6499 125.314 90.6392 125.288 90.6327 125.26C90.6091 125.152 90.5834 125.044 90.5555 124.934C90.5276 124.824 90.5104 124.76 90.4846 124.673C90.4846 124.635 90.4632 124.596 90.4503 124.559C90.4374 124.522 90.4138 124.434 90.3945 124.372L90.3559 124.251C90.3387 124.197 90.3215 124.143 90.3022 124.089C90.27 123.992 90.2357 123.897 90.2014 123.8C90.167 123.703 90.1305 123.608 90.094 123.513C90.0211 123.319 89.9417 123.127 89.8623 122.936C89.5511 122.19 89.2012 121.454 88.8793 120.726C88.7063 120.344 88.553 119.953 88.42 119.555L88.3793 119.613C88.314 119.712 88.2559 119.816 88.2054 119.924C88.2054 121.62 86.5142 123.697 86.5142 123.697L84.8123 121.206L83.3229 123.507C83.1082 123.621 82.8936 124.014 82.7262 124.572C82.679 124.723 82.6339 124.887 82.591 125.061C82.561 125.178 82.5331 125.301 82.5073 125.424C82.4923 125.486 82.4794 125.549 82.4665 125.613L82.4279 125.81V125.84C82.4022 125.973 82.3764 126.111 82.3528 126.252C82.3292 126.392 82.3013 126.553 82.2777 126.707C82.2605 126.806 82.2455 126.905 82.2326 127.004C82.2026 127.196 82.1768 127.39 82.1511 127.582C82.136 127.694 82.121 127.797 82.1081 127.916L82.0566 128.347C82.1661 128.701 82.2884 129.05 82.415 129.393C82.4959 129.581 82.5432 129.782 82.5545 129.986C85.1881 130.742 87.9798 130.742 90.6134 129.986C90.6125 129.979 90.6125 129.971 90.6134 129.964C90.5738 129.771 90.5565 129.573 90.5619 129.376C90.6052 128.823 90.6769 128.272 90.7765 127.726C90.8082 127.457 90.8218 127.186 90.8173 126.916V126.819C90.8109 126.737 90.8087 126.659 90.8066 126.581ZM90.8066 126.581C90.8066 126.495 90.8066 126.409 90.7915 126.323C90.7765 126.236 90.7787 126.161 90.7679 126.079C90.7572 125.997 90.7486 125.915 90.7379 125.833C90.7272 125.751 90.7121 125.669 90.6971 125.588C90.6821 125.506 90.6671 125.424 90.6499 125.342C90.6499 125.314 90.6392 125.288 90.6327 125.26C90.6091 125.152 90.5834 125.044 90.5555 124.934C90.5276 124.824 90.5104 124.76 90.4846 124.673C90.4846 124.635 90.4632 124.596 90.4503 124.559C90.4374 124.522 90.4138 124.434 90.3945 124.372L90.3559 124.251C90.3387 124.197 90.3215 124.143 90.3022 124.089C90.27 123.992 90.2357 123.897 90.2014 123.8C90.167 123.703 90.1305 123.608 90.094 123.513C90.0211 123.319 89.9417 123.127 89.8623 122.936C89.5511 122.19 89.2012 121.454 88.8793 120.726C88.7063 120.344 88.553 119.953 88.42 119.555L88.3793 119.613C88.314 119.712 88.2559 119.816 88.2054 119.924C88.2054 121.62 86.5142 123.697 86.5142 123.697L84.8123 121.206L83.3229 123.507C83.1082 123.621 82.8936 124.014 82.7262 124.572C82.679 124.723 82.6339 124.887 82.591 125.061C82.561 125.178 82.5331 125.301 82.5073 125.424C82.4923 125.486 82.4794 125.549 82.4665 125.613L82.4279 125.81V125.84C82.4022 125.973 82.3764 126.111 82.3528 126.252C82.3292 126.392 82.3013 126.553 82.2777 126.707C82.2605 126.806 82.2455 126.905 82.2326 127.004C82.2026 127.196 82.1768 127.39 82.1511 127.582C82.136 127.694 82.121 127.797 82.1081 127.916L82.0566 128.347C82.1661 128.701 82.2884 129.05 82.415 129.393C82.4959 129.581 82.5432 129.782 82.5545 129.986C85.1881 130.742 87.9798 130.742 90.6134 129.986C90.6125 129.979 90.6125 129.971 90.6134 129.964C90.5738 129.771 90.5565 129.573 90.5619 129.376C90.6052 128.823 90.6769 128.272 90.7765 127.726C90.8082 127.457 90.8218 127.186 90.8173 126.916V126.819C90.8109 126.737 90.8087 126.659 90.8066 126.581ZM90.8066 126.581C90.8066 126.495 90.8066 126.409 90.7915 126.323C90.7765 126.236 90.7787 126.161 90.7679 126.079C90.7572 125.997 90.7486 125.915 90.7379 125.833C90.7272 125.751 90.7121 125.669 90.6971 125.588C90.6821 125.506 90.6671 125.424 90.6499 125.342C90.6499 125.314 90.6392 125.288 90.6327 125.26C90.6091 125.152 90.5834 125.044 90.5555 124.934C90.5276 124.824 90.5104 124.76 90.4846 124.673C90.4846 124.635 90.4632 124.596 90.4503 124.559C90.4374 124.522 90.4138 124.434 90.3945 124.372L90.3559 124.251C90.3387 124.197 90.3215 124.143 90.3022 124.089C90.27 123.992 90.2357 123.897 90.2014 123.8C90.167 123.703 90.1305 123.608 90.094 123.513C90.0211 123.319 89.9417 123.127 89.8623 122.936C89.5511 122.19 89.2012 121.454 88.8793 120.726C88.7063 120.344 88.553 119.953 88.42 119.555L88.3793 119.613C88.314 119.712 88.2559 119.816 88.2054 119.924C88.2054 121.62 86.5142 123.697 86.5142 123.697L84.8123 121.206L83.3229 123.507C83.1082 123.621 82.8936 124.014 82.7262 124.572C82.679 124.723 82.6339 124.887 82.591 125.061C82.561 125.178 82.5331 125.301 82.5073 125.424C82.4923 125.486 82.4794 125.549 82.4665 125.613L82.4279 125.81V125.84C82.4022 125.973 82.3764 126.111 82.3528 126.252C82.3292 126.392 82.3013 126.553 82.2777 126.707C82.2605 126.806 82.2455 126.905 82.2326 127.004C82.2026 127.196 82.1768 127.39 82.1511 127.582C82.136 127.694 82.121 127.797 82.1081 127.916L82.0566 128.347C82.1661 128.701 82.2884 129.05 82.415 129.393C82.4959 129.581 82.5432 129.782 82.5545 129.986C85.1881 130.742 87.9798 130.742 90.6134 129.986C90.6125 129.979 90.6125 129.971 90.6134 129.964C90.5738 129.771 90.5565 129.573 90.5619 129.376C90.6052 128.823 90.6769 128.272 90.7765 127.726C90.8082 127.457 90.8218 127.186 90.8173 126.916V126.819C90.8109 126.737 90.8087 126.659 90.8066 126.581ZM93.0815 122.535L92.3153 119.462L92.1844 118.936L92.1479 118.792L91.9612 118.041C91.9617 118.035 91.9617 118.028 91.9612 118.022C91.9657 117.989 91.9605 117.955 91.9462 117.925C91.9183 117.869 91.8475 117.811 91.6822 117.796C91.6193 117.791 91.5562 117.791 91.4934 117.796C91.3069 117.814 91.1223 117.849 90.9418 117.899C90.8538 117.923 90.7594 117.949 90.6585 117.981L90.4739 118.039H90.4567C89.9624 118.202 89.5035 118.458 89.1047 118.794C88.8412 119.015 88.6099 119.271 88.4179 119.557L88.3771 119.615C88.3119 119.714 88.2538 119.818 88.2033 119.926C88.2033 121.623 86.5121 123.699 86.5121 123.699L84.8102 121.209L84.7136 121.068L84.6964 121.045L84.4496 120.68L84.2629 120.43L84.2135 120.366L83.3336 119.186L83.0546 118.805V118.792L82.958 118.66L82.7734 118.414L82.1296 118.792L80.52 119.734L79.7774 124.587V124.639L79.7988 124.992L79.9577 127.694V127.847L79.7151 128.819C80.3634 129.171 81.0379 129.471 81.7326 129.716L81.915 129.781C82.1296 129.852 82.3313 129.917 82.5417 129.979C82.5495 130.011 82.5552 130.044 82.5588 130.076C82.5588 130.046 82.5588 130.014 82.5588 129.984C85.1924 130.74 87.9841 130.74 90.6177 129.984L90.6671 129.969C90.7894 129.934 90.9139 129.897 91.0341 129.856L91.2294 129.794C91.759 129.616 92.2778 129.407 92.7832 129.169L92.9613 125.314L93.0901 122.56L93.0815 122.535ZM82.5266 129.979C82.5344 130.011 82.5402 130.044 82.5438 130.076C82.5438 130.046 82.5438 130.014 82.5438 129.984L82.5266 129.979ZM90.8066 126.581C90.8066 126.495 90.8066 126.409 90.7915 126.323C90.7765 126.236 90.7787 126.161 90.7679 126.079C90.7572 125.997 90.7486 125.915 90.7379 125.833C90.7272 125.751 90.7121 125.669 90.6971 125.588C90.6821 125.506 90.6671 125.424 90.6499 125.342C90.6499 125.314 90.6392 125.288 90.6327 125.26C90.6091 125.152 90.5834 125.044 90.5555 124.934C90.5276 124.824 90.5104 124.76 90.4846 124.673C90.4846 124.635 90.4632 124.596 90.4503 124.559C90.4374 124.522 90.4138 124.434 90.3945 124.372L90.3559 124.251C90.3387 124.197 90.3215 124.143 90.3022 124.089C90.27 123.992 90.2357 123.897 90.2014 123.8C90.167 123.703 90.1305 123.608 90.094 123.513C90.0211 123.319 89.9417 123.127 89.8623 122.936C89.5511 122.19 89.2012 121.454 88.8793 120.726C88.7063 120.344 88.553 119.953 88.42 119.555L88.3793 119.613C88.314 119.712 88.2559 119.816 88.2054 119.924C88.2054 121.62 86.5142 123.697 86.5142 123.697L84.8123 121.206L83.3229 123.507C83.1082 123.621 82.8936 124.014 82.7262 124.572C82.679 124.723 82.6339 124.887 82.591 125.061C82.561 125.178 82.5331 125.301 82.5073 125.424C82.4923 125.486 82.4794 125.549 82.4665 125.613L82.4279 125.81V125.84C82.4022 125.973 82.3764 126.111 82.3528 126.252C82.3292 126.392 82.3013 126.553 82.2777 126.707C82.2605 126.806 82.2455 126.905 82.2326 127.004C82.2026 127.196 82.1768 127.39 82.1511 127.582C82.136 127.694 82.121 127.797 82.1081 127.916L82.0566 128.347C82.1661 128.701 82.2884 129.05 82.415 129.393C82.4959 129.581 82.5432 129.782 82.5545 129.986C85.1881 130.742 87.9798 130.742 90.6134 129.986C90.6125 129.979 90.6125 129.971 90.6134 129.964C90.5738 129.771 90.5565 129.573 90.5619 129.376C90.6052 128.823 90.6769 128.272 90.7765 127.726C90.8082 127.457 90.8218 127.186 90.8173 126.916V126.819C90.8109 126.737 90.8087 126.659 90.8066 126.581ZM90.8066 126.581C90.8066 126.495 90.8066 126.409 90.7915 126.323C90.7765 126.236 90.7787 126.161 90.7679 126.079C90.7572 125.997 90.7486 125.915 90.7379 125.833C90.7272 125.751 90.7121 125.669 90.6971 125.588C90.6821 125.506 90.6671 125.424 90.6499 125.342C90.6499 125.314 90.6392 125.288 90.6327 125.26C90.6091 125.152 90.5834 125.044 90.5555 124.934C90.5276 124.824 90.5104 124.76 90.4846 124.673C90.4846 124.635 90.4632 124.596 90.4503 124.559C90.4374 124.522 90.4138 124.434 90.3945 124.372L90.3559 124.251C90.3387 124.197 90.3215 124.143 90.3022 124.089C90.27 123.992 90.2357 123.897 90.2014 123.8C90.167 123.703 90.1305 123.608 90.094 123.513C90.0211 123.319 89.9417 123.127 89.8623 122.936C89.5511 122.19 89.2012 121.454 88.8793 120.726C88.7063 120.344 88.553 119.953 88.42 119.555L88.3793 119.613C88.314 119.712 88.2559 119.816 88.2054 119.924C88.2054 121.62 86.5142 123.697 86.5142 123.697L84.8123 121.206L83.3229 123.507C83.1082 123.621 82.8936 124.014 82.7262 124.572C82.679 124.723 82.6339 124.887 82.591 125.061C82.561 125.178 82.5331 125.301 82.5073 125.424C82.4923 125.486 82.4794 125.549 82.4665 125.613L82.4279 125.81V125.84C82.4022 125.973 82.3764 126.111 82.3528 126.252C82.3292 126.392 82.3013 126.553 82.2777 126.707C82.2605 126.806 82.2455 126.905 82.2326 127.004C82.2026 127.196 82.1768 127.39 82.1511 127.582C82.136 127.694 82.121 127.797 82.1081 127.916L82.0566 128.347C82.1661 128.701 82.2884 129.05 82.415 129.393C82.4959 129.581 82.5432 129.782 82.5545 129.986C85.1881 130.742 87.9798 130.742 90.6134 129.986C90.6125 129.979 90.6125 129.971 90.6134 129.964C90.5738 129.771 90.5565 129.573 90.5619 129.376C90.6052 128.823 90.6769 128.272 90.7765 127.726C90.8082 127.457 90.8218 127.186 90.8173 126.916V126.819C90.8109 126.737 90.8087 126.659 90.8066 126.581ZM90.8066 126.581C90.8066 126.495 90.8066 126.409 90.7915 126.323C90.7765 126.236 90.7787 126.161 90.7679 126.079C90.7572 125.997 90.7486 125.915 90.7379 125.833C90.7272 125.751 90.7121 125.669 90.6971 125.588C90.6821 125.506 90.6671 125.424 90.6499 125.342C90.6499 125.314 90.6392 125.288 90.6327 125.26C90.6091 125.152 90.5834 125.044 90.5555 124.934C90.5276 124.824 90.5104 124.76 90.4846 124.673C90.4846 124.635 90.4632 124.596 90.4503 124.559C90.4374 124.522 90.4138 124.434 90.3945 124.372L90.3559 124.251C90.3387 124.197 90.3215 124.143 90.3022 124.089C90.27 123.992 90.2357 123.897 90.2014 123.8C90.167 123.703 90.1305 123.608 90.094 123.513C90.0211 123.319 89.9417 123.127 89.8623 122.936C89.5511 122.19 89.2012 121.454 88.8793 120.726C88.7063 120.344 88.553 119.953 88.42 119.555L88.3793 119.613C88.314 119.712 88.2559 119.816 88.2054 119.924C88.2054 121.62 86.5142 123.697 86.5142 123.697L84.8123 121.206L83.3229 123.507C83.1082 123.621 82.8936 124.014 82.7262 124.572C82.679 124.723 82.6339 124.887 82.591 125.061C82.561 125.178 82.5331 125.301 82.5073 125.424C82.4923 125.486 82.4794 125.549 82.4665 125.613L82.4279 125.81V125.84C82.4022 125.973 82.3764 126.111 82.3528 126.252C82.3292 126.392 82.3013 126.553 82.2777 126.707C82.2605 126.806 82.2455 126.905 82.2326 127.004C82.2026 127.196 82.1768 127.39 82.1511 127.582C82.136 127.694 82.121 127.797 82.1081 127.916L82.0566 128.347C82.1661 128.701 82.2884 129.05 82.415 129.393C82.4959 129.581 82.5432 129.782 82.5545 129.986C85.1881 130.742 87.9798 130.742 90.6134 129.986C90.6125 129.979 90.6125 129.971 90.6134 129.964C90.5738 129.771 90.5565 129.573 90.5619 129.376C90.6052 128.823 90.6769 128.272 90.7765 127.726C90.8082 127.457 90.8218 127.186 90.8173 126.916V126.819C90.8109 126.737 90.8087 126.659 90.8066 126.581ZM90.8066 126.581C90.8066 126.495 90.8066 126.409 90.7915 126.323C90.7765 126.236 90.7787 126.161 90.7679 126.079C90.7572 125.997 90.7486 125.915 90.7379 125.833C90.7272 125.751 90.7121 125.669 90.6971 125.588C90.6821 125.506 90.6671 125.424 90.6499 125.342C90.6499 125.314 90.6392 125.288 90.6327 125.26C90.6091 125.152 90.5834 125.044 90.5555 124.934C90.5276 124.824 90.5104 124.76 90.4846 124.673C90.4846 124.635 90.4632 124.596 90.4503 124.559C90.4374 124.522 90.4138 124.434 90.3945 124.372L90.3559 124.251C90.3387 124.197 90.3215 124.143 90.3022 124.089C90.27 123.992 90.2357 123.897 90.2014 123.8C90.167 123.703 90.1305 123.608 90.094 123.513C90.0211 123.319 89.9417 123.127 89.8623 122.936C89.5511 122.19 89.2012 121.454 88.8793 120.726C88.7063 120.344 88.553 119.953 88.42 119.555L88.3793 119.613C88.314 119.712 88.2559 119.816 88.2054 119.924C88.2054 121.62 86.5142 123.697 86.5142 123.697L84.8123 121.206L83.3229 123.507C83.1082 123.621 82.8936 124.014 82.7262 124.572C82.679 124.723 82.6339 124.887 82.591 125.061C82.561 125.178 82.5331 125.301 82.5073 125.424C82.4923 125.486 82.4794 125.549 82.4665 125.613L82.4279 125.81V125.84C82.4022 125.973 82.3764 126.111 82.3528 126.252C82.3292 126.392 82.3013 126.553 82.2777 126.707C82.2605 126.806 82.2455 126.905 82.2326 127.004C82.2026 127.196 82.1768 127.39 82.1511 127.582C82.136 127.694 82.121 127.797 82.1081 127.916L82.0566 128.347C82.1661 128.701 82.2884 129.05 82.415 129.393C82.4959 129.581 82.5432 129.782 82.5545 129.986C85.1881 130.742 87.9798 130.742 90.6134 129.986C90.6125 129.979 90.6125 129.971 90.6134 129.964C90.5738 129.771 90.5565 129.573 90.5619 129.376C90.6052 128.823 90.6769 128.272 90.7765 127.726C90.8082 127.457 90.8218 127.186 90.8173 126.916V126.819C90.8109 126.737 90.8087 126.659 90.8066 126.581ZM90.8066 126.581C90.8066 126.495 90.8066 126.409 90.7915 126.323C90.7765 126.236 90.7787 126.161 90.7679 126.079C90.7572 125.997 90.7486 125.915 90.7379 125.833C90.7272 125.751 90.7121 125.669 90.6971 125.588C90.6821 125.506 90.6671 125.424 90.6499 125.342C90.6499 125.314 90.6392 125.288 90.6327 125.26C90.6091 125.152 90.5834 125.044 90.5555 124.934C90.5276 124.824 90.5104 124.76 90.4846 124.673C90.4846 124.635 90.4632 124.596 90.4503 124.559C90.4374 124.522 90.4138 124.434 90.3945 124.372L90.3559 124.251C90.3387 124.197 90.3215 124.143 90.3022 124.089C90.27 123.992 90.2357 123.897 90.2014 123.8C90.167 123.703 90.1305 123.608 90.094 123.513C90.0211 123.319 89.9417 123.127 89.8623 122.936C89.5511 122.19 89.2012 121.454 88.8793 120.726C88.7063 120.344 88.553 119.953 88.42 119.555L88.3793 119.613C88.314 119.712 88.2559 119.816 88.2054 119.924C88.2054 121.62 86.5142 123.697 86.5142 123.697L84.8123 121.206L83.3229 123.507C83.1082 123.621 82.8936 124.014 82.7262 124.572C82.679 124.723 82.6339 124.887 82.591 125.061C82.561 125.178 82.5331 125.301 82.5073 125.424C82.4923 125.486 82.4794 125.549 82.4665 125.613L82.4279 125.81V125.84C82.4022 125.973 82.3764 126.111 82.3528 126.252C82.3292 126.392 82.3013 126.553 82.2777 126.707C82.2605 126.806 82.2455 126.905 82.2326 127.004C82.2026 127.196 82.1768 127.39 82.1511 127.582C82.136 127.694 82.121 127.797 82.1081 127.916L82.0566 128.347C82.1661 128.701 82.2884 129.05 82.415 129.393C82.4959 129.581 82.5432 129.782 82.5545 129.986C85.1881 130.742 87.9798 130.742 90.6134 129.986C90.6125 129.979 90.6125 129.971 90.6134 129.964C90.5738 129.771 90.5565 129.573 90.5619 129.376C90.6052 128.823 90.6769 128.272 90.7765 127.726C90.8082 127.457 90.8218 127.186 90.8173 126.916V126.819C90.8109 126.737 90.8087 126.659 90.8066 126.581ZM90.8066 126.581C90.8066 126.495 90.8066 126.409 90.7915 126.323C90.7765 126.236 90.7787 126.161 90.7679 126.079C90.7572 125.997 90.7486 125.915 90.7379 125.833C90.7272 125.751 90.7121 125.669 90.6971 125.588C90.6821 125.506 90.6671 125.424 90.6499 125.342C90.6499 125.314 90.6392 125.288 90.6327 125.26C90.6091 125.152 90.5834 125.044 90.5555 124.934C90.5276 124.824 90.5104 124.76 90.4846 124.673C90.4846 124.635 90.4632 124.596 90.4503 124.559C90.4374 124.522 90.4138 124.434 90.3945 124.372L90.3559 124.251C90.3387 124.197 90.3215 124.143 90.3022 124.089C90.27 123.992 90.2357 123.897 90.2014 123.8C90.167 123.703 90.1305 123.608 90.094 123.513C90.0211 123.319 89.9417 123.127 89.8623 122.936C89.5511 122.19 89.2012 121.454 88.8793 120.726C88.7063 120.344 88.553 119.953 88.42 119.555L88.3793 119.613C88.314 119.712 88.2559 119.816 88.2054 119.924C88.2054 121.62 86.5142 123.697 86.5142 123.697L84.8123 121.206L83.3229 123.507C83.1082 123.621 82.8936 124.014 82.7262 124.572C82.679 124.723 82.6339 124.887 82.591 125.061C82.561 125.178 82.5331 125.301 82.5073 125.424C82.4923 125.486 82.4794 125.549 82.4665 125.613L82.4279 125.81V125.84C82.4022 125.973 82.3764 126.111 82.3528 126.252C82.3292 126.392 82.3013 126.553 82.2777 126.707C82.2605 126.806 82.2455 126.905 82.2326 127.004C82.2026 127.196 82.1768 127.39 82.1511 127.582C82.136 127.694 82.121 127.797 82.1081 127.916L82.0566 128.347C82.1661 128.701 82.2884 129.05 82.415 129.393C82.4959 129.581 82.5432 129.782 82.5545 129.986C85.1881 130.742 87.9798 130.742 90.6134 129.986C90.6125 129.979 90.6125 129.971 90.6134 129.964C90.5738 129.771 90.5565 129.573 90.5619 129.376C90.6052 128.823 90.6769 128.272 90.7765 127.726C90.8082 127.457 90.8218 127.186 90.8173 126.916V126.819C90.8109 126.737 90.8087 126.659 90.8066 126.581ZM90.8066 126.581C90.8066 126.495 90.8066 126.409 90.7915 126.323C90.7765 126.236 90.7787 126.161 90.7679 126.079C90.7572 125.997 90.7486 125.915 90.7379 125.833C90.7272 125.751 90.7121 125.669 90.6971 125.588C90.6821 125.506 90.6671 125.424 90.6499 125.342C90.6499 125.314 90.6392 125.288 90.6327 125.26C90.6091 125.152 90.5834 125.044 90.5555 124.934C90.5276 124.824 90.5104 124.76 90.4846 124.673C90.4846 124.635 90.4632 124.596 90.4503 124.559C90.4374 124.522 90.4138 124.434 90.3945 124.372L90.3559 124.251C90.3387 124.197 90.3215 124.143 90.3022 124.089C90.27 123.992 90.2357 123.897 90.2014 123.8C90.167 123.703 90.1305 123.608 90.094 123.513C90.0211 123.319 89.9417 123.127 89.8623 122.936C89.5511 122.19 89.2012 121.454 88.8793 120.726C88.7063 120.344 88.553 119.953 88.42 119.555L88.3793 119.613C88.314 119.712 88.2559 119.816 88.2054 119.924C88.2054 121.62 86.5142 123.697 86.5142 123.697L84.8123 121.206L83.3229 123.507C83.1082 123.621 82.8936 124.014 82.7262 124.572C82.679 124.723 82.6339 124.887 82.591 125.061C82.561 125.178 82.5331 125.301 82.5073 125.424C82.4923 125.486 82.4794 125.549 82.4665 125.613L82.4279 125.81V125.84C82.4022 125.973 82.3764 126.111 82.3528 126.252C82.3292 126.392 82.3013 126.553 82.2777 126.707C82.2605 126.806 82.2455 126.905 82.2326 127.004C82.2026 127.196 82.1768 127.39 82.1511 127.582C82.136 127.694 82.121 127.797 82.1081 127.916L82.0566 128.347C82.1661 128.701 82.2884 129.05 82.415 129.393C82.4959 129.581 82.5432 129.782 82.5545 129.986C85.1881 130.742 87.9798 130.742 90.6134 129.986C90.6125 129.979 90.6125 129.971 90.6134 129.964C90.5738 129.771 90.5565 129.573 90.5619 129.376C90.6052 128.823 90.6769 128.272 90.7765 127.726C90.8082 127.457 90.8218 127.186 90.8173 126.916V126.819C90.8109 126.737 90.8087 126.659 90.8066 126.581ZM90.8066 126.581C90.8066 126.495 90.8066 126.409 90.7915 126.323C90.7765 126.236 90.7787 126.161 90.7679 126.079C90.7572 125.997 90.7486 125.915 90.7379 125.833C90.7272 125.751 90.7121 125.669 90.6971 125.588C90.6821 125.506 90.6671 125.424 90.6499 125.342C90.6499 125.314 90.6392 125.288 90.6327 125.26C90.6091 125.152 90.5834 125.044 90.5555 124.934C90.5276 124.824 90.5104 124.76 90.4846 124.673C90.4846 124.635 90.4632 124.596 90.4503 124.559C90.4374 124.522 90.4138 124.434 90.3945 124.372L90.3559 124.251C90.3387 124.197 90.3215 124.143 90.3022 124.089C90.27 123.992 90.2357 123.897 90.2014 123.8C90.167 123.703 90.1305 123.608 90.094 123.513C90.0211 123.319 89.9417 123.127 89.8623 122.936C89.5511 122.19 89.2012 121.454 88.8793 120.726C88.7063 120.344 88.553 119.953 88.42 119.555L88.3793 119.613C88.314 119.712 88.2559 119.816 88.2054 119.924C88.2054 121.62 86.5142 123.697 86.5142 123.697L84.8123 121.206L83.3229 123.507C83.1082 123.621 82.8936 124.014 82.7262 124.572C82.679 124.723 82.6339 124.887 82.591 125.061C82.561 125.178 82.5331 125.301 82.5073 125.424C82.4923 125.486 82.4794 125.549 82.4665 125.613L82.4279 125.81V125.84C82.4022 125.973 82.3764 126.111 82.3528 126.252C82.3292 126.392 82.3013 126.553 82.2777 126.707C82.2605 126.806 82.2455 126.905 82.2326 127.004C82.2026 127.196 82.1768 127.39 82.1511 127.582C82.136 127.694 82.121 127.797 82.1081 127.916L82.0566 128.347C82.1661 128.701 82.2884 129.05 82.415 129.393C82.4959 129.581 82.5432 129.782 82.5545 129.986C85.1881 130.742 87.9798 130.742 90.6134 129.986C90.6125 129.979 90.6125 129.971 90.6134 129.964C90.5738 129.771 90.5565 129.573 90.5619 129.376C90.6052 128.823 90.6769 128.272 90.7765 127.726C90.8082 127.457 90.8218 127.186 90.8173 126.916V126.819C90.8109 126.737 90.8087 126.659 90.8066 126.581Z" fill="white"/>
<path opacity="0.1" d="M84.8424 121.062L84.6986 121.043C84.4815 121.013 84.2664 120.97 84.0547 120.913L83.9753 120.892C83.4517 120.743 82.8786 120.476 82.7498 120.005C82.7115 119.854 82.716 119.695 82.7627 119.546C82.8348 119.29 82.9326 119.041 83.0546 118.805V118.792C83.0707 118.758 83.0887 118.726 83.1083 118.695C83.2854 118.347 83.5531 118.054 83.883 117.847L83.6255 117.888L81.445 118.244L78.0648 118.792C78.0648 118.792 77.4638 118.671 76.6461 120.935C76.6461 120.963 76.6268 120.989 76.6182 121.019C76.4208 121.573 76.2126 122.265 75.998 123.13C75.8499 123.729 75.7147 124.318 75.5902 124.889C75.5537 125.061 75.5172 125.232 75.4829 125.4C75.8699 125.858 76.2864 126.29 76.7298 126.694L76.8007 126.76C77.6692 127.55 78.629 128.233 79.6594 128.794L79.7001 128.815C80.3484 129.166 81.0229 129.466 81.7175 129.712L81.9 129.777C81.9386 129.378 81.9815 128.936 82.033 128.483C82.033 128.438 82.033 128.392 82.0502 128.347L82.1017 127.916C82.1146 127.806 82.1296 127.7 82.1446 127.582C82.1704 127.39 82.1961 127.196 82.2262 127.004C82.2391 126.905 82.2541 126.806 82.2713 126.706C82.2949 126.553 82.3206 126.4 82.3464 126.252C82.3721 126.103 82.3957 125.973 82.4215 125.84V125.81L82.4601 125.613C82.473 125.549 82.4859 125.486 82.5009 125.424C82.5267 125.301 82.5546 125.178 82.5846 125.061C82.6275 124.887 82.6726 124.723 82.7198 124.572C82.8915 124.014 83.0911 123.621 83.3164 123.507L84.8059 121.206L84.8681 121.109L84.896 121.066L84.8424 121.062Z" fill="#103F4A"/>
<path opacity="0.1" d="M82.1317 105.791C81.9171 106.088 81.9343 106.498 81.8377 106.869C81.6081 107.712 80.6981 108.24 80.4899 109.089C80.3676 109.585 80.5092 110.111 80.4255 110.616C80.2731 111.545 79.4276 112.175 78.9554 112.988C78.716 113.406 78.5741 113.874 78.5403 114.356C78.5065 114.837 78.5816 115.321 78.7601 115.769C78.8705 115.995 78.9617 116.23 79.0327 116.472C79.0868 116.832 79.0641 117.199 78.9661 117.55C78.8052 118.317 78.6399 119.163 79.009 119.855C79.3202 120.439 79.9662 120.782 80.6165 120.889C81.2732 120.964 81.9375 120.934 82.5846 120.799C83.295 120.689 84.0225 120.562 84.6406 120.195L82.3163 114.559C82.0824 113.99 81.842 113.402 81.8441 112.785C81.8631 112.33 81.9611 111.882 82.1339 111.461C82.5839 110.242 83.237 109.108 84.0654 108.108C84.4024 108.501 84.3766 109.098 84.6578 109.534C84.9062 109.856 85.2371 110.104 85.615 110.252C86.7163 110.791 87.8478 111.266 89.0038 111.675C89.0763 111.684 89.1455 111.711 89.2051 111.753C89.2648 111.796 89.3131 111.852 89.3458 111.918C89.3785 111.983 89.3946 112.056 89.3925 112.13C89.3905 112.203 89.3705 112.275 89.3343 112.339L88.4586 115.969C88.2655 116.769 88.0959 117.694 88.5917 118.341C89.0875 118.988 90.2056 119.294 90.2121 120.128C90.2029 120.26 90.2029 120.393 90.2121 120.525C90.27 120.915 90.7314 121.103 91.1242 121.122C91.7689 121.135 92.3972 120.917 92.8969 120.508C93.3965 120.098 93.735 119.524 93.852 118.887C94.0666 117.459 93.1266 116.144 92.7338 114.753C92.0728 112.414 92.9484 109.669 91.65 107.615C90.5984 105.948 88.6818 105.495 86.8619 105.288C85.5849 105.137 83.031 104.598 82.1317 105.791Z" fill="#103F4A"/>
<path opacity="0.5" d="M82.1317 105.575C81.9171 105.873 81.9343 106.282 81.8377 106.653C81.6081 107.496 80.6981 108.024 80.4899 108.874C80.3676 109.37 80.5092 109.896 80.4255 110.4C80.2731 111.33 79.4276 111.959 78.9554 112.772C78.716 113.191 78.5741 113.659 78.5403 114.14C78.5065 114.622 78.5816 115.105 78.7601 115.553C78.8705 115.779 78.9617 116.015 79.0327 116.256C79.0868 116.616 79.0641 116.984 78.9661 117.334C78.8052 118.102 78.6399 118.947 79.009 119.639C79.3202 120.223 79.9662 120.566 80.6165 120.674C81.2732 120.748 81.9375 120.718 82.5846 120.583C83.295 120.473 84.0225 120.346 84.6406 119.98L82.3163 114.344C82.0824 113.775 81.842 113.186 81.8441 112.569C81.8631 112.114 81.9611 111.666 82.1339 111.246C82.5839 110.026 83.237 108.892 84.0654 107.893C84.4024 108.285 84.3766 108.883 84.6578 109.318C84.9062 109.64 85.2371 109.888 85.615 110.036C86.7163 110.576 87.8478 111.051 89.0038 111.459C89.0763 111.468 89.1455 111.495 89.2051 111.538C89.2648 111.58 89.3131 111.637 89.3458 111.702C89.3785 111.768 89.3946 111.841 89.3925 111.914C89.3905 111.988 89.3705 112.059 89.3343 112.123L88.4586 115.754C88.2655 116.554 88.0959 117.479 88.5917 118.125C89.0875 118.772 90.2056 119.078 90.2121 119.913C90.2029 120.045 90.2029 120.177 90.2121 120.31C90.27 120.7 90.7314 120.887 91.1242 120.907C91.7689 120.92 92.3972 120.702 92.8969 120.292C93.3965 119.883 93.735 119.308 93.852 118.671C94.0666 117.244 93.1266 115.928 92.7338 114.538C92.0728 112.199 92.9484 109.454 91.65 107.399C90.5984 105.733 88.6818 105.28 86.8619 105.073C85.5849 104.922 83.031 104.383 82.1317 105.575Z" fill="#493545"/>
</g>
<g opacity="0.5">
<path opacity="0.5" d="M80.8118 163.325C80.8312 164.047 80.3418 164.664 79.9534 165.265C79.5649 165.867 79.2773 166.688 79.6765 167.29C79.8074 167.488 80.0049 167.641 80.1229 167.848C80.5371 168.57 79.8482 169.4 79.5971 170.194C79.3074 171.11 79.6443 172.134 80.2538 172.878C80.8634 173.622 81.7047 174.124 82.5545 174.566C84.3415 175.523 86.2595 176.209 88.2462 176.602C89.2849 176.794 90.3924 176.88 91.3667 176.461C92.0428 176.15 92.595 175.619 92.9348 174.955C93.2746 174.29 93.3822 173.53 93.2403 172.796C92.9935 171.662 92.1673 170.75 91.738 169.679C91.6378 169.468 91.5892 169.237 91.5964 169.004C91.6329 168.596 91.9441 168.277 92.1866 167.947C92.7948 167.049 93.0431 165.953 92.8819 164.879C92.7125 163.805 92.3031 162.783 91.6844 161.891C91.4633 161.521 91.1715 161.199 90.8259 160.942C90.358 160.625 89.7786 160.535 89.2206 160.455C86.8898 160.127 84.4754 159.769 82.1253 159.649C81.3827 159.61 80.8376 159.756 80.4706 160.455C79.9105 161.496 80.7839 162.279 80.8118 163.325Z" fill="#444176"/>
<path opacity="0.5" d="M92.8154 170.657L88.3921 176.977L84.074 176.599C84.074 176.599 83.9324 178.109 82.1961 172.639C81.2261 169.579 83.1984 170.642 83.5869 169.795C83.9753 168.948 84.6599 168.2 84.7179 167.574C84.8552 166.233 84.4496 165.47 84.4496 165.47L89.1433 164.905C88.9315 165.541 88.9047 166.223 89.066 166.874C89.6541 169.327 92.8154 170.657 92.8154 170.657Z" fill="#C77485"/>
<path opacity="0.5" d="M86.1623 165.269C89.244 165.269 91.7423 163.291 91.7423 160.85C91.7423 158.409 89.244 156.43 86.1623 156.43C83.0805 156.43 80.5822 158.409 80.5822 160.85C80.5822 163.291 83.0805 165.269 86.1623 165.269Z" fill="#444176"/>
<path opacity="0.1" d="M89.0639 166.871C88.4517 167.337 87.7351 167.645 86.977 167.767C86.2189 167.89 85.4424 167.824 84.7157 167.574C84.8531 166.233 84.4474 165.47 84.4474 165.47L89.1411 164.905C88.9297 165.54 88.9029 166.222 89.0639 166.871Z" fill="#103F4A"/>
<path opacity="0.5" d="M86.2331 167.639C88.8253 167.639 90.9268 165.528 90.9268 162.924C90.9268 160.32 88.8253 158.208 86.2331 158.208C83.6408 158.208 81.5394 160.32 81.5394 162.924C81.5394 165.528 83.6408 167.639 86.2331 167.639Z" fill="#C77485"/>
<path opacity="0.1" d="M92.3518 171.373L92.2424 170.942L92.1479 170.563L92.0084 170.002L91.9827 169.899L91.9612 169.812C91.9612 169.812 92.0728 169.474 91.3367 169.584L91.1993 169.607C91.0834 169.631 90.9482 169.664 90.7937 169.707L90.6542 169.75L90.4696 169.808C89.8853 169.999 89.3523 170.322 88.9115 170.752C88.7136 170.942 88.5386 171.155 88.39 171.386C88.375 171.408 88.3642 171.427 88.3514 171.444C88.3005 171.524 88.2553 171.608 88.2161 171.694C88.2161 173.393 86.525 175.468 86.525 175.468L84.8746 173.072L84.8424 173.025L84.4496 172.451L84.3101 172.266L84.2629 172.201L83.4044 171.043L83.1898 170.754L83.119 170.657L83.0138 170.517L82.767 170.187L81.8012 170.754L80.5135 171.509L79.7624 176.414V176.55L79.786 176.955L79.9426 179.62V179.657L79.6679 180.761L79.7087 180.782C80.3569 181.133 81.0314 181.433 81.7261 181.679L81.9085 181.744C82.1232 181.815 82.3249 181.88 82.5352 181.942C82.543 181.974 82.5488 182.006 82.5524 182.039C82.5524 182.009 82.5524 181.977 82.5524 181.946C85.186 182.703 87.9777 182.703 90.6113 181.946L90.6606 181.931C90.783 181.897 90.9074 181.86 91.0276 181.819L91.2229 181.757C91.7525 181.579 92.2713 181.37 92.7768 181.131L92.957 177.272L93.0858 174.489V174.329L92.3518 171.373Z" fill="#103F4A"/>
<path opacity="0.5" d="M90.8066 178.542C90.8066 178.456 90.8066 178.37 90.7915 178.283C90.7765 178.197 90.7787 178.122 90.7679 178.04C90.7572 177.958 90.7486 177.876 90.7379 177.794C90.7272 177.712 90.7121 177.63 90.6971 177.548C90.6821 177.466 90.6671 177.384 90.6499 177.302C90.6499 177.274 90.6392 177.248 90.6327 177.22C90.6091 177.113 90.5834 177.005 90.5555 176.895C90.5276 176.785 90.5104 176.72 90.4846 176.634C90.4846 176.595 90.4632 176.556 90.4503 176.52C90.4374 176.483 90.4138 176.395 90.3945 176.332L90.3559 176.211C90.3387 176.158 90.3215 176.104 90.3022 176.05C90.27 175.953 90.2357 175.858 90.2014 175.761C90.167 175.664 90.1305 175.569 90.094 175.474C90.0211 175.28 89.9417 175.088 89.8623 174.896C89.5511 174.15 89.2012 173.415 88.8793 172.686C88.7063 172.304 88.553 171.913 88.42 171.516L88.3793 171.574C88.314 171.673 88.2559 171.777 88.2054 171.884C88.2054 173.581 86.5142 175.657 86.5142 175.657L84.8123 173.167L83.3229 175.468C83.1082 175.582 82.8936 175.974 82.7262 176.533C82.679 176.684 82.6339 176.847 82.591 177.022C82.561 177.139 82.5331 177.261 82.5073 177.384C82.4923 177.447 82.4794 177.509 82.4665 177.574L82.4279 177.77V177.8C82.4022 177.934 82.3764 178.072 82.3528 178.212C82.3292 178.352 82.3013 178.514 82.2777 178.667C82.2605 178.766 82.2455 178.865 82.2326 178.965C82.2026 179.157 82.1768 179.351 82.1511 179.542C82.136 179.655 82.121 179.758 82.1081 179.877L82.0566 180.308C82.1661 180.661 82.2884 181.011 82.415 181.354C82.4959 181.541 82.5432 181.742 82.5545 181.946C85.1881 182.703 87.9798 182.703 90.6134 181.946C90.6125 181.939 90.6125 181.932 90.6134 181.925C90.5738 181.731 90.5565 181.534 90.5619 181.336C90.6052 180.783 90.6769 180.233 90.7765 179.687C90.8082 179.418 90.8218 179.147 90.8173 178.876V178.779C90.8109 178.697 90.8087 178.62 90.8066 178.542ZM90.8066 178.542C90.8066 178.456 90.8066 178.37 90.7915 178.283C90.7765 178.197 90.7787 178.122 90.7679 178.04C90.7572 177.958 90.7486 177.876 90.7379 177.794C90.7272 177.712 90.7121 177.63 90.6971 177.548C90.6821 177.466 90.6671 177.384 90.6499 177.302C90.6499 177.274 90.6392 177.248 90.6327 177.22C90.6091 177.113 90.5834 177.005 90.5555 176.895C90.5276 176.785 90.5104 176.72 90.4846 176.634C90.4846 176.595 90.4632 176.556 90.4503 176.52C90.4374 176.483 90.4138 176.395 90.3945 176.332L90.3559 176.211C90.3387 176.158 90.3215 176.104 90.3022 176.05C90.27 175.953 90.2357 175.858 90.2014 175.761C90.167 175.664 90.1305 175.569 90.094 175.474C90.0211 175.28 89.9417 175.088 89.8623 174.896C89.5511 174.15 89.2012 173.415 88.8793 172.686C88.7063 172.304 88.553 171.913 88.42 171.516L88.3793 171.574C88.314 171.673 88.2559 171.777 88.2054 171.884C88.2054 173.581 86.5142 175.657 86.5142 175.657L84.8123 173.167L83.3229 175.468C83.1082 175.582 82.8936 175.974 82.7262 176.533C82.679 176.684 82.6339 176.847 82.591 177.022C82.561 177.139 82.5331 177.261 82.5073 177.384C82.4923 177.447 82.4794 177.509 82.4665 177.574L82.4279 177.77V177.8C82.4022 177.934 82.3764 178.072 82.3528 178.212C82.3292 178.352 82.3013 178.514 82.2777 178.667C82.2605 178.766 82.2455 178.865 82.2326 178.965C82.2026 179.157 82.1768 179.351 82.1511 179.542C82.136 179.655 82.121 179.758 82.1081 179.877L82.0566 180.308C82.1661 180.661 82.2884 181.011 82.415 181.354C82.4959 181.541 82.5432 181.742 82.5545 181.946C85.1881 182.703 87.9798 182.703 90.6134 181.946C90.6125 181.939 90.6125 181.932 90.6134 181.925C90.5738 181.731 90.5565 181.534 90.5619 181.336C90.6052 180.783 90.6769 180.233 90.7765 179.687C90.8082 179.418 90.8218 179.147 90.8173 178.876V178.779C90.8109 178.697 90.8087 178.62 90.8066 178.542ZM90.8066 178.542C90.8066 178.456 90.8066 178.37 90.7915 178.283C90.7765 178.197 90.7787 178.122 90.7679 178.04C90.7572 177.958 90.7486 177.876 90.7379 177.794C90.7272 177.712 90.7121 177.63 90.6971 177.548C90.6821 177.466 90.6671 177.384 90.6499 177.302C90.6499 177.274 90.6392 177.248 90.6327 177.22C90.6091 177.113 90.5834 177.005 90.5555 176.895C90.5276 176.785 90.5104 176.72 90.4846 176.634C90.4846 176.595 90.4632 176.556 90.4503 176.52C90.4374 176.483 90.4138 176.395 90.3945 176.332L90.3559 176.211C90.3387 176.158 90.3215 176.104 90.3022 176.05C90.27 175.953 90.2357 175.858 90.2014 175.761C90.167 175.664 90.1305 175.569 90.094 175.474C90.0211 175.28 89.9417 175.088 89.8623 174.896C89.5511 174.15 89.2012 173.415 88.8793 172.686C88.7063 172.304 88.553 171.913 88.42 171.516L88.3793 171.574C88.314 171.673 88.2559 171.777 88.2054 171.884C88.2054 173.581 86.5142 175.657 86.5142 175.657L84.8123 173.167L83.3229 175.468C83.1082 175.582 82.8936 175.974 82.7262 176.533C82.679 176.684 82.6339 176.847 82.591 177.022C82.561 177.139 82.5331 177.261 82.5073 177.384C82.4923 177.447 82.4794 177.509 82.4665 177.574L82.4279 177.77V177.8C82.4022 177.934 82.3764 178.072 82.3528 178.212C82.3292 178.352 82.3013 178.514 82.2777 178.667C82.2605 178.766 82.2455 178.865 82.2326 178.965C82.2026 179.157 82.1768 179.351 82.1511 179.542C82.136 179.655 82.121 179.758 82.1081 179.877L82.0566 180.308C82.1661 180.661 82.2884 181.011 82.415 181.354C82.4959 181.541 82.5432 181.742 82.5545 181.946C85.1881 182.703 87.9798 182.703 90.6134 181.946C90.6125 181.939 90.6125 181.932 90.6134 181.925C90.5738 181.731 90.5565 181.534 90.5619 181.336C90.6052 180.783 90.6769 180.233 90.7765 179.687C90.8082 179.418 90.8218 179.147 90.8173 178.876V178.779C90.8109 178.697 90.8087 178.62 90.8066 178.542ZM93.0815 174.495L92.3153 171.423L92.1844 170.897L92.1479 170.752L91.9612 170.002C91.9617 169.996 91.9617 169.989 91.9612 169.983C91.9657 169.949 91.9605 169.916 91.9462 169.886C91.9183 169.83 91.8475 169.771 91.6822 169.756C91.6193 169.752 91.5562 169.752 91.4934 169.756C91.3069 169.775 91.1223 169.809 90.9418 169.86C90.8538 169.883 90.7594 169.909 90.6585 169.942L90.4739 170H90.4567C89.9624 170.163 89.5035 170.419 89.1047 170.754C88.8412 170.975 88.6099 171.232 88.4179 171.518L88.3771 171.576C88.3119 171.675 88.2538 171.779 88.2033 171.886C88.2033 173.583 86.5121 175.659 86.5121 175.659L84.8102 173.169L84.7136 173.029L84.6964 173.005L84.4496 172.641L84.2629 172.391L84.2135 172.326L83.3336 171.147L83.0546 170.765V170.752L82.958 170.621L82.7734 170.375L82.1296 170.752L80.52 171.695L79.7774 176.548V176.599L79.7988 176.953L79.9577 179.655V179.808L79.7151 180.78C80.3634 181.131 81.0379 181.431 81.7326 181.677L81.915 181.742C82.1296 181.813 82.3313 181.877 82.5417 181.94C82.5495 181.972 82.5552 182.004 82.5588 182.037C82.5588 182.007 82.5588 181.975 82.5588 181.944C85.1924 182.7 87.9841 182.7 90.6177 181.944L90.6671 181.929C90.7894 181.895 90.9139 181.858 91.0341 181.817L91.2294 181.755C91.759 181.577 92.2778 181.368 92.7832 181.129L92.9613 177.274L93.0901 174.521L93.0815 174.495ZM82.5266 181.94C82.5344 181.972 82.5402 182.004 82.5438 182.037C82.5438 182.007 82.5438 181.975 82.5438 181.944L82.5266 181.94ZM90.8066 178.542C90.8066 178.456 90.8066 178.37 90.7915 178.283C90.7765 178.197 90.7787 178.122 90.7679 178.04C90.7572 177.958 90.7486 177.876 90.7379 177.794C90.7272 177.712 90.7121 177.63 90.6971 177.548C90.6821 177.466 90.6671 177.384 90.6499 177.302C90.6499 177.274 90.6392 177.248 90.6327 177.22C90.6091 177.113 90.5834 177.005 90.5555 176.895C90.5276 176.785 90.5104 176.72 90.4846 176.634C90.4846 176.595 90.4632 176.556 90.4503 176.52C90.4374 176.483 90.4138 176.395 90.3945 176.332L90.3559 176.211C90.3387 176.158 90.3215 176.104 90.3022 176.05C90.27 175.953 90.2357 175.858 90.2014 175.761C90.167 175.664 90.1305 175.569 90.094 175.474C90.0211 175.28 89.9417 175.088 89.8623 174.896C89.5511 174.15 89.2012 173.415 88.8793 172.686C88.7063 172.304 88.553 171.913 88.42 171.516L88.3793 171.574C88.314 171.673 88.2559 171.777 88.2054 171.884C88.2054 173.581 86.5142 175.657 86.5142 175.657L84.8123 173.167L83.3229 175.468C83.1082 175.582 82.8936 175.974 82.7262 176.533C82.679 176.684 82.6339 176.847 82.591 177.022C82.561 177.139 82.5331 177.261 82.5073 177.384C82.4923 177.447 82.4794 177.509 82.4665 177.574L82.4279 177.77V177.8C82.4022 177.934 82.3764 178.072 82.3528 178.212C82.3292 178.352 82.3013 178.514 82.2777 178.667C82.2605 178.766 82.2455 178.865 82.2326 178.965C82.2026 179.157 82.1768 179.351 82.1511 179.542C82.136 179.655 82.121 179.758 82.1081 179.877L82.0566 180.308C82.1661 180.661 82.2884 181.011 82.415 181.354C82.4959 181.541 82.5432 181.742 82.5545 181.946C85.1881 182.703 87.9798 182.703 90.6134 181.946C90.6125 181.939 90.6125 181.932 90.6134 181.925C90.5738 181.731 90.5565 181.534 90.5619 181.336C90.6052 180.783 90.6769 180.233 90.7765 179.687C90.8082 179.418 90.8218 179.147 90.8173 178.876V178.779C90.8109 178.697 90.8087 178.62 90.8066 178.542ZM90.8066 178.542C90.8066 178.456 90.8066 178.37 90.7915 178.283C90.7765 178.197 90.7787 178.122 90.7679 178.04C90.7572 177.958 90.7486 177.876 90.7379 177.794C90.7272 177.712 90.7121 177.63 90.6971 177.548C90.6821 177.466 90.6671 177.384 90.6499 177.302C90.6499 177.274 90.6392 177.248 90.6327 177.22C90.6091 177.113 90.5834 177.005 90.5555 176.895C90.5276 176.785 90.5104 176.72 90.4846 176.634C90.4846 176.595 90.4632 176.556 90.4503 176.52C90.4374 176.483 90.4138 176.395 90.3945 176.332L90.3559 176.211C90.3387 176.158 90.3215 176.104 90.3022 176.05C90.27 175.953 90.2357 175.858 90.2014 175.761C90.167 175.664 90.1305 175.569 90.094 175.474C90.0211 175.28 89.9417 175.088 89.8623 174.896C89.5511 174.15 89.2012 173.415 88.8793 172.686C88.7063 172.304 88.553 171.913 88.42 171.516L88.3793 171.574C88.314 171.673 88.2559 171.777 88.2054 171.884C88.2054 173.581 86.5142 175.657 86.5142 175.657L84.8123 173.167L83.3229 175.468C83.1082 175.582 82.8936 175.974 82.7262 176.533C82.679 176.684 82.6339 176.847 82.591 177.022C82.561 177.139 82.5331 177.261 82.5073 177.384C82.4923 177.447 82.4794 177.509 82.4665 177.574L82.4279 177.77V177.8C82.4022 177.934 82.3764 178.072 82.3528 178.212C82.3292 178.352 82.3013 178.514 82.2777 178.667C82.2605 178.766 82.2455 178.865 82.2326 178.965C82.2026 179.157 82.1768 179.351 82.1511 179.542C82.136 179.655 82.121 179.758 82.1081 179.877L82.0566 180.308C82.1661 180.661 82.2884 181.011 82.415 181.354C82.4959 181.541 82.5432 181.742 82.5545 181.946C85.1881 182.703 87.9798 182.703 90.6134 181.946C90.6125 181.939 90.6125 181.932 90.6134 181.925C90.5738 181.731 90.5565 181.534 90.5619 181.336C90.6052 180.783 90.6769 180.233 90.7765 179.687C90.8082 179.418 90.8218 179.147 90.8173 178.876V178.779C90.8109 178.697 90.8087 178.62 90.8066 178.542ZM90.8066 178.542C90.8066 178.456 90.8066 178.37 90.7915 178.283C90.7765 178.197 90.7787 178.122 90.7679 178.04C90.7572 177.958 90.7486 177.876 90.7379 177.794C90.7272 177.712 90.7121 177.63 90.6971 177.548C90.6821 177.466 90.6671 177.384 90.6499 177.302C90.6499 177.274 90.6392 177.248 90.6327 177.22C90.6091 177.113 90.5834 177.005 90.5555 176.895C90.5276 176.785 90.5104 176.72 90.4846 176.634C90.4846 176.595 90.4632 176.556 90.4503 176.52C90.4374 176.483 90.4138 176.395 90.3945 176.332L90.3559 176.211C90.3387 176.158 90.3215 176.104 90.3022 176.05C90.27 175.953 90.2357 175.858 90.2014 175.761C90.167 175.664 90.1305 175.569 90.094 175.474C90.0211 175.28 89.9417 175.088 89.8623 174.896C89.5511 174.15 89.2012 173.415 88.8793 172.686C88.7063 172.304 88.553 171.913 88.42 171.516L88.3793 171.574C88.314 171.673 88.2559 171.777 88.2054 171.884C88.2054 173.581 86.5142 175.657 86.5142 175.657L84.8123 173.167L83.3229 175.468C83.1082 175.582 82.8936 175.974 82.7262 176.533C82.679 176.684 82.6339 176.847 82.591 177.022C82.561 177.139 82.5331 177.261 82.5073 177.384C82.4923 177.447 82.4794 177.509 82.4665 177.574L82.4279 177.77V177.8C82.4022 177.934 82.3764 178.072 82.3528 178.212C82.3292 178.352 82.3013 178.514 82.2777 178.667C82.2605 178.766 82.2455 178.865 82.2326 178.965C82.2026 179.157 82.1768 179.351 82.1511 179.542C82.136 179.655 82.121 179.758 82.1081 179.877L82.0566 180.308C82.1661 180.661 82.2884 181.011 82.415 181.354C82.4959 181.541 82.5432 181.742 82.5545 181.946C85.1881 182.703 87.9798 182.703 90.6134 181.946C90.6125 181.939 90.6125 181.932 90.6134 181.925C90.5738 181.731 90.5565 181.534 90.5619 181.336C90.6052 180.783 90.6769 180.233 90.7765 179.687C90.8082 179.418 90.8218 179.147 90.8173 178.876V178.779C90.8109 178.697 90.8087 178.62 90.8066 178.542ZM90.8066 178.542C90.8066 178.456 90.8066 178.37 90.7915 178.283C90.7765 178.197 90.7787 178.122 90.7679 178.04C90.7572 177.958 90.7486 177.876 90.7379 177.794C90.7272 177.712 90.7121 177.63 90.6971 177.548C90.6821 177.466 90.6671 177.384 90.6499 177.302C90.6499 177.274 90.6392 177.248 90.6327 177.22C90.6091 177.113 90.5834 177.005 90.5555 176.895C90.5276 176.785 90.5104 176.72 90.4846 176.634C90.4846 176.595 90.4632 176.556 90.4503 176.52C90.4374 176.483 90.4138 176.395 90.3945 176.332L90.3559 176.211C90.3387 176.158 90.3215 176.104 90.3022 176.05C90.27 175.953 90.2357 175.858 90.2014 175.761C90.167 175.664 90.1305 175.569 90.094 175.474C90.0211 175.28 89.9417 175.088 89.8623 174.896C89.5511 174.15 89.2012 173.415 88.8793 172.686C88.7063 172.304 88.553 171.913 88.42 171.516L88.3793 171.574C88.314 171.673 88.2559 171.777 88.2054 171.884C88.2054 173.581 86.5142 175.657 86.5142 175.657L84.8123 173.167L83.3229 175.468C83.1082 175.582 82.8936 175.974 82.7262 176.533C82.679 176.684 82.6339 176.847 82.591 177.022C82.561 177.139 82.5331 177.261 82.5073 177.384C82.4923 177.447 82.4794 177.509 82.4665 177.574L82.4279 177.77V177.8C82.4022 177.934 82.3764 178.072 82.3528 178.212C82.3292 178.352 82.3013 178.514 82.2777 178.667C82.2605 178.766 82.2455 178.865 82.2326 178.965C82.2026 179.157 82.1768 179.351 82.1511 179.542C82.136 179.655 82.121 179.758 82.1081 179.877L82.0566 180.308C82.1661 180.661 82.2884 181.011 82.415 181.354C82.4959 181.541 82.5432 181.742 82.5545 181.946C85.1881 182.703 87.9798 182.703 90.6134 181.946C90.6125 181.939 90.6125 181.932 90.6134 181.925C90.5738 181.731 90.5565 181.534 90.5619 181.336C90.6052 180.783 90.6769 180.233 90.7765 179.687C90.8082 179.418 90.8218 179.147 90.8173 178.876V178.779C90.8109 178.697 90.8087 178.62 90.8066 178.542ZM90.8066 178.542C90.8066 178.456 90.8066 178.37 90.7915 178.283C90.7765 178.197 90.7787 178.122 90.7679 178.04C90.7572 177.958 90.7486 177.876 90.7379 177.794C90.7272 177.712 90.7121 177.63 90.6971 177.548C90.6821 177.466 90.6671 177.384 90.6499 177.302C90.6499 177.274 90.6392 177.248 90.6327 177.22C90.6091 177.113 90.5834 177.005 90.5555 176.895C90.5276 176.785 90.5104 176.72 90.4846 176.634C90.4846 176.595 90.4632 176.556 90.4503 176.52C90.4374 176.483 90.4138 176.395 90.3945 176.332L90.3559 176.211C90.3387 176.158 90.3215 176.104 90.3022 176.05C90.27 175.953 90.2357 175.858 90.2014 175.761C90.167 175.664 90.1305 175.569 90.094 175.474C90.0211 175.28 89.9417 175.088 89.8623 174.896C89.5511 174.15 89.2012 173.415 88.8793 172.686C88.7063 172.304 88.553 171.913 88.42 171.516L88.3793 171.574C88.314 171.673 88.2559 171.777 88.2054 171.884C88.2054 173.581 86.5142 175.657 86.5142 175.657L84.8123 173.167L83.3229 175.468C83.1082 175.582 82.8936 175.974 82.7262 176.533C82.679 176.684 82.6339 176.847 82.591 177.022C82.561 177.139 82.5331 177.261 82.5073 177.384C82.4923 177.447 82.4794 177.509 82.4665 177.574L82.4279 177.77V177.8C82.4022 177.934 82.3764 178.072 82.3528 178.212C82.3292 178.352 82.3013 178.514 82.2777 178.667C82.2605 178.766 82.2455 178.865 82.2326 178.965C82.2026 179.157 82.1768 179.351 82.1511 179.542C82.136 179.655 82.121 179.758 82.1081 179.877L82.0566 180.308C82.1661 180.661 82.2884 181.011 82.415 181.354C82.4959 181.541 82.5432 181.742 82.5545 181.946C85.1881 182.703 87.9798 182.703 90.6134 181.946C90.6125 181.939 90.6125 181.932 90.6134 181.925C90.5738 181.731 90.5565 181.534 90.5619 181.336C90.6052 180.783 90.6769 180.233 90.7765 179.687C90.8082 179.418 90.8218 179.147 90.8173 178.876V178.779C90.8109 178.697 90.8087 178.62 90.8066 178.542ZM90.8066 178.542C90.8066 178.456 90.8066 178.37 90.7915 178.283C90.7765 178.197 90.7787 178.122 90.7679 178.04C90.7572 177.958 90.7486 177.876 90.7379 177.794C90.7272 177.712 90.7121 177.63 90.6971 177.548C90.6821 177.466 90.6671 177.384 90.6499 177.302C90.6499 177.274 90.6392 177.248 90.6327 177.22C90.6091 177.113 90.5834 177.005 90.5555 176.895C90.5276 176.785 90.5104 176.72 90.4846 176.634C90.4846 176.595 90.4632 176.556 90.4503 176.52C90.4374 176.483 90.4138 176.395 90.3945 176.332L90.3559 176.211C90.3387 176.158 90.3215 176.104 90.3022 176.05C90.27 175.953 90.2357 175.858 90.2014 175.761C90.167 175.664 90.1305 175.569 90.094 175.474C90.0211 175.28 89.9417 175.088 89.8623 174.896C89.5511 174.15 89.2012 173.415 88.8793 172.686C88.7063 172.304 88.553 171.913 88.42 171.516L88.3793 171.574C88.314 171.673 88.2559 171.777 88.2054 171.884C88.2054 173.581 86.5142 175.657 86.5142 175.657L84.8123 173.167L83.3229 175.468C83.1082 175.582 82.8936 175.974 82.7262 176.533C82.679 176.684 82.6339 176.847 82.591 177.022C82.561 177.139 82.5331 177.261 82.5073 177.384C82.4923 177.447 82.4794 177.509 82.4665 177.574L82.4279 177.77V177.8C82.4022 177.934 82.3764 178.072 82.3528 178.212C82.3292 178.352 82.3013 178.514 82.2777 178.667C82.2605 178.766 82.2455 178.865 82.2326 178.965C82.2026 179.157 82.1768 179.351 82.1511 179.542C82.136 179.655 82.121 179.758 82.1081 179.877L82.0566 180.308C82.1661 180.661 82.2884 181.011 82.415 181.354C82.4959 181.541 82.5432 181.742 82.5545 181.946C85.1881 182.703 87.9798 182.703 90.6134 181.946C90.6125 181.939 90.6125 181.932 90.6134 181.925C90.5738 181.731 90.5565 181.534 90.5619 181.336C90.6052 180.783 90.6769 180.233 90.7765 179.687C90.8082 179.418 90.8218 179.147 90.8173 178.876V178.779C90.8109 178.697 90.8087 178.62 90.8066 178.542ZM90.8066 178.542C90.8066 178.456 90.8066 178.37 90.7915 178.283C90.7765 178.197 90.7787 178.122 90.7679 178.04C90.7572 177.958 90.7486 177.876 90.7379 177.794C90.7272 177.712 90.7121 177.63 90.6971 177.548C90.6821 177.466 90.6671 177.384 90.6499 177.302C90.6499 177.274 90.6392 177.248 90.6327 177.22C90.6091 177.113 90.5834 177.005 90.5555 176.895C90.5276 176.785 90.5104 176.72 90.4846 176.634C90.4846 176.595 90.4632 176.556 90.4503 176.52C90.4374 176.483 90.4138 176.395 90.3945 176.332L90.3559 176.211C90.3387 176.158 90.3215 176.104 90.3022 176.05C90.27 175.953 90.2357 175.858 90.2014 175.761C90.167 175.664 90.1305 175.569 90.094 175.474C90.0211 175.28 89.9417 175.088 89.8623 174.896C89.5511 174.15 89.2012 173.415 88.8793 172.686C88.7063 172.304 88.553 171.913 88.42 171.516L88.3793 171.574C88.314 171.673 88.2559 171.777 88.2054 171.884C88.2054 173.581 86.5142 175.657 86.5142 175.657L84.8123 173.167L83.3229 175.468C83.1082 175.582 82.8936 175.974 82.7262 176.533C82.679 176.684 82.6339 176.847 82.591 177.022C82.561 177.139 82.5331 177.261 82.5073 177.384C82.4923 177.447 82.4794 177.509 82.4665 177.574L82.4279 177.77V177.8C82.4022 177.934 82.3764 178.072 82.3528 178.212C82.3292 178.352 82.3013 178.514 82.2777 178.667C82.2605 178.766 82.2455 178.865 82.2326 178.965C82.2026 179.157 82.1768 179.351 82.1511 179.542C82.136 179.655 82.121 179.758 82.1081 179.877L82.0566 180.308C82.1661 180.661 82.2884 181.011 82.415 181.354C82.4959 181.541 82.5432 181.742 82.5545 181.946C85.1881 182.703 87.9798 182.703 90.6134 181.946C90.6125 181.939 90.6125 181.932 90.6134 181.925C90.5738 181.731 90.5565 181.534 90.5619 181.336C90.6052 180.783 90.6769 180.233 90.7765 179.687C90.8082 179.418 90.8218 179.147 90.8173 178.876V178.779C90.8109 178.697 90.8087 178.62 90.8066 178.542ZM90.8066 178.542C90.8066 178.456 90.8066 178.37 90.7915 178.283C90.7765 178.197 90.7787 178.122 90.7679 178.04C90.7572 177.958 90.7486 177.876 90.7379 177.794C90.7272 177.712 90.7121 177.63 90.6971 177.548C90.6821 177.466 90.6671 177.384 90.6499 177.302C90.6499 177.274 90.6392 177.248 90.6327 177.22C90.6091 177.113 90.5834 177.005 90.5555 176.895C90.5276 176.785 90.5104 176.72 90.4846 176.634C90.4846 176.595 90.4632 176.556 90.4503 176.52C90.4374 176.483 90.4138 176.395 90.3945 176.332L90.3559 176.211C90.3387 176.158 90.3215 176.104 90.3022 176.05C90.27 175.953 90.2357 175.858 90.2014 175.761C90.167 175.664 90.1305 175.569 90.094 175.474C90.0211 175.28 89.9417 175.088 89.8623 174.896C89.5511 174.15 89.2012 173.415 88.8793 172.686C88.7063 172.304 88.553 171.913 88.42 171.516L88.3793 171.574C88.314 171.673 88.2559 171.777 88.2054 171.884C88.2054 173.581 86.5142 175.657 86.5142 175.657L84.8123 173.167L83.3229 175.468C83.1082 175.582 82.8936 175.974 82.7262 176.533C82.679 176.684 82.6339 176.847 82.591 177.022C82.561 177.139 82.5331 177.261 82.5073 177.384C82.4923 177.447 82.4794 177.509 82.4665 177.574L82.4279 177.77V177.8C82.4022 177.934 82.3764 178.072 82.3528 178.212C82.3292 178.352 82.3013 178.514 82.2777 178.667C82.2605 178.766 82.2455 178.865 82.2326 178.965C82.2026 179.157 82.1768 179.351 82.1511 179.542C82.136 179.655 82.121 179.758 82.1081 179.877L82.0566 180.308C82.1661 180.661 82.2884 181.011 82.415 181.354C82.4959 181.541 82.5432 181.742 82.5545 181.946C85.1881 182.703 87.9798 182.703 90.6134 181.946C90.6125 181.939 90.6125 181.932 90.6134 181.925C90.5738 181.731 90.5565 181.534 90.5619 181.336C90.6052 180.783 90.6769 180.233 90.7765 179.687C90.8082 179.418 90.8218 179.147 90.8173 178.876V178.779C90.8109 178.697 90.8087 178.62 90.8066 178.542Z" fill="#444176"/>
<path opacity="0.1" d="M84.8424 173.023L84.6986 173.003C84.4815 172.974 84.2664 172.93 84.0547 172.874L83.9753 172.852C83.4517 172.703 82.8786 172.436 82.7498 171.966C82.7115 171.815 82.716 171.656 82.7627 171.507C82.8348 171.25 82.9326 171.002 83.0546 170.765V170.752C83.0707 170.719 83.0887 170.687 83.1083 170.655C83.2854 170.308 83.5531 170.015 83.883 169.808L83.6255 169.849L81.445 170.205L78.0648 170.752C78.0648 170.752 77.4638 170.632 76.6461 172.895C76.6461 172.923 76.6268 172.949 76.6182 172.979C76.4208 173.534 76.2126 174.226 75.998 175.09C75.8499 175.69 75.7147 176.278 75.5902 176.85C75.5537 177.022 75.5172 177.192 75.4829 177.361C75.8699 177.819 76.2864 178.251 76.7298 178.654L76.8007 178.721C77.6692 179.511 78.629 180.194 79.6594 180.754L79.7001 180.776C80.3484 181.127 81.0229 181.427 81.7175 181.673L81.9 181.737C81.9386 181.338 81.9815 180.896 82.033 180.444C82.033 180.398 82.033 180.353 82.0502 180.308L82.1017 179.877C82.1146 179.767 82.1296 179.661 82.1446 179.542C82.1704 179.351 82.1961 179.157 82.2262 178.965C82.2391 178.865 82.2541 178.766 82.2713 178.667C82.2949 178.514 82.3206 178.361 82.3464 178.212C82.3721 178.063 82.3957 177.934 82.4215 177.8V177.77L82.4601 177.574C82.473 177.509 82.4859 177.447 82.5009 177.384C82.5267 177.261 82.5546 177.138 82.5846 177.022C82.6275 176.847 82.6726 176.684 82.7198 176.533C82.8915 175.974 83.0911 175.582 83.3164 175.468L84.8059 173.167L84.8681 173.07L84.896 173.027L84.8424 173.023Z" fill="#103F4A"/>
<path opacity="0.1" d="M85.2008 161.544C85.8704 161.43 86.5443 161.184 87.2096 161.328C87.7676 161.445 88.2333 161.818 88.7441 162.076C89.2372 162.326 89.7767 162.469 90.328 162.497C90.5291 162.523 90.7333 162.483 90.9096 162.383C91.1757 162.197 91.2143 161.818 91.1693 161.494C91.0405 160.576 90.4696 159.787 89.8816 159.071C89.6469 158.765 89.3759 158.489 89.0746 158.249C88.3041 157.678 87.2847 157.581 86.3297 157.624C85.2394 157.674 84.132 157.885 83.1855 158.435C82.5417 158.806 81.0651 159.974 81.578 160.819C82.1167 161.703 84.3573 161.688 85.2008 161.544Z" fill="#103F4A"/>
<path opacity="0.5" d="M85.2008 161.328C85.8704 161.214 86.5443 160.968 87.2096 161.113C87.7676 161.229 88.2333 161.602 88.7441 161.861C89.2372 162.11 89.7767 162.253 90.328 162.281C90.5291 162.308 90.7333 162.268 90.9096 162.167C91.1757 161.981 91.2143 161.602 91.1693 161.279C91.0405 160.36 90.4696 159.571 89.8816 158.855C89.6469 158.549 89.3759 158.274 89.0746 158.034C88.3041 157.462 87.2847 157.365 86.3297 157.409C85.2394 157.458 84.132 157.669 83.1855 158.219C82.5417 158.59 81.0651 159.759 81.578 160.604C82.1167 161.488 84.3573 161.473 85.2008 161.328Z" fill="#444176"/>
</g>
<path d="M144.137 150.77H144.169C144.216 152.215 144.42 153.521 144.813 153.883C145.749 154.746 149.629 153.021 149.363 151.977C149.309 151.762 149.219 151.408 149.105 150.962C150.153 150.83 151.047 150.531 151.404 149.914L152.078 152.001L152.125 152.15H152.138H152.176C152.621 156.38 153.627 165.164 154.432 166.341C155.505 167.9 156.739 174.655 156.739 174.655L159.046 188.512C159.046 188.512 159.935 196.489 160.467 197.351C160.622 197.516 160.828 197.623 161.051 197.655C160.74 198.591 160.293 199.684 159.763 200.294C158.69 201.506 157.278 203.932 156.035 203.759C154.793 203.587 154.438 206.185 156.746 206.53C158.023 206.722 160.059 206.489 161.624 206.243C161.624 206.937 162.105 207.735 163.313 207.916C165.62 208.263 170.412 207.224 170.412 207.224C170.412 207.224 174.49 205.499 174.673 204.279C174.801 203.395 174.177 199.846 173.829 197.985C174.473 196.948 173.786 187.998 173.786 187.998L172.544 170.851C172.544 170.851 173.254 161.326 172.544 159.593C172.099 158.515 171.934 153.556 171.872 150.009L172.73 150.065C172.779 150.006 172.824 149.943 172.863 149.878L173.078 149.893C173.078 149.893 174.151 148.681 173.256 146.775C172.597 145.358 172.722 138.964 172.827 135.779L172.953 134.27C173.001 134.224 173.037 134.168 173.059 134.106C174.723 133.88 176.341 133.388 177.851 132.649C178.307 132.458 178.731 132.2 179.109 131.881C179.997 131.019 179.463 125.818 177.688 118.024C175.913 110.23 174.316 110.922 174.316 110.922C174.316 110.922 170.056 110.575 168.103 107.977C166.15 105.379 164.839 105.414 164.839 105.414C164.789 105.073 164.755 104.752 164.732 104.452C164.732 104.34 164.714 104.236 164.708 104.124C165.372 103.504 165.878 102.733 166.184 101.875C166.584 101.66 167.075 101.589 167.457 101.317C167.555 101.246 167.643 101.163 167.721 101.071C168.104 100.716 168.347 100.235 168.406 99.7151C168.467 99.1473 168.44 98.5735 168.326 98.014C168.191 97.1861 167.992 96.3387 167.511 95.6876C167.03 95.0365 166.311 94.6441 165.618 94.2797C163.741 93.2894 161.858 92.3091 159.971 91.3389C159.603 91.1125 159.191 90.9657 158.763 90.9077C158.008 90.8645 157.329 91.3841 156.72 91.8779C156.477 92.0701 156.244 92.2752 156.022 92.4924C155.834 92.6601 155.662 92.8456 155.509 93.0465C154.797 94.0059 154.494 95.8127 154.808 97.0114C154.906 97.3909 155.119 97.5008 155.381 97.4965C154.992 98.2724 154.79 99.129 154.79 99.9975C154.795 100.948 155.037 101.883 155.495 102.715C155.953 103.548 156.612 104.251 157.411 104.76C157.411 104.881 157.411 105 157.422 105.114C157.43 105.556 157.416 105.999 157.379 106.44C157.379 106.44 152.657 109.003 152.127 110.215C151.597 111.427 149.642 112.293 149.642 112.293C149.642 112.293 145.914 114.199 145.914 120.954L143.961 130.48L143.607 148.666C143.607 148.666 143.851 148.45 144.251 148.144C144.238 148.265 144.227 148.39 144.216 148.517C144.163 149.212 144.145 149.909 144.163 150.606L144.137 150.77ZM167.981 197.839C167.908 198.117 167.801 198.485 167.665 198.917C167.605 198.559 167.545 198.205 167.485 197.869C167.64 197.854 167.805 197.845 167.981 197.839Z" fill="url(#paint2_linear)"/>
<path d="M152.303 149.931C152.303 149.931 153.67 164.698 154.696 166.244C155.722 167.79 156.917 174.487 156.917 174.487L159.139 188.223C159.139 188.223 159.997 196.122 160.506 196.981C161.014 197.839 167.358 197.47 167.358 197.47L163.414 151.99L152.303 149.931Z" fill="#5F5D7E"/>
<path opacity="0.05" d="M152.303 149.931C152.303 149.931 153.67 164.698 154.696 166.244C155.722 167.79 156.917 174.487 156.917 174.487L159.139 188.223C159.139 188.223 159.997 196.122 160.506 196.981C161.014 197.839 167.358 197.47 167.358 197.47L163.414 151.99L152.303 149.931Z" fill="#103F4A"/>
<path d="M149.569 142.888L150.015 144.313L152.43 152.012L152.477 152.159H152.49C152.814 152.232 159.656 153.812 161.132 154.297C161.212 154.322 161.29 154.352 161.366 154.386C162.051 154.729 162.905 167.091 162.905 167.091C162.905 167.091 163.418 178.768 163.764 179.627C164.109 180.485 165.48 198.168 166.328 197.655C167.176 197.142 173.335 197.655 173.335 197.655C174.02 196.968 173.335 187.697 173.335 187.697L172.121 170.7C172.121 170.7 172.805 161.257 172.121 159.539C171.436 157.82 171.436 146.318 171.436 146.318L157.445 144.121L156.093 143.905L149.569 142.888Z" fill="#5F5D7E"/>
<path opacity="0.02" d="M150.015 144.315L152.43 152.014L152.488 152.165C152.812 152.238 159.654 153.819 161.13 154.304H161.278L157.456 144.123L157.347 143.83L156.104 143.91L150.015 144.315Z" fill="#103F4A"/>
<path opacity="0.1" d="M165.978 108.548C165.978 108.548 159.654 115.417 155.722 109.749L151.962 112.326L152.646 116.276L150.423 146.152C150.423 146.152 156.235 145.979 160.336 147.353C161.478 147.76 162.713 147.831 163.894 147.557C165.075 147.283 166.153 146.676 167.002 145.807L166.326 119.538L167.865 111.468L165.978 108.548Z" fill="#103F4A"/>
<path d="M165.978 108.033C165.978 108.033 159.654 114.902 155.722 109.234L151.962 111.81L152.646 115.76L150.423 145.636C150.423 145.636 156.235 145.464 160.336 146.837C161.478 147.244 162.713 147.315 163.894 147.041C165.075 146.767 166.153 146.16 167.002 145.291L166.326 119.022L167.865 110.952L165.978 108.033Z" fill="#53526B"/>
<path d="M153.352 138.623V139.705H153.009V138.985H151.754V139.705H151.408V138.625L153.352 138.623Z" fill="#E82127"/>
<path d="M153.046 138.274H151.719C151.632 138.253 151.553 138.208 151.489 138.145C151.426 138.082 151.381 138.003 151.359 137.916H153.404C153.382 138.003 153.337 138.082 153.273 138.145C153.21 138.208 153.13 138.253 153.043 138.274" fill="#E82127"/>
<path d="M165.038 137.929C165.016 138.015 164.971 138.093 164.908 138.156C164.844 138.218 164.766 138.263 164.68 138.284H164.122L164.094 138.295V139.71H163.751V138.295L163.718 138.284H163.16C163.075 138.262 162.997 138.217 162.934 138.155C162.871 138.093 162.825 138.014 162.802 137.929H165.038Z" fill="#E82127"/>
<path d="M152.816 143.578C152.816 143.578 152.816 148.043 151.79 149.931C150.764 151.82 144.783 150.794 144.783 150.794L145.978 144.44L152.816 143.578Z" fill="#D6DBE6"/>
<path d="M145.433 153.883C146.335 154.746 150.071 153.021 149.813 151.995C149.633 151.268 149.002 148.668 148.644 147.193L148.395 146.156C148.395 146.156 146.206 145.468 145.433 146.156C145.152 146.406 144.955 147.392 144.862 148.582C144.703 150.649 144.864 153.336 145.433 153.883Z" fill="#FDC2CC"/>
<path d="M153.664 111.123L159.645 115.758C159.645 115.758 168.532 115.243 166.311 110.95C165.344 109.062 164.76 107 164.594 104.883C164.522 104.102 164.522 103.316 164.594 102.535C164.594 102.535 156.389 94.989 157.415 103.566C157.496 104.224 157.543 104.886 157.557 105.549C157.679 111.987 153.664 111.123 153.664 111.123Z" fill="#FDC2CC"/>
<path opacity="0.1" d="M157.432 103.568C157.513 104.226 157.56 104.888 157.574 105.551C158.495 106.164 159.575 106.49 160.679 106.487C162.21 106.487 163.336 104.991 164.354 103.997C164.24 102.572 164.609 102.537 164.609 102.537C164.609 102.537 156.406 94.9825 157.432 103.568Z" fill="#103F4A"/>
<path d="M160.68 106.144C163.794 106.144 166.32 103.607 166.32 100.478C166.32 97.3489 163.794 94.8121 160.68 94.8121C157.565 94.8121 155.039 97.3489 155.039 100.478C155.039 103.607 157.565 106.144 160.68 106.144Z" fill="#FDC2CC"/>
<path opacity="0.1" d="M164.695 105.886C164.695 105.886 165.635 105.972 167.515 108.546C169.395 111.12 173.496 111.465 173.496 111.465C173.496 111.465 175.035 110.778 176.744 118.505C178.452 126.232 178.965 131.383 178.111 132.241C177.257 133.099 173.838 134.304 172.121 134.304C172.121 134.304 171.608 145.121 172.462 147.01C173.316 148.899 172.29 150.102 172.29 150.102L164.779 149.586C164.779 149.586 162.214 146.324 161.701 140.658C161.188 134.992 159.48 118.85 160.334 116.961C161.188 115.073 164.948 110.265 164.779 109.749C164.609 109.234 164.695 105.886 164.695 105.886Z" fill="#103F4A"/>
<path d="M164.714 105.834C164.714 105.834 165.978 105.799 167.858 108.376C169.739 110.952 173.838 111.295 173.838 111.295C173.838 111.295 175.377 110.607 177.085 118.335C178.793 126.062 179.306 131.213 178.452 132.071C177.598 132.929 174.179 134.132 172.471 134.132C172.471 134.132 171.958 144.949 172.812 146.837C173.666 148.726 172.64 149.929 172.64 149.929L165.129 149.414C165.129 149.414 162.564 146.152 162.051 140.486C161.538 134.82 159.825 118.68 160.68 116.8C161.534 114.919 165.294 110.103 165.124 109.588C164.955 109.072 164.714 105.834 164.714 105.834Z" fill="#D6DBE6"/>
<path opacity="0.1" d="M144.864 148.579C145.682 147.952 147.225 146.975 148.646 147.191L148.397 146.154C148.397 146.154 146.208 145.466 145.435 146.154C145.15 146.404 144.954 147.387 144.864 148.579Z" fill="#103F4A"/>
<path opacity="0.1" d="M157.527 106.916C157.527 106.916 153.168 109.749 152.655 110.952C152.142 112.155 150.262 113.014 150.262 113.014C150.262 113.014 146.674 114.902 146.674 121.599L144.794 131.042L153.34 143.062C153.34 143.062 154.365 131.042 154.878 128.123C155.391 125.204 156.074 119.715 156.074 119.715C156.074 119.715 158.638 116.452 158.295 115.594C157.952 114.736 157.527 106.916 157.527 106.916Z" fill="#103F4A"/>
<path d="M157.527 106.865C157.527 106.865 152.981 109.406 152.47 110.607C151.96 111.808 150.077 112.669 150.077 112.669C150.077 112.669 146.489 114.557 146.489 121.254L144.609 130.697L144.268 148.726C144.268 148.726 147.345 145.807 149.567 147.18C151.788 148.554 153.155 142.715 153.155 142.715C153.155 142.715 154.181 130.695 154.694 127.776C155.207 124.857 155.889 119.367 155.889 119.367C155.889 119.367 158.454 116.105 158.111 115.247C157.767 114.389 157.527 106.865 157.527 106.865Z" fill="#D6DBE6"/>
<path opacity="0.1" d="M155.728 93.5854C156.018 93.2156 156.352 92.8838 156.724 92.5979C157.312 92.1063 157.962 91.5932 158.692 91.6363C159.105 91.6915 159.501 91.8341 159.855 92.0546C161.672 93.0162 163.485 93.9878 165.292 94.9696C165.959 95.3318 166.648 95.7156 167.114 96.3667C167.579 97.0178 167.768 97.8543 167.899 98.6736C168.009 99.2286 168.035 99.7969 167.976 100.36C167.923 100.911 167.657 101.42 167.234 101.776C166.747 102.132 166.079 102.134 165.671 102.6C165.435 102.869 165.332 103.247 165.165 103.574C164.998 103.902 164.708 104.221 164.377 104.163C164.047 104.105 163.847 103.753 163.8 103.398C163.779 103.037 163.8 102.675 163.862 102.32C163.927 101.673 163.845 100.987 163.472 100.506C163.214 100.179 162.845 99.9802 162.596 99.6439C161.999 98.8332 162.272 97.4878 161.617 96.7267C161.427 96.5278 161.188 96.3831 160.924 96.3073C160.66 96.2316 160.381 96.2275 160.115 96.2955C159.585 96.4076 159.1 96.6966 158.613 96.9423C157.955 97.2759 157.265 97.5431 156.555 97.7401C155.958 97.9039 155.267 98.2963 155.063 97.4986C154.752 96.3279 155.041 94.5362 155.728 93.5854Z" fill="#103F4A"/>
<path d="M155.9 93.4151C156.189 93.0453 156.524 92.7135 156.896 92.4276C157.484 91.9361 158.134 91.4229 158.864 91.466C159.277 91.5213 159.673 91.6638 160.027 91.8843C161.843 92.8459 163.351 91.9361 165.463 94.7993C165.914 95.4116 166.82 95.5453 167.285 96.1964C167.751 96.8475 167.94 97.6841 168.071 98.5034C168.18 99.0583 168.207 99.6267 168.148 100.189C168.095 100.741 167.828 101.25 167.406 101.606C166.918 101.962 166.251 101.964 165.843 102.43C165.607 102.699 165.504 103.076 165.337 103.404C165.169 103.732 164.88 104.051 164.549 103.993C164.219 103.934 164.019 103.583 163.972 103.227C163.951 102.867 163.972 102.505 164.034 102.149C164.098 101.502 164.017 100.817 163.643 100.336C163.386 100.008 163.017 99.8099 162.768 99.4736C162.171 98.6629 162.444 97.3175 161.789 96.5565C161.599 96.3575 161.36 96.2128 161.096 96.137C160.832 96.0613 160.553 96.0572 160.287 96.1252C159.757 96.2374 159.272 96.5263 158.784 96.7721C158.126 97.1056 157.437 97.3728 156.726 97.5698C156.13 97.7337 155.439 98.1261 155.235 97.3283C154.921 96.1576 155.213 94.3638 155.9 93.4151Z" fill="#865A61"/>
<path opacity="0.1" d="M171.305 119.622C171.305 119.622 173.584 125.46 171.874 127.864L168.114 127.002C168.114 127.002 171.533 128.032 171.02 125.971C170.507 123.91 171.305 119.622 171.305 119.622Z" fill="#103F4A"/>
<path opacity="0.1" d="M172.55 134.048C172.55 134.048 167.592 134.391 166.225 133.36C168.026 134.741 170.152 135.628 172.395 135.937L172.55 134.048Z" fill="#103F4A"/>
<path opacity="0.1" d="M151.193 123.052C151.193 123.052 148.629 130.952 148.8 132.153C148.972 133.354 149.313 146.577 149.313 146.577L149.826 146.404L149.655 131.98L151.193 123.052Z" fill="#103F4A"/>
<path d="M173.153 132.707L114.563 85.2739C114.222 84.9315 113.817 84.66 113.371 84.475C112.925 84.29 112.448 84.1952 111.966 84.1959H109.476C114.451 77.7911 116.807 69.7211 116.064 61.6315C115.32 53.5419 111.533 46.0417 105.475 40.6603C99.4165 35.279 91.5431 32.4216 83.46 32.6709C75.377 32.9202 67.6929 36.2574 61.9746 42.0019C56.2563 47.7465 52.9344 55.4659 52.6863 63.5861C52.4381 71.7064 55.2824 79.6159 60.6392 85.7021C65.9959 91.7882 73.4617 95.5926 81.5143 96.3395C89.567 97.0865 97.6 94.7197 103.975 89.7218V92.2207C103.975 92.705 104.069 93.1848 104.253 93.6325C104.437 94.0801 104.708 94.4869 105.049 94.8295L163.639 142.262C163.978 142.606 164.382 142.879 164.826 143.065C165.271 143.251 165.748 143.347 166.229 143.347C166.711 143.347 167.188 143.251 167.633 143.065C168.077 142.879 168.481 142.606 168.82 142.262L173.138 137.929C173.827 137.237 174.215 136.299 174.218 135.321C174.221 134.342 173.838 133.402 173.153 132.707ZM84.4152 84.1959C80.5466 84.1959 76.7648 83.0434 73.5481 80.8842C70.3315 78.725 67.8244 75.6561 66.3439 72.0655C64.8635 68.4749 64.4761 64.5239 65.2308 60.7122C65.9856 56.9004 67.8485 53.3991 70.5841 50.651C73.3196 47.9028 76.8049 46.0313 80.5992 45.2731C84.3935 44.5149 88.3264 44.9041 91.9006 46.3914C95.4748 47.8786 98.5297 50.3972 100.679 53.6287C102.828 56.8601 103.975 60.6593 103.975 64.5457C103.977 67.127 103.473 69.6833 102.491 72.0685C101.508 74.4537 100.068 76.621 98.2511 78.4464C96.4344 80.2719 94.2773 81.7196 91.9033 82.7069C89.5292 83.6942 86.9847 84.2016 84.4152 84.2002V84.1959Z" fill="url(#paint3_linear)"/>
<path d="M173.582 132.276L114.992 84.8426C114.651 84.5002 114.246 84.2287 113.8 84.0437C113.355 83.8587 112.877 83.7639 112.395 83.7646H109.905C114.88 77.3598 117.236 69.2899 116.493 61.2002C115.749 53.1106 111.962 45.6104 105.904 40.2291C99.8457 34.8477 91.9724 31.9904 83.8893 32.2397C75.8062 32.4889 68.1222 35.8261 62.4039 41.5707C56.6856 47.3152 53.3637 55.0346 53.1156 63.1549C52.8674 71.2751 55.7117 79.1846 61.0684 85.2708C66.4252 91.3569 73.891 95.1613 81.9436 95.9083C89.9962 96.6552 98.0292 94.2884 104.405 89.2905V91.7894C104.404 92.2738 104.498 92.7535 104.683 93.2012C104.867 93.6488 105.137 94.0556 105.478 94.3982L164.068 141.831C164.407 142.175 164.811 142.447 165.256 142.633C165.7 142.819 166.177 142.915 166.659 142.915C167.14 142.915 167.617 142.819 168.062 142.633C168.506 142.447 168.91 142.175 169.249 141.831L173.567 137.497C174.256 136.806 174.645 135.868 174.647 134.89C174.65 133.911 174.267 132.971 173.582 132.276ZM84.8445 83.7646C80.9758 83.7646 77.1941 82.6121 73.9774 80.453C70.7607 78.2938 68.2537 75.2248 66.7732 71.6342C65.2927 68.0436 64.9054 64.0926 65.6601 60.2809C66.4148 56.4691 68.2778 52.9678 71.0133 50.2197C73.7489 47.4716 77.2342 45.6001 81.0285 44.8419C84.8228 44.0837 88.7557 44.4728 92.3299 45.9601C95.904 47.4473 98.9589 49.966 101.108 53.1974C103.258 56.4289 104.405 60.228 104.405 64.1144C104.407 66.6957 103.902 69.252 102.92 71.6372C101.938 74.0224 100.497 76.1897 98.6803 78.0152C96.8636 79.8406 94.7066 81.2883 92.3325 82.2756C89.9584 83.2629 87.4139 83.7703 84.8445 83.7689V83.7646Z" fill="#46C894"/>
<path d="M169.226 127.951C169.226 127.951 160.673 118.097 161.875 124.859C162.733 129.667 165.976 132.243 167.515 132.759C169.054 133.274 169.226 127.951 169.226 127.951Z" fill="#FDC2CC"/>
<path d="M171.277 118.85C171.277 118.85 171.449 125.204 172.303 126.062C173.157 126.92 171.79 127.951 171.79 127.951L168.371 127.088C168.371 127.088 169.23 132.754 165.637 132.069C165.637 132.069 168.03 134.3 170.423 134.645C172.816 134.99 172.644 134.13 172.644 134.13L176.233 129.837L171.277 118.85Z" fill="#D6DBE6"/>
<path d="M172.224 134.222L175.692 133.457L175.228 131.851L173.082 130.988L170.292 132.282L172.224 134.222Z" fill="#D6DBE6"/>
<path d="M86.9842 72.2578L91.6006 68.681C91.6006 68.681 88.508 69.3472 88.596 64.3818C88.5949 64.3653 88.5949 64.3487 88.596 64.3322C88.596 63.8838 88.6389 63.3922 88.7033 62.851C89.4952 56.2255 83.164 62.0555 83.164 62.0555C83.2185 62.6421 83.2185 63.2325 83.164 63.8191C83.164 63.8342 83.164 63.8514 83.164 63.8665C83.0388 65.4993 82.5908 67.0905 81.8463 68.5473C80.1272 71.859 86.9842 72.2578 86.9842 72.2578Z" fill="#FDC2CC"/>
<path opacity="0.1" d="M89.7542 43.8985C90.5376 44.6639 91.0162 46.0545 92.1944 46.0545C93.0469 46.0564 93.8809 45.8051 94.5917 45.3322C94.5917 44.8838 94.6346 44.3922 94.699 43.851C95.4909 37.2255 89.1597 43.0555 89.1597 43.0555C89.1597 43.0555 89.8379 42.8204 89.7542 43.8985Z" fill="#103F4A"/>
<path d="M92.1944 45.8389C94.5982 45.8389 96.5469 43.8813 96.5469 41.4664C96.5469 39.0516 94.5982 37.094 92.1944 37.094C89.7906 37.094 87.842 39.0516 87.842 41.4664C87.842 43.8813 89.7906 45.8389 92.1944 45.8389Z" fill="#FDC2CC"/>
<path opacity="0.1" d="M96.3687 35.8672C96.1192 35.5503 95.8307 35.2663 95.5103 35.022C95.0081 34.6016 94.4501 34.1596 93.8255 34.1984C93.4721 34.2457 93.1327 34.3677 92.8297 34.5563C91.2737 35.3799 89.9839 34.6016 88.1746 37.0509C87.7883 37.5748 87.0136 37.6977 86.6144 38.2475C86.2152 38.7973 86.0542 39.5195 85.9405 40.2224C85.8465 40.6979 85.824 41.1848 85.8739 41.6669C85.9216 42.1402 86.153 42.5755 86.5178 42.8786C86.9342 43.1826 87.5072 43.1848 87.857 43.5837C88.0329 43.8435 88.177 44.1236 88.2863 44.4181C88.4279 44.6983 88.6769 44.9635 88.9601 44.9226C89.2434 44.8816 89.413 44.5733 89.4538 44.2758C89.4715 43.9678 89.4535 43.6589 89.4001 43.3551C89.3465 42.8097 89.4151 42.2146 89.7349 41.8028C89.9495 41.5203 90.2715 41.3522 90.4839 41.0654C90.9947 40.3733 90.7629 39.2112 91.3231 38.5687C91.4869 38.3997 91.6924 38.2774 91.9186 38.2141C92.1448 38.1509 92.3836 38.149 92.6108 38.2087C93.0619 38.338 93.4947 38.525 93.8985 38.7649C94.4619 39.0506 95.0521 39.2796 95.6605 39.4484C96.1713 39.5885 96.7636 39.9249 96.9375 39.2328C97.21 38.2151 96.9546 36.68 96.3687 35.8672Z" fill="#103F4A"/>
<path d="M96.3687 35.6516C96.1192 35.3347 95.8307 35.0507 95.5103 34.8065C95.0081 34.386 94.4501 33.944 93.8255 33.9829C93.4721 34.0301 93.1327 34.1521 92.8297 34.3408C91.2737 35.1644 89.9839 34.386 88.1746 36.8353C87.7883 37.3592 87.0136 37.4821 86.6144 38.0319C86.2152 38.5817 86.0542 39.304 85.9405 40.0068C85.8465 40.4823 85.824 40.9692 85.8739 41.4514C85.9216 41.9246 86.153 42.3599 86.5178 42.6631C86.9342 42.9671 87.5072 42.9692 87.857 43.3681C88.0329 43.6279 88.177 43.9081 88.2863 44.2025C88.4279 44.4828 88.6769 44.748 88.9601 44.707C89.2434 44.666 89.413 44.3577 89.4538 44.0602C89.4715 43.7523 89.4535 43.4433 89.4001 43.1396C89.3465 42.5941 89.4151 41.999 89.7349 41.5872C89.9495 41.3048 90.2715 41.1366 90.4839 40.8498C90.9947 40.1578 90.7629 38.9956 91.3231 38.3531C91.4869 38.1842 91.6924 38.0618 91.9186 37.9986C92.1448 37.9353 92.3836 37.9334 92.6108 37.9931C93.0619 38.1224 93.4947 38.3094 93.8985 38.5493C94.4619 38.8351 95.0521 39.064 95.6605 39.2328C96.1713 39.373 96.7636 39.7093 96.9375 39.0172C97.21 37.9996 96.9546 36.4645 96.3687 35.6516Z" fill="#865A61"/>
<path opacity="0.1" d="M81.842 74.5584L81.7561 77.8679C83.0034 78.2084 84.2903 78.3802 85.5827 78.3789C85.7974 78.3789 86.0227 78.3789 86.2416 78.3638C87.3878 78.3142 88.524 78.1274 89.6261 77.8075H89.6476C89.8515 77.7471 90.0532 77.6846 90.2528 77.6156H90.2743L90.4567 77.5509C91.1514 77.3052 91.8259 77.0053 92.4741 76.654L92.5149 76.6325C92.5857 76.5937 92.6565 76.5549 92.7295 76.5139L92.3968 72.053L92.9269 68.9936L90.0253 67.0079C89.8624 67.2442 89.6801 67.4663 89.4802 67.672C89.1937 67.9725 88.8584 68.2219 88.4887 68.4093C86.4069 69.4399 84.0375 67.8013 82.8592 66.788L82.591 66.5487C82.2862 66.2705 82.1124 66.0808 82.1124 66.0808L80.6616 68.3317L81.842 74.5584Z" fill="#103F4A"/>
<path d="M81.842 74.7739L81.7561 78.0835C83.0034 78.424 84.2903 78.5958 85.5827 78.5944C85.7974 78.5944 86.0227 78.5945 86.2416 78.5794C87.3878 78.5297 88.524 78.343 89.6261 78.0231H89.6476C89.8515 77.9627 90.0532 77.9002 90.2528 77.8312H90.2743L90.4567 77.7665C91.1514 77.5208 91.8259 77.2209 92.4741 76.8696L92.5149 76.8481C92.5857 76.8092 92.6565 76.7704 92.7295 76.7295L92.3968 72.2686L92.9269 69.2092L90.0253 67.2235C89.8624 67.4598 89.6801 67.6819 89.4802 67.8875C89.1937 68.1881 88.8584 68.4374 88.4887 68.6249C86.4069 69.6555 84.0375 68.0169 82.8592 67.0036L82.591 66.7642C82.2862 66.4861 82.1124 66.2964 82.1124 66.2964L80.6616 68.5473L81.842 74.7739Z" fill="#53526B"/>
<path d="M89.8859 75.0392C89.8859 75.0392 90.0447 76.3091 90.2529 77.827H90.2743L90.4568 77.7623C91.1514 77.5165 91.826 77.2166 92.4742 76.8654L92.5149 76.8438C92.5858 76.805 92.6566 76.7662 92.7295 76.7252C93.681 76.1887 94.5693 75.5465 95.3779 74.8107L95.4488 74.7438C95.8922 74.3405 96.3087 73.9084 96.6957 73.4502L96.7408 73.3963C95.9746 70.725 94.38 69.8841 94.38 69.8841C94.38 69.8841 92.9291 69.22 92.5321 68.2929C92.1351 67.3658 88.6304 65.406 88.6304 65.406V65.4211C88.6304 65.5871 88.5746 67.1071 88.4909 68.6358C88.4372 69.6297 88.3707 70.6279 88.2934 71.2618C88.2767 71.4677 88.2393 71.6714 88.1818 71.8698C87.9092 72.5231 89.8859 75.0392 89.8859 75.0392Z" fill="#555388"/>
</g>
<defs>
<linearGradient id="paint0_linear" x1="130.373" y1="197.319" x2="130.373" y2="34.4711" gradientUnits="userSpaceOnUse">
<stop stop-color="#808080" stop-opacity="0.25"/>
<stop offset="0.54" stop-color="#808080" stop-opacity="0.12"/>
<stop offset="1" stop-color="#808080" stop-opacity="0.1"/>
</linearGradient>
<linearGradient id="paint1_linear" x1="8047.4" y1="13382.7" x2="8047.4" y2="10224.9" gradientUnits="userSpaceOnUse">
<stop stop-color="#808080" stop-opacity="0.25"/>
<stop offset="0.54" stop-color="#808080" stop-opacity="0.12"/>
<stop offset="1" stop-color="#808080" stop-opacity="0.1"/>
</linearGradient>
<linearGradient id="paint2_linear" x1="-37507.8" y1="101718" x2="-37507.8" y2="38142.5" gradientUnits="userSpaceOnUse">
<stop stop-color="#808080" stop-opacity="0.25"/>
<stop offset="0.54" stop-color="#808080" stop-opacity="0.12"/>
<stop offset="1" stop-color="#808080" stop-opacity="0.1"/>
</linearGradient>
<linearGradient id="paint3_linear" x1="58214.1" y1="62921.6" x2="58214.1" y2="6073.04" gradientUnits="userSpaceOnUse">
<stop stop-color="#808080" stop-opacity="0.25"/>
<stop offset="0.54" stop-color="#808080" stop-opacity="0.12"/>
<stop offset="1" stop-color="#808080" stop-opacity="0.1"/>
</linearGradient>
<clipPath id="clip0">
<rect width="239" height="182" fill="white"/>
</clipPath>
</defs>
</svg>
