<svg width="60" height="60" viewBox="0 0 60 60" fill="none" xmlns="http://www.w3.org/2000/svg">
<path d="M30.3245 34.7912C33.1172 34.7912 35.3812 32.5272 35.3812 29.7345C35.3812 26.9417 33.1172 24.6778 30.3245 24.6778C27.5318 24.6778 25.2678 26.9417 25.2678 29.7345C25.2678 32.5272 27.5318 34.7912 30.3245 34.7912Z" fill="#46C894"/>
<path d="M36.6454 17.0926H24.0037C22.3288 17.0975 20.724 17.765 19.5396 18.9494C18.3553 20.1337 17.6878 21.7386 17.6829 23.4135V36.0552C17.6878 37.7301 18.3553 39.3349 19.5396 40.5193C20.724 41.7036 22.3288 42.3711 24.0037 42.376H36.6455C38.3203 42.3711 39.9252 41.7036 41.1095 40.5192C42.2938 39.3349 42.9614 37.73 42.9663 36.0552V23.4135C42.9614 21.7386 42.2938 20.1337 41.1095 18.9494C39.9252 17.7651 38.3203 17.0976 36.6455 17.0926H36.6454ZM30.3245 37.3193C28.8244 37.3193 27.3579 36.8745 26.1105 36.041C24.8632 35.2076 23.891 34.023 23.3169 32.637C22.7428 31.251 22.5926 29.7259 22.8853 28.2545C23.178 26.7832 23.9004 25.4317 24.9612 24.3709C26.022 23.3101 27.3735 22.5877 28.8448 22.295C30.3162 22.0024 31.8413 22.1526 33.2272 22.7267C34.6132 23.3008 35.7978 24.273 36.6313 25.5203C37.4647 26.7677 37.9096 28.2341 37.9096 29.7343C37.9091 31.7458 37.1098 33.6748 35.6874 35.0972C34.265 36.5195 32.3361 37.3188 30.3245 37.3193ZM38.5416 23.4135C38.1666 23.4135 37.8 23.3023 37.4881 23.0939C37.1763 22.8855 36.9333 22.5894 36.7897 22.2429C36.6462 21.8964 36.6087 21.5151 36.6818 21.1473C36.755 20.7794 36.9356 20.4415 37.2008 20.1763C37.466 19.9112 37.8039 19.7306 38.1717 19.6574C38.5396 19.5842 38.9208 19.6218 39.2673 19.7653C39.6138 19.9088 39.91 20.1519 40.1183 20.4637C40.3267 20.7756 40.4379 21.1422 40.4379 21.5172C40.4385 21.7664 40.3899 22.0133 40.2948 22.2436C40.1997 22.474 40.0601 22.6832 39.8839 22.8594C39.7076 23.0356 39.4984 23.1753 39.268 23.2704C39.0377 23.3655 38.7908 23.4141 38.5416 23.4135V23.4135Z" fill="#46C894"/>
<path d="M30 0C24.0666 0 18.2664 1.75947 13.3329 5.05592C8.39944 8.35236 4.55425 13.0377 2.28362 18.5195C0.0129953 24.0013 -0.5811 30.0333 0.576456 35.8527C1.73401 41.6721 4.59123 47.0176 8.7868 51.2132C12.9824 55.4088 18.3279 58.266 24.1473 59.4235C29.9667 60.5811 35.9987 59.987 41.4805 57.7164C46.9623 55.4458 51.6476 51.6006 54.9441 46.6671C58.2405 41.7336 60 35.9334 60 30C60 26.0603 59.224 22.1593 57.7164 18.5195C56.2087 14.8797 53.999 11.5726 51.2132 8.78679C48.4275 6.00104 45.1203 3.79126 41.4805 2.28361C37.8407 0.775974 33.9397 -5.9637e-07 30 0ZM45.4946 36.0552C45.4877 38.4001 44.5532 40.6469 42.8951 42.305C41.2371 43.963 38.9903 44.8976 36.6455 44.9044H24.0037C21.6589 44.8976 19.412 43.963 17.754 42.305C16.0959 40.6469 15.1614 38.4001 15.1545 36.0552V23.4135C15.1614 21.0687 16.0959 18.8219 17.754 17.1638C19.412 15.5057 21.6589 14.5712 24.0037 14.5644H36.6455C38.9903 14.5712 41.2371 15.5057 42.8952 17.1638C44.5532 18.8219 45.4878 21.0687 45.4946 23.4135L45.4946 36.0552Z" fill="#46C894"/>
</svg>
