<svg width="256" height="184" viewBox="0 0 256 184" fill="none" xmlns="http://www.w3.org/2000/svg">
<g clip-path="url(#clip0)">
<g opacity="0.5" filter="url(#filter0_d)">
<path d="M223.485 160.077C221.405 160.257 219.313 160.229 217.238 159.994C194.434 157.467 163.381 158.186 138.067 173.903C103.058 195.636 48.1923 177.031 23.99 166.909C5.49779 159.178 -4.10237 140.243 1.66404 122.469C1.74523 122.218 1.82867 121.968 1.91662 121.717C5.54515 111.154 12.7075 102.888 21.577 98.506C29.3077 94.6869 40.5947 86.712 45.6169 71.3881C47.6916 65.0605 50.5376 59.1081 54.2338 53.9196C64.1317 40.0239 84.852 19.3306 120.488 19.4594C126.736 19.4897 132.937 20.5416 138.847 22.5734C151.866 27.0185 163.624 36.0556 172.591 48.5841C178.312 56.5749 186.886 64.0029 199.161 64.6086C216.196 65.4537 232.454 73.4016 244.65 87.5459C245.001 87.9526 245.349 88.3617 245.696 88.7752C267.411 114.698 252.328 157.551 223.485 160.077Z" fill="#EE5239"/>
</g>
<g opacity="0.7">
<path opacity="0.7" d="M62.5716 157.535C64.2903 157.535 65.6837 156.139 65.6837 154.417C65.6837 152.694 64.2903 151.298 62.5716 151.298C60.8528 151.298 59.4595 152.694 59.4595 154.417C59.4595 156.139 60.8528 157.535 62.5716 157.535Z" fill="url(#paint0_linear)"/>
</g>
<path opacity="0.2" d="M62.5714 157.395C64.2129 157.395 65.5437 156.061 65.5437 154.417C65.5437 152.772 64.2129 151.438 62.5714 151.438C60.9299 151.438 59.5991 152.772 59.5991 154.417C59.5991 156.061 60.9299 157.395 62.5714 157.395Z" fill="black"/>
<path d="M45.8044 94.7411C46.4396 94.7411 46.9546 94.2251 46.9546 93.5886C46.9546 92.9521 46.4396 92.4361 45.8044 92.4361C45.1692 92.4361 44.6543 92.9521 44.6543 93.5886C44.6543 94.2251 45.1692 94.7411 45.8044 94.7411Z" fill="#333333"/>
<path d="M127.892 161.632C128.527 161.632 129.042 161.116 129.042 160.48C129.042 159.843 128.527 159.327 127.892 159.327C127.257 159.327 126.742 159.843 126.742 160.48C126.742 161.116 127.257 161.632 127.892 161.632Z" fill="#333333"/>
<path d="M79.4059 166.999C79.7608 166.999 80.0486 166.711 80.0486 166.355C80.0486 166 79.7608 165.711 79.4059 165.711C79.0509 165.711 78.7632 166 78.7632 166.355C78.7632 166.711 79.0509 166.999 79.4059 166.999Z" fill="#333333"/>
<path d="M221.706 135.814C222.061 135.814 222.349 135.525 222.349 135.17C222.349 134.814 222.061 134.525 221.706 134.525C221.351 134.525 221.063 134.814 221.063 135.17C221.063 135.525 221.351 135.814 221.706 135.814Z" fill="#333333"/>
<path d="M184.947 77.9619C185.302 77.9619 185.59 77.6736 185.59 77.3179C185.59 76.9622 185.302 76.6738 184.947 76.6738C184.592 76.6738 184.304 76.9622 184.304 77.3179C184.304 77.6736 184.592 77.9619 184.947 77.9619Z" fill="#333333"/>
<path d="M237.041 106.21C237.396 106.21 237.683 105.921 237.683 105.566C237.683 105.21 237.396 104.922 237.041 104.922C236.686 104.922 236.398 105.21 236.398 105.566C236.398 105.921 236.686 106.21 237.041 106.21Z" fill="#333333"/>
<path d="M66.1008 57.002C66.736 57.002 67.2509 56.486 67.2509 55.8495C67.2509 55.213 66.736 54.697 66.1008 54.697C65.4656 54.697 64.9507 55.213 64.9507 55.8495C64.9507 56.486 65.4656 57.002 66.1008 57.002Z" fill="#333333"/>
<path d="M34.4903 133.829H33.4664V132.804H33.0492V133.829H32.0254V134.248H33.0492V135.271H33.4664V134.248H34.4903V133.829Z" fill="#333333"/>
<path d="M60.1988 133.378H59.1749V132.352H58.7577V133.378H57.7339V133.796H58.7577V134.819H59.1749V133.796H60.1988V133.378Z" fill="#333333"/>
<path d="M96.958 154.168H95.9342V153.142H95.517V154.168H94.4932V154.586H95.517V155.61H95.9342V154.586H96.958V154.168Z" fill="#333333"/>
<path d="M148.156 29.5383H147.689V29.0705H147.5V29.5383H147.033V29.7281H147.5V30.1959H147.689V29.7281H148.156V29.5383Z" fill="#333333"/>
<path d="M214.684 72.475H214.217V72.0073H214.027V72.475H213.561V72.6649H214.027V73.1326H214.217V72.6649H214.684V72.475Z" fill="#333333"/>
<path d="M175.444 100.497H174.977V100.029H174.788V100.497H174.321V100.687H174.788V101.155H174.977V100.687H175.444V100.497Z" fill="#333333"/>
<path d="M15.7793 118.124H15.3125V117.656H15.1231V118.124H14.6562V118.313H15.1231V118.781H15.3125V118.313H15.7793V118.124Z" fill="#333333"/>
<path d="M34.9483 156.541H34.4814V156.073H34.292V156.541H33.8252V156.731H34.292V157.198H34.4814V156.731H34.9483V156.541Z" fill="#333333"/>
<path d="M95.1607 35.1878H94.6938V34.72H94.5044V35.1878H94.0376V35.3776H94.5044V35.8454H94.6938V35.3776H95.1607V35.1878Z" fill="#333333"/>
<path d="M66.7456 102.757H66.2788V102.289H66.0894V102.757H65.6226V102.947H66.0894V103.414H66.2788V102.947H66.7456V102.757Z" fill="#333333"/>
<path d="M72.8345 83.3222H72.3677V82.8545H72.1782V83.3222H71.7114V83.5121H72.1782V83.9798H72.3677V83.5121H72.8345V83.3222Z" fill="#333333"/>
<g opacity="0.7">
<path opacity="0.7" d="M168.719 128.171C170.154 128.171 171.317 127.005 171.317 125.568C171.317 124.13 170.154 122.964 168.719 122.964C167.284 122.964 166.121 124.13 166.121 125.568C166.121 127.005 167.284 128.171 168.719 128.171Z" fill="url(#paint1_linear)"/>
</g>
<path opacity="0.2" d="M168.719 127.979C170.048 127.979 171.125 126.899 171.125 125.568C171.125 124.236 170.048 123.156 168.719 123.156C167.39 123.156 166.312 124.236 166.312 125.568C166.312 126.899 167.39 127.979 168.719 127.979Z" fill="black"/>
<path opacity="0.2" d="M175.198 145.237C176.684 145.237 177.889 144.03 177.889 142.541C177.889 141.052 176.684 139.845 175.198 139.845C173.712 139.845 172.508 141.052 172.508 142.541C172.508 144.03 173.712 145.237 175.198 145.237Z" fill="black"/>
<g opacity="0.7">
<path opacity="0.7" d="M151.088 69.3836C151.107 63.7198 149.752 58.1362 147.142 53.1128C145.903 50.7536 144.774 49.2892 143.903 48.3875C143.571 48.0355 143.136 47.7969 142.661 47.7053C142.186 47.6137 141.695 47.6737 141.256 47.8768C140.904 48.0016 140.587 48.2066 140.329 48.4757C139.154 49.696 138.092 51.3095 137.172 53.0247C134.427 58.1678 133.003 63.915 133.029 69.7475V73.2457H130.789V32.5664C130.789 24.0424 128.886 15.6335 125.152 8.17608C123.384 4.64171 121.769 2.44515 120.531 1.09603C120.23 0.75269 119.86 0.477594 119.445 0.289129C119.03 0.100665 118.579 0.00317383 118.123 0.00317383C117.668 0.00317383 117.217 0.100665 116.802 0.289129C116.387 0.477594 116.017 0.75269 115.716 1.09603C114.038 2.92423 112.523 5.34225 111.206 7.91168C107.284 15.5318 105.293 24.1825 105.293 32.9551V73.2299H103.358V69.5621C103.382 63.7335 101.959 57.9903 99.2151 52.8507C98.2883 51.1355 97.2261 49.522 96.0579 48.3017C95.7186 47.9405 95.2727 47.6978 94.7857 47.6092C94.2987 47.5205 93.7962 47.5906 93.3518 47.809L93.4329 47.8519C93.1497 47.9782 92.8933 48.1577 92.6775 48.3807C91.8092 49.2847 90.6794 50.7468 89.4413 53.1061C86.8305 58.1294 85.4762 63.713 85.4948 69.3768V130.166H92.4046L91.6424 135.163V150.107H97.2938V135.163L96.5383 130.164H103.349V74.7982H105.284V129.924H110.802L110.011 135.163V150.107H115.662V135.163L114.87 129.918H122.312L121.516 135.163V150.107H127.168V135.163L126.376 129.918H130.783V74.805H133.022V130.254H134.837V130.171H140.841L140.087 135.163V150.107H145.739V135.163L144.983 130.164H151.088V69.3836Z" fill="url(#paint2_linear)"/>
</g>
<path d="M98.4149 132.257H93.0635L94.0197 125.746H97.4588L98.4149 132.257Z" fill="#535461"/>
<g opacity="0.1">
<path opacity="0.1" d="M93.7534 128.331H97.7247L97.4586 126.512H94.0195L93.7534 128.331Z" fill="black"/>
</g>
<path d="M144.273 132.257H138.924L139.878 125.746H143.319L144.273 132.257Z" fill="#535461"/>
<g opacity="0.1">
<path opacity="0.1" d="M139.612 128.331H143.585L143.319 126.512H139.878L139.612 128.331Z" fill="black"/>
</g>
<path d="M115.802 132.257H110.453L111.407 125.746H114.848L115.802 132.257Z" fill="#535461"/>
<g opacity="0.1">
<path opacity="0.1" d="M111.141 128.331H115.114L114.848 126.512H111.407L111.141 128.331Z" fill="black"/>
</g>
<path d="M126.694 132.257H121.345L122.299 125.746H125.738L126.694 132.257Z" fill="#535461"/>
<g opacity="0.1">
<path opacity="0.1" d="M122.033 128.331H126.006L125.738 126.512H122.299L122.033 128.331Z" fill="black"/>
</g>
<path d="M136.63 71.9417H98.4146V73.4739H136.63V71.9417Z" fill="#535461"/>
<path d="M142.537 47.7435C142.335 47.52 142.089 47.3414 141.814 47.2191C141.539 47.0969 141.241 47.0337 140.94 47.0337C140.639 47.0337 140.342 47.0969 140.067 47.2191C139.792 47.3414 139.546 47.52 139.344 47.7435C138.232 48.9322 137.226 50.5027 136.349 52.1728C133.747 57.1983 132.401 62.7818 132.427 68.4435V127.389H149.341V68.195C149.362 62.6899 148.081 57.2581 145.604 52.3445C144.429 50.0485 143.36 48.6113 142.537 47.7435Z" fill="#E0E0E0"/>
<path d="M94.0352 47.7435C94.2371 47.52 94.4835 47.3414 94.7585 47.2191C95.0335 47.0969 95.331 47.0337 95.6318 47.0337C95.9327 47.0337 96.2302 47.0969 96.5052 47.2191C96.7802 47.3414 97.0266 47.52 97.2285 47.7435C98.3425 48.9322 99.3461 50.5027 100.226 52.1728C102.827 57.1987 104.172 62.7819 104.147 68.4435V127.389H87.2337V68.195C87.2125 62.6899 88.493 57.2581 90.9704 52.3445C92.1431 50.0485 93.2121 48.6113 94.0352 47.7435Z" fill="#E0E0E0"/>
<path d="M87.3306 69.4514L91.3447 69.4718V74.4298H87.3306V69.4514Z" fill="#535461"/>
<path d="M100.133 69.4514L104.147 69.4718V74.4298H100.133V69.4514Z" fill="#535461"/>
<path d="M132.427 69.4514L136.439 69.4718V74.4298H132.427V69.4514Z" fill="#535461"/>
<path d="M145.229 69.4514L149.241 69.4718V74.4298H145.229V69.4514Z" fill="#535461"/>
<g opacity="0.1">
<path opacity="0.1" d="M100.226 52.0959C99.346 50.4259 98.3425 48.8553 97.2284 47.6666C96.9139 47.3171 96.4935 47.0807 96.032 46.9938C95.5704 46.9068 95.0931 46.9741 94.6733 47.1853C94.9151 47.3062 95.1335 47.4692 95.3183 47.6666C96.4301 48.8553 97.4359 50.4259 98.3131 52.0959C100.916 57.1214 102.261 62.7049 102.235 68.3667V127.308H104.147V68.369C104.173 62.7066 102.827 57.1225 100.226 52.0959Z" fill="black"/>
</g>
<g opacity="0.1">
<path opacity="0.1" d="M137.878 52.2586C138.755 50.5886 139.761 49.018 140.872 47.8293C141.08 47.6042 141.332 47.4242 141.612 47.3005C141.199 47.1193 140.739 47.0728 140.298 47.1677C139.857 47.2626 139.457 47.494 139.154 47.8293C138.04 49.018 137.034 50.5886 136.157 52.2586C133.556 57.2846 132.21 62.8678 132.235 68.5294V127.479H133.956V68.5339C133.929 62.8706 135.275 57.2855 137.878 52.2586Z" fill="black"/>
</g>
<path d="M113.202 146.81H113.053C112.363 146.809 111.702 146.534 111.214 146.045C110.727 145.556 110.453 144.893 110.453 144.202V132.257H115.802V144.202C115.802 144.893 115.528 145.556 115.04 146.045C114.553 146.534 113.891 146.809 113.202 146.81Z" fill="url(#paint3_linear)"/>
<path d="M95.8398 146.457H95.691C95.0012 146.456 94.3398 146.181 93.8523 145.692C93.3647 145.203 93.0908 144.54 93.0908 143.849V131.904H98.44V143.849C98.44 144.54 98.1661 145.203 97.6786 145.692C97.191 146.181 96.5297 146.456 95.8398 146.457Z" fill="url(#paint4_linear)"/>
<path d="M124.092 146.81H123.941C123.252 146.808 122.592 146.533 122.105 146.044C121.618 145.555 121.345 144.893 121.345 144.202V132.257H126.694V144.202C126.694 144.894 126.42 145.557 125.932 146.046C125.444 146.535 124.782 146.81 124.092 146.81Z" fill="url(#paint5_linear)"/>
<path d="M141.673 146.81H141.531C141.189 146.811 140.85 146.744 140.533 146.613C140.217 146.482 139.93 146.29 139.688 146.048C139.446 145.806 139.253 145.518 139.122 145.201C138.991 144.884 138.924 144.545 138.924 144.202V132.257H144.273V144.202C144.273 144.893 143.999 145.556 143.512 146.045C143.024 146.534 142.363 146.809 141.673 146.81Z" fill="url(#paint6_linear)"/>
<path d="M120.409 1.5254C120.13 1.19225 119.781 0.924407 119.388 0.740648C118.994 0.556889 118.565 0.46167 118.131 0.46167C117.696 0.46167 117.267 0.556889 116.874 0.740648C116.48 0.924407 116.131 1.19225 115.852 1.5254C114.273 3.30615 112.83 5.65863 111.567 8.16253C107.855 15.5838 105.97 24.0085 105.97 32.5506V127.149H130.1V32.171C130.1 23.8706 128.296 15.6742 124.769 8.42015C123.111 4.97842 121.584 2.83836 120.409 1.5254Z" fill="#EEEEEE"/>
<path d="M121.695 12.0336H114.063C112.693 12.0336 111.583 13.1465 111.583 14.5194V15.3307C111.583 16.7036 112.693 17.8165 114.063 17.8165H121.695C123.065 17.8165 124.175 16.7036 124.175 15.3307V14.5194C124.175 13.1465 123.065 12.0336 121.695 12.0336Z" fill="#535461"/>
<g opacity="0.1">
<path opacity="0.1" d="M129.984 35.7845H106.1V36.7132H129.984V35.7845Z" fill="black"/>
</g>
<path d="M171.626 70.3554C171 69.5312 170.216 68.8399 169.321 68.3215C168.293 67.7273 167.142 67.378 165.957 67.3007C164.772 67.2233 163.586 67.42 162.489 67.8755C161.393 68.3311 160.415 69.0332 159.633 69.9277C158.85 70.8221 158.283 71.885 157.976 73.0341C157.668 74.1831 157.629 75.3876 157.86 76.5544C158.092 77.7212 158.588 78.819 159.31 79.763C160.033 80.707 160.962 81.4719 162.026 81.9986C163.091 82.5252 164.262 82.7995 165.449 82.8002C165.614 82.8002 165.778 82.8002 165.938 82.7822C167.334 82.6939 168.679 82.2287 169.832 81.4358C170.984 80.6429 171.901 79.552 172.484 78.279C173.068 77.0059 173.296 75.5983 173.146 74.2055C172.995 72.8128 172.47 71.487 171.628 70.3689L171.626 70.3554Z" fill="url(#paint7_linear)"/>
<path opacity="0.2" d="M172.765 75.0286C172.764 76.8931 172.055 78.6875 170.782 80.0468C169.508 81.4061 167.766 82.2282 165.909 82.346C165.758 82.346 165.602 82.3618 165.447 82.3618C164.323 82.3625 163.215 82.1041 162.208 81.6067C161.2 81.1094 160.32 80.3863 159.636 79.4935C158.952 78.6007 158.482 77.5622 158.263 76.4583C158.044 75.3544 158.081 74.2147 158.372 73.1275C158.662 72.0403 159.199 71.0348 159.94 70.1887C160.68 69.3426 161.606 68.6787 162.643 68.2483C163.681 67.818 164.804 67.6327 165.925 67.7069C167.046 67.7811 168.134 68.1128 169.107 68.6763C169.954 69.1691 170.695 69.8268 171.285 70.6107C172.247 71.8818 172.766 73.4336 172.765 75.0286Z" fill="black"/>
<path opacity="0.1" d="M163.645 70.3756C163.267 70.5388 162.902 70.7315 162.553 70.9519C162.321 71.0791 162.121 71.2586 161.969 71.4762C161.894 71.5858 161.853 71.7151 161.85 71.8481C161.848 71.9811 161.884 72.1119 161.956 72.2242C162.134 72.4682 162.477 72.5044 162.779 72.5225C163.096 72.563 163.419 72.5305 163.722 72.4276C163.926 72.3262 164.112 72.191 164.272 72.0276L164.901 71.4558C165.126 71.257 165.352 70.9835 165.264 70.7033C165.212 70.6032 165.136 70.5177 165.043 70.4546C164.949 70.3915 164.842 70.3527 164.73 70.3417C164.187 70.2358 163.625 70.3349 163.151 70.6197" fill="black"/>
<g opacity="0.1">
<path opacity="0.1" d="M161.017 78.3099C161.23 78.3099 161.403 78.1369 161.403 77.9235C161.403 77.7101 161.23 77.5371 161.017 77.5371C160.804 77.5371 160.632 77.7101 160.632 77.9235C160.632 78.1369 160.804 78.3099 161.017 78.3099Z" fill="black"/>
</g>
<g opacity="0.1">
<path opacity="0.1" d="M168.847 76.893C169.627 76.893 170.259 76.2597 170.259 75.4784C170.259 74.6971 169.627 74.0637 168.847 74.0637C168.068 74.0637 167.436 74.6971 167.436 75.4784C167.436 76.2597 168.068 76.893 168.847 76.893Z" fill="black"/>
</g>
<g opacity="0.1">
<path opacity="0.1" d="M171.299 70.6107C171.295 70.9805 171.185 71.3414 170.982 71.6504C170.779 71.9593 170.492 72.2033 170.154 72.3533C169.817 72.5033 169.443 72.5529 169.079 72.4964C168.714 72.4398 168.373 72.2794 168.097 72.0342C167.82 71.7891 167.62 71.4695 167.52 71.1135C167.419 70.7575 167.423 70.3802 167.531 70.0264C167.639 69.6726 167.845 69.3572 168.127 69.1179C168.408 68.8785 168.752 68.7252 169.118 68.6763C169.967 69.1688 170.708 69.8266 171.299 70.6107Z" fill="black"/>
</g>
<g opacity="0.1">
<path opacity="0.1" d="M171.43 79.25C170.8 80.148 169.977 80.8925 169.021 81.4284C168.066 81.9643 167.002 82.2779 165.909 82.346C165.909 82.2443 165.896 82.1426 165.896 82.0386C165.896 81.3951 166.075 80.7643 166.412 80.2167C166.75 79.669 167.232 79.2259 167.806 78.9368C168.38 78.6477 169.022 78.5239 169.662 78.5792C170.302 78.6345 170.914 78.8667 171.43 79.25Z" fill="black"/>
</g>
<path d="M71.6598 112.219C71.2231 111.64 70.6757 111.155 70.0496 110.791C69.331 110.368 68.5247 110.118 67.6937 110.058C66.8626 109.999 66.0291 110.133 65.2582 110.45C64.4873 110.767 63.7997 111.257 63.2491 111.884C62.6984 112.51 62.2995 113.256 62.0835 114.062C61.8675 114.869 61.8402 115.714 62.0037 116.533C62.1671 117.351 62.517 118.121 63.026 118.782C63.5351 119.443 64.1895 119.977 64.9384 120.343C65.6872 120.709 66.5103 120.897 67.3434 120.892C67.4584 120.892 67.5689 120.892 67.6862 120.881C68.6579 120.815 69.5939 120.488 70.3956 119.934C71.1973 119.38 71.8349 118.619 72.2413 117.732C72.6477 116.846 72.8078 115.865 72.7046 114.895C72.6015 113.924 72.2389 113 71.6553 112.219H71.6598Z" fill="url(#paint8_linear)"/>
<path opacity="0.2" d="M72.4533 115.48C72.453 116.78 71.9583 118.032 71.0697 118.981C70.1812 119.929 68.9656 120.502 67.6701 120.585C67.5641 120.585 67.4446 120.585 67.3476 120.585C66.5645 120.584 65.7921 120.404 65.0898 120.057C64.3876 119.709 63.7745 119.205 63.2979 118.582C62.8213 117.96 62.4939 117.236 62.3412 116.466C62.1885 115.697 62.2145 114.902 62.4171 114.144C62.6198 113.386 62.9937 112.685 63.5099 112.095C64.0261 111.505 64.6709 111.042 65.3943 110.742C66.1176 110.441 66.9003 110.312 67.6817 110.363C68.463 110.414 69.2222 110.645 69.9004 111.037C70.4926 111.382 71.0095 111.843 71.4204 112.393C72.0927 113.281 72.4556 114.365 72.4533 115.48Z" fill="black"/>
<path opacity="0.1" d="M66.0896 112.234C65.8259 112.347 65.5718 112.481 65.3297 112.634C65.1683 112.725 65.0288 112.85 64.9215 113.001C64.8714 113.078 64.8447 113.169 64.8447 113.262C64.8447 113.354 64.8714 113.445 64.9215 113.523C64.9963 113.597 65.0863 113.654 65.1852 113.689C65.284 113.725 65.3895 113.739 65.4943 113.731C65.7159 113.759 65.9411 113.737 66.1528 113.665C66.2962 113.594 66.4266 113.499 66.5384 113.385L66.9759 112.987C67.1293 112.847 67.2961 112.657 67.2285 112.463C67.194 112.392 67.1415 112.331 67.0762 112.286C67.0109 112.242 66.9351 112.216 66.8564 112.21C66.4789 112.136 66.0875 112.205 65.7581 112.404" fill="black"/>
<g opacity="0.1">
<path opacity="0.1" d="M64.2562 117.767C64.4044 117.767 64.5245 117.646 64.5245 117.498C64.5245 117.349 64.4044 117.229 64.2562 117.229C64.1079 117.229 63.9878 117.349 63.9878 117.498C63.9878 117.646 64.1079 117.767 64.2562 117.767Z" fill="black"/>
</g>
<g opacity="0.1">
<path opacity="0.1" d="M69.7204 116.781C70.2646 116.781 70.7059 116.339 70.7059 115.794C70.7059 115.248 70.2646 114.806 69.7204 114.806C69.1761 114.806 68.7349 115.248 68.7349 115.794C68.7349 116.339 69.1761 116.781 69.7204 116.781Z" fill="black"/>
</g>
<g opacity="0.1">
<path opacity="0.1" d="M71.4229 112.397C71.4209 112.658 71.344 112.912 71.2015 113.13C71.059 113.348 70.8569 113.52 70.6193 113.626C70.3818 113.731 70.1189 113.766 69.862 113.726C69.6051 113.686 69.3652 113.573 69.1709 113.4C68.9767 113.227 68.8362 113.002 68.7665 112.751C68.6967 112.5 68.7005 112.234 68.7775 111.985C68.8545 111.736 69.0013 111.515 69.2005 111.348C69.3997 111.18 69.6428 111.074 69.9007 111.041C70.4937 111.386 71.0114 111.848 71.4229 112.397Z" fill="black"/>
</g>
<g opacity="0.1">
<path opacity="0.1" d="M71.5222 118.424C71.083 119.051 70.5087 119.57 69.8419 119.944C69.1752 120.318 68.433 120.537 67.6704 120.585C67.6704 120.515 67.6704 120.442 67.6704 120.359C67.6708 119.91 67.7956 119.47 68.0309 119.088C68.2662 118.705 68.6027 118.396 69.003 118.195C69.4033 117.993 69.8516 117.906 70.298 117.945C70.7443 117.984 71.1713 118.146 71.5312 118.413L71.5222 118.424Z" fill="black"/>
</g>
<path d="M215.344 97.1886C215.573 97.1886 215.759 97.0024 215.759 96.7728C215.759 96.5431 215.573 96.357 215.344 96.357C215.115 96.357 214.929 96.5431 214.929 96.7728C214.929 97.0024 215.115 97.1886 215.344 97.1886Z" fill="#333333"/>
</g>
<defs>
<filter id="filter0_d" x="-4.00439" y="19.4588" width="264.004" height="172.541" filterUnits="userSpaceOnUse" color-interpolation-filters="sRGB">
<feFlood flood-opacity="0" result="BackgroundImageFix"/>
<feColorMatrix in="SourceAlpha" type="matrix" values="0 0 0 0 0 0 0 0 0 0 0 0 0 0 0 0 0 0 127 0"/>
<feOffset dy="4"/>
<feGaussianBlur stdDeviation="2"/>
<feColorMatrix type="matrix" values="0 0 0 0 0 0 0 0 0 0 0 0 0 0 0 0 0 0 0.25 0"/>
<feBlend mode="normal" in2="BackgroundImageFix" result="effect1_dropShadow"/>
<feBlend mode="normal" in="SourceGraphic" in2="effect1_dropShadow" result="shape"/>
</filter>
<linearGradient id="paint0_linear" x1="62.5716" y1="157.535" x2="62.5716" y2="151.3" gradientUnits="userSpaceOnUse">
<stop stop-color="#808080" stop-opacity="0.25"/>
<stop offset="0.54" stop-color="#808080" stop-opacity="0.12"/>
<stop offset="1" stop-color="#808080" stop-opacity="0.1"/>
</linearGradient>
<linearGradient id="paint1_linear" x1="4053.38" y1="3075.95" x2="4053.38" y2="2956.04" gradientUnits="userSpaceOnUse">
<stop stop-color="#808080" stop-opacity="0.25"/>
<stop offset="0.54" stop-color="#808080" stop-opacity="0.12"/>
<stop offset="1" stop-color="#808080" stop-opacity="0.1"/>
</linearGradient>
<linearGradient id="paint2_linear" x1="36616.6" y1="106147" x2="36616.6" y2="6437.96" gradientUnits="userSpaceOnUse">
<stop stop-color="#808080" stop-opacity="0.25"/>
<stop offset="0.54" stop-color="#808080" stop-opacity="0.12"/>
<stop offset="1" stop-color="#808080" stop-opacity="0.1"/>
</linearGradient>
<linearGradient id="paint3_linear" x1="2967.2" y1="9273.8" x2="2967.2" y2="10211" gradientUnits="userSpaceOnUse">
<stop stop-color="#E0E0E0"/>
<stop offset="0.31" stop-color="#FCCC63"/>
<stop offset="0.77" stop-color="#F55F44"/>
</linearGradient>
<linearGradient id="paint4_linear" x1="2949.83" y1="9273.45" x2="2949.83" y2="10210.7" gradientUnits="userSpaceOnUse">
<stop stop-color="#E0E0E0"/>
<stop offset="0.31" stop-color="#FCCC63"/>
<stop offset="0.77" stop-color="#F55F44"/>
</linearGradient>
<linearGradient id="paint5_linear" x1="3236.46" y1="9273.8" x2="3236.46" y2="10211" gradientUnits="userSpaceOnUse">
<stop stop-color="#E0E0E0"/>
<stop offset="0.31" stop-color="#FCCC63"/>
<stop offset="0.77" stop-color="#F55F44"/>
</linearGradient>
<linearGradient id="paint6_linear" x1="3671.01" y1="9273.8" x2="3671.01" y2="10211" gradientUnits="userSpaceOnUse">
<stop stop-color="#E0E0E0"/>
<stop offset="0.31" stop-color="#FCCC63"/>
<stop offset="0.77" stop-color="#F55F44"/>
</linearGradient>
<linearGradient id="paint7_linear" x1="12015.2" y1="6416.9" x2="12015.2" y2="5351.57" gradientUnits="userSpaceOnUse">
<stop stop-color="#808080" stop-opacity="0.25"/>
<stop offset="0.54" stop-color="#808080" stop-opacity="0.12"/>
<stop offset="1" stop-color="#808080" stop-opacity="0.1"/>
</linearGradient>
<linearGradient id="paint8_linear" x1="3649.36" y1="6378.09" x2="3649.36" y2="5858.4" gradientUnits="userSpaceOnUse">
<stop stop-color="#808080" stop-opacity="0.25"/>
<stop offset="0.54" stop-color="#808080" stop-opacity="0.12"/>
<stop offset="1" stop-color="#808080" stop-opacity="0.1"/>
</linearGradient>
<clipPath id="clip0">
<rect width="256" height="184" fill="white"/>
</clipPath>
</defs>
</svg>
