<svg width="60" height="60" viewBox="0 0 60 60" fill="none" xmlns="http://www.w3.org/2000/svg">
<path d="M30 0C24.0666 0 18.2664 1.75947 13.3329 5.05591C8.39944 8.35236 4.55426 13.0377 2.28363 18.5195C0.0130017 24.0013 -0.581102 30.0333 0.576454 35.8527C1.73401 41.6721 4.59125 47.0176 8.78682 51.2132C12.9824 55.4088 18.3279 58.266 24.1473 59.4235C29.9667 60.5811 35.9987 59.987 41.4805 57.7164C46.9623 55.4457 51.6476 51.6006 54.9441 46.6671C58.2405 41.7336 60 35.9334 60 30C60 26.0603 59.224 22.1593 57.7164 18.5195C56.2088 14.8797 53.999 11.5726 51.2132 8.7868C48.4274 6.00104 45.1203 3.79125 41.4805 2.28361C37.8407 0.775968 33.9397 -6.28701e-07 30 0ZM44.8263 22.3913C44.8421 22.7152 44.85 23.047 44.85 23.3789C44.85 33.5001 37.1544 45.17 23.0669 45.17C18.9103 45.1791 14.8412 43.9766 11.3575 41.7094C11.9631 41.7821 12.5726 41.819 13.1826 41.8199C16.6294 41.8261 19.9777 40.671 22.6876 38.541C21.0901 38.5109 19.5419 37.9822 18.2598 37.0287C16.9777 36.0753 16.0257 34.7448 15.5371 33.2236C16.0105 33.319 16.4922 33.3666 16.9751 33.3658C17.6556 33.3657 18.3331 33.2754 18.9899 33.0972C17.2575 32.747 15.6996 31.8081 14.5806 30.44C13.4616 29.0719 12.8504 27.3587 12.8508 25.5912V25.4964C13.9142 26.0941 15.1078 26.4223 16.3272 26.4524C14.7045 25.3706 13.5551 23.711 13.1133 21.8114C12.6714 19.9119 12.9703 17.9153 13.949 16.2284C15.8675 18.596 18.2636 20.5325 20.981 21.9116C23.6983 23.2907 26.6759 24.0815 29.7195 24.2322C29.5854 23.6599 29.5191 23.0739 29.522 22.4861C29.5202 20.9508 29.9806 19.4506 30.8432 18.1806C31.7058 16.9105 32.9306 15.9296 34.3584 15.3653C35.7862 14.801 37.3508 14.6795 38.8486 15.0166C40.3463 15.3538 41.708 16.1339 42.7563 17.2556C44.4707 16.9205 46.1144 16.2924 47.6154 15.3988C47.0445 17.1721 45.8482 18.6773 44.2496 19.6338C45.7656 19.45 47.2459 19.0426 48.6426 18.4249C47.6161 19.9632 46.3238 21.3062 44.8263 22.3913Z" fill="#46C894"/>
</svg>
